<svg xmlns="http://www.w3.org/2000/svg" xmlns:xlink="http://www.w3.org/1999/xlink" width="147.788" height="146.239" viewBox="0 0 147.788 146.239"><defs><linearGradient id="a" x1="0.5" y1="-2.904" x2="0.5" y2="17.868" gradientUnits="objectBoundingBox"><stop offset="0" stop-color="#31a95d"/><stop offset="1" stop-color="#b5d653"/></linearGradient></defs><g transform="translate(0 -0.003)"><path d="M59.613,68.348H64.57v6.863H59.613Zm0,0" transform="translate(-41.144 -47.17)" fill="url(#a)"/><path d="M104.988,68.359h4.957v6.863h-4.957Zm0,0" transform="translate(-72.46 -47.178)" fill="url(#a)"/><path d="M150.367,68.371h4.957v6.862h-4.957Zm0,0" transform="translate(-103.78 -47.186)" fill="url(#a)"/><path d="M195.742,68.383H200.7v6.862h-4.957Zm0,0" transform="translate(-135.097 -47.194)" fill="url(#a)"/><path d="M59.629,109.34h4.957V116.2H59.629Zm0,0" transform="translate(-41.155 -75.462)" fill="url(#a)"/><path d="M105,109.352h4.957v6.863H105Zm0,0" transform="translate(-72.471 -75.47)" fill="url(#a)"/><path d="M150.383,109.363h4.957v6.863h-4.957Zm0,0" transform="translate(-103.791 -75.477)" fill="url(#a)"/><path d="M195.758,109.375h4.957v6.862h-4.957Zm0,0" transform="translate(-135.108 -75.486)" fill="url(#a)"/><path d="M59.645,149.7H64.6v6.862H59.645Zm0,0" transform="translate(-41.165 -103.319)" fill="url(#a)"/><path d="M105.02,149.715h4.957v6.862H105.02Zm0,0" transform="translate(-72.482 -103.328)" fill="url(#a)"/><path d="M150.4,149.727h4.957v6.862H150.4Zm0,0" transform="translate(-103.801 -103.336)" fill="url(#a)"/><path d="M195.773,149.734h4.957V156.6h-4.957Zm0,0" transform="translate(-135.118 -103.341)" fill="url(#a)"/><path d="M59.66,190.7h4.957v6.863H59.66Zm0,0" transform="translate(-41.176 -131.611)" fill="url(#a)"/><path d="M105.035,190.707h4.957v6.862h-4.957Zm0,0" transform="translate(-72.493 -131.619)" fill="url(#a)"/><path d="M150.414,190.719h4.957v6.862h-4.957Zm0,0" transform="translate(-103.812 -131.628)" fill="url(#a)"/><path d="M195.789,190.73h4.957v6.862h-4.957Zm0,0" transform="translate(-135.129 -131.635)" fill="url(#a)"/><path d="M59.676,231.688h4.957v6.863H59.676Zm0,0" transform="translate(-41.187 -159.904)" fill="url(#a)"/><path d="M105.055,231.7h4.957v6.863h-4.957Zm0,0" transform="translate(-72.507 -159.911)" fill="url(#a)"/><path d="M150.43,231.711h4.957v6.862H150.43Zm0,0" transform="translate(-103.823 -159.919)" fill="url(#a)"/><path d="M195.8,231.723h4.957v6.862H195.8Zm0,0" transform="translate(-135.14 -159.928)" fill="url(#a)"/><path d="M59.613,275.348H64.57v6.863H59.613Zm0,0" transform="translate(-41.144 -190.037)" fill="url(#a)"/><path d="M104.988,275.359h4.957v6.863h-4.957Zm0,0" transform="translate(-72.46 -190.044)" fill="url(#a)"/><path d="M150.367,275.371h4.957v6.862h-4.957Zm0,0" transform="translate(-103.78 -190.053)" fill="url(#a)"/><path d="M195.742,275.383H200.7v6.862h-4.957Zm0,0" transform="translate(-135.097 -190.061)" fill="url(#a)"/><path d="M59.629,316.34h4.957V323.2H59.629Zm0,0" transform="translate(-41.155 -218.328)" fill="url(#a)"/><path d="M105,316.352h4.957v6.863H105Zm0,0" transform="translate(-72.471 -218.337)" fill="url(#a)"/><path d="M150.383,316.363h4.957v6.863h-4.957Zm0,0" transform="translate(-103.791 -218.344)" fill="url(#a)"/><path d="M195.758,316.375h4.957v6.862h-4.957Zm0,0" transform="translate(-135.108 -218.353)" fill="url(#a)"/><path d="M59.645,356.7H64.6v6.862H59.645Zm0,0" transform="translate(-41.165 -246.186)" fill="url(#a)"/><path d="M105.02,356.715h4.957v6.862H105.02Zm0,0" transform="translate(-72.482 -246.194)" fill="url(#a)"/><path d="M150.4,356.727h4.957v6.862H150.4Zm0,0" transform="translate(-103.801 -246.203)" fill="url(#a)"/><path d="M195.773,356.734h4.957V363.6h-4.957Zm0,0" transform="translate(-135.118 -246.207)" fill="url(#a)"/><path d="M267.66,190.7h4.957v6.863H267.66Zm0,0" transform="translate(-184.733 -131.611)" fill="url(#a)"/><path d="M313.035,190.707h4.957v6.862h-4.957Zm0,0" transform="translate(-216.05 -131.619)" fill="url(#a)"/><path d="M358.414,190.719h4.957v6.862h-4.957Zm0,0" transform="translate(-247.369 -131.628)" fill="url(#a)"/><path d="M403.789,190.73h4.957v6.862h-4.957Zm0,0" transform="translate(-278.686 -131.635)" fill="url(#a)"/><path d="M267.676,231.688h4.957v6.863h-4.957Zm0,0" transform="translate(-184.744 -159.904)" fill="url(#a)"/><path d="M313.055,231.7h4.957v6.863h-4.957Zm0,0" transform="translate(-216.064 -159.911)" fill="url(#a)"/><path d="M358.43,231.711h4.957v6.862H358.43Zm0,0" transform="translate(-247.38 -159.919)" fill="url(#a)"/><path d="M403.8,231.723h4.957v6.862H403.8Zm0,0" transform="translate(-278.697 -159.928)" fill="url(#a)"/><path d="M267.613,275.348h4.957v6.863h-4.957Zm0,0" transform="translate(-184.701 -190.037)" fill="url(#a)"/><path d="M312.988,275.359h4.957v6.863h-4.957Zm0,0" transform="translate(-216.017 -190.044)" fill="url(#a)"/><path d="M358.367,275.371h4.957v6.862h-4.957Zm0,0" transform="translate(-247.337 -190.053)" fill="url(#a)"/><path d="M403.742,275.383H408.7v6.862h-4.957Zm0,0" transform="translate(-278.654 -190.061)" fill="url(#a)"/><path d="M267.629,316.34h4.957V323.2h-4.957Zm0,0" transform="translate(-184.712 -218.328)" fill="url(#a)"/><path d="M313,316.352h4.957v6.863H313Zm0,0" transform="translate(-216.028 -218.337)" fill="url(#a)"/><path d="M358.383,316.363h4.957v6.863h-4.957Zm0,0" transform="translate(-247.348 -218.344)" fill="url(#a)"/><path d="M403.758,316.375h4.957v6.862h-4.957Zm0,0" transform="translate(-278.665 -218.353)" fill="url(#a)"/><path d="M267.645,356.7H272.6v6.862h-4.957Zm0,0" transform="translate(-184.723 -246.186)" fill="url(#a)"/><path d="M313.02,356.715h4.957v6.862H313.02Zm0,0" transform="translate(-216.039 -246.194)" fill="url(#a)"/><path d="M358.4,356.727h4.957v6.862H358.4Zm0,0" transform="translate(-247.358 -246.203)" fill="url(#a)"/><path d="M403.773,356.734h4.957V363.6h-4.957Zm0,0" transform="translate(-278.675 -246.207)" fill="url(#a)"/><path d="M145.461,130.75h-4.492V42.99a2.284,2.284,0,0,0-2.324-2.4H76.526V2.362A2.25,2.25,0,0,0,74.2,0H9.759A2.516,2.516,0,0,0,7.126,2.362V130.75H2.633A2.549,2.549,0,0,0,0,133.148v10.736a2.515,2.515,0,0,0,2.633,2.356H145.461a2.248,2.248,0,0,0,2.324-2.356V133.148a2.284,2.284,0,0,0-2.324-2.4Zm-9.45-85.2v85.2H76.526v-85.2ZM12.083,4.962H71.569V130.75H12.083ZM142.828,141.284H4.957v-5.577H142.828Zm0,0" transform="translate(0 0)" fill="url(#a)"/></g></svg>