<svg xmlns="http://www.w3.org/2000/svg" xmlns:xlink="http://www.w3.org/1999/xlink" width="179" height="179" viewBox="0 0 179 179"><defs><linearGradient id="a" x1="0.5" y1="1" x2="0.5" gradientUnits="objectBoundingBox"><stop offset="0" stop-color="#31a95d"/><stop offset="1" stop-color="#b5d653"/></linearGradient></defs><path d="M41.419,30.723a20.187,20.187,0,0,0-18.2,35.263A31.809,31.809,0,0,0,1,96.274v20.21a11.56,11.56,0,0,0,11.548,11.548h2.887v40.419a11.5,11.5,0,0,0,20.21,7.558,11.5,11.5,0,0,0,20.21-7.558V97.039a14.509,14.509,0,0,1,.468-3.652H180V1H41.419ZM21.21,50.081A14.435,14.435,0,1,1,35.645,64.516,14.452,14.452,0,0,1,21.21,50.081ZM38.431,92.293l-2.786,2.786-2.786-2.786,1.833-22H36.6Zm11.649,4.746v71.412a5.774,5.774,0,0,1-11.548,0V116.484H32.758v51.968a5.774,5.774,0,0,1-11.548,0V90.5H15.435v31.758H12.548a5.78,5.78,0,0,1-5.774-5.774V96.274a26,26,0,0,1,22.1-25.66L26.88,94.481l8.765,8.762,8.762-8.762L42.389,70.29h8.56a20.18,20.18,0,0,0,10.593-3L93.272,47.765a3.866,3.866,0,0,1,5.89,3.291v1.126A3.86,3.86,0,0,1,97.4,55.428L59.311,80.072a20.131,20.131,0,0,0-9.23,16.967ZM81.839,47.194A28.907,28.907,0,0,1,107.823,18.47V48.389l21.145,21.145a28.819,28.819,0,0,1-39.091-2.365l10.656-6.894a9.6,9.6,0,0,0,4.4-8.093V51.056a9.639,9.639,0,0,0-14.69-8.208L81.873,48c-.006-.268-.035-.537-.035-.805ZM133.05,65.452,117.679,50.081h21.754A28.724,28.724,0,0,1,133.05,65.452ZM113.6,44.306V18.47a28.918,28.918,0,0,1,25.837,25.837ZM174.226,6.774V87.613H59.377a14.474,14.474,0,0,1,3.069-2.7l22.54-14.586a34.595,34.595,0,1,0-8.921-23.137A34.738,34.738,0,0,0,76.35,51.4L58.517,62.374a14.4,14.4,0,0,1-7.564,2.142H49.763a20.157,20.157,0,0,0-2.57-31V6.774ZM159.718,135.986a20.21,20.21,0,1,0-22.952,0,31.9,31.9,0,0,0-17.395,16.425,31.887,31.887,0,0,0-17.395-16.425,20.21,20.21,0,1,0-22.952,0,31.783,31.783,0,0,0-20.282,29.578V180H180V165.564A31.783,31.783,0,0,0,159.718,135.986Zm-25.912-16.615a14.435,14.435,0,1,1,14.435,14.435A14.452,14.452,0,0,1,133.806,119.371Zm-57.742,0A14.435,14.435,0,1,1,90.5,133.806,14.452,14.452,0,0,1,76.064,119.371Zm40.419,54.855h-8.661v-23.1h-5.774v23.1h-23.1v-23.1H73.177v23.1H64.516v-8.661a25.984,25.984,0,0,1,51.968,0Zm57.742,0h-8.661v-23.1H159.79v23.1h-23.1v-23.1h-5.774v23.1h-8.661v-8.661a25.984,25.984,0,1,1,51.968,0ZM159.79,64.516H145.355v8.661a8.672,8.672,0,0,0,8.661,8.661h5.774a8.661,8.661,0,1,0,0-17.323Zm0,11.548h-5.774a2.89,2.89,0,0,1-2.887-2.887V70.29h8.661a2.887,2.887,0,1,1,0,5.774ZM61.629,29.871H76.064V21.21A8.672,8.672,0,0,0,67.4,12.548H61.629a8.661,8.661,0,1,0,0,17.323Zm0-11.548H67.4A2.89,2.89,0,0,1,70.29,21.21V24.1H61.629a2.887,2.887,0,1,1,0-5.774Zm106.823,0H151.129V12.548h17.323Zm0,11.548H151.129V24.1h17.323Zm0,11.548H151.129V35.645h17.323Zm0,11.548H151.129V47.194h17.323Z" transform="translate(-1 -1)" fill="url(#a)"/></svg>