<svg xmlns="http://www.w3.org/2000/svg" xmlns:xlink="http://www.w3.org/1999/xlink" width="137.545" height="137.545" viewBox="0 0 137.545 137.545"><defs><linearGradient id="a" x1="0.5" y1="1.022" x2="0.5" y2="-0.485" gradientUnits="objectBoundingBox"><stop offset="0" stop-color="#b5d653"/><stop offset="1" stop-color="#31a95d"/></linearGradient></defs><g transform="translate(0)"><path d="M125.853,80H110.288l-4.224,37.917-5.2,3.576V105.446l-9.2,6.32-2.5-22.6H73.587l-4.2,37.917L59.6,133.812v17.193q-.66-2.294-1.415-4.553l-9.628-28.9a52.637,52.637,0,0,1-2.712-16.679V84.585H18.339v16.288a52.652,52.652,0,0,1-2.705,16.673l-9.628,28.9A116.708,116.708,0,0,0,.24,176.281H0v18.339H137.545V96.276l-9.2,6.32Zm-11.462,4.585h7.359l2.327,20.955-13.007,8.94Zm-36.679,9.17h7.336l2.327,20.955-13.008,8.94ZM22.924,89.17H41.263v6.877H22.924ZM10.35,147.9,19.978,119a57.232,57.232,0,0,0,2.946-18.124v-.241H41.263v.241A57.234,57.234,0,0,0,44.205,119l9.628,28.9a111.952,111.952,0,0,1,5.523,28.382H4.832A111.948,111.948,0,0,1,10.351,147.9ZM59.6,190.036H4.585V183.42c0-.852.032-1.7.05-2.553H59.552c.018.851.05,1.7.05,2.553Zm36.679,0H64.188V136.224l32.094-22.067Zm36.679-85.049v85.049H100.866V127.054Zm0,0" transform="translate(0 -57.076)" fill="url(#a)"/><path d="M276.585,36.632a6.878,6.878,0,0,1,6.877-6.877c5.742,0,9.17-4.285,9.17-11.462V16h-4.585v2.292c0,6.877-3.45,6.877-4.585,6.877A11.476,11.476,0,0,0,272,36.632v2.292h4.585Zm0,0" transform="translate(-194.058 -11.415)" fill="url(#a)"/><path d="M83.462,11.462c5.731,0,9.17-4.285,9.17-11.462H88.047c0,6.877-3.439,6.877-4.585,6.877A11.476,11.476,0,0,0,72,18.339h4.585A6.878,6.878,0,0,1,83.462,11.462Zm0,0" transform="translate(-51.368)" fill="url(#a)"/><path d="M128,28.632v2.292h4.585V28.632a6.878,6.878,0,0,1,6.877-6.877c5.731,0,9.17-4.285,9.17-11.462V8h-4.585v2.292c0,6.877-3.439,6.877-4.585,6.877A11.476,11.476,0,0,0,128,28.632Zm0,0" transform="translate(-91.321 -5.708)" fill="url(#a)"/><path d="M411.462,11.462A11.476,11.476,0,0,0,422.924,0h-4.585a6.878,6.878,0,0,1-6.877,6.877A11.476,11.476,0,0,0,400,18.339h4.585A6.878,6.878,0,0,1,411.462,11.462Zm0,0" transform="translate(-285.379)" fill="url(#a)"/><path d="M248,354.339h18.339V336H248Zm4.585-13.755h9.17v9.17h-9.17Zm0,0" transform="translate(-176.935 -239.718)" fill="url(#a)"/><path d="M376,354.339h18.339V336H376Zm4.585-13.755h9.17v9.17h-9.17Zm0,0" transform="translate(-268.256 -239.718)" fill="url(#a)"/></g></svg>