<svg xmlns="http://www.w3.org/2000/svg" xmlns:xlink="http://www.w3.org/1999/xlink" width="182.663" height="127.864" viewBox="0 0 182.663 127.864"><defs><linearGradient id="a" x1="0.528" y1="1.123" x2="0.472" y2="-0.117" gradientUnits="objectBoundingBox"><stop offset="0" stop-color="#31a95d"/><stop offset="1" stop-color="#b5d653"/></linearGradient></defs><path d="M36.533,0V12.178H24.355V24.355H12.178V36.533H0v79.154H112.642V109.6H6.089V42.621H140.041v3.044h6.089V36.533H18.266V30.444H152.219V45.666h6.089V24.355H30.444V18.266H164.4v27.4h6.089V12.178H42.621V6.089H176.574V51.754h6.089V0Zm0,0" fill="url(#a)"/><path d="M152,175.222A15.222,15.222,0,1,0,167.222,160,15.223,15.223,0,0,0,152,175.222Zm24.355,0a9.133,9.133,0,1,1-9.133-9.133A9.134,9.134,0,0,1,176.355,175.222Zm0,0" transform="translate(-94.157 -99.112)" fill="url(#a)"/><path d="M248,192h12.178v6.089H248Zm0,0" transform="translate(-153.624 -118.935)" fill="url(#a)"/><path d="M104,192h12.177v6.089H104Zm0,0" transform="translate(-64.423 -118.935)" fill="url(#a)"/><path d="M38.089,164.837V145.962a15.263,15.263,0,0,0,11.873-11.873h85.547V128H44.178v3.044a9.134,9.134,0,0,1-9.133,9.133H32v30.444h3.044a9.134,9.134,0,0,1,9.133,9.133V182.8h88.287V176.71h-82.5a15.263,15.263,0,0,0-11.873-11.873Zm0,0" transform="translate(-19.823 -79.29)" fill="url(#a)"/><path d="M337.488,128C321.354,128,304,131.811,304,140.177v12.178a6.471,6.471,0,0,0,2.019,4.526A6.541,6.541,0,0,0,304,161.488v12.178a6.471,6.471,0,0,0,2.019,4.526A6.541,6.541,0,0,0,304,182.8v12.178c0,8.366,17.354,12.178,33.488,12.178s33.488-3.811,33.488-12.178V182.8a6.541,6.541,0,0,0-2.019-4.607,6.47,6.47,0,0,0,2.019-4.526V161.488a6.541,6.541,0,0,0-2.019-4.607,6.471,6.471,0,0,0,2.019-4.526V140.177C370.976,131.811,353.623,128,337.488,128Zm0,6.089c17.657,0,26.79,4.363,27.4,6.089-.241.563-2.393,2.664-9.815,4.314a72.066,72.066,0,0,1-11.678,1.6,96.457,96.457,0,0,1-11.8,0,71.877,71.877,0,0,1-11.7-1.61c-7.572-1.684-9.646-3.84-9.795-4.262V140.2c.476-1.686,9.59-6.115,27.39-6.115ZM358.8,155.667v-5.851a33.685,33.685,0,0,0,6.089-2.21v4.712c-.219.774-2.262,2.117-6.089,3.349Zm-48.71-3.349v-4.712a33.573,33.573,0,0,0,6.089,2.21v5.851C312.351,154.435,310.307,153.092,310.089,152.318Zm12.177-1.165q2.894.493,6.089.788v6.089c-2.243-.219-4.262-.517-6.089-.855Zm12.178,1.112c1.017.03,5.072.03,6.089,0v6.13c-.987.031-5.1.031-6.089,0Zm12.177-.324q3.2-.3,6.089-.788v6.013c-1.827.337-3.846.636-6.089.855ZM358.8,176.978v-5.851a33.685,33.685,0,0,0,6.089-2.21v4.712c-.219.774-2.262,2.117-6.089,3.349Zm-6.089,1.5c-1.827.337-3.846.636-6.089.855v-6.089q3.2-.3,6.089-.788Zm-12.177,1.217c-.987.031-5.1.031-6.089,0v-6.118c1.017.03,5.072.03,6.089,0Zm-12.178-.375c-2.243-.219-4.262-.517-6.089-.855v-6q2.894.493,6.089.788Zm-12.177-2.353c-3.826-1.232-5.87-2.576-6.089-3.349v-4.7a33.572,33.572,0,0,0,6.089,2.21Zm-6.089,17.962v-4.7a33.572,33.572,0,0,0,6.089,2.21v5.851c-3.826-1.232-5.87-2.575-6.089-3.349Zm18.266,5.7c-2.243-.219-4.262-.517-6.089-.855v-6q2.894.493,6.089.788Zm6.089.375v-6.118c1.017.03,5.072.03,6.089,0v6.13c-.987.031-5.1.031-6.089,0Zm18.266-1.217c-1.827.337-3.846.636-6.089.855v-6.089q3.2-.3,6.089-.788Zm6.089-1.5v-5.851a33.685,33.685,0,0,0,6.089-2.21v4.712C364.669,195.714,362.625,197.056,358.8,198.288Zm6.089-15.527c-.134.494-2.2,2.661-9.827,4.36a71.9,71.9,0,0,1-11.678,1.6,96.456,96.456,0,0,1-11.8,0,71.712,71.712,0,0,1-11.7-1.61c-7.571-1.684-9.645-3.84-9.793-4.262v-.015a3.422,3.422,0,0,1,1.258-1.219,71.1,71.1,0,0,0,26.145,4.226,71.081,71.081,0,0,0,26.142-4.213,4.377,4.377,0,0,1,1.258,1.119Zm0-21.311c-.134.494-2.2,2.661-9.827,4.36a71.9,71.9,0,0,1-11.678,1.6,96.45,96.45,0,0,1-11.8,0,71.712,71.712,0,0,1-11.7-1.61c-7.571-1.684-9.645-3.84-9.793-4.262v-.015a3.422,3.422,0,0,1,1.258-1.219,71.1,71.1,0,0,0,26.145,4.226,71.081,71.081,0,0,0,26.142-4.213,4.377,4.377,0,0,1,1.258,1.119Zm0,0" transform="translate(-188.314 -79.29)" fill="url(#a)"/></svg>