<svg xmlns="http://www.w3.org/2000/svg" xmlns:xlink="http://www.w3.org/1999/xlink" width="158" height="155.289" viewBox="0 0 158 155.289"><defs><linearGradient id="a" x1="0.5" y1="1.56" x2="0.5" y2="-2.141" gradientUnits="objectBoundingBox"><stop offset="0" stop-color="#b5d653"/><stop offset="1" stop-color="#31a95d"/></linearGradient></defs><g transform="translate(0 -4.016)"><path d="M136.873,273.392a3.376,3.376,0,0,0-3.376-3.376H73.407a3.376,3.376,0,0,0-3.376,3.376v39.835a3.376,3.376,0,0,0,3.376,3.376H133.5a3.376,3.376,0,0,0,3.376-3.376Zm-60.09,3.376h53.338v33.083H76.783Z" transform="translate(-46.389 -176.203)" fill="url(#a)"/><path d="M157.982,55.49c0-.028,0-.056-.008-.084a3.334,3.334,0,0,0-.068-.35c-.005-.02-.008-.039-.014-.059a3.351,3.351,0,0,0-.336-.793l-.005-.011-14.537-24.61a10.165,10.165,0,0,0-8.721-4.973H121.2V7.386a3.477,3.477,0,0,0-3.5-3.37H40.3a3.477,3.477,0,0,0-3.5,3.37V24.608H26.383a10.132,10.132,0,0,0-8.3,4.327L.608,53.964c-.045.064-.087.129-.127.2l-.031.051c-.034.06-.068.121-.1.183-.011.022-.021.043-.031.065-.03.063-.059.126-.085.191,0,.01-.007.02-.011.03a3.3,3.3,0,0,0-.119.37c-.01.038-.021.076-.029.115s-.02.1-.029.15-.018.11-.025.165-.011.082-.015.124c-.008.1,0,.191,0,.287,0,0,.01.009.01.013V70.083A10.207,10.207,0,0,0,10.117,80.31h1.034v75.624a3.286,3.286,0,0,0,3.2,3.369H143.4a3.446,3.446,0,0,0,3.462-3.37V80.31h1.034A10.207,10.207,0,0,0,158,70.083V55.9a3.475,3.475,0,0,0-.018-.415ZM43.559,10.768h70.893V39.8H43.559ZM23.614,32.85a3.423,3.423,0,0,1,2.768-1.49H36.807V43.17a3.487,3.487,0,0,0,3.5,3.382h77.4a3.487,3.487,0,0,0,3.5-3.382V31.36h13.091a3.434,3.434,0,0,1,2.907,1.705l11.526,19.562H9.842Zm104,119.7H102.974V100.227h24.644Zm12.491,0h-5.739V96.882a3.376,3.376,0,0,0-3.344-3.407H99.717a3.506,3.506,0,0,0-3.5,3.407v55.67H17.9V80.31H140.108Zm7.785-78.995H10.117a3.448,3.448,0,0,1-3.355-3.475V59.38H151.248v10.7a3.448,3.448,0,0,1-3.355,3.475Z" transform="translate(0 0)" fill="url(#a)"/></g></svg>