<svg xmlns="http://www.w3.org/2000/svg" xmlns:xlink="http://www.w3.org/1999/xlink" width="160.212" height="160.212" viewBox="0 0 160.212 160.212"><defs><linearGradient id="a" x1="0.536" y1="6.337" x2="0.487" y2="-1.575" gradientUnits="objectBoundingBox"><stop offset="0" stop-color="#31a95d"/><stop offset="0.35" stop-color="#b5d653"/><stop offset="0.7" stop-color="#b5d653"/><stop offset="1" stop-color="#31a95d"/></linearGradient></defs><g transform="translate(0.001)"><path d="M218.681,88a10.681,10.681,0,1,0,10.681,10.681A10.681,10.681,0,0,0,218.681,88Zm0,16.021a5.34,5.34,0,1,1,5.34-5.34A5.341,5.341,0,0,1,218.681,104.021Zm0,0" transform="translate(-138.575 -58.628)" fill="url(#a)"/><path d="M149.531,66.755V58.744h8.011a2.67,2.67,0,0,0,2.67-2.67V40.053a2.67,2.67,0,0,0-2.136-2.614l-37.917-7.848V24.032h13.351a2.67,2.67,0,0,0,1.819-4.627l-3.381-3.136,3.514-3.764a2.67,2.67,0,0,0-1.952-4.494H117.488a2.67,2.67,0,0,0-2.67,2.67v17.8L82.776,21.858V16.021H96.127a2.67,2.67,0,0,0,1.819-4.627L94.565,8.258l3.514-3.764A2.67,2.67,0,0,0,96.127,0H80.105a2.67,2.67,0,0,0-2.67,2.67V21.858L29.372,31.8V24.032H42.723A2.67,2.67,0,0,0,44.541,19.4l-3.381-3.136L44.674,12.5a2.67,2.67,0,0,0-1.952-4.494H26.7a2.67,2.67,0,0,0-2.67,2.67V32.906l-21.9,4.539A2.671,2.671,0,0,0,0,40.053V56.074a2.67,2.67,0,0,0,2.67,2.67H10.68v8.011a2.67,2.67,0,0,0,2.67,2.67v48.064a2.67,2.67,0,0,0-2.67,2.67v8.011H8.01a2.67,2.67,0,0,0-2.67,2.67v8.011H2.67A2.67,2.67,0,0,0,0,141.521v16.021a2.67,2.67,0,0,0,2.67,2.67H157.541a2.67,2.67,0,0,0,2.67-2.67V141.521a2.67,2.67,0,0,0-2.67-2.67h-2.67V130.84a2.67,2.67,0,0,0-2.67-2.67h-2.67v-8.011a2.67,2.67,0,0,0-2.67-2.67V69.425a2.67,2.67,0,0,0,2.67-2.67Zm-29.372-53.4h7.21l-1.149,1.231a2.671,2.671,0,0,0,.133,3.781l.356.329h-6.55Zm-90.787,0h7.21l-1.149,1.231a2.671,2.671,0,0,0,.133,3.781l.356.329h-6.55ZM144.19,64.085H128.169v-5.34H144.19Zm-18.691,53.4a2.67,2.67,0,0,0-2.67,2.67v8.011H109.478V69.425a2.67,2.67,0,0,0,2.67-2.67V58.744h10.681v8.011a2.67,2.67,0,0,0,2.67,2.67ZM61.086,138.85l2.136-5.34H96.99l2.136,5.34Zm40.175,5.34,4.273,10.681H54.678l4.273-10.681Zm-66.549-26.7V69.425a2.67,2.67,0,0,0,2.67-2.67V58.744H48.063v8.011a2.67,2.67,0,0,0,2.67,2.67v58.744H37.382v-8.011A2.67,2.67,0,0,0,34.712,117.489Zm72.1-53.4H90.786v-5.34h16.021Zm-18.691,5.34v58.744H72.095V69.425a2.67,2.67,0,0,0,2.67-2.67V58.744H85.446v8.011A2.67,2.67,0,0,0,88.116,69.425Zm-18.691-5.34H53.4v-5.34H69.425Zm-13.351,5.34H66.755v58.744H56.074Zm37.383,58.744V69.425h10.681v58.744ZM82.776,5.34h7.21L88.837,6.571a2.671,2.671,0,0,0,.133,3.781l.356.329h-6.55ZM5.34,42.227,80.106,26.758l74.766,15.468V53.4H5.34Zm26.7,16.518v5.34H16.021v-5.34ZM18.691,69.425H29.372v48.064H18.691Zm-2.67,53.4H32.042v5.34H16.021ZM10.68,133.51H57.47l-2.136,5.34H10.681ZM5.34,144.191H53.2l-4.271,10.681H5.34Zm149.531,10.681H111.285l-4.271-10.681h47.858ZM104.877,138.85l-2.136-5.34h46.79v5.34Zm23.293-10.681v-5.34H144.19v5.34Zm13.351-10.681H130.839V69.425H141.52Zm0,0" fill="url(#a)"/></g></svg>