<?xml version="1.0" standalone="no"?>
<svg
  width="600"
  height="600"
  viewBox="0 0 600 600"
  xmlns="http://www.w3.org/2000/svg"
>
  <g transform="translate(300,300)">
    <path d="M54.7,-76.8C91.4,-61.6,155.8,-81,194.5,-67.8C233.2,-54.6,246.3,-8.7,245,38.8C243.7,86.2,228,135.1,185.4,131C142.8,126.8,73.2,69.7,33.9,52.4C-5.4,35.2,-14.6,57.9,-30.4,69C-46.3,80.1,-68.9,79.7,-76.6,67.9C-84.4,56.2,-77.3,33.1,-100.4,2.4C-123.6,-28.3,-176.9,-66.7,-190.7,-108.2C-204.6,-149.7,-179.1,-194.3,-140.7,-208.8C-102.4,-223.3,-51.2,-207.6,-21.1,-174.8C9,-142,18,-92,54.7,-76.8Z" fill="#4caf50" />
  </g>
</svg>
  