<svg xmlns="http://www.w3.org/2000/svg" width="762.293" height="666.854"><defs><linearGradient id="a" x1=".448" y1=".797" x2=".549" y2="-.125" gradientUnits="objectBoundingBox"><stop offset="0" stop-color="#ebf8c7"/><stop offset="1" stop-color="#cde191"/></linearGradient><linearGradient id="b" x1=".5" x2=".5" y2="1" gradientUnits="objectBoundingBox"><stop offset="0" stop-color="#88c756"/><stop offset="1" stop-color="#019961"/></linearGradient><style>.b{fill:#feced5}.c{fill:url(#b)}.d{fill:#a0616a}.g{fill:#3f3d56}.i{fill:#d0cde1}.k{fill:#019961}</style></defs><path d="M1114.809 2755.065c-39.634-82.513-123.967-127.046-202.2-165.977a21.076 21.076 0 00-19.207-.294c-139.162-55.169-317.527-110.329-442.63 5.063-51.967 47.934-84.066 127.324-78.873 198.1 2.537 34.562 15.959 65.8 43.075 88.02 26.176 21.45 60.342 31.468 85.222 54.408 28.237 26.034 37.842 66 51.687 100.409 13.194 32.794 30.687 63.015 54.787 89.069 46.338 50.1 113.65 78.989 181.888 65.882 66.8-12.828 113.64-60.524 129.246-125.609 4.147-17.3 6.872-36.574 17.843-51.12 11.045-14.649 28.538-19.624 45.715-23.418 33.182-7.332 66.474-10.466 94.665-31.327 63.816-47.216 71.273-135.557 38.782-203.206z" transform="translate(-371.353 -2526.047)" fill="url(#a)"/><g transform="translate(47.8 27.062)"><circle class="b" cx="58.359" cy="58.359" transform="translate(287.594 35.608)" r="58.359"/><path class="b" d="M302.394 123.147s11 82.887-5.92 92.191 100.648 10.147 100.648 10.147-26.219-71.89-14.377-93.88z"/><path class="c" d="M482.968 225.907l-9.777 44.522-20.674 94.194-.619 5.158-7.135 59.719-4.746 39.673-3.182 26.649c-19.348 9.944-33.371 16.809-33.371 16.809s-1.206-6.047-3.151-13.785c-13.579 4.071-38.7 10.825-60 12.174 7.754 8.642 11.317 16.761 6.484 22.753-14.587 18.063-74.806-19.777-95.868-33.887a57.013 57.013 0 00-.556 10.206l-16.118-12.4 1.6-28.522 2.69-48.259 3.381-60.521a63.547 63.547 0 01-2.674-7.96c-4.936-17.555-10.928-52.608-15.523-82a2851.027 2851.027 0 01-7.063-47.9l-.119-.841 89.226-39.427c6.341 14.706 35.951 19.126 35.951 19.126 24.531-1.69 43.76-14.626 43.76-14.626z"/><path class="d" d="M410.234 495.719s-3.778 1.294-9.92 3.127c-13.579 4.071-38.7 10.825-60 12.174-18.332 1.175-33.824-1.651-36.657-13.61-1.214-5.143.508-9.372 4.262-12.849 11.206-10.388 40.474-14.11 63.687-15.388a425.464 425.464 0 0117.666-.587c8.571-.111 14.19.064 14.19.064l.135.524z"/><path d="M297.403 38.765l-10.915-4.368s22.815-25.118 54.559-22.934l-8.928-9.829s21.823-8.737 41.663 14.2c10.429 12.056 22.5 26.227 30.018 42.191h11.688l-4.877 10.739 17.07 10.739-17.521-1.929a60.008 60.008 0 01.476 17.813 23.047 23.047 0 01-8.439 15.077s-13.532-28.011-13.532-32.379v10.921s-10.912-9.829-10.912-16.382l-5.952 7.645-2.976-12.013-36.7 12.013 5.952-9.829-22.818 3.271 8.928-12.013s-25.791 14.2-26.783 26.211-8.541 23.4-8.541 23.4-20.227-56.163 8.54-72.544z" fill="#2f2e41"/><path class="c" d="M546.407 430.586c-5.944 6.444-20.674 16.15-38.53 26.657a989.644 989.644 0 01-20.927 11.928c-17.213 9.547-35.236 19.007-50.109 26.65-19.348 9.944-33.371 16.809-33.371 16.809s-1.206-6.047-3.151-13.785c-2.6-10.357-6.523-23.745-10.611-29.673-.143-.206-.286-.4-.429-.587-1.19-1.563-2.389-2.476-3.571-2.476l59.061-36.609 25.523-15.825-18.388-43.895-23.067-55.061 13.92-44.291 13.991-44.522h26.221s8.682 18.951 19.785 45.379a1672.28 1672.28 0 015.119 12.325c22.84 55.551 51.314 133.128 38.534 146.976z"/><path class="d" d="M346.8 533.772c-14.587 18.063-74.806-19.777-95.868-33.887-4.587-3.071-7.317-5.016-7.317-5.016l19.269-25.7 6.1-8.135s5.46 2.9 13.531 7.611c.294.175.587.349.889.524 6.96 4.087 15.7 9.428 24.515 15.388 12.166 8.23 24.467 17.618 32.4 26.459 7.751 8.646 11.314 16.765 6.481 22.756z"/><path class="c" d="M282.518 468.649a37.92 37.92 0 00-6.428.524c-18.245 3.135-23.626 19.65-25.157 30.713a57.01 57.01 0 00-.556 10.206l-16.118-12.4-5.873-4.516c-14.134-4.928-26.729-13.682-37.649-24.007a189.263 189.263 0 01-25.356-30.07 265.178 265.178 0 01-19.622-33.646 24.748 24.748 0 01-.341-20.991l19.959-44.482 29.182-65.012q.321-2.321.706-4.539c5.785-33.173 21.285-47.9 21.285-47.9h11.841l7.92 47.9 9.841 59.513-6.9 22.491-15.936 51.942 15.229 16.539z"/><path d="M295.919 329.989l10.123 11.809c3.761-.717 7.688-1.56 11.733-2.506l-2.907-9.3 7.109 8.294c42.853-10.54 95.969-31.031 95.969-31.031s-57.344 4.2-100.16-5.149c-18.944-4.139-38.435 5.252-46.209 23.017-4.519 10.325-3.809 19.271 12.217 19.271a105.842 105.842 0 0016.152-1.519z" fill="#b5d653"/><path class="g" d="M526.68 524.087v4.817a10.585 10.585 0 01-.722 3.865 10.85 10.85 0 01-.77 1.587 10.664 10.664 0 01-9.166 5.206H161.635a10.664 10.664 0 01-9.166-5.206 10.859 10.859 0 01-.77-1.587 10.588 10.588 0 01-.722-3.865v-4.817a10.655 10.655 0 0110.658-10.658h20.428v-2.242a.444.444 0 01.444-.445h10.658a.444.444 0 01.444.445v2.246h6.658v-2.246a.444.444 0 01.444-.445h10.658a.444.444 0 01.444.445v2.246h6.666v-2.246a.444.444 0 01.444-.445h10.658a.444.444 0 01.444.445v2.246h6.658v-2.246a.444.444 0 01.444-.445h10.663a.444.444 0 01.444.445v2.246h6.658v-2.246a.444.444 0 01.444-.445h10.658a.444.444 0 01.444.445v2.246h6.666v-2.246a.444.444 0 01.444-.445h10.658a.444.444 0 01.444.445v2.246h6.658v-2.246a.444.444 0 01.444-.445h83.488a.444.444 0 01.444.445v2.246h6.666v-2.246a.444.444 0 01.444-.445h10.658a.449.449 0 01.444.445v2.246h6.658v-2.246a.444.444 0 01.444-.445h10.658a.444.444 0 01.444.445v2.246h6.658v-2.246a.444.444 0 01.444-.445h10.658a.444.444 0 01.444.445v2.246h6.666v-2.246a.444.444 0 01.444-.445h10.658a.442.442 0 01.437.445v2.246h6.666v-2.246a.444.444 0 01.444-.445h10.658a.444.444 0 01.444.445v2.246h6.658v-2.246a.444.444 0 01.444-.445h10.658a.444.444 0 01.444.445v2.246h31.086a10.655 10.655 0 0110.669 10.654z"/><path class="g" d="M48.014 532.772h581.717v1.587H48.014zM498.145 321.219H366.054v-2.723h-59.9v2.723H173.523a8.935 8.935 0 00-8.935 8.935v180.873a8.935 8.935 0 008.935 8.935h324.622a8.935 8.935 0 008.935-8.935V330.154a8.935 8.935 0 00-8.935-8.935z"/><circle cx="19.84" cy="19.84" transform="translate(316.254 364.526)" fill="none" stroke="#d0cde1" stroke-miterlimit="10" stroke-width="2" r="19.84"/><circle class="i" cx="19.84" cy="19.84" transform="translate(309.905 371.669)" r="19.84"/><path class="i" d="M63.843 524.754h22.221v22.221H63.843z"/><path class="g" d="M72.575 507.295v26.983h26.983v-26.983zm25.808 25.808H73.739V508.47h24.642z"/><path class="i" d="M578.103 524.754h22.221v22.221h-22.221z"/><path class="g" d="M586.836 507.295v26.983h26.983v-26.983zm25.808 25.808H588V508.47h24.642z"/><circle cx="62.965" cy="62.965" transform="translate(12.094 56.69)" fill="#fff" r="62.965"/><path class="g" d="M97.002 44.832a68.056 68.056 0 00-17.172 0 66.956 66.956 0 00-55.243 46.594 66.047 66.047 0 00-2.9 17.192 68.688 68.688 0 00-.048 2.452 66.849 66.849 0 0066.782 66.782 69.48 69.48 0 004.245-.134 66.049 66.049 0 009.788-1.355 66.789 66.789 0 00-5.448-131.531zm12.316 127.662h-.01a64.209 64.209 0 01-16.648 3.31c-1.4.1-2.824.143-4.245.143a64.953 64.953 0 01-64.874-64.874c0-.82.019-1.641.048-2.452a64.874 64.874 0 1185.729 63.873z"/><path class="g" d="M87.462 50.011h1.908v13.356h-1.908zM44.569 68.569l1.35-1.35 9.443 9.445-1.349 1.35zM27.359 112.023v-1.908h13.356v1.908zM45.917 154.917l-1.35-1.35 9.445-9.443 1.35 1.349zM122.82 78.012l-1.35-1.35 9.445-9.443 1.35 1.349zM136.118 112.023v-1.908h13.356v1.908zM121.473 145.473l1.35-1.35 9.443 9.445-1.349 1.35zM87.462 158.77h1.908v13.356h-1.908zM91.279 107.253a4.77 4.77 0 00-5.724 0 4.91 4.91 0 00-1.364 1.6 4.771 4.771 0 107.088-1.6zm-2.862 6.678a2.87 2.87 0 01-2.862-2.862 2.913 2.913 0 01.506-1.622 2.859 2.859 0 112.356 4.484zM79.83 28.069h17.172v17.172H79.83z"/><ellipse class="g" cx="22.897" cy="8.109" rx="22.897" ry="8.109" transform="translate(65.52 14.713)"/><path class="g" d="M85.554 74.816h5.724v32.437h-5.724zM0 174.944h179.356v1.908H0z"/><path class="k" d="M119.513 475.972c.741 25.356-14.075 34.648-32.668 35.191q-.648.019-1.29.023-1.293.01-2.562-.043c-16.815-.7-30.126-9.624-30.814-33.2-.713-24.4 29.577-56.111 31.85-58.456l.131-.134s34.612 31.264 35.353 56.619z"/><path class="g" d="M85.506 507.32l11.811-17.566-11.787 19.453.025 1.976q-1.293.01-2.562-.043l.586-25.405-.016-.2.022-.038.056-2.4-12.934-18.773 12.918 16.983.046.507.442-19.195-11.171-19.465 11.2 16.1-.117-39.766v-.134.13l.742 31.341 10.182-12.731-10.148 15.431.222 17.169 9.369-16.756-9.335 19.28.124 9.547 13.625-23.341-13.581 26.667z"/><path class="k" d="M633.773 475.972c.741 25.356-14.075 34.648-32.668 35.191q-.648.019-1.29.023-1.293.01-2.562-.043c-16.815-.7-30.126-9.624-30.814-33.2-.713-24.4 29.577-56.111 31.85-58.456l.131-.134s34.612 31.264 35.353 56.619z"/><path class="g" d="M599.766 507.32l11.811-17.566-11.787 19.453.025 1.976q-1.293.01-2.562-.043l.586-25.405-.016-.2.022-.038.056-2.4-12.934-18.773 12.918 16.983.046.507.442-19.195-11.171-19.465 11.2 16.1-.117-39.766v-.134.13l.742 31.341 10.182-12.731-10.148 15.431.222 17.169 9.369-16.756-9.335 19.28.124 9.547 13.625-23.341-13.581 26.667z"/></g></svg>