<svg xmlns="http://www.w3.org/2000/svg" xmlns:xlink="http://www.w3.org/1999/xlink" width="762.293" height="666.854" viewBox="0 0 762.293 666.854"><defs><style>.a{fill:url(#a);}.b{fill:#feced5;}.c{fill:url(#b);}.d{fill:#a0616a;}.e{fill:#2f2e41;}.f{fill:#b5d653;}.g{fill:#3f3d56;}.h{fill:none;stroke:#d0cde1;stroke-miterlimit:10;stroke-width:2px;}.i{fill:#d0cde1;}.j{fill:#fff;}.k{fill:#019961;}</style><linearGradient id="a" x1="0.448" y1="0.797" x2="0.549" y2="-0.125" gradientUnits="objectBoundingBox"><stop offset="0" stop-color="#ebf8c7"/><stop offset="1" stop-color="#cde191"/></linearGradient><linearGradient id="b" x1="0.5" x2="0.5" y2="1" gradientUnits="objectBoundingBox"><stop offset="0" stop-color="#88c756"/><stop offset="1" stop-color="#019961"/></linearGradient></defs><g transform="translate(157.293 -6565)"><path class="a" d="M1114.809,2755.065c-39.634-82.513-123.967-127.046-202.2-165.977a21.076,21.076,0,0,0-19.207-.294c-139.162-55.169-317.527-110.329-442.63,5.063-51.967,47.934-84.066,127.324-78.873,198.1,2.537,34.562,15.959,65.8,43.075,88.02,26.176,21.45,60.342,31.468,85.222,54.408,28.237,26.034,37.842,66,51.687,100.409,13.194,32.794,30.687,63.015,54.787,89.069,46.338,50.1,113.65,78.989,181.888,65.882,66.8-12.828,113.64-60.524,129.246-125.609,4.147-17.3,6.872-36.574,17.843-51.12,11.045-14.649,28.538-19.624,45.715-23.418,33.182-7.332,66.474-10.466,94.665-31.327C1139.843,2911.055,1147.3,2822.714,1114.809,2755.065Z" transform="translate(-528.646 4038.953)"/><g transform="translate(-109.493 6592.062)"><ellipse class="b" cx="58.359" cy="58.359" rx="58.359" ry="58.359" transform="translate(287.594 35.608)"/><path class="b" d="M579.749,260.562s11,82.887-5.92,92.191S674.477,362.9,674.477,362.9,648.258,291.01,660.1,269.02Z" transform="translate(-277.355 -137.415)"/><path class="c" d="M739.97,378.694l-9.777,44.522-20.674,94.194-.619,5.158-7.135,59.719-4.746,39.673-3.182,26.649c-19.348,9.944-33.371,16.809-33.371,16.809s-1.206-6.047-3.151-13.785c-13.579,4.071-38.7,10.825-60,12.174,7.754,8.642,11.317,16.761,6.484,22.753-14.587,18.063-74.806-19.777-95.868-33.887a57.013,57.013,0,0,0-.556,10.206l-16.118-12.4,1.6-28.522,2.69-48.259,3.381-60.521a63.547,63.547,0,0,1-2.674-7.96c-4.936-17.555-10.928-52.608-15.523-82-3.7-23.658-6.476-43.649-7.063-47.9-.079-.556-.119-.841-.119-.841l89.226-39.427c6.341,14.706,35.951,19.126,35.951,19.126,24.531-1.69,43.76-14.626,43.76-14.626Z" transform="translate(-257.002 -152.787)"/><path class="d" d="M689.791,722.959s-3.778,1.294-9.92,3.127c-13.579,4.071-38.7,10.825-60,12.174-18.332,1.175-33.824-1.651-36.657-13.61-1.214-5.143.508-9.372,4.262-12.849,11.206-10.388,40.474-14.11,63.687-15.388,6.555-.357,12.618-.524,17.666-.587,8.571-.111,14.19.064,14.19.064l.135.524Z" transform="translate(-279.557 -227.24)"/><path class="e" d="M571.415,144.154,560.5,139.786s22.815-25.118,54.559-22.934l-8.928-9.829s21.823-8.737,41.663,14.2c10.429,12.056,22.5,26.227,30.018,42.191H689.5l-4.877,10.739,17.07,10.739-17.521-1.929a60.008,60.008,0,0,1,.476,17.813,23.047,23.047,0,0,1-8.439,15.077h0s-13.532-28.011-13.532-32.379v10.921s-10.912-9.829-10.912-16.382l-5.952,7.645-2.976-12.013-36.7,12.013,5.952-9.829L589.271,179.1l8.928-12.013s-25.791,14.2-26.783,26.211-8.541,23.4-8.541,23.4S542.648,160.535,571.415,144.154Z" transform="translate(-274.012 -105.389)"/><path class="c" d="M847.4,594.725c-5.944,6.444-20.674,16.15-38.53,26.657-6.643,3.9-13.714,7.928-20.927,11.928-17.213,9.547-35.236,19.007-50.109,26.65-19.348,9.944-33.371,16.809-33.371,16.809s-1.206-6.047-3.151-13.785c-2.6-10.357-6.523-23.745-10.611-29.673-.143-.206-.286-.4-.429-.587-1.19-1.563-2.389-2.476-3.571-2.476l59.061-36.609,25.523-15.825-18.388-43.895L729.83,478.858l13.92-44.291,13.991-44.522h26.221s8.682,18.951,19.785,45.379c1.659,3.952,3.373,8.071,5.119,12.325C831.706,503.3,860.18,580.877,847.4,594.725Z" transform="translate(-300.993 -164.139)"/><path class="d" d="M610.842,759.059c-14.587,18.063-74.806-19.777-95.868-33.887-4.587-3.071-7.317-5.016-7.317-5.016l19.269-25.7,6.1-8.135s5.46,2.9,13.531,7.611c.294.175.587.349.889.524,6.96,4.087,15.7,9.428,24.515,15.388,12.166,8.23,24.467,17.618,32.4,26.459C612.112,744.949,615.675,753.068,610.842,759.059Z" transform="translate(-264.042 -225.287)"/><path class="c" d="M520.459,631.908a37.92,37.92,0,0,0-6.428.524c-18.245,3.135-23.626,19.65-25.157,30.713a57.01,57.01,0,0,0-.556,10.206l-16.118-12.4-5.873-4.516c-14.134-4.928-26.729-13.682-37.649-24.007a189.263,189.263,0,0,1-25.356-30.07A265.178,265.178,0,0,1,383.7,568.712a24.748,24.748,0,0,1-.341-20.991l19.959-44.482L432.5,438.227q.321-2.321.706-4.539c5.785-33.173,21.285-47.9,21.285-47.9h11.841l7.92,47.9,9.841,59.513-6.9,22.491-15.936,51.942,15.229,16.539Z" transform="translate(-237.941 -163.259)"/><path class="f" d="M566.607,513.691,576.73,525.5c3.761-.717,7.688-1.56,11.733-2.506l-2.907-9.3,7.109,8.294c42.853-10.54,95.969-31.031,95.969-31.031s-57.344,4.2-100.16-5.149c-18.944-4.139-38.435,5.252-46.209,23.017-4.519,10.325-3.809,19.271,12.217,19.271a105.842,105.842,0,0,0,16.152-1.519Z" transform="translate(-270.688 -183.702)"/><path class="g" d="M766.63,762.3v4.817a10.585,10.585,0,0,1-.722,3.865,10.85,10.85,0,0,1-.77,1.587,10.664,10.664,0,0,1-9.166,5.206H401.585a10.664,10.664,0,0,1-9.166-5.206,10.859,10.859,0,0,1-.77-1.587,10.588,10.588,0,0,1-.722-3.865V762.3a10.655,10.655,0,0,1,10.658-10.658h20.428V749.4a.444.444,0,0,1,.444-.445h10.658a.444.444,0,0,1,.444.445v2.246h6.658V749.4a.444.444,0,0,1,.444-.445h10.658a.444.444,0,0,1,.444.445v2.246h6.666V749.4a.444.444,0,0,1,.444-.445h10.658a.444.444,0,0,1,.444.445v2.246h6.658V749.4a.444.444,0,0,1,.444-.445H487.74a.444.444,0,0,1,.444.445v2.246h6.658V749.4a.444.444,0,0,1,.444-.445h10.658a.444.444,0,0,1,.444.445v2.246h6.666V749.4a.444.444,0,0,1,.444-.445h10.658a.444.444,0,0,1,.444.445v2.246h6.658V749.4a.444.444,0,0,1,.444-.445h83.488a.444.444,0,0,1,.444.445v2.246H622.3V749.4a.444.444,0,0,1,.444-.445h10.658a.449.449,0,0,1,.444.445v2.246h6.658V749.4a.444.444,0,0,1,.444-.445h10.658a.444.444,0,0,1,.444.445v2.246h6.658V749.4a.444.444,0,0,1,.444-.445h10.658a.444.444,0,0,1,.444.445v2.246h6.666V749.4a.444.444,0,0,1,.444-.445h10.658a.442.442,0,0,1,.437.445v2.246h6.666V749.4a.444.444,0,0,1,.444-.445h10.658a.444.444,0,0,1,.444.445v2.246h6.658V749.4a.444.444,0,0,1,.444-.445h10.658a.444.444,0,0,1,.444.445v2.246h31.086A10.655,10.655,0,0,1,766.63,762.3Z" transform="translate(-239.95 -238.213)"/><rect class="g" width="581.717" height="1.587" transform="translate(48.014 532.772)"/><path class="g" d="M741.635,509.437H609.544v-2.723h-59.9v2.723H417.013a8.935,8.935,0,0,0-8.935,8.935V699.245a8.935,8.935,0,0,0,8.935,8.935H741.635a8.935,8.935,0,0,0,8.935-8.935V518.372a8.935,8.935,0,0,0-8.935-8.935Z" transform="translate(-243.49 -188.218)"/><ellipse class="h" cx="19.84" cy="19.84" rx="19.84" ry="19.84" transform="translate(316.254 364.526)"/><ellipse class="i" cx="19.84" cy="19.84" rx="19.84" ry="19.84" transform="translate(309.905 371.669)"/><rect class="i" width="22.221" height="22.221" transform="translate(63.843 524.754)"/><path class="g" d="M292.136,744.612v26.983h26.983V744.612Zm25.808,25.808H293.3V745.787h24.642Z" transform="translate(-219.561 -237.317)"/><rect class="i" width="22.221" height="22.221" transform="translate(578.103 524.754)"/><path class="g" d="M940.136,744.612v26.983h26.983V744.612Zm25.808,25.808H941.3V745.787h24.642Z" transform="translate(-353.3 -237.317)"/><ellipse class="j" cx="62.965" cy="62.965" rx="62.965" ry="62.965" transform="translate(12.094 56.69)"/><path class="g" d="M303.315,161.738a68.056,68.056,0,0,0-17.172,0A66.956,66.956,0,0,0,230.9,208.332a66.047,66.047,0,0,0-2.9,17.192c-.029.811-.048,1.631-.048,2.452a66.849,66.849,0,0,0,66.782,66.782c1.421,0,2.843-.048,4.245-.134a66.049,66.049,0,0,0,9.788-1.355,66.789,66.789,0,0,0-5.448-131.531ZM315.631,289.4h-.01a64.209,64.209,0,0,1-16.648,3.31c-1.4.1-2.824.143-4.245.143a64.953,64.953,0,0,1-64.874-64.874c0-.82.019-1.641.048-2.452A64.874,64.874,0,1,1,315.631,289.4Z" transform="translate(-206.313 -116.906)"/><rect class="g" width="1.908" height="13.356" transform="translate(87.462 50.011)"/><rect class="g" width="1.908" height="13.356" transform="translate(44.569 68.569) rotate(-45)"/><rect class="g" width="1.908" height="13.356" transform="translate(27.359 112.023) rotate(-90)"/><rect class="g" width="1.908" height="13.356" transform="translate(45.917 154.917) rotate(-135)"/><rect class="g" width="1.908" height="13.356" transform="translate(122.82 78.012) rotate(-135)"/><rect class="g" width="1.908" height="13.356" transform="translate(136.118 112.023) rotate(-90)"/><rect class="g" width="1.908" height="13.356" transform="translate(121.473 145.473) rotate(-45)"/><rect class="g" width="1.908" height="13.356" transform="translate(87.462 158.77)"/><path class="g" d="M313.718,240.286a4.77,4.77,0,0,0-5.724,0,4.91,4.91,0,0,0-1.364,1.6,4.771,4.771,0,1,0,7.088-1.6Zm-2.862,6.678a2.87,2.87,0,0,1-2.862-2.862,2.913,2.913,0,0,1,.506-1.622,2.859,2.859,0,1,1,2.356,4.484Z" transform="translate(-222.439 -133.033)"/><rect class="g" width="17.172" height="17.172" transform="translate(79.83 28.069)"/><ellipse class="g" cx="22.897" cy="8.109" rx="22.897" ry="8.109" transform="translate(65.52 14.713)"/><rect class="g" width="5.724" height="32.437" transform="translate(85.554 74.816)"/><rect class="g" width="179.356" height="1.908" transform="translate(0 174.944)"/><path class="k" d="M333.766,690.417c.741,25.356-14.075,34.648-32.668,35.191q-.648.019-1.29.023-1.293.01-2.562-.043c-16.815-.7-30.126-9.624-30.814-33.2-.713-24.4,29.577-56.111,31.85-58.456l0,0,.131-.134S333.025,665.062,333.766,690.417Z" transform="translate(-214.253 -214.445)"/><path class="g" d="M304.581,721.766,316.392,704.2l-11.787,19.453.025,1.976q-1.293.01-2.562-.043l.586-25.405-.016-.2.022-.038.056-2.4L289.782,678.77,302.7,695.753l.046.507.442-19.195L292.017,657.6l11.2,16.1-.117-39.766V633.8l0,.13.742,31.341,10.182-12.731-10.148,15.431.222,17.169,9.369-16.756-9.335,19.28.124,9.547,13.625-23.341L304.3,700.537Z" transform="translate(-219.075 -214.446)"/><path class="k" d="M981.766,690.417c.741,25.356-14.075,34.648-32.668,35.191q-.648.019-1.29.023-1.293.01-2.562-.043c-16.815-.7-30.126-9.624-30.814-33.2-.713-24.4,29.577-56.111,31.85-58.456l0,0,.131-.134S981.025,665.062,981.766,690.417Z" transform="translate(-347.993 -214.445)"/><path class="g" d="M952.581,721.766,964.392,704.2l-11.787,19.453.025,1.976q-1.293.01-2.562-.043l.586-25.405-.016-.2.022-.038.056-2.4L937.782,678.77,950.7,695.753l.046.507.442-19.195L940.017,657.6l11.2,16.1-.117-39.766V633.8l0,.13.742,31.341,10.182-12.731-10.148,15.431.222,17.169,9.369-16.756-9.335,19.28.124,9.547,13.625-23.341L952.3,700.537Z" transform="translate(-352.815 -214.446)"/></g></g></svg>