<svg xmlns="http://www.w3.org/2000/svg" xmlns:xlink="http://www.w3.org/1999/xlink" width="1123.346" height="533" viewBox="0 0 1123.346 533"><defs><linearGradient id="a" x1="0.579" y1="-0.084" x2="0.948" y2="1.075" gradientUnits="objectBoundingBox"><stop offset="0" stop-color="#b5d653"/><stop offset="0.995" stop-color="#019961"/></linearGradient><linearGradient id="b" x1="0.5" y1="0.125" x2="0.5" y2="1.112" xlink:href="#a"/></defs><g transform="translate(-319.798 -295)"><path d="M138.665,203.1c1.761-.814,3.543-1.584,5.275-2.451,2.311-1.157,4.6-2.352,6.857-3.608a14.623,14.623,0,0,0,2.445-1.819c.573-.5.531-1.015-.067-1.371a4.255,4.255,0,0,1-1.892-3.66,11.464,11.464,0,0,1,.922-5.06,35.959,35.959,0,0,1,7.2-11.739c1.6-1.74,3.336-3.389,5.014-5.076,2.165-2.178,4.4-4.309,6.48-6.537a35.393,35.393,0,0,0,6.31-9.087,23.446,23.446,0,0,0,2.281-13.155,14.71,14.71,0,0,0-.545-2.473,7.323,7.323,0,0,0-.861-1.849c-1.489-2.257-4.067-2.615-6.966-1.019a16.72,16.72,0,0,0-4.321,3.415q-2.005,2.206-3.851,4.515a82.036,82.036,0,0,1-6.445,7.436,29.882,29.882,0,0,1-2.552,2.257,6.779,6.779,0,0,1-1.694.889.955.955,0,0,1-1.339-.45,5.944,5.944,0,0,1-.375-1.687,11.1,11.1,0,0,1,.6-4.088c.5-1.576,1.048-3.15,1.665-4.71,2.023-5.115,4.017-10.232,5.68-15.4a83.224,83.224,0,0,0,3.482-14.919,36.657,36.657,0,0,0-.178-12.259,20.466,20.466,0,0,0-6.237-11.141,12.4,12.4,0,0,0-2.522-1.817c-2.66-1.424-5.712-.839-8.192,1.489A8.885,8.885,0,0,0,142.7,90.66a31.089,31.089,0,0,0-1.58,4.2c-.65,2.455-1.144,4.92-1.663,7.384-.622,2.956-1.108,5.917-1.823,8.868-.543,2.238-1.325,4.467-2.062,6.691a16.31,16.31,0,0,1-1.147,2.554,9.006,9.006,0,0,1-1.252,1.779,3.249,3.249,0,0,1-3.883.916,4.449,4.449,0,0,1-2.056-1.987,15.744,15.744,0,0,1-1.726-5.056,28.661,28.661,0,0,1-.3-8.206c.285-2.623.681-5.251,1.047-7.878.549-3.94,1.244-7.888,1.651-11.818a71.321,71.321,0,0,0-1.312-23.4,32.843,32.843,0,0,0-4.424-11.066,23.212,23.212,0,0,0-5.849-6.3,11.979,11.979,0,0,0-3.759-1.884,6.515,6.515,0,0,0-7.284,2.6,10.12,10.12,0,0,0-1.75,3.63c-.438,1.748-.8,3.5-1.137,5.253-.284,1.479-.45,2.958-.725,4.434a21.168,21.168,0,0,1-2.07,6.334,14.437,14.437,0,0,1-1.734,2.538,4.76,4.76,0,0,1-4.438,1.617,6.966,6.966,0,0,1-2.605-.906,11.211,11.211,0,0,1-3.81-3.648,19.436,19.436,0,0,1-2.759-6.5c-.915-3.96-1.7-7.959-2.544-11.939A103,103,0,0,0,78.13,35.936c-.859-2.427-1.722-4.853-2.724-7.217-3.462-8.174-8.127-15.628-14.99-21.738A32.384,32.384,0,0,0,53.542,2.19,21.178,21.178,0,0,0,49.051.458,14.262,14.262,0,0,0,45.1.007a10.723,10.723,0,0,0-9,5.135,12.265,12.265,0,0,0-1.639,4.685,18.528,18.528,0,0,0,.48,7.667,84.819,84.819,0,0,0,3.474,9.118c.689,1.7,1.493,3.355,2.192,5.054a24.5,24.5,0,0,1,1.841,7.675,14.129,14.129,0,0,1-.045,2.757,11.185,11.185,0,0,1-.656,2.613,8.491,8.491,0,0,1-6.116,5.078,11.955,11.955,0,0,1-5.192.314,28.419,28.419,0,0,1-4.132-.968c-1.983-.65-3.893-1.428-5.82-2.176a54.873,54.873,0,0,0-8.247-2.737,49.1,49.1,0,0,0-4.975-.764,10.01,10.01,0,0,0-3.539.294A4.477,4.477,0,0,0,.354,46.68a6.209,6.209,0,0,0,.067,4.307A20.788,20.788,0,0,0,3.634,56.57a44.884,44.884,0,0,0,14.072,11.65,109.712,109.712,0,0,0,15.458,7.07c2.86,1.057,5.674,2.194,8.457,3.371a27.089,27.089,0,0,1,5.8,3.31,17.845,17.845,0,0,1,2.27,2.054,3.24,3.24,0,0,1,.952,2.289c-.006.66-.363,1.072-1.134,1.193a8.931,8.931,0,0,1-1.864.113c-1.4-.081-2.808-.18-4.181-.361-2.392-.312-4.764-.687-7.144-1.039a52.1,52.1,0,0,0-10.043-.65,25.454,25.454,0,0,0-6.179.9,25.33,25.33,0,0,0-2.722.972,8.049,8.049,0,0,0-4.459,4.519,8.93,8.93,0,0,0-.577,4.236,13,13,0,0,0,3.989,8.234,24.365,24.365,0,0,0,5.224,3.92,51.848,51.848,0,0,0,10.554,4.436c2.451.754,4.941,1.434,7.406,2.159,4.146,1.222,8.305,2.417,12.421,3.691a44.537,44.537,0,0,1,8.96,3.806c.869.5,1.71,1.033,2.52,1.6a9.876,9.876,0,0,1,1.339,1.169c.527.535,1.175,1.124.638,1.965-.527.82-1.546.835-2.407.875a22.058,22.058,0,0,1-2.955-.051c-1.88-.164-3.742-.385-5.6-.6-3.124-.369-6.227-.8-9.365-1.118a51.6,51.6,0,0,0-9.075-.022,20.253,20.253,0,0,0-5.593,1.138,19.655,19.655,0,0,0-3.13,1.5,8,8,0,0,0-3.569,4.309,9.47,9.47,0,0,0,1,8.814,16.121,16.121,0,0,0,5.461,4.967,49.5,49.5,0,0,0,12.668,5.17c6.255,1.633,12.507,3.278,18.719,5,2.708.75,5.344,1.647,7.959,2.565a23.489,23.489,0,0,1,5.445,2.694,4.8,4.8,0,0,1,1.705,1.677,1.062,1.062,0,0,1-.539,1.592,10.817,10.817,0,0,1-2.645,1.126c-1.613.385-3.247.61-4.874.867-3,.474-6.01.877-9.01,1.4a25.418,25.418,0,0,0-6.94,2.283,12.187,12.187,0,0,0-3.113,2.212,7.416,7.416,0,0,0-2.433,4.945,8.189,8.189,0,0,0,1.754,5.642,28.319,28.319,0,0,0,5.524,5.37,18.7,18.7,0,0,0,6.45,2.972,48.149,48.149,0,0,0,10.118,1.592c3.612.176,7.226.365,10.87.381,6.689.03,13.252.525,19.768,1.205a41.122,41.122,0,0,1,18.272,6.17c2.459,1.582,4.991,3.085,7.491,4.625l.138.091a3.189,3.189,0,0,0,3.436.13c2.565-1.23,5.159-2.394,7.742-3.587Z" transform="translate(369.85 629.932) rotate(-17)" fill="#b3d553"/><path d="M34.176,127.043c-.528-3.808,2.555-7.368,6.154-8.717s7.581-1.018,11.409-.669c7.552.691,21.077,4.124,26.337,5.51-2.309-1.592-4.6-3.215-6.847-4.9A156.331,156.331,0,0,1,55.2,104.371c-2.446-2.556-4.948-5.06-7.207-7.785-1.051-1.161-2.049-2.365-3.029-3.585-5.887,2.791-12.65,3.13-19.179,3.008-5.173-.1-10.8-.634-14.567-4.186a6.625,6.625,0,0,1-2.349-5.059c.214-3.019,3.309-5.054,6.279-5.638,4.7-.925,9.529.544,13.943,2.4,4.259,1.79,11.818,6.384,14.962,8.333-.919-1.166-1.829-2.34-2.745-3.507a155.364,155.364,0,0,1-15.563-25.66C16.143,66.05,4.3,60.806.478,51.351a4.537,4.537,0,0,1-.438-2.429c.443-2.562,4.028-2.854,6.541-2.192C12.662,48.332,21.495,57.3,24.9,60.954a153.6,153.6,0,0,1-9.974-28.3C12.907,29.394,5.969,19.487,4.536,16.368c-1.356-2.949-2.3-6.229-1.755-9.43S5.656.683,8.85.1c4.785-.868,8.8,3.841,10.328,8.456,1.974,5.962-2.037,19.764-3.326,23.895a152.48,152.48,0,0,0,9.738,27.211c-.126-2.782-.571-13.207-.368-17.813.235-5.339,2.167-11.326,7.076-13.438,2.294-.986,5.454-.677,6.654,1.514.967,1.768.3,3.951-.431,5.829a124.426,124.426,0,0,1-12.729,24.35,154.065,154.065,0,0,0,16.624,27.4c1.022,1.282,2.032,2.572,3.06,3.848-.914-4.311-4.5-22.217-2.959-30.747.711-3.932,3.135-8.6,7.113-8.224a5.922,5.922,0,0,1,4.619,3.885,14.714,14.714,0,0,1,.677,6.265c-.514,9.528-4.283,20.988-9.015,29.358,1.03,1.267,2.079,2.518,3.186,3.723,2.256,2.682,4.752,5.142,7.189,7.655A155,155,0,0,0,72.246,116.9c2.855,2.114,5.773,4.138,8.729,6.111a64.418,64.418,0,0,1-13.12-25.348c-1.034-4.012-1.666-8.312-.4-12.256s4.912-7.378,9.052-7.2c4.755.2,8.14,4.788,9.689,9.288,3.985,11.579.618,24.3-3.372,35.878l-.294.664c8.236,5.422,16.736,10.495,25.02,15.946q7.014,4.631,13.719,9.73c-4.233-7.172-17.2-30.133-18.1-43.8-.223-3.384-.078-7.142,2.223-9.632a8.407,8.407,0,0,1,8.906-1.792,13.685,13.685,0,0,1,6.94,6.381c1.936,3.459,2.8,7.4,3.566,11.29,2.592,13.226,4.242,26.959-1.78,38.908A236.563,236.563,0,0,1,156.505,182.5c-3.8-6.969-10.39-19.625-12.589-27.4-1.6-5.635-2.8-11.564-1.739-17.322a34.07,34.07,0,0,1,4.5-11.01c1.709-2.887,3.845-5.816,7.012-6.92,3.3-1.148,7.079.016,9.751,2.263a21.394,21.394,0,0,1,5.682,8.669,48.044,48.044,0,0,1-2.693,40.683c-1.712,3.05-4.377,10.921-6.547,14.994q4.685,5.627,9,11.56a199.014,199.014,0,0,1,17.638,29.322c-1.235-10.369-4.781-43.73-1.52-60.843,1.362-7.146,4.229-15.223,11.122-17.549,6.518-2.2,13.858,2.289,16.889,8.463s2.679,13.456,1.5,20.233c-3.4,19.57-12.384,38.482-26.819,52.109q1.19,2.53,2.307,5.093a169.681,169.681,0,0,1,12.011,40.783l-3.191.5a166.438,166.438,0,0,0-11.359-39.761l-.184.266-24.041,6.366a82.291,82.291,0,0,1-12.781,2.668,38.148,38.148,0,0,1-13.791-1.082c-7.658-2.084-15.23-7.992-15.482-15.924a8.149,8.149,0,0,1,1.255-4.929c1.588-2.28,4.519-3.153,7.259-3.608,13.865-2.3,27.865,2.166,41.2,6.624,5.843,1.956,11.974,4.121,16.132,8.607a193.466,193.466,0,0,0-20.272-35.8c-1.71-2.4-3.484-4.757-5.293-7.084-3.972,2.413-18.917,11.4-26.385,14.431-8.657,3.517-18.523,4.356-27.431,1.533-3.159-1-6.334-2.581-8.12-5.373-2.274-3.555-1.7-8.447.682-11.932s6.27-5.7,10.309-6.926c6.264-1.9,12.949-1.653,19.487-1.369,9.936.43,20.594,1.2,28.848,6.351a232.223,232.223,0,0,0-37.274-36.524c-5.138,4.022-10.344,8.021-16.173,10.945-6.1,3.059-13,4.9-19.764,3.984a15.356,15.356,0,0,1-8.753-3.8c-2.319-2.256-3.537-5.82-2.41-8.852,1.079-2.9,3.935-4.712,6.708-6.089,5.4-2.682,26.606-2.535,36.145.554q-5.344-4.008-10.883-7.738c-8.8-5.882-17.911-11.356-26.716-17.339-8.822,9.632-23.691,13.824-36.334,10.543C39.252,133.781,34.762,131.282,34.176,127.043Z" transform="translate(1325.847 475.299) rotate(57)" fill="url(#a)"/><g transform="translate(237 512.491) rotate(-41)"><g transform="translate(0 0)"><g transform="translate(0 0)"><path d="M106.7,171.851a260.172,260.172,0,0,0,23.317-47.082c-8.826-2.411-21.134-8.432-21.134-8.432,5.54,1.064,16.67-2.2,25.761-5.442a199.524,199.524,0,0,0,7.809-41.752,159.374,159.374,0,0,1-20.777-7.626c3.447.6,13.132-2.177,21.3-4.85.2-18.94-2.173-37.854-4.552-56.669l-.054.038C122.459,11.017,106.431,22.1,91.73,34.61c3.616,7.651,8.114,16.655,10.779,20.1,0,0-11.851-4.476-20.311-11.588a204.375,204.375,0,0,0-14.621,15.16q-4.241,4.9-8.13,10.077C66.5,75.4,75.7,83.844,82.362,87.267c0,0-16-4.178-29.824-9.228a337.48,337.48,0,0,0-19.8,33.895q-4.652,8.991-8.92,18.2c8.024,9.174,16.794,18.54,21.76,21.764a173.339,173.339,0,0,1-27.351-9.012A258.189,258.189,0,0,0,5.191,182.56c-1.274,5.414-2.343,10.912-3.18,16.457a85.041,85.041,0,0,0,18.093,3.7A159.641,159.641,0,0,1,.778,208.958a152.858,152.858,0,0,0,.1,31.739c1,8.876,4.585,13.316,9.469,14.919,8.714,2.86,21.572-3.315,31.3-9.441a81.169,81.169,0,0,0,11.549-9.018c-6.026-10.4-5.639-24.652-5.639-24.652l16.312,14.037a349.1,349.1,0,0,0,34.894-42.59c-9.178-6.331-20.522-18.979-20.522-18.979C83.506,168.1,97.036,170.482,106.7,171.851Z" transform="translate(186.981 11.041)" fill="#019961"/><path d="M3.889,188.052c-2.614-5.17-4.432-11.094-3.117-16.737S7.4,160.68,13.146,161.39c3.666.452,6.683,2.966,9.944,4.7s7.692,2.556,10.344-.015c3-2.907,1.661-8-.546-11.55C23.733,139.811,3.466,132.122.3,115.087c-.6-3.226-.4-6.838,1.665-9.388,3.215-3.97,9.3-3.72,14.283-2.573s10.409,2.789,14.986.518c5.2-2.583,7.007-9.561,5.3-15.115s-6.07-9.873-10.65-13.448S16.3,68.373,12.464,64.007c-2.273-2.588-4.137-5.718-4.382-9.153s1.475-7.16,4.66-8.47c4.521-1.859,11.371.823,13.568-3.544,1.624-3.23-1.416-6.7-3.751-9.459-4.939-5.834-7.6-14.061-5.2-21.318A18.046,18.046,0,0,1,33.054.027,18.043,18.043,0,0,1,50.023,10.182c3.223,6.94,1.7,15.374,4.942,22.306,3.031,1.088,5.581-2.274,8.1-4.284,6.217-4.971,16.3-1.418,20.338,5.44s3.372,15.531,1.2,23.19S78.9,71.768,77.473,79.6c-.438,2.407-.029,5.745,2.393,6.076a4.547,4.547,0,0,0,3.2-1.257c4.079-3.121,7.445-7.147,11.761-9.934S105,70.354,109.346,73.1a13.909,13.909,0,0,1,4.74,5.746c5.323,10.693,3.079,23.64-1.325,34.743S101.929,135.013,98.8,146.54c-.559,2.053-.817,4.682.931,5.9a4.357,4.357,0,0,0,3.3.439c6.277-1.183,10.436-7.819,16.715-8.993,4.408-.824,9,1.374,11.923,4.779s4.371,7.841,5.1,12.266c2.192,13.29-1.564,26.831-6.366,39.415-5.559,14.574-12.625,28.677-22.147,41.031h0c-3.837,4.979-18.639,26-18.639,26S72.314,247.729,69,244.8c-14.186-12.538-31.215-21.3-45.683-33.484C15.535,204.766,8.508,197.188,3.889,188.052Z" transform="translate(109.709 0)" fill="url(#b)"/><path d="M138.848,29.32a210.161,210.161,0,0,0-38.041-18.839C98.86,17.612,94,27.556,94,27.556c.859-4.476-1.779-13.468-4.4-20.814A161.189,161.189,0,0,0,55.865.434,128.8,128.8,0,0,1,49.7,17.221C50.187,14.435,47.946,6.61,45.786.01,30.483-.155,15.2,1.765,0,3.688l.03.044C8.9,16.589,17.859,29.539,27.963,41.416c6.182-2.922,13.456-6.555,16.24-8.708,0,0-3.618,9.574-9.362,16.41A165,165,0,0,0,47.089,60.931q3.959,3.427,8.142,6.569c5.689-5.7,12.511-13.129,15.277-18.514,0,0-3.375,12.927-7.456,24.1a272.437,272.437,0,0,0,27.385,16q7.264,3.759,14.7,7.207c7.412-6.484,14.979-13.569,17.584-17.582a140.062,140.062,0,0,1-7.281,22.1A208.7,208.7,0,0,0,147.5,111.336c4.374,1.029,8.817,1.893,13.3,2.569a68.612,68.612,0,0,0,2.987-14.619,129.074,129.074,0,0,1,5.046,15.615,123.521,123.521,0,0,0,25.642-.078c7.171-.81,10.758-3.7,12.054-7.65,2.31-7.041-2.678-17.429-7.628-25.29a65.774,65.774,0,0,0-7.286-9.331c-8.4,4.868-19.919,4.557-19.919,4.557l11.341-13.179A282.038,282.038,0,0,0,148.623,35.74c-5.116,7.416-15.335,16.581-15.335,16.581C135.82,48.061,137.741,37.13,138.848,29.32Z" transform="translate(0 157.979)" fill="#019961"/></g></g></g><g transform="translate(1153 403)" fill="none" stroke="#31a95d" stroke-width="30"><ellipse cx="68.5" cy="68" rx="68.5" ry="68" stroke="none"/><ellipse cx="68.5" cy="68" rx="53.5" ry="53" fill="none"/></g><g transform="translate(1163 295)" fill="none" stroke="#b5d653" stroke-width="30"><circle cx="47" cy="47" r="47" stroke="none"/><circle cx="47" cy="47" r="32" fill="none"/></g><g transform="translate(1287 350)" fill="none" stroke="#77c158" stroke-width="30"><ellipse cx="40.5" cy="39.5" rx="40.5" ry="39.5" stroke="none"/><ellipse cx="40.5" cy="39.5" rx="25.5" ry="24.5" fill="none"/></g></g></svg>