<svg xmlns="http://www.w3.org/2000/svg" xmlns:xlink="http://www.w3.org/1999/xlink" width="1123.346" height="533"><defs><linearGradient id="a" x1=".579" y1="-.084" x2=".948" y2="1.075" gradientUnits="objectBoundingBox"><stop offset="0" stop-color="#b5d653"/><stop offset=".995" stop-color="#019961"/></linearGradient><linearGradient id="b" x1=".5" y1=".125" x2=".5" y2="1.112" xlink:href="#a"/></defs><path d="M242.039 488.616c1.446-1.294 2.925-2.55 4.328-3.886a177.5 177.5 0 005.502-5.456 14.623 14.623 0 001.806-2.454c.402-.646.211-1.126-.464-1.291a4.255 4.255 0 01-2.88-2.947 11.464 11.464 0 01-.598-5.109 35.959 35.959 0 013.454-13.33c1.021-2.133 2.2-4.217 3.31-6.321 1.434-2.716 2.948-5.407 4.286-8.146a35.393 35.393 0 003.378-10.535 23.446 23.446 0 00-1.665-13.247 14.71 14.71 0 00-1.244-2.205 7.323 7.323 0 00-1.364-1.517c-2.084-1.723-4.654-1.312-6.96 1.062a16.72 16.72 0 00-3.134 4.53q-1.272 2.695-2.362 5.443a82.036 82.036 0 01-3.99 8.995 29.882 29.882 0 01-1.78 2.905 6.779 6.779 0 01-1.36 1.345.955.955 0 01-1.412-.039 5.944 5.944 0 01-.852-1.503 11.1 11.1 0 01-.622-4.085c.018-1.653.082-3.319.216-4.991.439-5.483.85-10.96.929-16.388a83.224 83.224 0 00-1.032-15.285 36.657 36.657 0 00-3.755-11.671 20.466 20.466 0 00-9.221-8.83 12.4 12.4 0 00-2.943-1.001c-2.96-.584-5.708.868-7.4 3.819a8.885 8.885 0 00-1.187 3.431 31.089 31.089 0 00-.283 4.479c.096 2.537.345 5.04.569 7.547.27 3.009.67 5.983.85 9.014.134 2.299.038 4.659-.017 7.001a16.31 16.31 0 01-.35 2.778 9.006 9.006 0 01-.677 2.067 3.249 3.249 0 01-3.445 2.011 4.449 4.449 0 01-2.548-1.299 15.744 15.744 0 01-3.128-4.33 28.661 28.661 0 01-2.686-7.76c-.495-2.591-.884-5.22-1.303-7.84-.626-3.928-1.116-7.907-1.876-11.784a71.321 71.321 0 00-8.096-21.994 32.843 32.843 0 00-7.466-9.289 23.212 23.212 0 00-7.436-4.315 11.979 11.979 0 00-4.145-.702 6.515 6.515 0 00-6.206 4.616 10.12 10.12 0 00-.612 3.983c.092 1.8.258 3.58.449 5.356.16 1.497.434 2.96.603 4.452a21.168 21.168 0 01-.128 6.662 14.437 14.437 0 01-.916 2.935 4.76 4.76 0 01-3.771 2.843 6.966 6.966 0 01-2.757-.104 11.211 11.211 0 01-4.71-2.375 19.436 19.436 0 01-4.538-5.41c-2.033-3.519-3.953-7.114-5.924-10.673a103 103 0 00-7.201-11.323c-1.531-2.07-3.066-4.138-4.715-6.105-5.7-6.805-12.341-12.57-20.69-16.406a32.384 32.384 0 00-7.975-2.572 21.178 21.178 0 00-4.801-.343 14.262 14.262 0 00-3.91.724 10.723 10.723 0 00-7.106 7.542 12.265 12.265 0 00-.198 4.96 18.528 18.528 0 002.701 7.19 84.819 84.819 0 005.988 7.705c1.156 1.424 2.409 2.772 3.574 4.192a24.5 24.5 0 014.004 6.801 14.129 14.129 0 01.763 2.65 11.185 11.185 0 01.137 2.69 8.491 8.491 0 01-4.364 6.645 11.955 11.955 0 01-4.873 1.818 28.419 28.419 0 01-4.235.283c-2.086-.042-4.14-.228-6.202-.38a54.873 54.873 0 00-8.687-.206 49.1 49.1 0 00-4.98.724 10.01 10.01 0 00-3.299 1.316 4.477 4.477 0 00-2.369 3.786 6.209 6.209 0 001.324 4.099 20.788 20.788 0 004.705 4.4 44.884 44.884 0 0016.863 7.026 109.712 109.712 0 0016.85 2.242c3.044.175 6.067.44 9.073.751a27.089 27.089 0 016.514 1.47 17.845 17.845 0 012.771 1.3 3.24 3.24 0 011.58 1.91c.187.634-.034 1.132-.736 1.473a8.931 8.931 0 01-1.75.653c-1.362.332-2.737.65-4.103.878-2.379.4-4.757.735-7.136 1.095a52.1 52.1 0 00-9.794 2.314 25.454 25.454 0 00-5.646 2.668 25.33 25.33 0 00-2.319 1.725 8.049 8.049 0 00-2.943 5.625 8.93 8.93 0 00.687 4.22 13 13 0 006.222 6.708 24.365 24.365 0 006.142 2.221 51.848 51.848 0 0011.39 1.157c2.564.004 5.144-.074 7.713-.101 4.323-.044 8.65-.117 12.958-.102a44.537 44.537 0 019.681 1.02c.977.224 1.937.488 2.878.793a9.876 9.876 0 011.622.727c.66.357 1.452.731 1.185 1.692-.265.939-1.235 1.251-2.046 1.541a22.058 22.058 0 01-2.841.815c-1.846.393-3.691.726-5.53 1.064-3.096.56-6.19 1.055-9.284 1.669a51.6 51.6 0 00-8.684 2.632 20.253 20.253 0 00-5.016 2.723 19.655 19.655 0 00-2.555 2.35 8 8 0 00-2.153 5.164 9.47 9.47 0 003.533 8.137 16.121 16.121 0 006.675 3.153 49.5 49.5 0 0013.626 1.24c6.459-.267 12.919-.522 19.363-.691 2.809-.075 5.592.012 8.36.126a23.489 23.489 0 015.996.984 4.8 4.8 0 012.12 1.105 1.062 1.062 0 01-.05 1.68 10.817 10.817 0 01-2.2 1.85c-1.43.84-2.927 1.533-4.407 2.255-2.73 1.33-5.491 2.595-8.207 3.973a25.418 25.418 0 00-5.97 4.212 12.187 12.187 0 00-2.33 3.026 7.416 7.416 0 00-.88 5.44 8.189 8.189 0 003.326 4.882 28.319 28.319 0 006.853 3.52 18.7 18.7 0 007.037.957 48.149 48.149 0 0010.141-1.436c3.506-.887 7.017-1.763 10.507-2.813 6.405-1.927 12.826-3.373 19.256-4.628a41.122 41.122 0 0119.278.559c2.814.793 5.675 1.49 8.516 2.232l.158.047a3.189 3.189 0 003.324-.88c2.093-1.927 4.234-3.798 6.355-5.694z" fill="#b3d553"/><path d="M34.176 127.043c-.528-3.808 2.555-7.368 6.154-8.717s7.581-1.018 11.409-.669c7.552.691 21.077 4.124 26.337 5.51a211.554 211.554 0 01-6.847-4.9A156.331 156.331 0 0155.2 104.371c-2.446-2.556-4.948-5.06-7.207-7.785a79.556 79.556 0 01-3.029-3.585c-5.887 2.791-12.65 3.13-19.179 3.008-5.173-.1-10.8-.634-14.567-4.186a6.625 6.625 0 01-2.349-5.059c.214-3.019 3.309-5.054 6.279-5.638 4.7-.925 9.529.544 13.943 2.4 4.259 1.79 11.818 6.384 14.962 8.333-.919-1.166-1.829-2.34-2.745-3.507a155.364 155.364 0 01-15.563-25.66C16.143 66.05 4.3 60.806.478 51.351a4.537 4.537 0 01-.438-2.429c.443-2.562 4.028-2.854 6.541-2.192C12.662 48.332 21.495 57.3 24.9 60.954a153.6 153.6 0 01-9.974-28.3c-2.019-3.26-8.957-13.167-10.39-16.286-1.356-2.949-2.3-6.229-1.755-9.43S5.656.683 8.85.1c4.785-.868 8.8 3.841 10.328 8.456 1.974 5.962-2.037 19.764-3.326 23.895a152.48 152.48 0 009.738 27.211c-.126-2.782-.571-13.207-.368-17.813.235-5.339 2.167-11.326 7.076-13.438 2.294-.986 5.454-.677 6.654 1.514.967 1.768.3 3.951-.431 5.829a124.426 124.426 0 01-12.729 24.35 154.065 154.065 0 0016.624 27.4c1.022 1.282 2.032 2.572 3.06 3.848-.914-4.311-4.5-22.217-2.959-30.747.711-3.932 3.135-8.6 7.113-8.224a5.922 5.922 0 014.619 3.885 14.714 14.714 0 01.677 6.265c-.514 9.528-4.283 20.988-9.015 29.358a81.017 81.017 0 003.186 3.723c2.256 2.682 4.752 5.142 7.189 7.655a155 155 0 0015.96 13.633 218.255 218.255 0 008.729 6.111 64.418 64.418 0 01-13.12-25.348c-1.034-4.012-1.666-8.312-.4-12.256s4.912-7.378 9.052-7.2c4.755.2 8.14 4.788 9.689 9.288 3.985 11.579.618 24.3-3.372 35.878l-.294.664c8.236 5.422 16.736 10.495 25.02 15.946q7.014 4.631 13.719 9.73c-4.233-7.172-17.2-30.133-18.1-43.8-.223-3.384-.078-7.142 2.223-9.632a8.407 8.407 0 018.906-1.792 13.685 13.685 0 016.94 6.381c1.936 3.459 2.8 7.4 3.566 11.29 2.592 13.226 4.242 26.959-1.78 38.908a236.563 236.563 0 0133.481 31.432c-3.8-6.969-10.39-19.625-12.589-27.4-1.6-5.635-2.8-11.564-1.739-17.322a34.07 34.07 0 014.5-11.01c1.709-2.887 3.845-5.816 7.012-6.92 3.3-1.148 7.079.016 9.751 2.263a21.394 21.394 0 015.682 8.669 48.044 48.044 0 01-2.693 40.683c-1.712 3.05-4.377 10.921-6.547 14.994q4.685 5.627 9 11.56a199.014 199.014 0 0117.638 29.322c-1.235-10.369-4.781-43.73-1.52-60.843 1.362-7.146 4.229-15.223 11.122-17.549 6.518-2.2 13.858 2.289 16.889 8.463s2.679 13.456 1.5 20.233c-3.4 19.57-12.384 38.482-26.819 52.109q1.19 2.53 2.307 5.093a169.681 169.681 0 0112.011 40.783l-3.191.5a166.438 166.438 0 00-11.359-39.761l-.184.266-24.041 6.366a82.291 82.291 0 01-12.781 2.668 38.148 38.148 0 01-13.791-1.082c-7.658-2.084-15.23-7.992-15.482-15.924a8.149 8.149 0 011.255-4.929c1.588-2.28 4.519-3.153 7.259-3.608 13.865-2.3 27.865 2.166 41.2 6.624 5.843 1.956 11.974 4.121 16.132 8.607a193.466 193.466 0 00-20.272-35.8c-1.71-2.4-3.484-4.757-5.293-7.084-3.972 2.413-18.917 11.4-26.385 14.431-8.657 3.517-18.523 4.356-27.431 1.533-3.159-1-6.334-2.581-8.12-5.373-2.274-3.555-1.7-8.447.682-11.932s6.27-5.7 10.309-6.926c6.264-1.9 12.949-1.653 19.487-1.369 9.936.43 20.594 1.2 28.848 6.351a232.223 232.223 0 00-37.274-36.524c-5.138 4.022-10.344 8.021-16.173 10.945-6.1 3.059-13 4.9-19.764 3.984a15.356 15.356 0 01-8.753-3.8c-2.319-2.256-3.537-5.82-2.41-8.852 1.079-2.9 3.935-4.712 6.708-6.089 5.4-2.682 26.606-2.535 36.145.554q-5.344-4.008-10.883-7.738c-8.8-5.882-17.911-11.356-26.716-17.339-8.822 9.632-23.691 13.824-36.334 10.543-4.146-1.089-8.636-3.588-9.222-7.827z" transform="rotate(57 336.99 1016.605)" fill="url(#a)"/><path d="M258.834 162.85a260.172 260.172 0 00-13.291-50.831c-8.243 3.97-21.482 7.501-21.482 7.501 4.879-2.831 11.138-12.597 15.872-21.008a199.524 199.524 0 00-21.499-36.634 159.374 159.374 0 01-20.683 7.876c2.995-1.809 8.482-10.258 12.893-17.634-12.275-14.426-26.474-27.144-40.613-39.783l-.016.064c-4.804 18.726-9.63 37.606-12.517 56.692 7.748 3.402 17.05 7.247 21.321 8.098 0 0-11.88 4.397-22.93 4.58a204.375 204.375 0 00-1.09 21.034q.014 6.48.476 12.939c9.942.686 22.425 1.023 29.699-.764 0 0-14.817 7.344-28.563 12.602a337.48 337.48 0 007.294 38.57q2.388 9.838 5.208 19.589c12.075 1.659 24.838 2.974 30.701 2.15a173.339 173.339 0 01-26.554 11.142 258.189 258.189 0 0016.19 38.494c2.59 4.922 5.39 9.773 8.397 14.507a85.041 85.041 0 0016.082-9.078 159.641 159.641 0 01-10.491 17.39 152.858 152.858 0 0020.898 23.887c6.578 6.043 12.196 7.042 16.934 5.048 8.453-3.559 14.106-16.655 17.429-27.66a81.169 81.169 0 002.8-14.383c-11.371-3.895-20.43-14.905-20.43-14.905l21.52-.108a349.1 349.1 0 00-1.606-55.036c-11.08 1.243-27.94-.86-27.94-.86 6.025-1.094 17.8-8.173 25.99-13.48z" fill="#019961"/><path d="M3.889 188.052c-2.614-5.17-4.432-11.094-3.117-16.737S7.4 160.68 13.146 161.39c3.666.452 6.683 2.966 9.944 4.7s7.692 2.556 10.344-.015c3-2.907 1.661-8-.546-11.55C23.733 139.811 3.466 132.122.3 115.087c-.6-3.226-.4-6.838 1.665-9.388 3.215-3.97 9.3-3.72 14.283-2.573s10.409 2.789 14.986.518c5.2-2.583 7.007-9.561 5.3-15.115s-6.07-9.873-10.65-13.448-9.584-6.708-13.42-11.074c-2.273-2.588-4.137-5.718-4.382-9.153s1.475-7.16 4.66-8.47c4.521-1.859 11.371.823 13.568-3.544 1.624-3.23-1.416-6.7-3.751-9.459-4.939-5.834-7.6-14.061-5.2-21.318A18.046 18.046 0 0133.054.027a18.043 18.043 0 0116.969 10.155c3.223 6.94 1.7 15.374 4.942 22.306 3.031 1.088 5.581-2.274 8.1-4.284 6.217-4.971 16.3-1.418 20.338 5.44s3.372 15.531 1.2 23.19S78.9 71.768 77.473 79.6c-.438 2.407-.029 5.745 2.393 6.076a4.547 4.547 0 003.2-1.257c4.079-3.121 7.445-7.147 11.761-9.934S105 70.354 109.346 73.1a13.909 13.909 0 014.74 5.746c5.323 10.693 3.079 23.64-1.325 34.743S101.929 135.013 98.8 146.54c-.559 2.053-.817 4.682.931 5.9a4.357 4.357 0 003.3.439c6.277-1.183 10.436-7.819 16.715-8.993 4.408-.824 9 1.374 11.923 4.779s4.371 7.841 5.1 12.266c2.192 13.29-1.564 26.831-6.366 39.415-5.559 14.574-12.625 28.677-22.147 41.031-3.837 4.979-18.639 26-18.639 26S72.314 247.729 69 244.8c-14.186-12.538-31.215-21.3-45.683-33.484-7.782-6.55-14.809-14.128-19.428-23.264z" transform="rotate(-41 194.6 72.757)" fill="url(#b)"/><path d="M144.871 267.755a210.161 210.161 0 00-41.07 10.739c3.21 6.66 6.066 17.352 6.066 17.352-2.289-3.941-10.179-8.997-16.976-12.821a161.189 161.189 0 00-29.599 17.371 128.8 128.8 0 016.36 16.714c-1.46-2.422-8.285-6.858-14.245-10.422-11.657 9.916-21.932 21.391-32.142 32.815l.052.013c15.129 3.884 30.386 7.78 45.804 10.115 2.748-6.261 5.855-13.775 6.543-17.226 0 0 3.55 9.599 3.7 18.526a165 165 0 0016.994.88q5.237-.01 10.455-.384c.554-8.034.829-18.116-.617-23.995 0 0 5.934 11.97 10.184 23.08a272.437 272.437 0 0031.165-5.89q7.948-1.93 15.822-4.206c1.34-9.756 2.403-20.067 1.736-24.805a140.062 140.062 0 019.004 21.456 208.7 208.7 0 0031.101-13.09 166.605 166.605 0 0011.723-6.787 68.612 68.612 0 00-7.336-12.993 129.074 129.074 0 0114.052 8.475 123.521 123.521 0 0019.301-16.882c4.881-5.316 5.692-9.85 4.079-13.681-2.876-6.83-13.456-11.397-22.349-14.083a65.774 65.774 0 00-11.62-2.262c-3.146 9.185-12.044 16.507-12.044 16.507l-.087-17.386a282.038 282.038 0 00-44.467 1.302c1.005 8.953-.695 22.575-.695 22.575-.884-4.877-6.606-14.387-10.894-21.007z" fill="#019961"/><g transform="translate(833.202 108)" fill="none" stroke="#31a95d" stroke-width="30"><ellipse cx="68.5" cy="68" rx="68.5" ry="68" stroke="none"/><ellipse cx="68.5" cy="68" rx="53.5" ry="53"/></g><g transform="translate(843.202)" fill="none" stroke="#b5d653" stroke-width="30"><circle cx="47" cy="47" r="47" stroke="none"/><circle cx="47" cy="47" r="32"/></g><g transform="translate(967.202 55)" fill="none" stroke="#77c158" stroke-width="30"><ellipse cx="40.5" cy="39.5" rx="40.5" ry="39.5" stroke="none"/><ellipse cx="40.5" cy="39.5" rx="25.5" ry="24.5"/></g></svg>