<svg xmlns="http://www.w3.org/2000/svg" width="691.033" height="576"><defs><linearGradient id="a" x1=".5" y1="1" x2=".5" gradientUnits="objectBoundingBox"><stop offset="0" stop-color="gray" stop-opacity=".251"/><stop offset=".54" stop-color="gray" stop-opacity=".122"/><stop offset="1" stop-color="gray" stop-opacity=".102"/></linearGradient></defs><g transform="translate(-.004)"><ellipse cx="70.598" cy="6.959" rx="70.598" ry="6.959" transform="translate(420.549 562.081)" fill="#b5d653" opacity=".1"/><path d="M302.56 8.426c31.09-11.561 68.943-1.618 101.268 12.879 101.527 45.542 175.491 131.993 234.257 220.069 21.275 31.891 41.487 65.191 49.486 100.791 16.287 72.464-26.192 147.481-98.436 173.77-24.568 8.949-51.558 12.618-78.59 14.662-48.068 3.641-97.837 2.2-145.52-11.289-34.005-9.637-66.172-25.139-97.024-42.265-86.162-47.855-164.849-110-221.508-185.913C21.643 257.83.621 220.298.015 181.88s24.43-77.021 65.621-83.553c17.03-2.7 35.044.11 52.618 3 25.875 4.261 52.1 8.742 77.682 6.884 26.426-1.934 60.8-12.26 65.615-37.488 5.101-27.088 9.954-50.758 41.009-62.297z" fill="#b5d653" opacity=".1"/><path d="M167.975 529.218s33.22-2 29.3 21.277c0 0 .778 4.13-2.953 5.982 0 0-.055-1.728-3.407-1.143a15.007 15.007 0 01-3.607.179 7.524 7.524 0 01-4.412-1.824s-9.341-3.855-12.969-19.123c0 0-2.691-3.325-2.581-4.185l5.6 2.4s-1.914 4.048-.406 7.407c0 0 .179-7.255 1.26-7.09.213.034 2.912 1.377 2.912 1.377s-3.3 7.042-.812 12.163c0 0-.943-8.68 1.838-11.654l3.951 2.306s-3.855 7.276-1.239 13.21c0 0-.688-9.107 2.065-12.652l3.579 2.753s-3.621 7.173-1.411 12.1c0 0 .282-10.608 2.182-11.406 0 0 3.132 2.753 3.607 3.9 0 0-2.478 5.2-.943 7.951 0 0 .943-7.063 1.721-7.1 0 0 3.111 4.681 3.442 7.889a17.035 17.035 0 00-2.691-8.336 9.4 9.4 0 014.777 2.471s-.489-3.311-5.541-3.6c0 0-2.574-3.545-3.27-3.765 0 0 5.032-.42 8.081.936 0 0-2.685-3.125-9-1.707l-3.531-2.877s6.629-.909 9.431.1c0 0-3.228-2.753-10.38-.75l-3.841-2.3s5.645-1.218 9.011-.778c0 0-3.552-1.914-10.14.158l-2.753-1.232s4.13-.812 5.349-.943 1.273-.461 1.273-.461a14.332 14.332 0 00-7.772.86s-5.823-2.093-5.72-2.493z" fill="#b5d653"/><ellipse cx="23.514" cy="3.972" rx="23.514" ry="3.972" transform="translate(167.342 554.537)" fill="#b5d653" opacity=".1"/><path d="M123.473 513.559s18.73-1.129 16.521 12a3.187 3.187 0 01-1.659 3.373s-.034-.971-1.921-.64a8.348 8.348 0 01-2.031.1 4.171 4.171 0 01-2.492-1.026s-5.259-2.182-7.324-10.787c0 0-1.514-1.879-1.459-2.361l3.166 1.377a5.688 5.688 0 00-.234 4.178s.1-4.1.688-4c.124 0 1.645.792 1.645.792s-1.859 3.972-.454 6.884c0 0-.537-4.894 1.033-6.574l2.223 1.3s-2.168 4.13-.688 7.448c0 0-.379-5.135 1.163-7.131l2.017 1.569s-2.065 4.041-.792 6.822c0 0 .158-5.982 1.232-6.429a12.264 12.264 0 012.031 2.2s-1.377 2.932-.53 4.481c0 0 .53-3.979.971-4a13.161 13.161 0 011.934 4.447 9.637 9.637 0 00-1.514-4.7 5.253 5.253 0 012.691 1.377s-.268-1.865-3.125-2.031a12.168 12.168 0 00-1.838-2.12 11.51 11.51 0 014.557.523s-1.514-1.762-5.08-.964l-1.989-1.625s3.738-.509 5.321.055c0 0-1.824-1.556-5.858-.42l-2.161-1.3a19.668 19.668 0 015.073-.434s-2-1.081-5.713.089l-1.549-.688s2.334-.461 3.015-.53.723-.262.723-.262a8.116 8.116 0 00-4.385.489s-3.263-1.255-3.208-1.482z" fill="#b5d653"/><ellipse cx="13.258" cy="2.244" rx="13.258" ry="2.244" transform="translate(123.115 527.821)" fill="#b5d653" opacity=".1"/><path d="M584.268 526.176s22.613-1.377 19.962 14.456a3.882 3.882 0 01-2.01 4.075s-.041-1.177-2.32-.778a10.2 10.2 0 01-2.458.117 5.06 5.06 0 01-3-1.239s-6.36-2.623-8.832-13.017c0 0-1.831-2.265-1.755-2.843l3.814 1.625s-1.3 2.753-.275 5.046c0 0 .124-4.942.854-4.818.151 0 1.982.95 1.982.95s-2.244 4.818-.551 8.26c0 0-.64-5.906 1.253-7.93l2.685 1.563s-2.623 4.956-.84 9c0 0-.461-6.2 1.377-8.611l2.437 1.9s-2.464 4.88-.964 8.26c0 0 .2-7.214 1.494-7.765a14.842 14.842 0 012.451 2.65s-1.687 3.545-.64 5.417c0 0 .64-4.818 1.17-4.818 0 0 2.12 3.187 2.34 5.369a11.572 11.572 0 00-1.824-5.672 6.394 6.394 0 013.249 1.68s-.33-2.251-3.779-2.451a14.668 14.668 0 00-2.216-2.561 13.923 13.923 0 015.507.633s-1.831-2.12-6.133-1.156l-2.4-1.962s4.509-.62 6.422.062c0 0-2.2-1.879-7.069-.509l-2.616-1.563a23.827 23.827 0 016.133-.53s-2.416-1.3-6.884.11l-1.872-.84s2.815-.557 3.641-.64.867-.317.867-.317a9.774 9.774 0 00-5.287.585s-3.982-1.476-3.913-1.738z" fill="#b5d653"/><ellipse cx="16.004" cy="2.705" rx="16.004" ry="2.705" transform="translate(583.835 543.413)" fill="#b5d653" opacity=".1"/><path d="M839.992 503.925a49.1 49.1 0 01-.75-7.338c0-2.953-4.013-5.569-4.013-5.569s-2.478-5.734-4.13-6.581-6.753-8.35-6.753-8.35a6.822 6.822 0 00-1.535-4.048 58.184 58.184 0 01-4.178-6.305c-.688-.84-.344-1.432-1.377-6.326a7.781 7.781 0 00-.193-.737.966.966 0 00-.11-.317 8.26 8.26 0 001.947-8.554 3.442 3.442 0 00-.977-1.514c-1.163-.95-3.022-.558-4.22-1.459l1.273-5.631c.3-1.377.461-3.118-.743-3.862a6.25 6.25 0 00-1.418-.475c-2.065-.688-3.263-2.87-3.8-4.97a17.03 17.03 0 01-.413-6.2c.234-2 .819-3.937 1.033-5.941a16.314 16.314 0 00-2.526-10.559 8.13 8.13 0 00-3.339-3.153c-1.273-.571-2.753-.688-3.944-1.377-2.561-1.631-2.43-5.507-4.474-7.73s-5.665-2.217-8.646-1.452-5.947 2.065-9 1.742c-1.969-.22-3.814-1.115-5.789-1.322a6.1 6.1 0 00-1.693.076v-.062a3.673 3.673 0 00-3.146 2.457 3.754 3.754 0 00-.1 1.005c0 .805.193 1.645.206 2.416a2.3 2.3 0 01-.558 1.7c-.392.42-.971.64-1.377 1.074a1.721 1.721 0 00-.5 1.267c0 1.225 1.528 2.306 2.554 2.8h.041c-.275.275-.551.564-.805.86a18.131 18.131 0 00-4.557 12.039 18.379 18.379 0 0011.179 16.782l-.145.447a25.682 25.682 0 01-1.012 2.6 5.156 5.156 0 00-4.323.482c-1.969 1.377-5.817 1.267-6.842 1.012s-11.7-1.6-12.563-1.267-2.561-1.177-3.669.847-1.625 3.118-2.753 3.628-3.077 2.106-2.815 2.444-2.822 2.361-2.822 2.361-2.65 2.753-4.185 3.118a24.579 24.579 0 00-4.784 2.451l-3.765 2.946s-2.815.427-1.962-1.514-1.542-4.385-1.542-4.385-4.784-9.7-4.784-11.7-3.931-10.546-3.931-10.546l-.482-.048-.22-.626c-.723-2.031-1.659-4.523-2.375-5.982-1.377-2.788-2.223-3.077-2.223-3.077s-16.576-12.446-27.342-8.653 19.653 15.1 22.386 16.28c.957.413 1.645 1.748 2.127 3.311a14.167 14.167 0 00-5.885 5.294s6.581 14.586 6.753 18.214 4.529 13.767 4.529 13.767 1.625 7.51 10.422 7.083c0 0 12.136 2.23 14.786 0s5.039-3.979 6.326-4.233a4.991 4.991 0 002.389-1.686s-4.013 25.3-5.982 27.493-19.364 30.6-13.12 35.678a124.738 124.738 0 0015.633 10.325c.53.262 2.12-2.389 4.392-4.268v1.466c.041 10.105 1.377 25.469 3.221 28.911 2.753 5.059 1.625 14.841 1.625 14.841a11.7 11.7 0 004.619 1.108c.083.33.179.688.268 1.033 1.508 5.693 3.951 14.5 5.2 16.837 1.879 3.545 3.242 14.765 3.242 14.765s1.115 11.014.688 12.563c-.165.585.558 5.17 1.693 11.014-.688 7.909-2 23.156-2.217 28.67v.4a1.687 1.687 0 010 .186v.337a5.152 5.152 0 00.041 1.039 3.373 3.373 0 01-.117 1.57 27.4 27.4 0 01-1.852 4.419 21.05 21.05 0 00-.826 2.134 3.857 3.857 0 00-2 2.836c-.854 3.29-2.134 12.391-2.134 12.391s-.516 5.569-1.535 6.835-2.065 9.19 5.211 10.2 10.422-3.855 10.422-3.855l-.255-22.083v-.041a3.347 3.347 0 00.379-.6v-.055c.048-.1.1-.213.151-.337l.062-.165.11-.268a.392.392 0 010-.1 14.593 14.593 0 00.62-6.574v-.929a2.613 2.613 0 01.041-.454v-.083l.041-.268v-.117a.508.508 0 01.055-.275.306.306 0 010-.069c.069-.317.151-.688.241-.991v-.076l.1-.33c.1-.351.22-.688.344-1.06v-.069a.967.967 0 01.117-.324v-.041c.124-.337.255-.688.379-.977l.034-.089.11-.275.034-.083.262-.613 2.017 6.23s1.115 4.64.516 5.734.688 5.651 1.535 5.734l-.792 5.734a87.726 87.726 0 00-.764 9.534c-.055.365-.11.688-.151.909-.551 2.939.771 7.5.771 7.5 6.746 7.978 14.786.62 14.786.62s.936-4.22 0-5.059-.516-3.882-.516-3.882.427-7.51.509-12.989-4.481-10.325-4.481-10.325l-.255.227c-.833-2.148-1.783-4.653-1.583-5.775.344-1.941-.943-22.434-.943-22.434a121.533 121.533 0 00.3-16.521c.11-.929.213-1.845.317-2.753.516-4.406.936-8.171 1.1-10.146v-.234c.041-.53.062-.909.055-1.088 0-.688 0-1.473.069-2.334.158-2.368.53-5 .53-5l1.79-10.883s1.377-5.314 3.339-8.26l.234-.372c.076-.131.151-.275.234-.427l.034-.062c.076-.145.158-.3.234-.454l.034-.062c.275-.544.571-1.17.881-1.859 0-.055.048-.1.069-.158l.234-.523a.54.54 0 01.09-.207c.034-.069.145-.351.22-.523a2 2 0 00.089-.213c.089-.206.186-.42.275-.64l.131-.317c.062-.158.131-.317.2-.475l.165-.42c.048-.1.09-.207.131-.31l.186-.475c0-.069.062-.145.089-.213a244.78 244.78 0 001.377-3.518c.131-.344.262-.688.379-.991 4.378.268 7.352.509 7.352.509s1.377-9.864.936-16.355a60.767 60.767 0 011.081-13.079c.062-.337.117-.64.172-.916l.117.1c2.141 1.687 3.676-3.882 3.676-3.882s-.578-5.2-1.377-11.5l-.083-.626a32.351 32.351 0 003.738.571s.688-.062 1.631-.179a45.161 45.161 0 008.219 3.717l4.55-8.4a34.172 34.172 0 012.994-4.977c1.377-1.686 6.237-7.083 6.154-8.1s1.625-6.835 3.332-9.451 2.396-7.868 2.313-8.288zm-18.971 6.409c-1.8.757-3.5 4.977-3.586 6.243s-1.969 6.828-3.931 7.5c-1.81.62-5.266 3.8-5.817 4.309-.564.048-1.2.124-1.872.234-.75-5.321-1.494-9.727-1.969-10.615-1.377-2.533 1.508-10.628 1.508-10.628s.282-8.178 2.065-10.119 1.377-6.835 1.377-6.835.427-2.024.6-2.946 2.54 0 2.561 0 4.612 2.526 5.3 6.319 5.727 10.374 5.727 10.374-.771 2.278 0 3.442-.166 1.964-1.963 2.722z" transform="translate(-278.254 -144.862)" fill="url(#a)"/><path d="M419.186 293.393a13.767 13.767 0 0113.767-6.484v9.85h-5.982l-4.685-1.184z" fill="#4c4981"/><path d="M419.186 293.393a13.767 13.767 0 0113.767-6.484v9.85h-5.982l-4.685-1.184z" opacity=".1"/><path d="M433.4 289.518l-7.331 5.135s-.062-1.026-.248-2.43c-.365-2.657-1.184-6.643-2.953-7.414-2.691-1.184-32.656-12.459-22.028-16.252s26.936 8.639 26.936 8.639.84.289 2.182 3.063c.688 1.459 1.631 3.944 2.34 5.975a85.556 85.556 0 011.102 3.284z" fill="#ae6e79"/><path d="M491.966 297.425l.833-.392 2.34 2.671-1.914 4.082-3.263-1.308.757-3.263z" fill="#4c4981"/><path d="M480.876 536.504s-2.106-.248-2.946 3.036-2.106 12.391-2.106 12.391-.5 5.555-1.514 6.822-2.017 9.176 5.135 10.181 10.27-3.848 10.27-3.848l-.255-22.076zM505.837 537.493s4.5 4.818 4.419 10.284-.509 12.962-.509 12.962-.413 3.036.509 3.875 0 5.053 0 5.053-7.916 7.345-14.566-.62c0 0-1.294-4.55-.757-7.483s2.038-16.115 2.038-16.115z" fill="#444053"/><path d="M516.988 436.834s-4.543 12.707-6.484 15.653-3.277 8.26-3.277 8.26l-1.769 10.855a60.582 60.582 0 00-.592 7.324c.083 2.444-4.378 38.046-4.378 38.046l-7.07 9.011s-3.111 6.312-2.609 8.949-.337 6.822-1.377 8.081c0 0-.165 8.26-.42 10.1s.929 7.076 0 8-13.3.509-13.636-1.012 1.514-8.839 1.514-8.839l1.094-7.069s2.189-3.869 1.687-5.135.922-4.206 1.005-4.461 2.361-4.378 1.941-5.975 2.65-35.561 2.65-35.561l8.667-60.858z" fill="#ae6e79"/><path d="M516.988 436.834s-.688 1.914-1.631 4.426c-1.5 3.965-3.662 9.424-4.853 11.227-1.934 2.946-3.284 8.26-3.284 8.26l-1.769 10.862a61.041 61.041 0 00-.585 7.324c0 .964-.647 7.111-1.473 14.194-1.273 10.828-2.9 23.852-2.9 23.852l-7.07 9.011s-.358.688-.805 1.776c-.888 2.065-2.141 5.417-1.8 7.145.5 2.609-.337 6.815-1.377 8.081 0 0-.172 8.26-.42 10.1s.929 7.069 0 8-13.3.509-13.636-1.005 1.514-8.839 1.514-8.839l1.094-7.076s2.189-3.869 1.68-5.135.929-4.206 1.012-4.46 2.361-4.378 1.941-5.975c-.324-1.219 1.377-21.16 2.168-30.618l.441-4.908 7.447-52.361.606-4.22.606-4.282z" opacity=".1"/><path d="M509.416 563.427c.076.929-11.874 2.278-13.581 1.267s0-13.554 0-13.554l.778-5.72c-.833-.09-2.1-4.633-1.514-5.727s-.5-5.72-.5-5.72l-1.982-6.2-1.211-3.793c-1.969-4.344-4.819-16.734-6.588-25.986-1.115-5.81-1.824-10.387-1.666-10.973.42-1.514-.688-12.542-.688-12.542s-1.377-11.2-3.194-14.731c-1.232-2.34-3.635-11.131-5.121-16.8-.757-2.912-1.28-5-1.28-5s12.721-1.067 20.437-1.439c3.545-.172 6.037-.193 5.748.1s-.365 1.831-.351 4.061c.034 5.775.84 15.936 1.693 18.668 1.177 3.786 2.354 15.144 1.852 16.245s-.337 8.419-.337 8.419a37.862 37.862 0 011.487 9.135 123.482 123.482 0 01-.289 16.445s1.26 20.458.922 22.392 2.691 8 2.691 9.176.84 9.176.84 9.176 1.799 12.182 1.854 13.101zM516.058 317.548l-1.446 1.563-.943 1.019-5.507 5.92-14.228 1.6-7.572-2.024-1.872-.5s0-3.8.337-8.357c.482-5.844 1.631-12.941 4.378-14.875a10.939 10.939 0 003.2-4.054 22.836 22.836 0 001.377-3.4c.055-.151.1-.3.145-.447a38.02 38.02 0 001.335-6.243s1.817-1.005 4.344-2.175c6.588-3.077 17.966-7.324 14.008 2.175a37.155 37.155 0 00-1.487 4.268c-.062.213-.117.427-.165.633-1.322 5.287-.447 8.494.537 10.263a6.422 6.422 0 00.571.874 4.589 4.589 0 00.957.971l1.638 10.4.138.86z" fill="#ae6e79"/><path d="M513.622 288.258c-.75 1.8.365-1.473 0 0-3 2.134-10.071 8.212-14.043 8.212-2.685 0-3.49-.489-5.789-1.528a37.551 37.551 0 001.48-6.684s23.824-13.134 18.352 0z" opacity=".1"/><path d="M519.686 277.196a18.366 18.366 0 01-16.431 18.248c-.633.062-1.273.1-1.921.1a18.352 18.352 0 1118.352-18.352z" fill="#ae6e79"/><path d="M522.296 358.547l-2.616 6.822s-2.127.089-5.445.193c-11.2.358-35.877.812-36.979-2.065a7.317 7.317 0 01-.385-2.265c-.145-4.385 1.9-11.117 1.9-11.117s1.177-13.471 1.177-14.056-1.012-10.023-1.012-10.023l2.024-7.572 5.638-3.958s2.526 3.875 4.041 4.206a10.5 10.5 0 013.538 2.2s4.963 3.029 6.567 1.342 14.056-9.093 14.056-9.093l6.567 7.242z" opacity=".1"/><path d="M522.295 359.593l-2.616 6.815s-2.127.1-5.445.2h-.323c-1.432.048-3.07.1-4.819.131-8.9.206-21.16.262-27.569-.688-2.409-.344-3.986-.84-4.247-1.514a6.076 6.076 0 01-.3-1.253 12.51 12.51 0 01-.083-1.012c-.145-4.385 1.9-11.117 1.9-11.117s1.177-13.471 1.177-14.056-1.012-10.023-1.012-10.023l2.024-7.572 3.875-2.712 1.762-1.239a26.413 26.413 0 001.934 2.547 5.149 5.149 0 002.106 1.659 10.535 10.535 0 013.538 2.2s4.963 3.029 6.567 1.342c1.218-1.287 8.79-5.92 12.287-8.033 1.074-.654 1.769-1.06 1.769-1.06l.881.977 5.686 6.264z" fill="#fff"/><path d="M433.4 289.518l-7.331 5.135s-.062-1.026-.248-2.43a14.839 14.839 0 006.457-5.989 72.048 72.048 0 011.122 3.284z" opacity=".1"/><path d="M459.158 306.947l-1.6-.427s-2.616 2.753-4.13 3.118a24.107 24.107 0 00-4.708 2.437l-3.71 2.946s-2.753.427-1.934-1.514-1.514-4.378-1.514-4.378-4.715-9.678-4.715-11.7-3.9-10.518-3.9-10.518-4.887 9.513-13.809 6.484c0 0 6.484 14.559 6.65 18.18s4.461 13.719 4.461 13.719 1.6 7.5 10.27 7.076c0 0 11.957 2.223 14.566 0s4.963-3.972 6.2-4.227a5.109 5.109 0 002.354-1.68v-10.01z" fill="#4c4981"/><path d="M444.173 316.453s2.106 7.834.757 8.673zM514.234 366.573c-11.2.358-35.877.805-36.979-2.065a7.316 7.316 0 01-.385-2.265l36.586 1.927zM516.988 436.834s-.688 1.914-1.631 4.426c-4.646-.282-10.8-.578-16.645-.62-2.065 0-4.089 0-6 .069a45.217 45.217 0 00-9.809 1.088 26.015 26.015 0 01-8.742 1.129c-.757-2.912-1.28-5-1.28-5s12.721-1.067 20.437-1.439l.606-4.282z" opacity=".1"/><path d="M526.839 406.023l-1.432 3.029s-.2.9-.454 2.334a59.662 59.662 0 00-1.06 13.079c.42 6.484-.929 16.328-.929 16.328s-30.976-2.609-40.063 0-13.561 0-13.561 0 1.1-9.761-1.6-14.814c-1.838-3.442-3.132-18.806-3.173-28.911 0-4.66.234-8.191.819-8.907 1.852-2.272 9.761-25 9.761-25l1.8.1 4.819.255 27.4 1.445 4.3.227.454 1.377z" fill="#444053"/><path d="M540.475 395.917l.255 2.7s-13.568-4.419-12.879-9.85 0-4.819 0-4.819l10.9.922z" fill="#4c4981"/><path d="M540.475 395.917l.255 2.7s-13.568-4.419-12.879-9.85 0-4.819 0-4.819l10.9.922zM453.225 318.63a12.088 12.088 0 004.777 2.485 3.111 3.111 0 01-1.377-.688c-.971-.688-1.893-1.439-2.829-2.168a8.879 8.879 0 00-2.63-1.817 14.5 14.5 0 002.059 2.188zM453.432 322.173a6.078 6.078 0 011.046 1.659 10.029 10.029 0 01-.076 5.211l-2.175-5.245c-.379-.895-.757-1.79-1.211-2.643-.2-.365-1.452-1.886-1.308-2.2.385-.899 3.318 2.716 3.724 3.218zM514.125 351.221a7.008 7.008 0 003.958-1.852c-2.237.282-4.357 1.163-6.56 1.625a9.747 9.747 0 01-6.113-.564c2.533 1.24 6.016 1.281 8.715.791zM507.798 335.81a1.535 1.535 0 01-1.136-.282q-2.519-1.445-4.97-3.015a33 33 0 01-4.867-3.359c3.34 3.02 6.451 5.562 10.973 6.656zM512.466 353.666a10.476 10.476 0 002.63-.213 3.524 3.524 0 002.161-1.418 1.239 1.239 0 00-.915.145 15.447 15.447 0 01-8.453 1.012 12.208 12.208 0 004.577.474zM496.523 392.752a27.615 27.615 0 01-5.376 1.053 32.487 32.487 0 01-4.254-.083l-6.884-.434-3.442-.22c-.406 0-2.065 0-1.246-.819.413-.4 2.712-.145 3.3-.165q1.714-.055 3.442-.062c2.278 0 4.564 0 6.842.138 2.559.124 5.068.316 7.618.592zM488.545 396.158c-1.17-.048-2.678.647-3.882.8a25.826 25.826 0 01-4.061.158 22.648 22.648 0 01-7.827-1.6c5.25.27 10.518.429 15.77.642zM473.8 399.765a11.25 11.25 0 011.5.413c2.9.826 6 .1 8.949-.633a5.251 5.251 0 01-3.394 1.886 15.737 15.737 0 01-6.608.241c-.688-.138-2.416-.386-2.753-1.1-.565-1.055 1.659-.91 2.306-.807zM490.087 405.196a22.457 22.457 0 012.574.688c3.27.812 6.663-.3 9.947-1.053a46.3 46.3 0 0112.039-1.115 11.923 11.923 0 00-2.581.847c-.929.282-1.872.544-2.815.778a57.804 57.804 0 01-5.624 1.095 57.821 57.821 0 01-11.544.5c-1.762-.1-4.819.083-6.326-.805a6.973 6.973 0 014.33-.936zM491.319 301.378s.165 7.751-1.095 11.289c-.4 1.1-1.019 3.132-1.693 5.41-.737 2.526-1.542 5.355-2.161 7.572l-1.033 3.7s-2.843 23.156-3.579 34.191a2.693 2.693 0 01-.041.578c-.041.62-.11 1.267-.213 1.934-1.638 10.959-11.089 27.858-14.263 29.207a9.443 9.443 0 00-2.671 1.838c0-4.66.234-8.192.819-8.907 1.852-2.272 9.761-25 9.761-25l1.8.1a12.51 12.51 0 01-.083-1.012c-.145-4.385 1.9-11.117 1.9-11.117s1.177-13.471 1.177-14.056-1.005-10.024-1.005-10.024l2.024-7.572 3.875-2.712c.482-5.844 1.631-12.941 4.378-14.875a10.938 10.938 0 003.2-4.054c.544.076-.447-.406-.447-.406z" opacity=".1"/><path d="M492.799 297.037a5.011 5.011 0 00-4.261.482c-1.941 1.377-5.727 1.26-6.739 1.012s-11.53-1.6-12.391-1.267-2.526-1.177-3.621.847-1.6 3.111-2.691 3.614-3.036 2.106-2.753 2.444-2.753 2.354-2.753 2.354l6.14 19.962s-3.958 25.249-5.892 27.438-19.109 30.556-12.962 35.609a122.34 122.34 0 0015.406 10.325c.688.337 3.111-4.206 6.477-5.638s13.809-20.375 14.456-31.148 3.621-34.762 3.621-34.762 3.621-13.134 4.88-16.672 1.095-11.289 1.095-11.289z" fill="#4c4981"/><path d="M526.838 406.023l-1.432 3.029s-.2.9-.454 2.334a1.287 1.287 0 01-.688-.31c-2.106-1.686-14.456-14.394-15.068-25.676-.434-8.322-.227-15.5-.089-18.689.041-1.005.083-1.611.083-1.742s9.6-11.62 8.5-15.736-3.621-26.158-3.621-26.158l-.372-2.891-.64-4.887-1.528-11.826 1.583.372a4.588 4.588 0 00.957.971l1.638 10.4 5.686 6.264.929 38.135-2.616 6.815s-2.127.1-5.445.2h-.323z" opacity=".1"/><path d="M532.137 343.072s-2.354-.929-2.519 0-.592 2.939-.592 2.939.42 4.887-1.377 6.822-2.065 10.1-2.065 10.1-2.836 8.081-1.494 10.608c.489.916 1.246 5.507 2 11.014.482 3.442.957 7.221 1.377 10.677.764 6.278 1.335 11.475 1.335 11.475s-1.521 5.555-3.628 3.869-14.456-14.394-15.061-25.676a203.623 203.623 0 01-.11-18.2c.055-1.439.11-2.251.11-2.251s9.6-11.62 8.5-15.743-3.621-26.158-3.621-26.158l-.441-3.407-.475-3.662-.11-.805-1.521-11.7c.268.062 9.713 2.2 10.959 3.442s8.949 3.029 8.949 3.029a6.732 6.732 0 014.777 4.9c.076.234.131.482.186.737 1.012 4.887.688 5.472 1.377 6.319s-6.556 21.671-6.556 21.671z" fill="#4c4981"/><path d="M527.527 395.223c-3.442-.688-8.549-2.278-8.432-5.789.1-3.284 4.054-4.468 7.049-4.887.481 3.427.956 7.22 1.383 10.676z" opacity=".1"/><path d="M538.204 393.474c-.138.3-.688.551-1.473.778a39.713 39.713 0 01-5.6.916s-11.7-.929-11.537-6.237c.124-3.807 5.411-4.819 8.377-5.046a19.268 19.268 0 011.976-.083s8.759 8.584 8.257 9.672z" fill="#ae6e79"/><path d="M538.203 393.474c-.138.3-.688.551-1.473.778-3.049-4.082-7.3-9.32-9.389-9.782l.633-.585a19.268 19.268 0 011.976-.083s8.756 8.584 8.253 9.672z" opacity=".1"/><path d="M535.257 320.831l3.442.509a59.811 59.811 0 004.13 6.312 6.885 6.885 0 011.514 4.041s5.053 7.489 6.65 8.329 4.041 6.567 4.041 6.567 3.956 2.609 3.956 5.552a49.485 49.485 0 00.757 7.324c.089.42-.585 5.645-2.272 8.26s-3.373 8.384-3.283 9.417-4.715 6.4-6.058 8.081a34.231 34.231 0 00-2.946 4.97l-4.46 8.419s-9.431-13.891-12.879-14.648c0 0 3.869-3.7 5.8-4.378s3.793-6.2 3.875-7.489 1.769-5.472 3.531-6.2 2.7-1.514 1.941-2.7 0-3.442 0-3.442-4.97-6.567-5.645-10.325-5.218-6.312-5.218-6.312l-2.609-6.4z" fill="#4c4981"/><path d="M547.778 352.254a10.924 10.924 0 016.794-2.574 8.282 8.282 0 00-4.447 1.742 10.494 10.494 0 00-1.232 1.57c-.4.571-3.648 4.7-4.13 4.048-.805-.96 2.361-4.228 3.015-4.786zM540.151 348.269a2.911 2.911 0 002.4-1.7 9.531 9.531 0 00.75-2.988 44.6 44.6 0 011.04-5.115 2.368 2.368 0 00-.145-2.065 6.985 6.985 0 00-.743-1.528c-.62.688-.8 2.292-1.053 3.215a99.193 99.193 0 00-.881 3.442c-.143.554-1.285 6.739-1.368 6.739zM537.171 314.285a7.093 7.093 0 01-1.163 1.2c-1.377 1.094-3.2 2.017-3.373 3.745a4.028 4.028 0 01-.207 1.659c-.441.757-1.521.688-2.382.544a4.13 4.13 0 01-2.017-.743c-.9-.771-.984-2.148-1.673-3.118a4.247 4.247 0 00-3.442-1.521c-1.287-.041-2.568.248-3.855.3a10.594 10.594 0 01-2.471-.165 7.838 7.838 0 01-.8-.165 10.278 10.278 0 01-1.68-.571 7.392 7.392 0 01-.819-.385 10.875 10.875 0 01-2.375-1.652 5.9 5.9 0 01-2.2-4.467c.062-1.053.537-2.024.688-3.063.516-2.974-1.459-5.782-3.6-7.909-.854-.847-1.762-1.666-2.616-2.526a12.59 12.59 0 01-3.077-4.392 13.079 13.079 0 01-.551-5.507 37.989 37.989 0 00.158-5.658c-.633-6.691-6.347-11.819-12.06-14.607l-.255-.131a18.345 18.345 0 1124.679 26.846c-.062.213-.117.427-.165.633-1.322 5.287-.447 8.494.537 10.263.268.062 9.713 2.2 10.959 3.442s8.949 3.029 8.949 3.029a6.732 6.732 0 014.812 4.922z" opacity=".1"/><path d="M486.191 260.293c.379-.434.95-.654 1.335-1.074 1.191-1.294 0-3.407.434-5.115.468-1.893 2.795-2.719 4.736-2.519s3.758 1.094 5.7 1.315c3.015.337 5.934-.971 8.873-1.735s6.491-.805 8.515 1.446 1.886 6.085 4.406 7.717c1.163.75 2.63.833 3.889 1.377a7.991 7.991 0 013.29 3.146 16.479 16.479 0 012.492 10.539c-.213 2-.792 3.937-1.026 5.934a17.279 17.279 0 00.413 6.2c.53 2.065 1.68 4.3 3.738 4.956a6.3 6.3 0 011.377.475c1.191.743 1.033 2.492.73 3.855l-1.225 5.651c1.177.895 3.008.509 4.13 1.452a3.442 3.442 0 01.964 1.514 8.26 8.26 0 01-2.471 9.045c-1.377 1.094-3.2 2.017-3.373 3.738a3.882 3.882 0 01-.206 1.659c-.434.757-1.521.688-2.382.544a4.13 4.13 0 01-2.01-.743c-.909-.771-.984-2.148-1.673-3.118a4.261 4.261 0 00-3.442-1.521c-1.294-.041-2.568.248-3.862.31a11.413 11.413 0 01-8.116-2.932 5.925 5.925 0 01-2.21-4.474c.062-1.046.537-2.024.688-3.063.509-2.967-1.459-5.782-3.6-7.909s-4.653-4.089-5.7-6.918c-1.308-3.5-.041-7.414-.392-11.131-.633-6.7-6.34-11.819-12.06-14.614-1.277-.658-3.442-2.316-1.962-4.007z" fill="#444053"/><path d="M531.21 318.105c-.909-.778-.984-2.148-1.673-3.118a4.275 4.275 0 00-3.442-1.528c-1.294-.041-2.574.248-3.862.31a11.378 11.378 0 01-8.143-2.939 5.9 5.9 0 01-2.2-4.467c.062-1.053.537-2.031.688-3.063.516-2.974-1.459-5.789-3.6-7.916s-4.646-4.089-5.7-6.918c-1.3-3.5 0-7.407-.385-11.131-.64-6.7-6.347-11.819-12.06-14.614-1.335-.654-3.5-2.313-2.024-4 .372-.434.943-.654 1.329-1.074 1.191-1.287 0-3.407.441-5.108a2.808 2.808 0 01.434-.943 3.671 3.671 0 00-3.1 2.457c-.42 1.707.757 3.82-.434 5.115-.385.42-.957.64-1.335 1.067-1.48 1.686.688 3.352 2.024 4 5.72 2.795 11.427 7.923 12.06 14.614.351 3.724-.916 7.634.392 11.138 1.046 2.822 3.559 4.819 5.7 6.918s4.13 4.936 3.6 7.909a26.392 26.392 0 00-.688 3.063 5.911 5.911 0 002.21 4.467 11.351 11.351 0 008.136 2.939c1.294-.062 2.568-.344 3.862-.31a4.281 4.281 0 013.442 1.528c.688.971.764 2.347 1.673 3.118a4.13 4.13 0 002.01.737c.86.158 1.948.213 2.382-.537a1.857 1.857 0 00.193-.991 3.958 3.958 0 01-1.921-.723z" opacity=".1"/><path d="M431.005 277.196h-47.614v-46.919h47.648zm-.688-70.743h-46.238c0-72.911 69.3-68.65 69.3-114.777 0-25.407-20.8-45.762-46.2-45.762s-46.2 21.945-46.2 46.485h-46.2a92.24 92.24 0 0192.4-92.4c51.035 0 92.4 40.717 92.4 91.676 0 57.678-69.3 64.245-69.3 114.777z" fill="#b5d653"/><path d="M193.527 263.222h-12.28v-12.129h12.28zm-.186-18.242h-11.909c0-18.792 17.863-17.7 17.863-29.6a11.854 11.854 0 00-11.909-11.805 12.163 12.163 0 00-11.881 11.977h-11.908a23.823 23.823 0 1147.645-.186c-.038 14.869-17.9 16.562-17.9 29.586zM286.511 347.485h-12.285V335.39h12.28zm-.179-18.235h-11.906c0-18.8 17.863-17.7 17.863-29.6a11.847 11.847 0 00-11.909-11.8 12.163 12.163 0 00-11.943 11.991h-11.911a23.823 23.823 0 1147.645-.186c.017 14.871-17.839 16.571-17.839 29.595zM343.053 198.317h-8.9v-8.749h8.9zm-.131-13.223h-8.632c0-13.616 12.948-12.824 12.948-21.442a8.591 8.591 0 00-8.632-8.549 8.811 8.811 0 00-8.632 8.687h-8.632a17.264 17.264 0 1134.528-.138c-.014 10.772-12.948 12.004-12.948 21.442zM495.071 210.665h-5.032v-4.956h5.032zm-.076-7.469h-4.908c0-7.7 7.317-7.248 7.317-12.122a4.818 4.818 0 00-4.874-4.818 4.984 4.984 0 00-4.88 4.909h-4.88a9.761 9.761 0 0119.515-.076c.028 6.051-7.285 6.776-7.285 12.108zM572.001 436.084h-5.032v-4.956h5.032zm-.076-7.469h-4.88c0-7.7 7.324-7.248 7.324-12.122a4.853 4.853 0 00-4.88-4.819 4.977 4.977 0 00-4.881 4.908h-4.88a9.761 9.761 0 0119.515-.076c.028 6.078-7.29 6.773-7.29 12.108z" fill="#b5d653" opacity=".1"/></g></svg>