<svg xmlns="http://www.w3.org/2000/svg" xmlns:xlink="http://www.w3.org/1999/xlink" width="691.033" height="576" viewBox="0 0 691.033 576"><defs><linearGradient id="a" x1="0.5" y1="1" x2="0.5" gradientUnits="objectBoundingBox"><stop offset="0" stop-color="gray" stop-opacity="0.251"/><stop offset="0.54" stop-color="gray" stop-opacity="0.122"/><stop offset="1" stop-color="gray" stop-opacity="0.102"/></linearGradient></defs><g transform="translate(-0.004 0)"><ellipse cx="70.598" cy="6.959" rx="70.598" ry="6.959" transform="translate(420.549 562.081)" fill="#b5d653" opacity="0.1"/><path d="M400.6,41.561C431.69,30,469.543,39.943,501.868,54.44,603.395,99.982,677.359,186.433,736.125,274.509,757.4,306.4,777.612,339.7,785.611,375.3c16.287,72.464-26.192,147.481-98.436,173.77-24.568,8.949-51.558,12.618-78.59,14.662-48.068,3.641-97.837,2.2-145.52-11.289-34.005-9.637-66.172-25.139-97.024-42.265-86.162-47.855-164.849-110-221.508-185.913-24.85-33.3-45.872-70.832-46.478-109.25s24.43-77.021,65.621-83.553c17.03-2.7,35.044.11,52.618,3,25.875,4.261,52.1,8.742,77.682,6.884,26.426-1.934,60.8-12.26,65.615-37.488C364.692,76.77,369.545,53.1,400.6,41.561Z" transform="translate(-98.04 -33.135)" fill="#b5d653" opacity="0.1"/><path d="M341.775,800.4s33.22-2,29.3,21.277c0,0,.778,4.13-2.953,5.982,0,0-.055-1.728-3.407-1.143a15.007,15.007,0,0,1-3.607.179,7.524,7.524,0,0,1-4.412-1.824h0s-9.341-3.855-12.969-19.123c0,0-2.691-3.325-2.581-4.185l5.6,2.4s-1.914,4.048-.406,7.407c0,0,.179-7.255,1.26-7.09.213.034,2.912,1.377,2.912,1.377s-3.3,7.042-.812,12.163c0,0-.943-8.68,1.838-11.654l3.951,2.306s-3.855,7.276-1.239,13.21c0,0-.688-9.107,2.065-12.652l3.579,2.753s-3.621,7.173-1.411,12.1c0,0,.282-10.608,2.182-11.406,0,0,3.132,2.753,3.607,3.9,0,0-2.478,5.2-.943,7.951,0,0,.943-7.063,1.721-7.1,0,0,3.111,4.681,3.442,7.889a17.035,17.035,0,0,0-2.691-8.336,9.4,9.4,0,0,1,4.777,2.471s-.489-3.311-5.541-3.6c0,0-2.574-3.545-3.27-3.765,0,0,5.032-.42,8.081.936,0,0-2.685-3.125-9-1.707l-3.531-2.877s6.629-.909,9.431.1c0,0-3.228-2.753-10.38-.75l-3.841-2.3s5.645-1.218,9.011-.778c0,0-3.552-1.914-10.14.158l-2.753-1.232s4.13-.812,5.349-.943,1.273-.461,1.273-.461a14.332,14.332,0,0,0-7.772.86S341.672,800.8,341.775,800.4Z" transform="translate(-173.8 -271.182)" fill="#b5d653"/><ellipse cx="23.514" cy="3.972" rx="23.514" ry="3.972" transform="translate(167.342 554.537)" fill="#b5d653" opacity="0.1"/><path d="M277.244,777.659s18.73-1.129,16.521,12a3.187,3.187,0,0,1-1.659,3.373s-.034-.971-1.921-.64a8.348,8.348,0,0,1-2.031.1,4.171,4.171,0,0,1-2.492-1.026h0s-5.259-2.182-7.324-10.787c0,0-1.514-1.879-1.459-2.361l3.166,1.377a5.688,5.688,0,0,0-.234,4.178s.1-4.1.688-4c.124,0,1.645.792,1.645.792s-1.859,3.972-.454,6.884c0,0-.537-4.894,1.033-6.574l2.223,1.3s-2.168,4.13-.688,7.448c0,0-.379-5.135,1.163-7.131l2.017,1.569s-2.065,4.041-.792,6.822c0,0,.158-5.982,1.232-6.429a12.264,12.264,0,0,1,2.031,2.2s-1.377,2.932-.53,4.481c0,0,.53-3.979.971-4a13.161,13.161,0,0,1,1.934,4.447,9.637,9.637,0,0,0-1.514-4.7,5.253,5.253,0,0,1,2.691,1.377s-.268-1.865-3.125-2.031a12.168,12.168,0,0,0-1.838-2.12,11.51,11.51,0,0,1,4.557.523s-1.514-1.762-5.08-.964l-1.989-1.625s3.738-.509,5.321.055c0,0-1.824-1.556-5.858-.42l-2.161-1.3a19.668,19.668,0,0,1,5.073-.434s-2-1.081-5.713.089l-1.549-.688s2.334-.461,3.015-.53.723-.262.723-.262a8.116,8.116,0,0,0-4.385.489S277.189,777.886,277.244,777.659Z" transform="translate(-153.771 -264.1)" fill="#b5d653"/><ellipse cx="13.258" cy="2.244" rx="13.258" ry="2.244" transform="translate(123.115 527.821)" fill="#b5d653" opacity="0.1"/><path d="M946.632,795.986s22.613-1.377,19.962,14.456a3.882,3.882,0,0,1-2.01,4.075s-.041-1.177-2.32-.778a10.2,10.2,0,0,1-2.458.117,5.06,5.06,0,0,1-3-1.239h0s-6.36-2.623-8.832-13.017c0,0-1.831-2.265-1.755-2.843l3.814,1.625s-1.3,2.753-.275,5.046c0,0,.124-4.942.854-4.818.151,0,1.982.95,1.982.95s-2.244,4.818-.551,8.26c0,0-.64-5.906,1.253-7.93l2.685,1.563s-2.623,4.956-.84,9c0,0-.461-6.2,1.377-8.611l2.437,1.9s-2.464,4.88-.964,8.26c0,0,.2-7.214,1.494-7.765a14.842,14.842,0,0,1,2.451,2.65s-1.687,3.545-.64,5.417c0,0,.64-4.818,1.17-4.818,0,0,2.12,3.187,2.34,5.369a11.572,11.572,0,0,0-1.824-5.672,6.394,6.394,0,0,1,3.249,1.68s-.33-2.251-3.779-2.451a14.668,14.668,0,0,0-2.216-2.561,13.923,13.923,0,0,1,5.507.633s-1.831-2.12-6.133-1.156l-2.4-1.962s4.509-.62,6.422.062c0,0-2.2-1.879-7.069-.509l-2.616-1.563a23.827,23.827,0,0,1,6.133-.53s-2.416-1.3-6.884.11l-1.872-.84s2.815-.557,3.641-.64.867-.317.867-.317a9.774,9.774,0,0,0-5.287.585S946.563,796.248,946.632,795.986Z" transform="translate(-362.364 -269.81)" fill="#b5d653"/><ellipse cx="16.004" cy="2.705" rx="16.004" ry="2.705" transform="translate(583.835 543.413)" fill="#b5d653" opacity="0.1"/><path d="M839.992,503.925a49.1,49.1,0,0,1-.75-7.338c0-2.953-4.013-5.569-4.013-5.569s-2.478-5.734-4.13-6.581-6.753-8.35-6.753-8.35a6.822,6.822,0,0,0-1.535-4.048,58.184,58.184,0,0,1-4.178-6.305h0c-.688-.84-.344-1.432-1.377-6.326-.055-.255-.117-.5-.193-.737a.966.966,0,0,0-.11-.317A8.26,8.26,0,0,0,818.9,449.8a3.442,3.442,0,0,0-.977-1.514c-1.163-.95-3.022-.558-4.22-1.459l1.273-5.631c.3-1.377.461-3.118-.743-3.862a6.25,6.25,0,0,0-1.418-.475c-2.065-.688-3.263-2.87-3.8-4.97a17.03,17.03,0,0,1-.413-6.2c.234-2,.819-3.937,1.033-5.941a16.314,16.314,0,0,0-2.526-10.559,8.13,8.13,0,0,0-3.339-3.153c-1.273-.571-2.753-.688-3.944-1.377-2.561-1.631-2.43-5.507-4.474-7.73s-5.665-2.217-8.646-1.452-5.947,2.065-9,1.742c-1.969-.22-3.814-1.115-5.789-1.322a6.1,6.1,0,0,0-1.693.076v-.062a3.673,3.673,0,0,0-3.146,2.457,3.754,3.754,0,0,0-.1,1.005c0,.805.193,1.645.206,2.416a2.3,2.3,0,0,1-.558,1.7c-.392.42-.971.64-1.377,1.074a1.721,1.721,0,0,0-.5,1.267c0,1.225,1.528,2.306,2.554,2.8h.041c-.275.275-.551.564-.805.86a18.131,18.131,0,0,0-4.557,12.039,18.379,18.379,0,0,0,11.179,16.782l-.145.447a25.682,25.682,0,0,1-1.012,2.6,5.156,5.156,0,0,0-4.323.482c-1.969,1.377-5.817,1.267-6.842,1.012s-11.7-1.6-12.563-1.267-2.561-1.177-3.669.847-1.625,3.118-2.753,3.628-3.077,2.106-2.815,2.444-2.822,2.361-2.822,2.361-2.65,2.753-4.185,3.118a24.579,24.579,0,0,0-4.784,2.451l-3.765,2.946s-2.815.427-1.962-1.514-1.542-4.385-1.542-4.385-4.784-9.7-4.784-11.7-3.931-10.546-3.931-10.546l-.482-.048-.22-.626c-.723-2.031-1.659-4.523-2.375-5.982-1.377-2.788-2.223-3.077-2.223-3.077s-16.576-12.446-27.342-8.653,19.653,15.1,22.386,16.28c.957.413,1.645,1.748,2.127,3.311a14.167,14.167,0,0,0-5.885,5.294s6.581,14.586,6.753,18.214,4.529,13.767,4.529,13.767,1.625,7.51,10.422,7.083c0,0,12.136,2.23,14.786,0s5.039-3.979,6.326-4.233a4.991,4.991,0,0,0,2.389-1.686s-4.013,25.3-5.982,27.493-19.364,30.6-13.12,35.678a124.738,124.738,0,0,0,15.633,10.325c.53.262,2.12-2.389,4.392-4.268v1.466c.041,10.105,1.377,25.469,3.221,28.911,2.753,5.059,1.625,14.841,1.625,14.841a11.7,11.7,0,0,0,4.619,1.108c.083.33.179.688.268,1.033,1.508,5.693,3.951,14.5,5.2,16.837,1.879,3.545,3.242,14.765,3.242,14.765s1.115,11.014.688,12.563c-.165.585.558,5.17,1.693,11.014h0c-.688,7.909-2,23.156-2.217,28.67h0v.4a1.687,1.687,0,0,1,0,.186v.337h0a5.152,5.152,0,0,0,.041,1.039,3.373,3.373,0,0,1-.117,1.57,27.4,27.4,0,0,1-1.852,4.419,21.05,21.05,0,0,0-.826,2.134,3.857,3.857,0,0,0-2,2.836c-.854,3.29-2.134,12.391-2.134,12.391s-.516,5.569-1.535,6.835-2.065,9.19,5.211,10.2,10.422-3.855,10.422-3.855l-.255-22.083v-.041a3.347,3.347,0,0,0,.379-.6v-.055c.048-.1.1-.213.151-.337l.062-.165.11-.268a.392.392,0,0,1,0-.1,14.593,14.593,0,0,0,.62-6.574v-.929a2.613,2.613,0,0,1,.041-.454v-.083l.041-.268v-.117a.508.508,0,0,1,.055-.275.306.306,0,0,1,0-.069c.069-.317.151-.688.241-.991v-.076l.1-.33h0c.1-.351.22-.688.344-1.06v-.069a.967.967,0,0,1,.117-.324v-.041c.124-.337.255-.688.379-.977l.034-.089.11-.275.034-.083.262-.613h0l2.017,6.23s1.115,4.64.516,5.734.688,5.651,1.535,5.734l-.792,5.734a87.726,87.726,0,0,0-.764,9.534c-.055.365-.11.688-.151.909-.551,2.939.771,7.5.771,7.5,6.746,7.978,14.786.62,14.786.62s.936-4.22,0-5.059-.516-3.882-.516-3.882.427-7.51.509-12.989-4.481-10.325-4.481-10.325l-.255.227c-.833-2.148-1.783-4.653-1.583-5.775.344-1.941-.943-22.434-.943-22.434a121.533,121.533,0,0,0,.3-16.521h0c.11-.929.213-1.845.317-2.753.516-4.406.936-8.171,1.1-10.146h0v-.234c.041-.53.062-.909.055-1.088,0-.688,0-1.473.069-2.334.158-2.368.53-5,.53-5l1.79-10.883s1.377-5.314,3.339-8.26l.234-.372h0c.076-.131.151-.275.234-.427l.034-.062c.076-.145.158-.3.234-.454l.034-.062c.275-.544.571-1.17.881-1.859,0-.055.048-.1.069-.158l.234-.523a.54.54,0,0,1,.09-.207c.034-.069.145-.351.22-.523a2,2,0,0,0,.089-.213c.089-.206.186-.42.275-.64l.131-.317c.062-.158.131-.317.2-.475l.165-.42c.048-.1.09-.207.131-.31l.186-.475c0-.069.062-.145.089-.213.489-1.218.957-2.423,1.377-3.518h0c.131-.344.262-.688.379-.991,4.378.268,7.352.509,7.352.509s1.377-9.864.936-16.355a60.767,60.767,0,0,1,1.081-13.079c.062-.337.117-.64.172-.916l.117.1c2.141,1.687,3.676-3.882,3.676-3.882s-.578-5.2-1.377-11.5l-.083-.626a32.351,32.351,0,0,0,3.738.571s.688-.062,1.631-.179a45.161,45.161,0,0,0,8.219,3.717l4.55-8.4a34.172,34.172,0,0,1,2.994-4.977c1.377-1.686,6.237-7.083,6.154-8.1s1.625-6.835,3.332-9.451S840.075,504.345,839.992,503.925Zm-18.971,6.409c-1.8.757-3.5,4.977-3.586,6.243s-1.969,6.828-3.931,7.5c-1.81.62-5.266,3.8-5.817,4.309-.564.048-1.2.124-1.872.234-.75-5.321-1.494-9.727-1.969-10.615-1.377-2.533,1.508-10.628,1.508-10.628s.282-8.178,2.065-10.119,1.377-6.835,1.377-6.835.427-2.024.6-2.946,2.54,0,2.561,0h0s4.612,2.526,5.3,6.319,5.727,10.374,5.727,10.374-.771,2.278,0,3.442S822.818,509.576,821.021,510.334Z" transform="translate(-278.254 -144.862)" fill="url(#a)"/><path d="M707,454.828a13.767,13.767,0,0,1,13.767-6.484v9.85h-5.982L710.1,457.01Z" transform="translate(-287.814 -161.435)" fill="#4c4981"/><path d="M707,454.828a13.767,13.767,0,0,1,13.767-6.484v9.85h-5.982L710.1,457.01Z" transform="translate(-287.814 -161.435)" opacity="0.1"/><path d="M711.881,442.385l-7.331,5.135s-.062-1.026-.248-2.43c-.365-2.657-1.184-6.643-2.953-7.414-2.691-1.184-32.656-12.459-22.028-16.252s26.936,8.639,26.936,8.639.84.289,2.182,3.063c.688,1.459,1.631,3.944,2.34,5.975C711.434,440.932,711.881,442.385,711.881,442.385Z" transform="translate(-278.481 -152.867)" fill="#ae6e79"/><path d="M713.783,431.9l.833-.392,2.34,2.671-1.914,4.082-3.263-1.308.757-3.263Z" transform="translate(-221.817 -134.475)" fill="#4c4981"/><path d="M793.325,811s-2.106-.248-2.946,3.036-2.106,12.391-2.106,12.391-.5,5.555-1.514,6.822-2.017,9.176,5.135,10.181,10.27-3.848,10.27-3.848l-.255-22.076Z" transform="translate(-312.449 -274.496)" fill="#444053"/><path d="M827.885,812.44s4.5,4.818,4.419,10.284-.509,12.962-.509,12.962-.413,3.036.509,3.875,0,5.053,0,5.053-7.916,7.345-14.566-.62c0,0-1.294-4.55-.757-7.483s2.038-16.115,2.038-16.115Z" transform="translate(-322.048 -274.947)" fill="#444053"/><path d="M830.223,664.113s-4.543,12.707-6.484,15.653-3.277,8.26-3.277,8.26l-1.769,10.855a60.582,60.582,0,0,0-.592,7.324c.083,2.444-4.378,38.046-4.378,38.046l-7.07,9.011s-3.111,6.312-2.609,8.949-.337,6.822-1.377,8.081c0,0-.165,8.26-.42,10.1s.929,7.076,0,8-13.3.509-13.636-1.012,1.514-8.839,1.514-8.839l1.094-7.069s2.189-3.869,1.687-5.135.922-4.206,1.005-4.461,2.361-4.378,1.941-5.975,2.65-35.561,2.65-35.561l8.667-60.858Z" transform="translate(-313.235 -227.279)" fill="#ae6e79"/><path d="M830.223,664.119s-.688,1.914-1.631,4.426c-1.5,3.965-3.662,9.424-4.853,11.227-1.934,2.946-3.284,8.26-3.284,8.26l-1.769,10.862a61.041,61.041,0,0,0-.585,7.324c0,.964-.647,7.111-1.473,14.194-1.273,10.828-2.9,23.852-2.9,23.852l-7.07,9.011s-.358.688-.805,1.776c-.888,2.065-2.141,5.417-1.8,7.145.5,2.609-.337,6.815-1.377,8.081,0,0-.172,8.26-.42,10.1s.929,7.069,0,8-13.3.509-13.636-1.005,1.514-8.839,1.514-8.839l1.094-7.076s2.189-3.869,1.68-5.135.929-4.206,1.012-4.46,2.361-4.378,1.941-5.975c-.324-1.219,1.377-21.16,2.168-30.618.268-2.974.441-4.908.441-4.908L805.917,668l.606-4.22.606-4.282Z" transform="translate(-313.235 -227.285)" opacity="0.1"/><path d="M821.532,792.6c.076.929-11.874,2.278-13.581,1.267s0-13.554,0-13.554l.778-5.72c-.833-.09-2.1-4.633-1.514-5.727s-.5-5.72-.5-5.72l-1.982-6.2-1.211-3.793c-1.969-4.344-4.819-16.734-6.588-25.986-1.115-5.81-1.824-10.387-1.666-10.973.42-1.514-.688-12.542-.688-12.542s-1.377-11.2-3.194-14.731c-1.232-2.34-3.635-11.131-5.121-16.8-.757-2.912-1.28-5-1.28-5s12.721-1.067,20.437-1.439c3.545-.172,6.037-.193,5.748.1s-.365,1.831-.351,4.061c.034,5.775.84,15.936,1.693,18.668,1.177,3.786,2.354,15.144,1.852,16.245s-.337,8.419-.337,8.419a37.862,37.862,0,0,1,1.487,9.135,123.482,123.482,0,0,1-.289,16.445s1.26,20.458.922,22.392,2.691,8,2.691,9.176.84,9.176.84,9.176S821.477,791.681,821.532,792.6Z" transform="translate(-312.116 -229.173)" fill="#ae6e79"/><path d="M833.438,476.788l-1.446,1.563-.943,1.019-5.507,5.92-14.228,1.6-7.572-2.024-1.872-.5s0-3.8.337-8.357c.482-5.844,1.631-12.941,4.378-14.875a10.939,10.939,0,0,0,3.2-4.054,22.836,22.836,0,0,0,1.377-3.4c.055-.151.1-.3.145-.447a38.02,38.02,0,0,0,1.335-6.243s1.817-1.005,4.344-2.175c6.588-3.077,17.966-7.324,14.008,2.175a37.155,37.155,0,0,0-1.487,4.268c-.062.213-.117.427-.165.633-1.322,5.287-.447,8.494.537,10.263h0a6.422,6.422,0,0,0,.571.874,4.589,4.589,0,0,0,.957.971l1.638,10.4.138.86Z" transform="translate(-317.38 -159.24)" fill="#ae6e79"/><path d="M835.212,447.727c-.75,1.8.365-1.473,0,0-3,2.134-10.071,8.212-14.043,8.212-2.685,0-3.49-.489-5.789-1.528a37.551,37.551,0,0,0,1.48-6.684S840.684,434.593,835.212,447.727Z" transform="translate(-321.59 -159.469)" opacity="0.1"/><path d="M836.383,425.992a18.366,18.366,0,0,1-16.431,18.248c-.633.062-1.273.1-1.921.1a18.352,18.352,0,1,1,18.352-18.352Z" transform="translate(-316.697 -148.796)" fill="#ae6e79"/><path d="M836.222,531.931l-2.616,6.822s-2.127.089-5.445.193c-11.2.358-35.877.812-36.979-2.065a7.317,7.317,0,0,1-.385-2.265c-.145-4.385,1.9-11.117,1.9-11.117s1.177-13.471,1.177-14.056-1.012-10.023-1.012-10.023l2.024-7.572,5.638-3.958s2.526,3.875,4.041,4.206a10.5,10.5,0,0,1,3.538,2.2s4.963,3.029,6.567,1.342,14.056-9.093,14.056-9.093l6.567,7.242Z" transform="translate(-313.926 -173.384)" opacity="0.1"/><path d="M836.231,533.451l-2.616,6.815s-2.127.1-5.445.2h-.323c-1.432.048-3.07.1-4.819.131-8.9.206-21.16.262-27.569-.688-2.409-.344-3.986-.84-4.247-1.514a6.076,6.076,0,0,1-.3-1.253c-.041-.317-.069-.688-.083-1.012-.145-4.385,1.9-11.117,1.9-11.117s1.177-13.471,1.177-14.056-1.012-10.023-1.012-10.023l2.024-7.572,3.875-2.712,1.762-1.239a26.413,26.413,0,0,0,1.934,2.547,5.149,5.149,0,0,0,2.106,1.659,10.535,10.535,0,0,1,3.538,2.2s4.963,3.029,6.567,1.342c1.218-1.287,8.79-5.92,12.287-8.033,1.074-.654,1.769-1.06,1.769-1.06l.881.977,5.686,6.264Z" transform="translate(-313.936 -173.858)" fill="#fff"/><path d="M724.219,450.714l-7.331,5.135s-.062-1.026-.248-2.43a14.839,14.839,0,0,0,6.457-5.989C723.771,449.261,724.219,450.714,724.219,450.714Z" transform="translate(-290.819 -161.196)" opacity="0.1"/><path d="M746.954,468.448l-1.6-.427s-2.616,2.753-4.13,3.118a24.107,24.107,0,0,0-4.708,2.437l-3.71,2.946s-2.753.427-1.934-1.514-1.514-4.378-1.514-4.378-4.715-9.678-4.715-11.7-3.9-10.518-3.9-10.518-4.887,9.513-13.809,6.484c0,0,6.484,14.559,6.65,18.18s4.461,13.719,4.461,13.719,1.6,7.5,10.27,7.076c0,0,11.957,2.223,14.566,0s4.963-3.972,6.2-4.227a5.109,5.109,0,0,0,2.354-1.68V477.954Z" transform="translate(-287.796 -161.501)" fill="#4c4981"/><path d="M743.3,491.33s2.106,7.834.757,8.673Z" transform="translate(-299.127 -174.877)" opacity="0.1"/><path d="M828.164,562.18c-11.2.358-35.877.805-36.979-2.065a7.316,7.316,0,0,1-.385-2.265l36.586,1.927Z" transform="translate(-313.93 -195.607)" opacity="0.1"/><path d="M829.11,664.113s-.688,1.914-1.631,4.426c-4.646-.282-10.8-.578-16.645-.62-2.065,0-4.089,0-6,.069a45.217,45.217,0,0,0-9.809,1.088,26.015,26.015,0,0,1-8.742,1.129c-.757-2.912-1.28-5-1.28-5s12.721-1.067,20.437-1.439l.606-4.282Z" transform="translate(-312.122 -227.279)" opacity="0.1"/><path d="M835.2,602.044l-1.432,3.029s-.2.9-.454,2.334a59.662,59.662,0,0,0-1.06,13.079c.42,6.484-.929,16.328-.929,16.328s-30.976-2.609-40.063,0-13.561,0-13.561,0,1.1-9.761-1.6-14.814c-1.838-3.442-3.132-18.806-3.173-28.911,0-4.66.234-8.191.819-8.907,1.852-2.272,9.761-25,9.761-25l1.8.1,4.819.255,27.4,1.445,4.3.227.454,1.377Z" transform="translate(-308.361 -196.021)" fill="#444053"/><path d="M877.473,601.341l.255,2.7s-13.568-4.419-12.879-9.85,0-4.819,0-4.819l10.9.922Z" transform="translate(-336.998 -205.424)" fill="#4c4981"/><path d="M877.473,601.341l.255,2.7s-13.568-4.419-12.879-9.85,0-4.819,0-4.819l10.9.922Z" transform="translate(-336.998 -205.424)" opacity="0.1"/><path d="M755.518,493.5a12.088,12.088,0,0,0,4.777,2.485,3.111,3.111,0,0,1-1.377-.688c-.971-.688-1.893-1.439-2.829-2.168a8.879,8.879,0,0,0-2.63-1.817A14.5,14.5,0,0,0,755.518,493.5Z" transform="translate(-302.293 -174.87)" opacity="0.1"/><path d="M755.059,498.117a6.078,6.078,0,0,1,1.046,1.659,10.029,10.029,0,0,1-.076,5.211l-2.175-5.245c-.379-.895-.757-1.79-1.211-2.643-.2-.365-1.452-1.886-1.308-2.2C751.72,494,754.653,497.615,755.059,498.117Z" transform="translate(-301.627 -175.944)" opacity="0.1"/><path d="M840.975,541a7.008,7.008,0,0,0,3.958-1.852c-2.237.282-4.357,1.163-6.56,1.625a9.747,9.747,0,0,1-6.113-.564C834.793,541.449,838.276,541.49,840.975,541Z" transform="translate(-326.85 -189.779)" opacity="0.1"/><path d="M830.762,516.436a1.535,1.535,0,0,1-1.136-.282q-2.519-1.445-4.97-3.015a33,33,0,0,1-4.867-3.359C823.129,512.8,826.24,515.342,830.762,516.436Z" transform="translate(-322.964 -180.626)" opacity="0.1"/><path d="M840.438,544.637a10.476,10.476,0,0,0,2.63-.213,3.524,3.524,0,0,0,2.161-1.418,1.239,1.239,0,0,0-.915.145,15.447,15.447,0,0,1-8.453,1.012A12.208,12.208,0,0,0,840.438,544.637Z" transform="translate(-327.972 -190.971)" opacity="0.1"/><path d="M809.65,601.84a27.615,27.615,0,0,1-5.376,1.053,32.487,32.487,0,0,1-4.254-.083l-6.884-.434-3.442-.22c-.406,0-2.065,0-1.246-.819.413-.4,2.712-.145,3.3-.165q1.714-.055,3.442-.062c2.278,0,4.564,0,6.842.138C804.591,601.372,807.1,601.564,809.65,601.84Z" transform="translate(-313.127 -209.088)" opacity="0.1"/><path d="M800.62,606.83c-1.17-.048-2.678.647-3.882.8a25.826,25.826,0,0,1-4.061.158,22.648,22.648,0,0,1-7.827-1.6C790.1,606.458,795.368,606.617,800.62,606.83Z" transform="translate(-312.075 -210.672)" opacity="0.1"/><path d="M785.255,612.26a11.25,11.25,0,0,1,1.5.413c2.9.826,6,.1,8.949-.633a5.251,5.251,0,0,1-3.394,1.886,15.737,15.737,0,0,1-6.608.241c-.688-.138-2.416-.386-2.753-1.1C782.384,612.012,784.608,612.157,785.255,612.26Z" transform="translate(-311.455 -212.495)" opacity="0.1"/><path d="M808.04,619.564a22.457,22.457,0,0,1,2.574.688c3.27.812,6.663-.3,9.947-1.053a46.3,46.3,0,0,1,12.039-1.115,11.923,11.923,0,0,0-2.581.847c-.929.282-1.872.544-2.815.778-1.852.454-3.731.826-5.624,1.095a57.821,57.821,0,0,1-11.544.5c-1.762-.1-4.819.083-6.326-.805a6.973,6.973,0,0,1,4.33-.936Z" transform="translate(-317.953 -214.368)" opacity="0.1"/><path d="M799.68,467.657s.165,7.751-1.095,11.289c-.4,1.1-1.019,3.132-1.693,5.41-.737,2.526-1.542,5.355-2.161,7.572s-1.033,3.7-1.033,3.7-2.843,23.156-3.579,34.191a2.693,2.693,0,0,1-.041.578c-.041.62-.11,1.267-.213,1.934-1.638,10.959-11.089,27.858-14.263,29.207a9.443,9.443,0,0,0-2.671,1.838c0-4.66.234-8.192.819-8.907,1.852-2.272,9.761-25,9.761-25l1.8.1c-.041-.317-.069-.688-.083-1.012-.145-4.385,1.9-11.117,1.9-11.117s1.177-13.471,1.177-14.056S787.3,493.36,787.3,493.36l2.024-7.572,3.875-2.712c.482-5.844,1.631-12.941,4.378-14.875a10.938,10.938,0,0,0,3.2-4.054c.544.076-.447-.406-.447-.406Z" transform="translate(-308.361 -166.279)" opacity="0.1"/><path d="M791.645,463a5.011,5.011,0,0,0-4.261.482c-1.941,1.377-5.727,1.26-6.739,1.012s-11.53-1.6-12.391-1.267-2.526-1.177-3.621.847-1.6,3.111-2.691,3.614-3.036,2.106-2.753,2.444-2.753,2.354-2.753,2.354l6.14,19.962s-3.958,25.249-5.892,27.438-19.109,30.556-12.962,35.609a122.34,122.34,0,0,0,15.406,10.325c.688.337,3.111-4.206,6.477-5.638s13.809-20.375,14.456-31.148,3.621-34.762,3.621-34.762,3.621-13.134,4.88-16.672,1.095-11.289,1.095-11.289Z" transform="translate(-298.846 -165.963)" fill="#4c4981"/><path d="M855.284,575.022l-1.432,3.029s-.2.9-.454,2.334a1.287,1.287,0,0,1-.688-.31c-2.106-1.686-14.456-14.394-15.068-25.676-.434-8.322-.227-15.5-.089-18.689.041-1.005.083-1.611.083-1.742h0s9.6-11.62,8.5-15.736-3.621-26.158-3.621-26.158l-.372-2.891-.64-4.887-1.528-11.826,1.583.372a4.588,4.588,0,0,0,.957.971l1.638,10.4,5.686,6.264.929,38.135-2.616,6.815s-2.127.1-5.445.2h-.323Z" transform="translate(-328.446 -168.999)" opacity="0.1"/><path d="M861,511.844s-2.354-.929-2.519,0-.592,2.939-.592,2.939.42,4.887-1.377,6.822-2.065,10.1-2.065,10.1-2.836,8.081-1.494,10.608c.489.916,1.246,5.507,2,11.014.482,3.442.957,7.221,1.377,10.677.764,6.278,1.335,11.475,1.335,11.475s-1.521,5.555-3.628,3.869-14.456-14.394-15.061-25.676c-.413-7.923-.248-14.807-.11-18.2.055-1.439.11-2.251.11-2.251s9.6-11.62,8.5-15.743-3.621-26.158-3.621-26.158l-.441-3.407-.475-3.662-.11-.805-1.521-11.7h0c.268.062,9.713,2.2,10.959,3.442s8.949,3.029,8.949,3.029a6.732,6.732,0,0,1,4.777,4.9c.076.234.131.482.186.737,1.012,4.887.688,5.472,1.377,6.319S861,511.844,861,511.844Z" transform="translate(-328.863 -168.772)" fill="#4c4981"/><path d="M860.572,600.927c-3.442-.688-8.549-2.278-8.432-5.789.1-3.284,4.054-4.468,7.049-4.887C859.67,593.678,860.145,597.471,860.572,600.927Z" transform="translate(-333.045 -205.704)" opacity="0.1"/><path d="M871.476,598.841c-.138.3-.688.551-1.473.778a39.713,39.713,0,0,1-5.6.916s-11.7-.929-11.537-6.237c.124-3.807,5.411-4.819,8.377-5.046a19.268,19.268,0,0,1,1.976-.083S871.978,597.753,871.476,598.841Z" transform="translate(-333.272 -205.367)" fill="#ae6e79"/><path d="M874.982,598.841c-.138.3-.688.551-1.473.778-3.049-4.082-7.3-9.32-9.389-9.782l.633-.585a19.268,19.268,0,0,1,1.976-.083S875.485,597.753,874.982,598.841Z" transform="translate(-336.779 -205.367)" opacity="0.1"/><path d="M872.267,497.69l3.442.509a59.811,59.811,0,0,0,4.13,6.312,6.885,6.885,0,0,1,1.514,4.041s5.053,7.489,6.65,8.329,4.041,6.567,4.041,6.567S896,526.057,896,529a49.485,49.485,0,0,0,.757,7.324c.089.42-.585,5.645-2.272,8.26s-3.373,8.384-3.283,9.417-4.715,6.4-6.058,8.081a34.231,34.231,0,0,0-2.946,4.97l-4.46,8.419s-9.431-13.891-12.879-14.648c0,0,3.869-3.7,5.8-4.378s3.793-6.2,3.875-7.489,1.769-5.472,3.531-6.2,2.7-1.514,1.941-2.7,0-3.442,0-3.442-4.97-6.567-5.645-10.325-5.218-6.312-5.218-6.312l-2.609-6.4Z" transform="translate(-337.01 -176.859)" fill="#4c4981"/><path d="M892.386,542.174a10.924,10.924,0,0,1,6.794-2.574,8.282,8.282,0,0,0-4.447,1.742,10.494,10.494,0,0,0-1.232,1.57c-.4.571-3.648,4.7-4.13,4.048C888.566,546,891.732,542.732,892.386,542.174Z" transform="translate(-344.608 -189.92)" opacity="0.1"/><path d="M882.73,531.485a2.911,2.911,0,0,0,2.4-1.7,9.531,9.531,0,0,0,.75-2.988,44.6,44.6,0,0,1,1.04-5.115,2.368,2.368,0,0,0-.145-2.065,6.985,6.985,0,0,0-.743-1.528c-.62.688-.8,2.292-1.053,3.215-.317,1.143-.606,2.292-.881,3.442C883.955,525.3,882.813,531.485,882.73,531.485Z" transform="translate(-342.579 -183.216)" opacity="0.1"/><path d="M855.869,463.086a7.093,7.093,0,0,1-1.163,1.2c-1.377,1.094-3.2,2.017-3.373,3.745a4.028,4.028,0,0,1-.207,1.659c-.441.757-1.521.688-2.382.544a4.13,4.13,0,0,1-2.017-.743c-.9-.771-.984-2.148-1.673-3.118a4.247,4.247,0,0,0-3.442-1.521c-1.287-.041-2.568.248-3.855.3a10.594,10.594,0,0,1-2.471-.165,7.838,7.838,0,0,1-.8-.165,10.278,10.278,0,0,1-1.68-.571,7.392,7.392,0,0,1-.819-.385,10.875,10.875,0,0,1-2.375-1.652,5.9,5.9,0,0,1-2.2-4.467c.062-1.053.537-2.024.688-3.063.516-2.974-1.459-5.782-3.6-7.909-.854-.847-1.762-1.666-2.616-2.526a12.59,12.59,0,0,1-3.077-4.392,13.079,13.079,0,0,1-.551-5.507,37.989,37.989,0,0,0,.158-5.658c-.633-6.691-6.347-11.819-12.06-14.607l-.255-.131A18.345,18.345,0,1,1,830.778,440.8c-.062.213-.117.427-.165.633-1.322,5.287-.447,8.494.537,10.263h0c.268.062,9.713,2.2,10.959,3.442s8.949,3.029,8.949,3.029a6.732,6.732,0,0,1,4.812,4.922Z" transform="translate(-318.698 -148.801)" opacity="0.1"/><path d="M804.115,405.4c.379-.434.95-.654,1.335-1.074,1.191-1.294,0-3.407.434-5.115.468-1.893,2.795-2.719,4.736-2.519s3.758,1.094,5.7,1.315c3.015.337,5.934-.971,8.873-1.735s6.491-.805,8.515,1.446,1.886,6.085,4.406,7.717c1.163.75,2.63.833,3.889,1.377a7.991,7.991,0,0,1,3.29,3.146,16.479,16.479,0,0,1,2.492,10.539c-.213,2-.792,3.937-1.026,5.934a17.279,17.279,0,0,0,.413,6.2c.53,2.065,1.68,4.3,3.738,4.956a6.3,6.3,0,0,1,1.377.475c1.191.743,1.033,2.492.73,3.855l-1.225,5.651c1.177.895,3.008.509,4.13,1.452a3.442,3.442,0,0,1,.964,1.514,8.26,8.26,0,0,1-2.471,9.045c-1.377,1.094-3.2,2.017-3.373,3.738a3.882,3.882,0,0,1-.206,1.659c-.434.757-1.521.688-2.382.544a4.13,4.13,0,0,1-2.01-.743c-.909-.771-.984-2.148-1.673-3.118a4.261,4.261,0,0,0-3.442-1.521c-1.294-.041-2.568.248-3.862.31a11.413,11.413,0,0,1-8.116-2.932,5.925,5.925,0,0,1-2.21-4.474c.062-1.046.537-2.024.688-3.063.509-2.967-1.459-5.782-3.6-7.909s-4.653-4.089-5.7-6.918c-1.308-3.5-.041-7.414-.392-11.131-.633-6.7-6.34-11.819-12.06-14.614C804.8,408.749,802.635,407.091,804.115,405.4Z" transform="translate(-317.924 -145.107)" fill="#444053"/><path d="M849.109,463.619c-.909-.778-.984-2.148-1.673-3.118a4.275,4.275,0,0,0-3.442-1.528c-1.294-.041-2.574.248-3.862.31a11.378,11.378,0,0,1-8.143-2.939,5.9,5.9,0,0,1-2.2-4.467c.062-1.053.537-2.031.688-3.063.516-2.974-1.459-5.789-3.6-7.916s-4.646-4.089-5.7-6.918c-1.3-3.5,0-7.407-.385-11.131-.64-6.7-6.347-11.819-12.06-14.614-1.335-.654-3.5-2.313-2.024-4,.372-.434.943-.654,1.329-1.074,1.191-1.287,0-3.407.441-5.108a2.808,2.808,0,0,1,.434-.943,3.671,3.671,0,0,0-3.1,2.457c-.42,1.707.757,3.82-.434,5.115-.385.42-.957.64-1.335,1.067-1.48,1.686.688,3.352,2.024,4,5.72,2.795,11.427,7.923,12.06,14.614.351,3.724-.916,7.634.392,11.138,1.046,2.822,3.559,4.819,5.7,6.918s4.13,4.936,3.6,7.909a26.392,26.392,0,0,0-.688,3.063,5.911,5.911,0,0,0,2.21,4.467,11.351,11.351,0,0,0,8.136,2.939c1.294-.062,2.568-.344,3.862-.31a4.281,4.281,0,0,1,3.442,1.528c.688.971.764,2.347,1.673,3.118a4.13,4.13,0,0,0,2.01.737c.86.158,1.948.213,2.382-.537a1.857,1.857,0,0,0,.193-.991,3.958,3.958,0,0,1-1.921-.723Z" transform="translate(-317.899 -145.514)" opacity="0.1"/><path d="M671.553,308.806H623.939V261.887h47.648Zm-.688-70.743H624.627c0-72.911,69.3-68.65,69.3-114.777,0-25.407-20.8-45.762-46.2-45.762s-46.2,21.945-46.2,46.485h-46.2a92.24,92.24,0,0,1,92.4-92.4c51.035,0,92.4,40.717,92.4,91.676,0,57.678-69.3,64.245-69.3,114.777Z" transform="translate(-240.548 -31.61)" fill="#b5d653"/><path d="M365.63,381.591h-12.28V369.462h12.28Zm-.186-18.242H353.535c0-18.792,17.863-17.7,17.863-29.6a11.854,11.854,0,0,0-11.909-11.805,12.163,12.163,0,0,0-11.881,11.977H335.7a23.823,23.823,0,1,1,47.645-.186c-.038,14.869-17.9,16.562-17.9,29.586Z" transform="translate(-172.103 -118.369)" fill="#b5d653" opacity="0.1"/><path d="M500.685,504.014H488.4V491.919h12.28Zm-.179-18.235H488.6c0-18.8,17.863-17.7,17.863-29.6a11.847,11.847,0,0,0-11.909-11.8,12.163,12.163,0,0,0-11.943,11.991H470.7a23.823,23.823,0,1,1,47.645-.186C518.362,471.055,500.506,472.755,500.506,485.779Z" transform="translate(-214.174 -156.529)" fill="#b5d653" opacity="0.1"/><path d="M586.571,296.231h-8.9v-8.749h8.9Zm-.131-13.223h-8.632c0-13.616,12.948-12.824,12.948-21.442a8.591,8.591,0,0,0-8.632-8.549,8.811,8.811,0,0,0-8.632,8.687H564.86a17.264,17.264,0,1,1,34.528-.138C599.374,272.338,586.44,273.57,586.44,283.008Z" transform="translate(-243.518 -97.914)" fill="#b5d653" opacity="0.1"/><path d="M811.671,324.5h-5.032v-4.956h5.032Zm-.076-7.469h-4.908c0-7.7,7.317-7.248,7.317-12.122a4.818,4.818,0,0,0-4.874-4.818A4.984,4.984,0,0,0,804.25,305h-4.88a9.761,9.761,0,0,1,19.515-.076C818.913,310.975,811.6,311.7,811.6,317.032Z" transform="translate(-316.6 -113.835)" fill="#b5d653" opacity="0.1"/><path d="M923.443,651.972h-5.032v-4.956h5.032Zm-.076-7.469h-4.88c0-7.7,7.324-7.248,7.324-12.122a4.853,4.853,0,0,0-4.88-4.819,4.977,4.977,0,0,0-4.881,4.908H911.17a9.761,9.761,0,0,1,19.515-.076c.028,6.078-7.29,6.773-7.29,12.108Z" transform="translate(-351.442 -215.888)" fill="#b5d653" opacity="0.1"/></g></svg>