<svg xmlns="http://www.w3.org/2000/svg" width="845.527" height="793.479" viewBox="0 0 845.527 793.479"><g transform="translate(37.77 -2593.615)"><g transform="translate(489.487 2914.113) rotate(107)"><path d="M236.864-168.581c42.031,49.635,68.3,101.483,100.791,155.542,32.629,53.921,71.48,110.193,76.319,170.2,4.977,60-24.2,123.742-68.162,174.76s-102.865,89.454-162.732,92.5S62.38,395.1-5.229,378.512s-141.854-17.559-168.953-55.58c-26.961-38.021-6.913-113.1-10.369-180.844S-215.107,14.06-201.558-32.81-133.949-113-80.58-157.52c53.506-44.52,106.322-100.1,161.764-104.11C136.625-265.778,194.695-218.217,236.864-168.581Z" transform="translate(0 0)" fill="#c7e07d"/></g><g transform="translate(68 2745.001)"><rect width="559.998" height="28.422" transform="translate(257.991 -0.002) rotate(30.649)" fill="#f2f2f2"/><rect width="559.998" height="28.422" transform="translate(153.281 23.932) rotate(30.649)" fill="#f2f2f2"/><rect width="559.998" height="28.422" transform="translate(60.537 50.11) rotate(30.649)" fill="#f2f2f2"/><circle cx="150.836" cy="150.836" r="150.836" transform="translate(275.123 32.974)" fill="#3f3d56"/><path d="M665.914,409.291A26.888,26.888,0,1,1,692.8,382.4,26.888,26.888,0,0,1,665.914,409.291Zm0-52.465A25.576,25.576,0,1,0,691.491,382.4a25.576,25.576,0,0,0-25.576-25.576Z" transform="translate(-239.956 -197.938)" fill="#b5d653" opacity="0.3"/><path d="M657.737,425.379a51.153,51.153,0,1,1,51.153-51.153,51.153,51.153,0,0,1-51.153,51.153Zm0-100.994a49.841,49.841,0,1,0,49.841,49.841,49.841,49.841,0,0,0-49.841-49.841Z" transform="translate(-231.778 -189.76)" fill="#b5d653" opacity="0.3"/><path d="M650.664,439.292A72.139,72.139,0,1,1,722.8,367.153a72.139,72.139,0,0,1-72.139,72.139Zm0-142.966a70.827,70.827,0,1,0,70.827,70.827,70.827,70.827,0,0,0-70.827-70.827Z" transform="translate(-224.706 -182.688)" fill="#b5d653" opacity="0.3"/><path d="M641.382,457.553a99.683,99.683,0,1,1,99.683-99.683A99.8,99.8,0,0,1,641.382,457.553Zm0-198.054a98.371,98.371,0,1,0,98.371,98.371A98.482,98.482,0,0,0,641.382,259.5Z" transform="translate(-215.423 -173.405)" fill="#b5d653" opacity="0.3"/><path d="M633.647,472.771A122.636,122.636,0,1,1,756.282,350.136,122.774,122.774,0,0,1,633.647,472.771Zm0-243.96A121.324,121.324,0,1,0,754.971,350.136,121.462,121.462,0,0,0,633.647,228.811Z" transform="translate(-207.688 -165.67)" fill="#b5d653" opacity="0.3"/><circle cx="12.46" cy="12.46" r="12.46" transform="translate(413.498 171.349)" fill="#b5d653" opacity="0.3"/><circle cx="12.46" cy="12.46" r="12.46" transform="translate(445.633 207.419)" fill="#b5d653" opacity="0.3"/><circle cx="12.46" cy="12.46" r="12.46" transform="translate(358.41 202.173)" fill="#b5d653" opacity="0.3"/><circle cx="5.902" cy="5.902" r="5.902" transform="translate(420.056 177.907)" fill="#2f2e41"/><circle cx="5.902" cy="5.902" r="5.902" transform="translate(364.968 208.731)" fill="#2f2e41"/><circle cx="5.902" cy="5.902" r="5.902" transform="translate(452.191 214.633)" fill="#2f2e41"/><circle cx="5.902" cy="5.902" r="5.902" transform="translate(695.495 111.671)" fill="#b5d653"/><path d="M569.507,223.43H568.2V155.882H828.551v1.312H569.507Z" transform="translate(-143.221 -39.292)" fill="#2f2e41"/><path d="M1037.494,313.334a17.051,17.051,0,1,1,17.051-17.051,17.051,17.051,0,0,1-17.051,17.051Zm0-32.79a15.739,15.739,0,1,0,15.739,15.739A15.739,15.739,0,0,0,1037.494,280.544Z" transform="translate(-336.097 -178.71)" fill="#2f2e41"/><circle cx="5.902" cy="5.902" r="5.902" transform="translate(656.146 281.525)" fill="#b5d653"/><path d="M984.885,540.43a17.051,17.051,0,1,1,17.051-17.051,17.051,17.051,0,0,1-17.051,17.051Zm0-32.79a15.739,15.739,0,1,0,15.739,15.739,15.739,15.739,0,0,0-15.739-15.739Z" transform="translate(-322.836 -235.952)" fill="#2f2e41"/><circle cx="5.902" cy="5.902" r="5.902" transform="translate(181.998 139.215)" fill="#b5d653"/><path d="M350.944,350.16a17.051,17.051,0,1,1,17.051-17.051,17.051,17.051,0,0,1-17.051,17.051Zm0-32.79a15.739,15.739,0,1,0,15.739,15.739,15.739,15.739,0,0,0-15.739-15.739Z" transform="translate(-163.043 -187.992)" fill="#2f2e41"/><path d="M440.373,263.318h-1.312V197.071l-165.929-2.613.02-1.311,167.221,2.633Z" transform="translate(-68.846 -48.686)" fill="#2f2e41"/><path d="M799.814,362.406H611.6V294.858h1.312v66.237h186.9Z" transform="translate(-154.161 -74.323)" fill="#2f2e41"/><rect width="72.139" height="4.591" transform="translate(665.328 148.396)" fill="#2f2e41"/><rect width="72.139" height="4.591" transform="translate(665.328 161.512)" fill="#2f2e41"/><rect width="72.139" height="4.591" transform="translate(665.328 174.629)" fill="#2f2e41"/><rect width="72.139" height="4.591" transform="translate(625.979 318.25)" fill="#2f2e41"/><rect width="72.139" height="4.591" transform="translate(625.979 331.366)" fill="#2f2e41"/><rect width="72.139" height="4.591" transform="translate(625.979 344.482)" fill="#2f2e41"/><rect width="72.139" height="4.591" transform="translate(151.831 176.596)" fill="#2f2e41"/><rect width="72.139" height="4.591" transform="translate(151.831 189.712)" fill="#2f2e41"/><rect width="72.139" height="4.591" transform="translate(151.831 202.828)" fill="#2f2e41"/><ellipse cx="143.622" cy="4.591" rx="143.622" ry="4.591" transform="translate(288.239 425.807)" fill="#f2f2f2"/><rect width="484.663" height="1.496" transform="translate(0 454.997)" fill="#2f2e41"/><path d="M179.456,323.569s6.865,19.539,2.64,22.545,14.258,27.555,14.258,27.555l22.179-6.012-12.146-20.541s-1.584-20.541-1.584-23.547S179.456,323.569,179.456,323.569Z" transform="translate(-124.115 -189.548)" fill="#ffb8b8"/><path d="M179.456,323.569s6.865,19.539,2.64,22.545,14.258,27.555,14.258,27.555l22.179-6.012-12.146-20.541s-1.584-20.541-1.584-23.547S179.456,323.569,179.456,323.569Z" transform="translate(-124.115 -189.548)" opacity="0.1"/><path d="M163.75,505.254s-2,25.05,0,38.076,5.01,49.1,5.01,49.1,0,68.136,11.022,69.138,19.038,2,20.04-2-5.01-6.012-2-8.016,4.008-9.018,0-17.034,0-89.177,0-89.177l19.038,51.1s2,42.084,4.008,48.1-2,17.034,5.01,18.036,15.03-5.01,19.038-7.014-6.012-2-4.008-3.006,8.016-4.008,6.012-5.01-4.008-49.1-4.008-49.1-5.511-102.7-12.525-106.713-11.523,2.9-11.523,2.9Z" transform="translate(-119.932 -231.956)" fill="#2f2e41"/><path d="M186.813,713.865v8.016s-9.018,21.79,0,21.79,16.032,2.258,16.032-.748V715.869Z" transform="translate(-124.96 -288.264)" fill="#2f2e41"/><path d="M261.8,713.846v8.016s9.018,21.79,0,21.79-16.032,2.258-16.032-.748V715.85Z" transform="translate(-140.831 -288.26)" fill="#2f2e41"/><circle cx="18.036" cy="18.036" r="18.036" transform="translate(51.333 112.477)" fill="#ffb8b8"/><path d="M190.168,364.209s5.01,15.03,13.026,12.024l8.016-3.006,14.028,96.191s-11.022,16.032-27.054,6.012S190.168,364.209,190.168,364.209Z" transform="translate(-126.31 -200.129)" fill="#d0cde1"/><path d="M209.6,356.982l4.509-9.519S240.661,359.988,244.669,364s4.008,10.02,4.008,10.02l-7.014,25.05s2,55.11,2,57.114,7.014,13.026,2,9.018-6.012-8.016-10.02-2-13.026,13.026-13.026,13.026Z" transform="translate(-131.713 -195.908)" fill="#3f3d56"/><path d="M250.552,456.647,247.546,484.7s-18.036,16.032-14.028,17.034,6.012-3.006,6.012-3.006,7.014,7.014,11.022,3.006,14.028-42.084,14.028-42.084Z" transform="translate(-137.596 -223.429)" fill="#ffb8b8"/><path d="M191.673,285.229c-4-.143-8.277-.214-11.648,1.941A17.053,17.053,0,0,0,176,291.111c-3.283,4.151-6.12,9.373-4.9,14.523l1.417-.552a9.275,9.275,0,0,1-.895,3.974c.2-.58.867.358.688.945l-1.56,5.119a4.82,4.82,0,0,1,6.146,3.668c.178-5.946.8-12.764,5.618-16.245,2.432-1.756,5.511-2.292,8.473-2.768,2.732-.439,5.6-.858,8.214.042s4.846,3.576,4.252,6.279a2.8,2.8,0,0,1,3.153,1.554,8.161,8.161,0,0,1,.646,3.736c1.286.909,2.75-.9,3.274-2.381,1.231-3.487,2.324-7.2,1.661-10.835s-3.627-7.114-7.324-7.126a2.567,2.567,0,0,0,.668-1.807l-3.047-.258a3.368,3.368,0,0,0,2.013-1.061C203.272,289.262,193.652,285.3,191.673,285.229Z" transform="translate(-121.921 -180.206)" fill="#2f2e41"/><path d="M183.687,353.635s-8.157-7.993-11.092-7.5-6.943,7.5-6.943,7.5S141.6,361.651,142.6,369.667s12.024,47.094,12.024,47.094,9.018,47.094,1,52.1,38.076,18.036,39.078,12.024,3.006-66.132,0-75.15S183.687,353.635,183.687,353.635Z" transform="translate(-114.819 -195.567)" fill="#3f3d56"/><path d="M154.672,465.706l14.028,6.012s27.054,4.008,27.054-7.014-27.054-5.01-27.054-5.01l-9.019-2.883Z" transform="translate(-117.868 -223.471)" fill="#ffb8b8"/><path d="M244.43,377.606h12.39s8.652,38.076,9.654,42.084,3.006,23.046,2,23.046-21.042-4.008-21.042-1Z" transform="translate(-140.493 -203.506)" fill="#3f3d56"/><path d="M151.3,369.568l-12.024,3.006-9.018,53.106s-3.006,14.028,2,15.03,19.038,9.018,19.038,9.018,2-15.03,6.012-15.03l-10.02-8.016,6.012-35.07Z" transform="translate(-111.489 -201.48)" fill="#3f3d56"/><path d="M607.911,707.614H588.465V688.168h19.446Zm-17.95-1.5h16.455V689.664H589.961Z" transform="translate(-227.211 -281.787)" fill="#3f3d56"/><circle cx="7.479" cy="7.479" r="7.479" transform="translate(385.188 410.869)" fill="#b5d653"/></g></g></svg>