<svg xmlns="http://www.w3.org/2000/svg" width="845.527" height="793.479"><path d="M619.22 596.3c-59.755 25.683-117.018 35.645-178.215 50.911-61.104 15.439-126.276 36.14-185.076 23.223-58.834-12.783-111.26-59.321-147.195-116.279s-55.47-124.524-40.88-182.665 63.329-106.854 98.959-166.659S225.079 74.31 269.361 59.511c44.243-14.667 110.18 26.456 175.974 42.957s131.368 8.211 172.228 34.872 56.92 88.1 83.89 152.153c26.931 64.185 64.641 130.943 52.266 185.135-12.243 54.231-74.703 95.858-134.5 121.672z" fill="#c7e07d"/><g transform="translate(105.77 151.386)"><path fill="#f2f2f2" d="M257.991-.002l481.77 285.474-14.489 24.452L243.502 24.45zM153.281 23.932l481.77 285.474-14.489 24.452-481.77-285.474zM60.537 50.11l481.77 285.474-14.489 24.452L46.048 74.562z"/><circle cx="150.836" cy="150.836" r="150.836" transform="translate(275.123 32.974)" fill="#3f3d56"/><path d="M425.958 211.353a26.888 26.888 0 1126.886-26.891 26.888 26.888 0 01-26.886 26.891zm0-52.465a25.576 25.576 0 1025.577 25.574 25.576 25.576 0 00-25.576-25.576z" fill="#b5d653" opacity=".3"/><path d="M425.959 235.619a51.153 51.153 0 1151.153-51.153 51.153 51.153 0 01-51.153 51.153zm0-100.994a49.841 49.841 0 1049.841 49.841 49.841 49.841 0 00-49.841-49.841z" fill="#b5d653" opacity=".3"/><path d="M425.958 256.604a72.139 72.139 0 1172.136-72.139 72.139 72.139 0 01-72.139 72.139zm0-142.966a70.827 70.827 0 1070.827 70.827 70.827 70.827 0 00-70.827-70.827z" fill="#b5d653" opacity=".3"/><path d="M425.959 284.148a99.683 99.683 0 1199.683-99.683 99.8 99.8 0 01-99.683 99.683zm0-198.054a98.371 98.371 0 1098.371 98.371 98.482 98.482 0 00-98.371-98.37z" fill="#b5d653" opacity=".3"/><path d="M425.959 307.101a122.636 122.636 0 11122.635-122.635 122.774 122.774 0 01-122.635 122.635zm0-243.96a121.324 121.324 0 10121.324 121.325A121.462 121.462 0 00425.959 63.141z" fill="#b5d653" opacity=".3"/><circle cx="12.46" cy="12.46" r="12.46" transform="translate(413.498 171.349)" fill="#b5d653" opacity=".3"/><circle cx="12.46" cy="12.46" r="12.46" transform="translate(445.633 207.419)" fill="#b5d653" opacity=".3"/><circle cx="12.46" cy="12.46" r="12.46" transform="translate(358.41 202.173)" fill="#b5d653" opacity=".3"/><circle cx="5.902" cy="5.902" r="5.902" transform="translate(420.056 177.907)" fill="#2f2e41"/><circle cx="5.902" cy="5.902" r="5.902" transform="translate(364.968 208.731)" fill="#2f2e41"/><circle cx="5.902" cy="5.902" r="5.902" transform="translate(452.191 214.633)" fill="#2f2e41"/><circle cx="5.902" cy="5.902" r="5.902" transform="translate(695.495 111.671)" fill="#b5d653"/><path d="M426.286 184.138h-1.307V116.59H685.33v1.312H426.286z" fill="#2f2e41"/><path d="M701.397 134.624a17.051 17.051 0 1117.051-17.051 17.051 17.051 0 01-17.051 17.051zm0-32.79a15.739 15.739 0 1015.739 15.739 15.739 15.739 0 00-15.739-15.739z" fill="#2f2e41"/><circle cx="5.902" cy="5.902" r="5.902" transform="translate(656.146 281.525)" fill="#b5d653"/><path d="M662.049 304.478a17.051 17.051 0 1117.051-17.051 17.051 17.051 0 01-17.051 17.051zm0-32.79a15.739 15.739 0 1015.739 15.739 15.739 15.739 0 00-15.739-15.739z" fill="#2f2e41"/><circle cx="5.902" cy="5.902" r="5.902" transform="translate(181.998 139.215)" fill="#b5d653"/><path d="M187.901 162.168a17.051 17.051 0 1117.051-17.051 17.051 17.051 0 01-17.051 17.051zm0-32.79a15.739 15.739 0 1015.739 15.739 15.739 15.739 0 00-15.739-15.739z" fill="#2f2e41"/><path d="M371.527 214.632h-1.312v-66.247l-165.929-2.613.02-1.311 167.221 2.633zM645.653 288.083H457.439v-67.548h1.312v66.237h186.9zM665.328 148.396h72.139v4.591h-72.139zM665.328 161.512h72.139v4.591h-72.139zM665.328 174.629h72.139v4.591h-72.139zM625.979 318.25h72.139v4.591h-72.139zM625.979 331.366h72.139v4.591h-72.139zM625.979 344.482h72.139v4.591h-72.139zM151.831 176.596h72.139v4.591h-72.139zM151.831 189.712h72.139v4.591h-72.139zM151.831 202.828h72.139v4.591h-72.139z" fill="#2f2e41"/><ellipse cx="143.622" cy="4.591" rx="143.622" ry="4.591" transform="translate(288.239 425.807)" fill="#f2f2f2"/><path fill="#2f2e41" d="M0 454.997h484.663v1.496H0z"/><path d="M55.341 134.021s6.865 19.539 2.64 22.545 14.258 27.555 14.258 27.555l22.179-6.012-12.146-20.541s-1.584-20.541-1.584-23.547-25.347 0-25.347 0z" fill="#ffb8b8"/><path d="M55.341 134.021s6.865 19.539 2.64 22.545 14.258 27.555 14.258 27.555l22.179-6.012-12.146-20.541s-1.584-20.541-1.584-23.547-25.347 0-25.347 0z" opacity=".1"/><path d="M43.818 273.298s-2 25.05 0 38.076 5.01 49.1 5.01 49.1 0 68.136 11.022 69.138 19.038 2 20.04-2-5.01-6.012-2-8.016 4.008-9.018 0-17.034 0-89.177 0-89.177l19.038 51.1s2 42.084 4.008 48.1-2 17.034 5.01 18.036 15.03-5.01 19.038-7.014-6.012-2-4.008-3.006 8.016-4.008 6.012-5.01-4.008-49.1-4.008-49.1-5.511-102.7-12.525-106.713-11.523 2.9-11.523 2.9z" fill="#2f2e41"/><path d="M61.853 425.601v8.016s-9.018 21.79 0 21.79 16.032 2.258 16.032-.748v-27.054zM120.969 425.586v8.016s9.018 21.79 0 21.79-16.032 2.258-16.032-.748V427.59z" fill="#2f2e41"/><circle cx="18.036" cy="18.036" r="18.036" transform="translate(51.333 112.477)" fill="#ffb8b8"/><path d="M63.858 164.08s5.01 15.03 13.026 12.024l8.016-3.006 14.028 96.191s-11.022 16.032-27.054 6.012-8.016-111.221-8.016-111.221z" fill="#d0cde1"/><path d="M77.887 161.074l4.509-9.519s26.552 12.525 30.56 16.537 4.008 10.02 4.008 10.02l-7.014 25.05s2 55.11 2 57.114 7.014 13.026 2 9.018-6.012-8.016-10.02-2-13.026 13.026-13.026 13.026z" fill="#3f3d56"/><path d="M112.956 233.218l-3.006 28.053s-18.036 16.032-14.028 17.034 6.012-3.006 6.012-3.006 7.014 7.014 11.022 3.006 14.028-42.084 14.028-42.084z" fill="#ffb8b8"/><path d="M69.752 105.023c-4-.143-8.277-.214-11.648 1.941a17.053 17.053 0 00-4.025 3.941c-3.283 4.151-6.12 9.373-4.9 14.523l1.417-.552a9.275 9.275 0 01-.895 3.974c.2-.58.867.358.688.945l-1.56 5.119a4.82 4.82 0 016.146 3.668c.178-5.946.8-12.764 5.618-16.245 2.432-1.756 5.511-2.292 8.473-2.768 2.732-.439 5.6-.858 8.214.042s4.846 3.576 4.252 6.279a2.8 2.8 0 013.153 1.554 8.161 8.161 0 01.646 3.736c1.286.909 2.75-.9 3.274-2.381 1.231-3.487 2.324-7.2 1.661-10.835s-3.627-7.114-7.324-7.126a2.567 2.567 0 00.668-1.807l-3.047-.258a3.368 3.368 0 002.013-1.061c-1.225 1.344-10.845-2.618-12.824-2.689z" fill="#2f2e41"/><path d="M68.868 158.068s-8.157-7.993-11.092-7.5-6.943 7.5-6.943 7.5-24.052 8.016-23.052 16.032 12.024 47.094 12.024 47.094 9.018 47.094 1 52.1 38.076 18.036 39.078 12.024 3.006-66.132 0-75.15-11.015-52.1-11.015-52.1z" fill="#3f3d56"/><path d="M36.804 242.235l14.028 6.012s27.054 4.008 27.054-7.014-27.054-5.01-27.054-5.01l-9.019-2.883z" fill="#ffb8b8"/><path d="M103.937 174.1h12.39s8.652 38.076 9.654 42.084 3.006 23.046 2 23.046-21.042-4.008-21.042-1zM39.811 168.088l-12.024 3.006-9.018 53.106s-3.006 14.028 2 15.03 19.038 9.018 19.038 9.018 2-15.03 6.012-15.03l-10.02-8.016 6.012-35.07zM380.7 425.827h-19.446v-19.446H380.7zm-17.95-1.5h16.455v-16.45H362.75z" fill="#3f3d56"/><circle cx="7.479" cy="7.479" r="7.479" transform="translate(385.188 410.869)" fill="#b5d653"/></g></svg>