<svg xmlns="http://www.w3.org/2000/svg" width="1833.239" height="1451.694" viewBox="0 0 1833.239 1451.694"><defs><style>.a{fill:#b5d653;}.b{fill:#60b959;}.c{fill:#68bc58;}.d{fill:#019961;}.e{fill:#31a95d;}</style></defs><g transform="translate(7.604 -4063)"><g transform="translate(-550.152 5732.848) rotate(-77)"><circle class="a" cx="167.466" cy="167.466" r="167.466" transform="translate(693 1697)"/><circle class="b" cx="71.995" cy="71.995" r="71.995" transform="translate(1140.62 1959.938)"/><circle class="c" cx="48.518" cy="48.518" r="48.518" transform="translate(930.896 2103.927)"/></g><circle class="d" cx="60" cy="60" r="60" transform="translate(1106 4063)"/><g transform="translate(-243.592 3245.286) rotate(14)"><circle class="a" cx="53.5" cy="53.5" r="53.5" transform="translate(693 1697)"/><circle class="b" cx="23" cy="23" r="23" transform="translate(836 1781)"/><circle class="c" cx="15.5" cy="15.5" r="15.5" transform="translate(769 1827)"/></g><circle class="b" cx="15.5" cy="15.5" r="15.5" transform="translate(1200 4369)"/><circle class="a" cx="28" cy="28" r="28" transform="translate(1231 4149)"/><g transform="translate(594.504 2856)"><path class="e" d="M1601.5,892.943a64.961,64.961,0,0,1-94.955-88.67h-29.6A89.042,89.042,0,0,0,1601.5,923.781Z" transform="translate(-386.333 607.727)"/></g><circle class="a" cx="28" cy="28" r="28" transform="translate(838 4629)"/><ellipse class="b" cx="32.5" cy="31.5" rx="32.5" ry="31.5" transform="translate(862 4730)"/><ellipse class="d" cx="107.5" cy="111.5" rx="107.5" ry="111.5" transform="translate(74 4112)"/><circle class="a" cx="28" cy="28" r="28" transform="translate(126 4473)"/></g></svg>