<svg xmlns="http://www.w3.org/2000/svg" width="2516" height="1948" viewBox="0 0 2516 1948"><g transform="translate(200 -3840)"><g transform="translate(1623 5095)" fill="none" stroke="#40c571" stroke-width="30"><circle cx="346.5" cy="346.5" r="346.5" stroke="none"/><circle cx="346.5" cy="346.5" r="331.5" fill="none"/></g><g transform="translate(-200 3840)" fill="none" stroke="#31a95d" stroke-width="30"><circle cx="518.5" cy="518.5" r="518.5" stroke="none"/><circle cx="518.5" cy="518.5" r="503.5" fill="none"/></g><circle cx="60" cy="60" r="60" transform="translate(1106 4063)" fill="#019961"/><g transform="translate(-243.592 3245.286) rotate(14)"><circle cx="53.5" cy="53.5" r="53.5" transform="translate(693 1697)" fill="#b5d653"/><circle cx="23" cy="23" r="23" transform="translate(836 1781)" fill="#60b959"/><circle cx="15.5" cy="15.5" r="15.5" transform="translate(769 1827)" fill="#68bc58"/></g><circle cx="15.5" cy="15.5" r="15.5" transform="translate(1200 4369)" fill="#60b959"/><circle cx="28" cy="28" r="28" transform="translate(1231 4149)" fill="#b5d653"/><g transform="translate(594.504 2856)"><path d="M1601.5,892.943a64.961,64.961,0,0,1-94.955-88.67h-29.6A89.042,89.042,0,0,0,1601.5,923.781Z" transform="translate(-386.333 607.727)" fill="#31a95d"/></g><circle cx="28" cy="28" r="28" transform="translate(838 4629)" fill="#b5d653"/><ellipse cx="32.5" cy="31.5" rx="32.5" ry="31.5" transform="translate(862 4730)" fill="#60b959"/></g></svg>