<svg xmlns="http://www.w3.org/2000/svg" xmlns:xlink="http://www.w3.org/1999/xlink" width="1035.175" height="714.609" viewBox="0 0 1035.175 714.609"><defs><linearGradient id="a" y1="0.5" x2="1" y2="0.5" gradientUnits="objectBoundingBox"><stop offset="0" stop-color="gray" stop-opacity="0.251"/><stop offset="0.54" stop-color="gray" stop-opacity="0.122"/><stop offset="1" stop-color="gray" stop-opacity="0.102"/></linearGradient></defs><g transform="translate(0 0.006)"><path d="M602.433,144.757c-66.353.089-130.221-18.721-191.31-39.617S289.415,60.845,224.3,50.93c-41.88-6.373-89.5-5.788-122.241,17.354-31.512,22.263-40.637,59.11-45.04,93.152-3.311,25.609-4.838,52.488,7.563,75.913,8.61,16.262,23.346,29.666,33.731,45.164,36.252,53.917,14.451,122.791-20.78,177.96-16.519,25.884-35.871,50.695-48.36,78.061s-17.611,58.4-4.873,85.411c12.623,26.772,41.134,46.2,71.732,59.474,62.137,27,134.482,32.79,204.882,35.018,155.839,4.944,311.979-5.14,467.7-15.224,57.627-3.728,115.512-7.483,171.95-18.286,31.335-5.992,63.6-14.886,85.82-34.379,28.2-24.748,33.971-65.155,13.448-94.2-34.415-48.715-125.161-57.9-149.838-110.612-13.608-29.018-1.873-62.3,15.41-90.267,37.069-60.015,100.875-113.772,101.949-180.9.737-46.1-32.444-91.066-82-111.1C873.4,42.488,802.575,47.885,766.181,87,728.757,127.287,661.019,144.694,602.433,144.757Z" transform="translate(-16.91 -47.46)" fill="#b5d653" opacity="0.1"/><path d="M1006.691,692.324s-10.909-7.2-21.721-2.077c0,0,3.329,6.409,17.017,5.805Z" transform="translate(-125.655 -119.46)" fill="#b5d653"/><path d="M1010.085,693.25s3.32,12.64-5.006,21.242c0,0-5.006-5.211,0-17.975Z" transform="translate(-127.664 -120.004)" fill="#b5d653"/><path d="M1023.105,678.579s-.808-10.75-25.085-7.181c0,0-.115,6.933,8.406,10.217S1018.854,682.13,1023.105,678.579Z" transform="translate(-127.121 -117.468)" fill="#b5d653"/><path d="M1027.1,679.5s10.261,3.293,1.11,26.062c0,0-6.773-1.509-7.989-10.572S1022.608,682.8,1027.1,679.5Z" transform="translate(-129.588 -118.46)" fill="#b5d653"/><path d="M1040.472,660.294s1.394-17.691-23.417-15.88c0,0-1.775,15.978,19.04,20.132Z" transform="translate(-129.255 -114.504)" fill="#b5d653"/><path d="M1058.341,637.9s-3.4-20.052-28.2-14.078c0,0-.089,17.336,24.153,18.854Z" transform="translate(-130.729 -112.08)" fill="#b5d653"/><path d="M1071.58,614.69s-5.7-19.529-30.27-13.688c0,0,5.85,17.567,28.636,17.292Z" transform="translate(-131.984 -109.519)" fill="#b5d653"/><path d="M1084.523,591.9s-5.566-20.265-29.293-14.2c0,0,7.918,19.253,27.722,17.629Z" transform="translate(-133.548 -106.897)" fill="#b5d653"/><path d="M1093.149,569.718s-4.278-24.784-26.4-19.3c0,0,6.427,22.547,24.775,22.911Z" transform="translate(-134.842 -103.871)" fill="#b5d653"/><path d="M1100.758,543.777s-5.14-24.979-27.518-17.753c0,0,8.77,23.612,25.929,21.171Z" transform="translate(-135.571 -101.072)" fill="#b5d653"/><path d="M1105.778,518.852s-8.157-24.988-25.458-24.313c0,0,8.335,26.39,24.011,29.293Z" transform="translate(-136.366 -97.681)" fill="#b5d653"/><path d="M1109.175,494.721s-8.877-30.074-22.955-27.757c0,0,6.143,22.991,22.458,32.444Z" transform="translate(-137.029 -94.571)" fill="#b5d653"/><path d="M1111.012,466.7s-8.326-25.059-22.192-26.062c0,0,5.663,24.659,21.916,32.577Z" transform="translate(-137.321 -91.628)" fill="#b5d653"/><path d="M1113.239,440.394s-10.377-25.085-19.529-25.654c0,0,4.509,24.7,18.641,29.772Z" transform="translate(-137.87 -88.718)" fill="#b5d653"/><path d="M1115.032,415.386s-6.382-27.243-15.552-29.506c0,0,1.252,22.289,14.629,31.548Z" transform="translate(-138.519 -85.476)" fill="#b5d653"/><path d="M1119.111,383.832s-6.711-21.721-14.141-25.032c0,0,1.465,25.609,12.427,30.34Z" transform="translate(-139.135 -82.434)" fill="#b5d653"/><path d="M1123.423,361.154l1.349-38.294s-13.892,28.867-2.352,45.014Z" transform="translate(-140.581 -78.397)" fill="#b5d653"/><path d="M1135.526,319.354s10-27.962,12.427-29.524c0,0-19.617,18.144-17.7,41.481Z" transform="translate(-141.96 -74.687)" fill="#b5d653"/><path d="M1043.691,662.163s17.594-2.3,17.07,22.564c0,0-15.9,2.592-21.091-17.975Z" transform="translate(-131.8 -116.506)" fill="#b5d653"/><path d="M1062.337,639.06s20.328-.062,18.641,25.387c0,0-17.07,3.054-22.7-20.576Z" transform="translate(-133.89 -113.917)" fill="#b5d653"/><path d="M1075.423,618.2s18.455-8.655,30.261,13.688c0,0-17.043,7.208-31.894-10.075Z" transform="translate(-135.633 -111.389)" fill="#b5d653"/><path d="M1088.492,593.806s18.9-9.205,29.994,12.614c0,0-19.688,6.782-31.557-9.161Z" transform="translate(-137.109 -108.617)" fill="#b5d653"/><path d="M1096.115,571.9s18.188-17.372,32.7.2c0,0-18.579,14.3-33.536,3.675Z" transform="translate(-138.047 -105.512)" fill="#b5d653"/><path d="M1103,544.551s18.295-17.753,32.693.817c0,0-20.532,14.584-33.35,2.912Z" transform="translate(-138.84 -102.441)" fill="#b5d653"/><path d="M1106.93,518.857s14.1-22.192,30.7-17.239c0,0-14.629,23.5-30.536,22.449Z" transform="translate(-139.355 -98.397)" fill="#b5d653"/><path d="M1111.564,495.1s14.2-27.944,27.642-23.079c0,0-10.244,21.482-28.006,27.793Z" transform="translate(-139.835 -95.089)" fill="#b5d653"/><path d="M1112.54,465.888s14.6-22,28.281-19.307c0,0-11.939,22.307-29.7,25.671Z" transform="translate(-139.826 -92.27)" fill="#b5d653"/><path d="M1114,439.945s11.318-24.686,20.514-24.855c0,0-5.432,24.508-19.75,29.044Z" transform="translate(-140.149 -88.758)" fill="#b5d653"/><path d="M1116.5,415.35s12.578-25,22.032-25.05c0,0-6.436,21.375-21.615,27.243Z" transform="translate(-140.43 -85.973)" fill="#b5d653"/><path d="M1118.63,385.846s9.409-20.683,17.2-23.026c0,0-4.7,25.21-16.164,28.512Z" transform="translate(-140.67 -82.886)" fill="#b5d653"/><path d="M1125,361.1l21.029-32.036s-5.388,31.6-24.1,38.17Z" transform="translate(-141.04 -79.094)" fill="#b5d653"/><path d="M1140.362,323.521s24.438-16.866,25.325-19.591c0,0-12.427,23.621-35.507,27.793Z" transform="translate(-141.967 -76.271)" fill="#b5d653"/><path d="M1143.215,314.04s28.059-26.976,35.223-26.95c0,0-23.141,1.056-35.9,25.512Z" transform="translate(-143.355 -74.379)" fill="#b5d653"/><path d="M1118.94,384.472l1.021.133c5.273-41.268,12.96-65.687,21.641-68.679l-.337-.976C1132.06,318.146,1124.319,342.193,1118.94,384.472Z" transform="translate(-140.704 -77.509)" fill="#444053"/><path d="M1110.2,491.573l1.544.124c.328-3.852.577-7.794.746-11.726,1.474-34.157,3.755-65.528,6.755-89.042l-.888-1.11c-3.009,23.568-5.938,55.879-7.412,90.089C1110.777,483.815,1110.528,487.739,1110.2,491.573Z" transform="translate(-139.723 -85.919)" fill="#444053"/><path d="M976.894,690.975c.266-.115,27.456-12.259,55.674-41.214a223.89,223.89,0,0,0,40.7-57.7c13.049-26.568,21-59.216,23.665-90.933l-1.607.755c-5.992,71.191-38.4,119.835-64.17,146.332-27.944,28.7-54.831,40.717-55.1,40.833Z" transform="translate(-124.654 -98.423)" fill="#444053"/><path d="M947.41,132.69H94.468a7.6,7.6,0,0,0-7.6,7.6v22.138H955.008V140.288A7.6,7.6,0,0,0,947.41,132.69Z" transform="translate(-24.769 -57.035)" fill="#3f3d56"/><path d="M86.87,166.19V664.384a15.321,15.321,0,0,0,15.321,15.321h837.5a15.321,15.321,0,0,0,15.321-15.321V166.19Z" transform="translate(-24.769 -60.798)" fill="#fff"/><circle cx="3.551" cy="3.551" r="3.551" transform="translate(72.3 86.751)" fill="#fa5959" opacity="0.8"/><circle cx="3.551" cy="3.551" r="3.551" transform="translate(82.065 86.751)" fill="#fed253" opacity="0.8"/><circle cx="3.551" cy="3.551" r="3.551" transform="translate(91.829 86.751)" fill="#8ccf4d" opacity="0.8"/><rect width="697.706" height="306.795" transform="translate(142.799 188.46)" opacity="0.05"/><rect width="687.054" height="300.031" transform="translate(148.125 190.786)" fill="#3f3d56"/><path d="M386.13,349.38a68.35,68.35,0,1,0,68.35,68.35A68.35,68.35,0,0,0,386.13,349.38Zm12.259,69.993v32.364H374.227V419.373a20.017,20.017,0,1,1,24.162,0Z" transform="translate(-50.708 -81.376)" fill="#b5d653"/><path d="M386.13,349.38a68.35,68.35,0,1,0,68.35,68.35A68.35,68.35,0,0,0,386.13,349.38Zm12.259,69.993v32.364H374.227V419.373a20.017,20.017,0,1,1,24.162,0Z" transform="translate(-50.708 -81.376)" opacity="0.05"/><path d="M383.659,327.38a87.879,87.879,0,1,0,87.879,87.879,87.879,87.879,0,0,0-87.879-87.879Zm15.756,89.992v41.6H368.347v-41.6a25.742,25.742,0,1,1,31.068,0Z" transform="translate(-48.236 -78.905)" fill="#b5d653"/><rect width="284.053" height="30.181" transform="translate(459.696 324.823)" fill="#fff"/><rect width="61.249" height="30.181" transform="translate(682.5 379.859)" fill="#b5d653"/><path d="M564.651,429.094h-5.14l4.572-4.563a.453.453,0,0,0,0-.63.444.444,0,0,0-.63,0l-4.572,4.572v-5.148a.444.444,0,0,0-.444-.444.453.453,0,0,0-.444.444v5.148l-4.563-4.6a.444.444,0,0,0-.63,0,.453.453,0,0,0,0,.63l4.571,4.563h-5.148a.453.453,0,0,0-.444.444.444.444,0,0,0,.444.444h5.148l-4.571,4.571a.453.453,0,0,0,0,.63.461.461,0,0,0,.63,0l4.563-4.572v5.14a.444.444,0,1,0,.888,0v-5.14l4.572,4.572a.462.462,0,0,0,.63,0,.453.453,0,0,0,0-.63l-4.572-4.571h5.14a.431.431,0,1,0,0-.861Z" transform="translate(-76.994 -89.633)" fill="#b5d653"/><path d="M585.651,429.094h-5.14l4.571-4.563a.453.453,0,0,0,0-.63.444.444,0,0,0-.63,0l-4.571,4.572v-5.148a.444.444,0,0,0-.444-.444.453.453,0,0,0-.444.444v5.148l-4.563-4.6a.444.444,0,0,0-.63,0,.453.453,0,0,0,0,.63l4.572,4.563h-5.148a.453.453,0,0,0-.444.444.444.444,0,0,0,.444.444h5.148l-4.572,4.571a.453.453,0,0,0,0,.63.462.462,0,0,0,.63,0l4.563-4.572v5.14a.444.444,0,1,0,.888,0v-5.14l4.572,4.572a.462.462,0,0,0,.63,0,.453.453,0,0,0,0-.63l-4.571-4.571h5.14a.431.431,0,1,0,0-.861Z" transform="translate(-79.353 -89.633)" fill="#b5d653"/><path d="M606.651,429.094h-5.14l4.571-4.563a.453.453,0,0,0,0-.63.444.444,0,0,0-.63,0l-4.572,4.572v-5.148a.444.444,0,0,0-.444-.444.453.453,0,0,0-.444.444v5.148l-4.563-4.6a.444.444,0,0,0-.63,0,.453.453,0,0,0,0,.63l4.571,4.563h-5.148a.453.453,0,0,0-.444.444.444.444,0,0,0,.444.444h5.148l-4.571,4.571a.453.453,0,0,0,0,.63.462.462,0,0,0,.63,0l4.563-4.572v5.14a.444.444,0,1,0,.888,0v-5.14l4.572,4.572a.462.462,0,0,0,.63,0,.453.453,0,0,0,0-.63l-4.571-4.572h5.14a.431.431,0,1,0,0-.861Z" transform="translate(-81.712 -89.633)" fill="#b5d653"/><path d="M627.651,429.094h-5.14l4.572-4.563a.453.453,0,0,0,0-.63.444.444,0,0,0-.63,0l-4.571,4.572v-5.148a.444.444,0,0,0-.444-.444.453.453,0,0,0-.444.444v5.148l-4.563-4.6a.444.444,0,0,0-.63,0,.453.453,0,0,0,0,.63l4.572,4.563h-5.148a.453.453,0,0,0-.444.444.444.444,0,0,0,.444.444h5.148l-4.572,4.571a.453.453,0,0,0,0,.63.462.462,0,0,0,.63,0l4.563-4.572v5.14a.444.444,0,1,0,.888,0v-5.14l4.571,4.572a.462.462,0,0,0,.63,0,.453.453,0,0,0,0-.63l-4.572-4.571h5.14a.431.431,0,1,0,0-.861Z" transform="translate(-84.071 -89.633)" fill="#b5d653"/><path d="M648.651,429.094h-5.14l4.571-4.563a.453.453,0,0,0,0-.63.444.444,0,0,0-.63,0l-4.571,4.572v-5.148a.444.444,0,0,0-.444-.444.453.453,0,0,0-.444.444v5.148l-4.563-4.6a.444.444,0,0,0-.63,0,.453.453,0,0,0,0,.63l4.571,4.563h-5.148a.453.453,0,0,0-.444.444.444.444,0,0,0,.444.444h5.148l-4.571,4.571a.453.453,0,0,0,0,.63.462.462,0,0,0,.63,0l4.563-4.572v5.14a.444.444,0,0,0,.888,0v-5.14l4.571,4.572a.462.462,0,0,0,.63,0,.453.453,0,0,0,0-.63l-4.571-4.571h5.14a.431.431,0,1,0,0-.861Z" transform="translate(-86.43 -89.633)" fill="#b5d653"/><path d="M669.651,429.094h-5.14l4.572-4.563a.453.453,0,0,0,0-.63.444.444,0,0,0-.63,0l-4.572,4.572v-5.148a.444.444,0,0,0-.444-.444.453.453,0,0,0-.444.444v5.148l-4.563-4.6a.444.444,0,0,0-.63,0,.453.453,0,0,0,0,.63l4.571,4.563h-5.148a.453.453,0,0,0-.444.444.444.444,0,0,0,.444.444h5.148l-4.572,4.571a.453.453,0,0,0,0,.63.462.462,0,0,0,.63,0l4.563-4.572v5.14a.444.444,0,1,0,.888,0v-5.14l4.572,4.572a.462.462,0,0,0,.63,0,.453.453,0,0,0,0-.63l-4.572-4.571h5.14a.431.431,0,1,0,0-.861Z" transform="translate(-88.789 -89.633)" fill="#b5d653"/><path d="M690.651,429.094h-5.14l4.571-4.563a.453.453,0,0,0,0-.63.444.444,0,0,0-.63,0l-4.571,4.572v-5.148a.444.444,0,0,0-.444-.444.453.453,0,0,0-.444.444v5.148l-4.563-4.6a.444.444,0,0,0-.63,0,.453.453,0,0,0,0,.63l4.571,4.563h-5.148a.453.453,0,0,0-.444.444.444.444,0,0,0,.444.444h5.148l-4.571,4.571a.453.453,0,0,0,0,.63.461.461,0,0,0,.63,0l4.563-4.572v5.14a.444.444,0,1,0,.888,0v-5.14l4.571,4.572a.462.462,0,0,0,.63,0,.453.453,0,0,0,0-.63l-4.571-4.572h5.14a.431.431,0,1,0,0-.861Z" transform="translate(-91.148 -89.633)" fill="#b5d653"/><path d="M711.651,429.094h-5.14l4.572-4.563a.453.453,0,0,0,0-.63.444.444,0,0,0-.63,0l-4.572,4.572v-5.148a.444.444,0,0,0-.444-.444.453.453,0,0,0-.444.444v5.148l-4.563-4.6a.444.444,0,0,0-.63,0,.453.453,0,0,0,0,.63l4.571,4.563h-5.148a.453.453,0,0,0-.444.444.444.444,0,0,0,.444.444h5.148l-4.571,4.571a.453.453,0,0,0,0,.63.462.462,0,0,0,.63,0l4.563-4.571v5.14a.444.444,0,1,0,.888,0v-5.14l4.572,4.572a.462.462,0,0,0,.63,0,.453.453,0,0,0,0-.63l-4.572-4.571h5.14a.431.431,0,1,0,0-.861Z" transform="translate(-93.507 -89.633)" fill="#b5d653"/><path d="M732.651,429.094h-5.139l4.571-4.563a.453.453,0,0,0,0-.63.444.444,0,0,0-.63,0l-4.571,4.572v-5.148a.444.444,0,0,0-.444-.444.453.453,0,0,0-.444.444v5.148l-4.563-4.6a.444.444,0,0,0-.63,0,.453.453,0,0,0,0,.63l4.571,4.563h-5.148a.453.453,0,0,0-.444.444.444.444,0,0,0,.444.444h5.148l-4.572,4.571a.453.453,0,0,0,0,.63.462.462,0,0,0,.63,0l4.563-4.572v5.14a.444.444,0,0,0,.888,0v-5.14l4.571,4.572a.462.462,0,0,0,.63,0,.453.453,0,0,0,0-.63l-4.572-4.571h5.139a.431.431,0,1,0,0-.861Z" transform="translate(-95.866 -89.633)" fill="#b5d653"/><path d="M753.651,429.094h-5.14l4.572-4.563a.453.453,0,0,0,0-.63.444.444,0,0,0-.63,0l-4.571,4.572v-5.148a.444.444,0,0,0-.444-.444.453.453,0,0,0-.444.444v5.148l-4.563-4.6a.444.444,0,0,0-.63,0,.453.453,0,0,0,0,.63l4.571,4.563h-5.148a.453.453,0,0,0-.444.444.444.444,0,0,0,.444.444h5.148l-4.571,4.571a.453.453,0,0,0,0,.63.461.461,0,0,0,.63,0l4.563-4.572v5.14a.444.444,0,1,0,.888,0v-5.14l4.572,4.572a.462.462,0,0,0,.63,0,.453.453,0,0,0,0-.63l-4.572-4.571h5.14a.431.431,0,1,0,0-.861Z" transform="translate(-98.225 -89.633)" fill="#b5d653"/><path d="M774.651,429.094h-5.14l4.572-4.563a.453.453,0,0,0,0-.63.444.444,0,0,0-.63,0l-4.571,4.572v-5.148a.444.444,0,0,0-.444-.444.453.453,0,0,0-.444.444v5.148l-4.563-4.6a.444.444,0,0,0-.63,0,.453.453,0,0,0,0,.63l4.572,4.563h-5.148a.453.453,0,0,0-.444.444.444.444,0,0,0,.444.444h5.148l-4.572,4.571a.453.453,0,0,0,0,.63.462.462,0,0,0,.63,0l4.563-4.572v5.14a.444.444,0,0,0,.888,0v-5.14l4.571,4.572a.462.462,0,0,0,.63,0,.453.453,0,0,0,0-.63l-4.572-4.571h5.14a.431.431,0,1,0,0-.861Z" transform="translate(-100.584 -89.633)" fill="#b5d653"/><path d="M920.215,542.074a15.888,15.888,0,0,0-.4-3.187c-.8-3-2.6-6.631-5.566-7.536a46.722,46.722,0,0,1-8.823-3.728c-.533-9.516,1.651-19.253-.728-28.476-.888-3.373-2.352-6.6-2.743-10.057-.488-4.3.684-8.877-1.03-12.836a12.668,12.668,0,0,0-7.5-6.48,39.969,39.969,0,0,0-10-1.775c-4.261-.346-18.055-1.979-22.866,1.829h0a5.027,5.027,0,0,0-.888.888h0a3.549,3.549,0,0,0-.284.462l-.044.071a3.6,3.6,0,0,0-.24.577h0a4.484,4.484,0,0,0-.151.666v1.6c.062.8.177,1.6.177,2.388a5.142,5.142,0,0,1-.107,1.172,8.2,8.2,0,0,1-1.474,2.876h0l-.16.231c-.1.142-.2.275-.284.417s-.16.249-.231.373-.142.2-.2.32a4.332,4.332,0,0,0-.231.453c0,.089-.1.169-.133.257a4.388,4.388,0,0,0-.266.746,4.954,4.954,0,0,0-.053,2.361,8.79,8.79,0,0,0,1.216,2.8c.222.364.462.719.71,1.074l.621.843a19.144,19.144,0,0,0-.186,2.485,18.364,18.364,0,0,0,7.01,14.432,54.381,54.381,0,0,1-.113,11.266c-.08.781-.178,1.571-.284,2.352s-.186,1.3-.293,1.944a9.01,9.01,0,0,1-3.879-.293,18.294,18.294,0,0,0-1.775-.684c-2.583-.648-5.22,1.926-7.776,1.145a1.043,1.043,0,0,1-.115.355,3.479,3.479,0,0,0-1.775-.524c-1.518-.071-2.752-1.172-3.853-2.21l-3.382-3.187a3.735,3.735,0,0,1-.586-.657,4.6,4.6,0,0,1-.408-1.092,12.582,12.582,0,0,0-3.276-4.7,2.219,2.219,0,0,0-.968-.7,1.49,1.49,0,0,0-.444,0,3.888,3.888,0,0,0-.293-.355,8.353,8.353,0,0,0-.737-.746c-1.616-1.491-1.775-2.77-3.178-4.438a42.661,42.661,0,0,1-3.32-5.015c-.115-.932-.275-1.891-.47-2.858a36.776,36.776,0,0,0-1.944-6.48l-1.775-3.932-.2.2c-1.287-1.917-2.663-2.965-3.9-2.716-2.068.426-3.089,4.438-2.761,9.684l.71,5.326a1.64,1.64,0,0,0,.1.4,9.825,9.825,0,0,0-.2,1.917c0,.746.692,1.3,1.056,1.962a5.547,5.547,0,0,1,.888,3.027c-.044.382-.16.746-.177,1.118a4.3,4.3,0,0,0,.834,2.308l4.438,7.456.888,1.562.053.071a3.79,3.79,0,0,0,1.19,1.367,16.258,16.258,0,0,0,1.465,5.388c.151.337.32.657.5.976a31.4,31.4,0,0,0,4.19,5.441l2.113,2.37c2.086,2.326,4.172,4.66,6.436,6.808a8.619,8.619,0,0,0,2.876,2.015,3.257,3.257,0,0,0,3.231-.47q0,1.651,0,3.3a1.855,1.855,0,0,1,1.4,2.92c-1.864,4.785-3.746,9.614-6.569,13.9a29.591,29.591,0,0,1,5.5,4.2,24.741,24.741,0,0,1,2.867,3.879c.08.657.142,1.3.177,1.953.657,10.581-3.435,21.082-7.1,31.166-1.056,2.858-2.21,5.85-2.122,8.823a17.321,17.321,0,0,0-1.988,1.429c.728,1.9.444,3.6.364,5.628a9.972,9.972,0,0,1-.737,3.551,24.954,24.954,0,0,1-1.278,2.281c-2.3,4.057-2.8,8.877-3.267,13.51-.275,2.8.808,6.214-.462,8.717-2.193,4.3-4.136,8.877-4.438,13.652a13.688,13.688,0,0,1-.408,3.187c-.275.888-.763,1.642-1.012,2.512a10.75,10.75,0,0,0-.178,3.551,33.979,33.979,0,0,1-1.864,12.525c-1.11,3.169-2.335,6.56-1.465,9.818a13.838,13.838,0,0,0-3.755,8.246,13,13,0,0,1-.284,2.352,11.44,11.44,0,0,1-1.065,2.263,19.813,19.813,0,0,0-2.414,10.652c-2.663,3.613-3.994,8.069-4.784,12.5s-1.136,8.939-2.148,13.315c-1.349,5.788-3.79,11.637-4.27,17.567-2.876,1.837-4.119,5.4-4.669,8.761s-.639,6.9-2.05,10c-.728,1.616-1.775,3.063-2.468,4.714a21.646,21.646,0,0,0-1.065,4.057,15.83,15.83,0,0,0-.275,6.658,10.034,10.034,0,0,1-2.6,1.98c.142-.55.257-1.1.355-1.66-2.29,2.077-6.445,1.349-8.273,3.844a3.746,3.746,0,0,0,.888,5.14,7.1,7.1,0,0,0,1.837.79c4.438,1.42,9,2.849,13.564,2.095a4.048,4.048,0,0,0,1.536-.488,4.943,4.943,0,0,0,1.429-1.651c.683-1.083,1.367-2.166,2.042-3.249a42.159,42.159,0,0,0,4.98,1.163c.169,1.42.293,2.841.355,4.261.888.178,2.077.231,2.494-.595a2.157,2.157,0,0,0,.151-.985c0-.63.089-1.465.142-2.317h.178a16.864,16.864,0,0,0,7.856-1.589c-.95-7.865,2.184-15.552,4.9-22.991,2.867-7.829,5.326-15.8,7.8-23.772,1.775-5.61,3.737-11.043,5.477-16.662q3.284-10.652,6.6-21.3c.959-3.125,1.926-6.214,3.027-9.32a145.2,145.2,0,0,1,8.229-18.313c.888-1.678,1.775-3.338,2.5-5.077.888-2.122,1.518-4.341,2.228-6.533a101.2,101.2,0,0,1,5.575-13.12c.062-.115.107-.222.169-.328.719,2.938,1.438,5.921,1.917,8.877a33.733,33.733,0,0,1,.151,10.972c-.426,2.477-1.234,4.927-1.136,7.439.133,3.471,1.988,6.622,2.9,9.969a37.938,37.938,0,0,1,.994,7.634c.249,3.995,2.414,8.477.888,12.179-4.749,11.726-2.45,24.97-5.157,37.282-1.394,6.32-5.663,12.259-5.326,18.721q.355,6.879,1.207,13.723a13.061,13.061,0,0,0,1.11,4.163,15.294,15.294,0,0,0,1.216,1.988c-.391.151-.719.55-1,1.394a5.477,5.477,0,0,0,1.971,6.214,8.625,8.625,0,0,0,2.565.888,13.513,13.513,0,0,0,3.71.515,8.661,8.661,0,0,0,1.163-.142,42.3,42.3,0,0,0,4.2,1.509,9.113,9.113,0,0,0,.115,1.092,1.359,1.359,0,0,0,.462,1,1.385,1.385,0,0,0,.71.124h4.82v-1.207a3.968,3.968,0,0,0,3.062-.994,4.74,4.74,0,0,0,.888-1.846q1.971-6.684,3.915-13.377A42.768,42.768,0,0,0,897.3,776.48c-1.713-16.36,2.05-32.773.826-49.177a117.8,117.8,0,0,1,1.509-29.506c.4-2.2.888-4.438,1.065-6.631.391-4.136-.089-8.317.2-12.427.1-1.438.293-2.867.47-4.3a206.31,206.31,0,0,0,1.909-26.763,84.317,84.317,0,0,0-.55-8.877,5.069,5.069,0,0,0,2.423-1.42c.79-1.03.586-2.477.577-3.79,0-3.142,1.323-6.107,2.388-9.072a107.778,107.778,0,0,0,3.355-12.481,43.571,43.571,0,0,0,1.491-10.43q0-.533-.053-1.065a2.75,2.75,0,0,0,.817-.888,5.156,5.156,0,0,0,.426-1.642c.32-2.264.648-4.536.968-6.808q.355-2.441.7-4.873l2.823-19.7c.24-1.713.488-3.418.728-5.122l.737-5.1c.08-.6.169-1.207.231-1.775C922.514,551.022,920.446,546.193,920.215,542.074Zm-23.55,73.747c-1.047-2.485-2.024-5.033-1.775-7.714h-.1a3.959,3.959,0,0,0-.116-2.5c-.275-.648-.754-1.2-1.047-1.846a6.764,6.764,0,0,1-.479-2.485,67.756,67.756,0,0,1,1.269-16.1c.115-.621.24-1.252.355-1.873a4.635,4.635,0,0,0,1.012-.79,7.2,7.2,0,0,0,1.145-1.775c1-2.015,1.917-4.066,2.761-6.152.275-.675.675-1.456,1.358-1.624-.142,5.193.391,10.492-1.722,15.179a9.6,9.6,0,0,0-.888,2.4c-.2,1.323.355,2.663.16,3.977-.1.684-.391,1.314-.506,1.988a1.944,1.944,0,0,0,.515,1.882,1.55,1.55,0,0,0,.382.2c-.053.355-.1.719-.133,1.065-.071.728-.107,1.411-.151,1.837a57.273,57.273,0,0,0-.24,6.533c0,2.352.089,4.7.053,7.1a4.82,4.82,0,0,1-.337,2.015,3.5,3.5,0,0,1-.675.888,23.067,23.067,0,0,0-.843-2.193Z" transform="translate(-103.242 -94.629)" fill="url(#a)"/><ellipse cx="5.006" cy="14.176" rx="5.006" ry="14.176" transform="matrix(0.98, -0.201, 0.201, 0.98, 712.762, 391.426)" fill="#fbbebe"/><path d="M878.365,839.507a5.374,5.374,0,0,0,1.971,6.151,8.77,8.77,0,0,0,2.548.888,13.436,13.436,0,0,0,3.7.506c1.536-.071,3.009-.675,4.545-.888a.71.71,0,0,1,.524.071.755.755,0,0,1,.2.621,23.448,23.448,0,0,0,.2,2.61,1.341,1.341,0,0,0,.462,1,1.385,1.385,0,0,0,.71.124h4.811a46.922,46.922,0,0,0-1.376-12.552,2.805,2.805,0,0,0-.355-.888,2.938,2.938,0,0,0-1.536-.888,8.583,8.583,0,0,0-3.719-.648,10.9,10.9,0,0,0-4.172,2.042,6.356,6.356,0,0,1-4.731,1.145C880.531,838.379,879.191,837.039,878.365,839.507Z" transform="translate(-113.649 -135.996)" fill="#3f3d56"/><path d="M798.066,835.379a13.313,13.313,0,0,1-4.855,3.3l-.817.391a.567.567,0,0,0-.275.222.479.479,0,0,0,.089.4,5.743,5.743,0,0,0,6.516,2.37,3.452,3.452,0,0,0,1.429-.746,4.686,4.686,0,0,0,1.1-2.858,5.851,5.851,0,0,0-.133-3.276C799.886,832.406,799.433,833.666,798.066,835.379Z" transform="translate(-103.99 -135.765)" fill="#fbbebe"/><path d="M815.824,846.38a2.157,2.157,0,0,1-.151.985c-.417.817-1.58.772-2.485.595a59.739,59.739,0,0,0-1.092-8.965c-1.722-.08-2.965,1.553-3.888,3.018l-2.379,3.773a4.919,4.919,0,0,1-1.42,1.651,4.207,4.207,0,0,1-1.536.488c-4.545.754-9.134-.675-13.519-2.095a7.163,7.163,0,0,1-1.837-.781,3.755,3.755,0,0,1-.888-5.131c1.837-2.485,5.965-1.775,8.255-3.835a20.667,20.667,0,0,1-1.172,4.234c3.062-.462,5.122-3.267,7.589-5.14a4.67,4.67,0,0,1,2.166-1.03,4.768,4.768,0,0,1,1.775.186,20.829,20.829,0,0,1,7.812,3.844c.932.737,2.388,1.775,2.8,2.911C816.285,842.448,815.824,844.933,815.824,846.38Z" transform="translate(-103.302 -135.83)" fill="#3f3d56"/><circle cx="18.339" cy="18.339" r="18.339" transform="translate(755.245 380.995)" fill="#fbbebe"/><path d="M926.684,618.579a43.488,43.488,0,0,1-1.483,10.377,107.074,107.074,0,0,1-3.355,12.427c-1.056,2.956-2.379,5.921-2.37,9.054,0,1.3.213,2.752-.586,3.781A5.523,5.523,0,0,1,916.3,655.7a3.24,3.24,0,0,0-2.184,1.944,13.713,13.713,0,0,1-1.846-4.066q-2.388-7.314-4.438-14.709a1.908,1.908,0,0,1,.124-1.775,2.2,2.2,0,0,1,.772-.435,7.987,7.987,0,0,0,2.459-1.58,3.6,3.6,0,0,0,.817-1.056,4.785,4.785,0,0,0,.346-2.006c0-2.352,0-4.7-.062-7.048a58.889,58.889,0,0,1,.249-6.507c0-.426.08-1.11.151-1.837.133-1.394.4-3.009,1.154-3.551,1.127-.755,4.5.257,5.779.435,2.2.3,4.438.657,6.586,1.074A17.591,17.591,0,0,1,926.684,618.579Z" transform="translate(-116.972 -110.967)" fill="#3f3d56"/><path d="M843.129,518.135c-.71,1.42-2.414,2.1-3.728,3l-4.5,3.089a3,3,0,0,1-2.228.763,2.929,2.929,0,0,1-1.66-1.553.311.311,0,0,0,0-.071l-.932-1.562-4.438-7.439a4.233,4.233,0,0,1-.826-2.29c0-.382.133-.737.169-1.118a5.371,5.371,0,0,0-.888-3.018c-.355-.666-1.065-1.216-1.047-1.962a7.1,7.1,0,0,1,.5-2.867,5.806,5.806,0,0,1,1.944-2.077c.417-.3.843-.586,1.287-.888a2.538,2.538,0,0,1,.772-.355c.737-.151,1.465.462,2.21.488,3.2,2.148,4.438,6.214,6.959,9.143,1.42,1.669,1.562,2.947,3.169,4.438.257.231.506.479.746.737a5.156,5.156,0,0,1,.8,1.154C841.726,516.511,843.492,517.407,843.129,518.135Z" transform="translate(-107.466 -98.269)" fill="#3f3d56"/><path d="M880.084,516.292c1.323,2.8,2.352,5.867,1.971,8.939a5.584,5.584,0,0,1-.772,2.352c-1.278,1.962-3.959,2.317-6.294,2.432a3.711,3.711,0,0,0-2.734.888,2.485,2.485,0,0,0,.169,3.036,6.851,6.851,0,0,0,2.716,1.775c3.693,1.625,7.678,2.965,11.691,2.592,1.864-.178,3.675-.719,5.53-.994a58.025,58.025,0,0,1,6.089-.337c2.414-.089,4.82-.328,7.226-.568l6.374-.63a1.42,1.42,0,0,0,.95-.346c.471-.55-.133-1.358-.719-1.775-3.382-2.5-7.687-4.225-9.614-7.989-.888-1.775-1.163-3.888-1.82-5.805s-1.7-3.648-2.113-5.6a37.1,37.1,0,0,1-.293-5.166,6.933,6.933,0,0,0-1.775-4.722,7.4,7.4,0,0,0-4.829-1.553c-4.243-.186-8.761.826-11.771,3.817-.808.808-1.5,1.775-2.334,2.5s-1.971.941-1.42,1.9,1.633,1.553,2.219,2.4A20.412,20.412,0,0,1,880.084,516.292Z" transform="translate(-112.944 -98.61)" fill="#fbbebe"/><path d="M913.807,544.2a100.857,100.857,0,0,1-5.433,20,75.324,75.324,0,0,0-3.2,8.965c-.683,2.752-.55,5.7-1.18,8.459-.781,3.435-1.562,6.879-2.193,10.341a67.808,67.808,0,0,0-1.261,16.067,6.719,6.719,0,0,0,.479,2.477c.293.639.763,1.19,1.039,1.846a4.437,4.437,0,0,1-.249,3.551,10.28,10.28,0,0,1-1.829,2.77c-8.273,2.468-17.123,1.66-25.742,2.184-7.945.479-15.978,2.113-23.807.755-.888-3.551.595-7.27,1.864-10.732,3.684-10.057,7.758-20.532,7.1-31.068a32.176,32.176,0,0,0-.417-3.666c-1.287-7.465.115-15.2,2.361-22.431,1.394-4.509,1.332-9.312,1.012-14.007a25.574,25.574,0,0,1-.062-4.589,8.069,8.069,0,0,1,1.669-4.287c0-.062.08-.124.124-.186a1.218,1.218,0,0,1,.666,0h0a.569.569,0,0,0,.444,0l.1-.062a.222.222,0,0,1,.257,0c.2.124.32.55.763.63a17.675,17.675,0,0,0,1.979.186,10.654,10.654,0,0,1,2.361.337h.107a6.932,6.932,0,0,0,3.444-.293,9.154,9.154,0,0,0,2.113-.817c.2-.213,1.42-.408,1.669-.559.808-.488.63-2.778.8-3.719a10.225,10.225,0,0,1,.666-2.752,4.687,4.687,0,0,1,3.8-2.21,20.232,20.232,0,0,1,4.554.408c3.311.47,6.7.391,9.951,1.154,1.633.382,3.417.959,4.918.213.408.1.47.453.47.888a5.684,5.684,0,0,1-.248,1.216c-.568,2.45,1.358,4.7,3.133,6.48a10.05,10.05,0,0,0,2.619,2.086c.888.408,1.775.577,2.663,1.021a4.847,4.847,0,0,1,1.775,1.625,6.782,6.782,0,0,1,1.012,2.583,15.45,15.45,0,0,1-.293,5.14Z" transform="translate(-110.512 -100.698)" fill="#3f3d56"/><path d="M914.864,545.361a100.85,100.85,0,0,1-5.433,20,75.322,75.322,0,0,0-3.2,8.965c-.683,2.752-.55,5.7-1.181,8.459-.781,3.435-1.562,6.88-2.193,10.341-.186.106-.382.2-.577.293a13.622,13.622,0,0,1-3.48,1.119,21.3,21.3,0,0,1-6.5-.213l-12.667-1.7c-5.06-.683-10.448-1.509-14.2-4.935-2.086-1.882-3.453-4.367-4.953-6.764a32.2,32.2,0,0,0-.417-3.666c-1.287-7.465.115-15.2,2.361-22.431,1.394-4.509,1.331-9.312,1.012-14.007a25.58,25.58,0,0,1-.062-4.589,8.068,8.068,0,0,1,1.669-4.287,6.337,6.337,0,0,1,.79-.177h0a3.943,3.943,0,0,1,.542-.071h.257a3.869,3.869,0,0,1,.888.107,16.051,16.051,0,0,1,1.775.683h.107a6.794,6.794,0,0,0,2.361.337c1.172,0,2.379-.186,3.551-.266a6.552,6.552,0,0,1,4.208.755,25.214,25.214,0,0,1,2.343,2.139,10.065,10.065,0,0,0,2.956,1.607,31.415,31.415,0,0,0,23.63-.5,4.623,4.623,0,0,1,2.37-.6,4.438,4.438,0,0,1,1.7.728c.533.311,1.056.612,1.6.888a6.782,6.782,0,0,1,1.012,2.583A15.446,15.446,0,0,1,914.864,545.361Z" transform="translate(-111.569 -101.857)" opacity="0.1"/><path d="M921.625,539.269a47.378,47.378,0,0,1-10.119-4.438,4.535,4.535,0,0,0-1.7-.728,4.765,4.765,0,0,0-2.379.6,31.4,31.4,0,0,1-23.621.5,10.271,10.271,0,0,1-2.956-1.607,26.525,26.525,0,0,0-2.343-2.139c-2.92-1.891-6.959.328-10.226-.888a18.1,18.1,0,0,0-1.775-.684c-2.583-.648-5.211,1.926-7.749,1.145a43.188,43.188,0,0,0-2.086,7.918,86.316,86.316,0,0,0-.577,9.338c0,1.873-.089,3.746,0,5.619a1.843,1.843,0,0,1,1.4,2.912c-1.855,4.767-3.737,9.587-6.551,13.857a30.107,30.107,0,0,1,5.486,4.19c3.107,3.284,4.634,7.891,7.989,10.927,3.781,3.417,9.17,4.252,14.2,4.927l12.667,1.7a21.651,21.651,0,0,0,6.507.222,13.7,13.7,0,0,0,3.471-1.127,6.212,6.212,0,0,0,1.935-1.278,7.1,7.1,0,0,0,1.145-1.775c1-2.006,1.917-4.057,2.761-6.134.293-.737.737-1.6,1.536-1.66,4.7-4.243,9.143-8.593,13.848-12.836a30.687,30.687,0,0,0,5.051-5.326c2.335-3.453.213-8.344,0-12.516a15.8,15.8,0,0,0-.4-3.169C926.374,543.787,924.581,540.166,921.625,539.269Z" transform="translate(-110.599 -101.641)" fill="#b5d653"/><path d="M844.136,519.991c-.71,1.42-2.414,2.1-3.728,3l-4.5,3.089a3,3,0,0,1-2.228.763,2.929,2.929,0,0,1-1.66-1.553v-.639a5.956,5.956,0,0,1,.284-2.122,6.612,6.612,0,0,1,1.988-2.557,16.277,16.277,0,0,1,5.832-3.551,2,2,0,0,1,1.065-.106,1.4,1.4,0,0,1,.391.168,5.151,5.151,0,0,1,.8,1.154C842.733,518.367,844.5,519.263,844.136,519.991Z" transform="translate(-108.473 -100.125)" opacity="0.1"/><path d="M854.874,529.42c-1.509-.071-2.743-1.163-3.844-2.2l-3.364-3.125a3.146,3.146,0,0,1-.586-.657,4.614,4.614,0,0,1-.408-1.092,12.525,12.525,0,0,0-3.267-4.687,2.13,2.13,0,0,0-.968-.692,1.945,1.945,0,0,0-1.074.106,16.235,16.235,0,0,0-5.832,3.551,6.631,6.631,0,0,0-1.988,2.557,5.9,5.9,0,0,0-.284,2.122,16.3,16.3,0,0,0,1.545,6.782c.151.328.32.657.5.976a30.742,30.742,0,0,0,4.172,5.424l2.113,2.361c2.077,2.326,4.154,4.651,6.409,6.791a8.466,8.466,0,0,0,2.876,2.006,3.213,3.213,0,0,0,3.3-.533,4.775,4.775,0,0,0,.941-1.687c1.367-3.551,2.663-7.243,2.743-11.069a41.834,41.834,0,0,0-.2-4.589C857.528,530.148,856.383,529.518,854.874,529.42Z" transform="translate(-108.612 -100.198)" fill="#b5d653"/><path d="M904.726,665.824a205.128,205.128,0,0,1-1.9,26.692c-.177,1.429-.373,2.858-.47,4.287-.293,4.145.186,8.309-.2,12.427-.2,2.228-.666,4.438-1.056,6.613a117.593,117.593,0,0,0-1.509,29.426c1.225,16.36-2.53,32.728-.825,49.044a39.645,39.645,0,0,1-.524,9.489,40.2,40.2,0,0,1-1.376,5.734q-1.944,6.667-3.906,13.315a4.616,4.616,0,0,1-.888,1.846,4.207,4.207,0,0,1-3.329.985c-5.122-.16-9.942-2.37-14.593-4.527a5.083,5.083,0,0,1-1.465-.888c-.968-1-.888-2.583-1.314-3.906s-1.58-2.565-2.237-3.924a12.807,12.807,0,0,1-.968-4.039q-.888-6.817-1.207-13.688c-.337-6.445,3.923-12.374,5.326-18.641,2.663-12.321.408-25.529,5.14-37.22,1.491-3.693-.675-8.167-.888-12.143a38.5,38.5,0,0,0-.994-7.616c-.888-3.338-2.761-6.48-2.894-9.942-.1-2.5.71-4.944,1.127-7.412a33.313,33.313,0,0,0-.151-10.945c-.471-2.983-1.19-5.965-1.909-8.877l-.16.328a100.3,100.3,0,0,0-5.566,13.093c-.71,2.175-1.331,4.394-2.219,6.507-.728,1.775-1.624,3.4-2.5,5.069a145.579,145.579,0,0,0-8.211,18.241c-1.1,3.071-2.068,6.214-3.027,9.294l-6.578,21.3c-1.775,5.6-3.719,11.016-5.459,16.608-2.459,7.989-4.918,15.907-7.776,23.718-2.663,7.412-5.832,15.09-4.882,22.92a16.865,16.865,0,0,1-7.838,1.589,45.893,45.893,0,0,1-13.315-3.231,10.351,10.351,0,0,1-4.6-2.734c-1.971-2.406-1.482-5.93-.888-8.992a21.724,21.724,0,0,1,1.065-4.048c.675-1.633,1.775-3.08,2.468-4.7,1.394-3.1,1.482-6.6,2.033-9.968s1.775-6.915,4.651-8.743c.488-5.912,2.92-11.744,4.261-17.523,1.012-4.376,1.349-8.877,2.148-13.315s2.086-8.877,4.767-12.472a19.768,19.768,0,0,1,2.414-10.652,11.648,11.648,0,0,0,1.056-2.264,13.009,13.009,0,0,0,.284-2.343,13.856,13.856,0,0,1,3.746-8.229c-.888-3.24.346-6.622,1.456-9.764a33.926,33.926,0,0,0,1.864-12.49,10.946,10.946,0,0,1,.169-3.551c.248-.888.737-1.642,1.021-2.494a14.207,14.207,0,0,0,.4-3.187c.346-4.8,2.29-9.329,4.438-13.617,1.278-2.5.2-5.9.462-8.69.462-4.634.968-9.427,3.267-13.466.426-.763.888-1.491,1.269-2.281a9.879,9.879,0,0,0,.737-3.551c.08-2.033.364-3.719-.364-5.61,4.749-3.95,11.229-5.06,17.407-5.326s12.427.293,18.472-1.021c1.775-.4,3.551-.95,5.424-1.216,4.252-.621,8.566.346,12.765,1.3-.293,2.663.684,5.219,1.775,7.7a82.618,82.618,0,0,1,6.578,31.708Z" transform="translate(-104.671 -112.328)" fill="#33313f"/><path d="M893.108,673.29l-10.2,22.937c-.47-2.982-1.19-5.965-1.909-8.877l-.16.328V687.2l5.557-12.223Z" transform="translate(-113.958 -117.762)" opacity="0.1"/><path d="M927.311,618.579a3.835,3.835,0,0,1-2.024.754,9.846,9.846,0,0,1-3.32-.453l-7.989-2a3.927,3.927,0,0,1-.728-.257c.133-1.394.4-3.009,1.154-3.551,1.127-.755,4.5.257,5.779.435,2.2.3,4.438.657,6.586,1.074a17.587,17.587,0,0,1,.542,3.995Z" transform="translate(-117.599 -110.967)" opacity="0.1"/><path d="M933.961,559.451c.169.737.408,1.465.55,2.21a16.865,16.865,0,0,1-.186,5.495l-.728,5.077-.728,5.1-2.814,19.644-.692,4.864-.976,6.791a4.882,4.882,0,0,1-.426,1.633,3.4,3.4,0,0,1-2.778,1.642,10.067,10.067,0,0,1-3.32-.453l-7.989-2.006a2.5,2.5,0,0,1-.977-.4,1.926,1.926,0,0,1-.515-1.873c.115-.675.408-1.3.506-1.98.2-1.314-.355-2.663-.16-3.968a9.87,9.87,0,0,1,.888-2.388c2.663-5.885,1.119-12.756,2.024-19.147a29.025,29.025,0,0,1,6.16-13.706,39.338,39.338,0,0,1,6.8-6.675c.994-.772,2.574-2.361,3.826-2.663C934.032,556.318,933.695,558.333,933.961,559.451Z" transform="translate(-117.494 -104.656)" fill="#b5d653"/><path d="M867.542,473.1c-.586,1.864.328,3.915-.089,5.814-.453,2.095-2.423,3.551-2.982,5.654-.888,3.2,1.829,6.125,3.817,8.788,7.368,9.889,6.4,23.576,3.879,35.64a184.021,184.021,0,0,1-8.388,28.405c-1.11,2.867-2.335,5.779-4.518,7.927,4.083-1.172,8.424-2.352,12.516-1.216,5.184,1.438,9.658,6.471,14.913,5.326,3.16-.7,5.379-3.506,8.22-5.06,5.326-2.867,11.744-1.065,17.682-.142a6.941,6.941,0,0,0,3.861-.2,6.417,6.417,0,0,0,2.343-2.157,21.889,21.889,0,0,0,4.563-11.806A15.143,15.143,0,0,0,919,538.423c-1.26-1.19-2.77-2.148-3.737-3.551a11.025,11.025,0,0,1-1.465-5.379c-.7-9.764,1.678-19.733-.772-29.178-.888-3.364-2.335-6.587-2.725-10.031-.488-4.287.675-8.877-1.03-12.8a12.553,12.553,0,0,0-7.483-6.462,41,41,0,0,0-9.977-1.775C886.946,468.839,869.575,466.753,867.542,473.1Z" transform="translate(-111.534 -94.768)" fill="#33313f"/><g transform="translate(747.726 376.299)" opacity="0.1"><path d="M872.744,530.666a183.654,183.654,0,0,1-8.344,28.29c.613-1.216,1.127-2.494,1.616-3.764a183.065,183.065,0,0,0,8.388-28.405c2.53-12.072,3.5-25.742-3.87-35.64-1.775-2.361-4.057-4.918-3.977-7.687a9.46,9.46,0,0,0-1.509,2.787c-.888,3.2,1.829,6.125,3.817,8.788C876.233,504.915,875.265,518.6,872.744,530.666Z" transform="translate(-859.838 -472.737)"/><path d="M868.581,478.33a8.638,8.638,0,0,0,1.562-2.991,15.209,15.209,0,0,0-.107-3.959,4.269,4.269,0,0,0-1.474,2.033C868.039,474.984,868.643,476.688,868.581,478.33Z" transform="translate(-860.281 -471.38)"/><path d="M920.465,568.9a6.39,6.39,0,0,1-2.344,2.148,6.781,6.781,0,0,1-3.861.2c-5.939-.888-12.427-2.716-17.682.151-2.849,1.544-5.06,4.35-8.229,5.06-5.246,1.172-9.72-3.861-14.9-5.326-3.675-1.021-7.545-.177-11.247.888a15.51,15.51,0,0,1-2.938,4.243c4.083-1.172,8.424-2.352,12.516-1.216,5.184,1.438,9.658,6.471,14.913,5.326,3.16-.7,5.379-3.506,8.22-5.06,5.326-2.867,11.744-1.065,17.682-.142a6.942,6.942,0,0,0,3.861-.2,6.417,6.417,0,0,0,2.344-2.157,23.857,23.857,0,0,0,3.675-7.03,25.805,25.805,0,0,1-2.006,3.116Z" transform="translate(-859.26 -481.984)"/></g></g></svg>