<svg xmlns="http://www.w3.org/2000/svg" width="666.25" height="546" viewBox="0 0 666.25 546"><g transform="translate(-27.858 -10309)"><g transform="translate(27.858 10309)" opacity="0.8"><path d="M864.317,177.189c-106.251-81.9-254.071-85.245-361.912-5.448C445.4,213.926,401.2,278.463,409.242,376.728c2.842,34.758,10.752,63.272,22.291,86.615,46.74,94.628,238.715,90.984,249.376,90.97q10.361-.01,20.722.463a454.465,454.465,0,0,1,71.97,9.1c33.8,7.046,76.838,10.586,115.288-2.759a133.649,133.649,0,0,0,18.987-8.256c21.13-11.229,44.784-21.96,58.612-48.593C976.88,484.279,984.451,459.215,988.1,428,1001.355,314.307,935.088,231.743,864.317,177.189Z" transform="translate(-362.236 -113.785)" fill="#3f3d56"/><ellipse cx="303.827" cy="28.52" rx="303.827" ry="28.52" transform="translate(36.033 413.833)" fill="#3f3d56"/><ellipse cx="289.185" cy="13.701" rx="289.185" ry="13.701" transform="translate(29.231 428.966)" opacity="0.1"/><path d="M889.505,73.342v32H847.849V454.286h86.935V73.342Z" transform="translate(-408.159 -12.952)" fill="#575a89"/><path d="M604.158,322.576V267.639H551.031v54.937H531.109V489.2h92.368V322.576Z" transform="translate(-352.224 -47.264)" fill="#575a89"/><rect width="71.842" height="77.879" transform="translate(189.148 364.662)" fill="#f2f2f2"/><rect width="11.471" height="77.879" transform="translate(189.148 364.662)" opacity="0.1"/><path d="M780.934,52.079V70.794H674.68V52.079H643.287V451.738H811.724V52.079Z" transform="translate(-372.034 -9.197)" fill="#f2f2f2"/><rect width="23.545" height="18.715" transform="translate(408.9 42.882)" opacity="0.1"/><rect width="23.545" height="399.659" transform="translate(271.253 42.882)" opacity="0.1"/><path d="M487.93,187.416V172.323h-15.7v15.093H443.858V472.973H515.7V187.416Z" transform="translate(-336.815 -30.432)" fill="#f2f2f2"/><rect width="8.452" height="15.093" transform="translate(135.418 141.891)" opacity="0.1"/><rect width="8.452" height="285.557" transform="translate(107.043 156.984)" opacity="0.1"/><rect width="23.545" height="245.712" transform="translate(408.9 196.83)" opacity="0.1"/><rect width="21.734" height="52.523" transform="translate(157.152 156.984)" opacity="0.1"/><rect width="33.808" height="14.489" transform="translate(297.213 93.595)" fill="#ff6584"/><rect width="33.808" height="14.489" transform="translate(369.055 242.712)" fill="#ff6584"/><rect width="33.808" height="14.489" transform="translate(297.213 347.154)" fill="#ff6584"/><rect width="33.808" height="14.489" transform="translate(126.362 222.186)" fill="#ff6584"/><rect width="33.808" height="14.489" transform="translate(208.467 373.114)" fill="#ff6584"/><rect width="57.957" height="24.149" transform="translate(196.392 287.99)" opacity="0.1"/><rect width="57.957" height="24.149" transform="translate(449.953 120.158)" opacity="0.1"/><rect width="57.957" height="24.149" transform="translate(449.953 171.474)" opacity="0.1"/><rect width="57.957" height="24.149" transform="translate(449.953 222.789)" opacity="0.1"/><rect width="57.957" height="24.149" transform="translate(449.953 274.105)" opacity="0.1"/><rect width="57.957" height="24.149" transform="translate(449.953 325.42)" opacity="0.1"/><rect width="57.957" height="24.149" transform="translate(449.953 376.737)" opacity="0.1"/><path d="M965.323,264.523v-65.8h-42.26v65.8H907.97V477.634h71.843V264.523Z" transform="translate(-418.776 -35.093)" fill="#f2f2f2"/><rect width="13.282" height="65.805" transform="translate(504.287 163.625)" opacity="0.1"/><rect width="13.282" height="213.112" transform="translate(489.194 229.43)" opacity="0.1"/><rect width="35.619" height="21.13" transform="translate(525.417 336.288)" opacity="0.1"/><rect width="33.808" height="14.489" transform="translate(526.625 304.895)" fill="#ff6584"/><path d="M1130.866,475.625c0,53.786-31.975,72.566-71.418,72.566s-71.418-18.78-71.418-72.566,71.418-122.209,71.418-122.209S1130.866,421.839,1130.866,475.625Z" transform="translate(-464.616 -156.103)" fill="#b5d653"/><path d="M1026.953,426.178l.724-45.014,30.441-55.688L1027.793,374.1l.329-20.24,20.98-40.29-20.89,34.935h0l.593-36.4,22.462-32.077L1028.9,306.38l.37-66.75-2.322,88.364.189-3.645-22.841-34.961,22.479,41.959L1024.639,372l-.066-1.079-26.328-36.791,26.253,40.6-.272,5.085-.05.076.025.417L1018.81,483.46h7.213l.865-53.277,26.184-40.5Z" transform="translate(-434.719 -42.318)" fill="#3f3d56"/><path d="M495.193,476.332c0,53.786-31.975,72.566-71.418,72.566s-71.418-18.78-71.418-72.566,71.418-122.21,71.418-122.21S495.193,422.546,495.193,476.332Z" transform="translate(-352.358 -156.227)" fill="#b5d653"/><path d="M391.277,426.885l.731-45.014,30.44-55.688-30.325,48.627.329-20.24,20.979-40.29-20.891,34.934h0l.591-36.4L415.6,280.735l-22.372,26.352.37-66.75L391.27,328.7l.191-3.645L368.621,290.1l22.474,41.958-2.128,40.656-.063-1.079-26.331-36.791,26.251,40.6-.266,5.084-.048.077.021.417-5.4,103.146h7.214l.865-53.277,26.187-40.5Z" transform="translate(-322.461 -42.443)" fill="#3f3d56"/></g><g transform="translate(125.721 10577.638)"><ellipse cx="244.61" cy="22.009" rx="244.61" ry="22.009" transform="translate(28.986 233.345)" fill="#3f3d56"/><path d="M970.482,679.279c0,33.663-46.922,23.251-104.373,23.251s-103.675,10.412-103.675-23.251S809.35,638.294,866.8,638.294,970.482,645.616,970.482,679.279Z" transform="translate(-478.059 -446.359)" opacity="0.1"/><path d="M970.482,669.279c0,33.663-46.922,23.251-104.373,23.251s-103.675,10.413-103.675-23.251S809.35,628.294,866.8,628.294,970.482,635.616,970.482,669.279Z" transform="translate(-478.059 -442.647)" fill="#3f3d56"/><path d="M765.449,525.762l-2.126,2.469s-25.852,2.427-24.8,6.624,31.125-5.6,31.125-5.6Z" transform="translate(-469.171 -404.589)" fill="#ffc1c7"/><path d="M830.7,522.425s-27.628,9.792-42.666,5.6l6.995,13.989S830.7,540.96,837,534.665,830.7,522.425,830.7,522.425Z" transform="translate(-487.562 -403.35)" fill="#b5d653"/><path d="M830.7,522.425s-27.628,9.792-42.666,5.6l6.995,13.989S830.7,540.96,837,534.665,830.7,522.425,830.7,522.425Z" transform="translate(-487.562 -403.35)" opacity="0.1"/><ellipse cx="18.535" cy="18.535" rx="18.535" ry="18.535" transform="translate(305.896 6.988)" fill="#ffc1c7"/><path d="M834.362,396.326a14.458,14.458,0,0,0,2.4,3.329,30.318,30.318,0,0,0,8.934,6.685,304.458,304.458,0,0,1-31.834,4.734c1.128-3.974-.357-8.224-2.353-11.84s-4.541-6.987-5.79-10.924l12.528.337c2.273.061,4.554.129,6.826.018,1.7-.083,4.529-1.1,6.114-.726C834.542,388.731,832.9,393.353,834.362,396.326Z" transform="translate(-494.126 -353.401)" fill="#ffc1c7"/><path d="M838.079,536.569l10.492,12.59s17.486,40.917-20.634,45.114-66.447-3.148-66.447-3.148-15.388-7.344-15.737-1.749S744,610.71,735.61,626.1l-7.344,16.787s-3.847,3.847-2.8,9.093-23.431,6.995-23.082,0c0,0,3.5-5.945,3.5-9.443s5.6-11.891,5.6-11.891l10.142-50.36s-.7-25.879,23.082-20.983,57.7-1.049,57.7-1.049l7.694-26.929Z" transform="translate(-455.768 -406.653)" fill="#2f2e41"/><path d="M838.079,536.569l10.492,12.59s17.486,40.917-20.634,45.114-66.447-3.148-66.447-3.148-15.388-7.344-15.737-1.749S744,610.71,735.61,626.1l-7.344,16.787s-3.847,3.847-2.8,9.093-23.431,6.995-23.082,0c0,0,3.5-5.945,3.5-9.443s5.6-11.891,5.6-11.891l10.142-50.36s-.7-25.879,23.082-20.983,57.7-1.049,57.7-1.049l7.694-26.929Z" transform="translate(-455.768 -406.653)" opacity="0.1"/><path d="M779.671,536.533s32-12.019,49.835,13.511c0,0,4.546,39.519-13.639,41.267s-41.967,1.4-47.562-4.546-40.917-22.732-40.917-22.732-17.583-8.968-21.032,2.685-3.8,14.451-3.8,14.451-18.186,13.289-25.53,15.737c0,0-4.9,6.995-7.694,6.995s-19.934,3.847-18.186-9.093l28.328-25.879L707.8,541.3s8.044-11.891,28.677-5.6A426.6,426.6,0,0,0,778.1,545.847Z" transform="translate(-436.705 -407.538)" fill="#2f2e41"/><path d="M707.989,721.478s6.645,16.787,1.049,18.885-17.486.7-17.486.7-13.989-1.749-17.486-1.4-17.836-2.448-15.738-8.044,12.94-4.2,12.94-4.2l9.792-4.547s1.049-3.5,3.5-2.1S694,727.423,707.989,721.478Z" transform="translate(-439.339 -476.853)" fill="#cbceda"/><path d="M655.623,638.569s7.344,16.437-4.546,15.038-20.983-3.847-24.481-4.2c-3.364-.336-12.876-3.585-11.417-10.057a5.753,5.753,0,0,0,.095-1.27c0-.869,1.18-2.574,10.623-2.311,0,0,6.995,0,9.792-4.9C635.689,630.876,646.18,644.165,655.623,638.569Z" transform="translate(-423.344 -443.605)" fill="#cbceda"/><path d="M805.834,416.519s25.18-15.737,46.163,0S886.97,503.95,886.97,503.95l-48.611-10.841s-2.1-8.393-4.9-9.792-3.147-7.344-3.147-7.344-15.038-4.546-13.989-22.033S805.834,416.519,805.834,416.519Z" transform="translate(-494.168 -361.444)" fill="#b5d653"/><path d="M808.081,421.76H795.142s-7.694,8.743-8.743,30.776l-4.2,17.486s-8.743,20.983-3.5,24.481,15.388,3.147,17.486-3.847,16.437-47.562,16.437-47.562Z" transform="translate(-483.476 -365.985)" fill="#b5d653"/><path d="M800.249,334.464a18.736,18.736,0,0,1,19.381,3.178c6.716,5.994,8.072,15.772,9.769,24.612s5.114,18.685,13.446,22.094a35.031,35.031,0,0,1-11.288-.328L844.148,395.3l-21.21-6.913c-6.657-2.17-13.648-4.367-20.542-3.141-11.42,2.03-19.37,12.766-30.339,16.537l1.219-5.948-7.359-.056a14.414,14.414,0,0,0,4.216-4.94,4.08,4.08,0,0,0-2.815-1.473c-3.068-19.134,8.295-38.048,23.1-50.549,2.912-2.459,6.135-4.82,9.9-5.436s8.153,1.067,9.461,4.647" transform="translate(-479.351 -333.063)" fill="#2e2d35"/><path d="M310.2,614.159c0,40.255,25.254,72.828,56.462,72.828" transform="translate(-310.196 -437.4)" fill="#3f3d56"/><path d="M399.987,686.5c0-40.707,28.181-73.646,63.008-73.646" transform="translate(-343.525 -436.918)" fill="#b5d653"/><path d="M342.729,619.963c0,38.237,16.1,69.179,36,69.179" transform="translate(-322.272 -439.555)" fill="#b5d653"/><path d="M399.987,674.429c0-52.014,32.573-94.1,72.828-94.1" transform="translate(-343.525 -424.842)" fill="#3f3d56"/><path d="M381.1,728.239s8.007-.247,10.42-1.965,12.317-3.77,12.916-1.014,12.033,13.707,2.993,13.78-21.005-1.408-23.414-2.875S381.1,728.239,381.1,728.239Z" transform="translate(-336.513 -478.139)" fill="#a8a8a8"/><path d="M407.588,740.628c-9.04.073-21.005-1.408-23.414-2.875-1.834-1.117-2.565-5.126-2.81-6.976l-.267.01s.507,6.458,2.916,7.925,14.374,2.948,23.414,2.875c2.61-.021,3.511-.949,3.461-2.325C410.526,740.093,409.53,740.612,407.588,740.628Z" transform="translate(-336.513 -480.687)" opacity="0.2"/></g></g></svg>