<svg xmlns="http://www.w3.org/2000/svg" width="666.25" height="546"><g opacity=".8"><path d="M502.081 63.404c-106.251-81.9-254.071-85.245-361.912-5.448-57.005 42.185-101.205 106.722-93.163 204.987 2.842 34.758 10.752 63.272 22.291 86.615 46.74 94.628 238.715 90.984 249.376 90.97q10.361-.01 20.722.463a454.465 454.465 0 0171.97 9.1c33.8 7.046 76.838 10.586 115.288-2.759a133.649 133.649 0 0018.987-8.256c21.13-11.229 44.784-21.96 58.612-48.593 10.392-19.989 17.963-45.053 21.612-76.268 13.255-113.693-53.012-196.257-123.783-250.811z" fill="#3f3d56"/><ellipse cx="303.827" cy="28.52" rx="303.827" ry="28.52" transform="translate(36.033 413.833)" fill="#3f3d56"/><ellipse cx="289.185" cy="13.701" rx="289.185" ry="13.701" transform="translate(29.231 428.966)" opacity=".1"/><path d="M481.346 60.39v32H439.69v348.944h86.935V60.39zM251.934 275.312v-54.937h-53.127v54.937h-19.922v166.624h92.368V275.312z" fill="#575a89"/><path fill="#f2f2f2" d="M189.148 364.662h71.842v77.879h-71.842z"/><path opacity=".1" d="M189.148 364.662h11.471v77.879h-11.471z"/><path d="M408.9 42.882v18.715H302.646V42.882h-31.393v399.659H439.69V42.882z" fill="#f2f2f2"/><path opacity=".1" d="M408.9 42.882h23.545v18.715H408.9zM271.253 42.882h23.545v399.659h-23.545z"/><path d="M151.115 156.984v-15.093h-15.7v15.093h-28.372v285.557h71.842V156.984z" fill="#f2f2f2"/><path opacity=".1" d="M135.418 141.891h8.452v15.093h-8.452zM107.043 156.984h8.452v285.557h-8.452zM408.9 196.83h23.545v245.712H408.9zM157.152 156.984h21.734v52.523h-21.734z"/><path fill="#ff6584" d="M297.213 93.595h33.808v14.489h-33.808zM369.055 242.712h33.808v14.489h-33.808zM297.213 347.154h33.808v14.489h-33.808zM126.362 222.186h33.808v14.489h-33.808zM208.467 373.114h33.808v14.489h-33.808z"/><path opacity=".1" d="M196.392 287.99h57.957v24.149h-57.957zM449.953 120.158h57.957v24.149h-57.957zM449.953 171.474h57.957v24.149h-57.957zM449.953 222.789h57.957v24.149h-57.957zM449.953 274.105h57.957v24.149h-57.957zM449.953 325.42h57.957v24.149h-57.957zM449.953 376.737h57.957v24.149h-57.957z"/><path d="M546.547 229.43v-65.8h-42.26v65.8h-15.093v213.111h71.843V229.43z" fill="#f2f2f2"/><path opacity=".1" d="M504.287 163.625h13.282v65.805h-13.282zM489.194 229.43h13.282v213.112h-13.282zM525.417 336.288h35.619v21.13h-35.619z"/><path fill="#ff6584" d="M526.625 304.895h33.808v14.489h-33.808z"/><path d="M666.25 319.522c0 53.786-31.975 72.566-71.418 72.566s-71.418-18.78-71.418-72.566 71.418-122.209 71.418-122.209 71.418 68.423 71.418 122.209z" fill="#b5d653"/><path d="M592.234 383.86l.724-45.014 30.441-55.688-30.325 48.624.329-20.24 20.98-40.29-20.89 34.935.593-36.4 22.462-32.077-22.367 26.352.37-66.75-2.322 88.364.189-3.645-22.841-34.961 22.479 41.959-2.136 40.653-.066-1.079-26.328-36.791 26.253 40.6-.272 5.085-.05.076.025.417-5.391 103.152h7.213l.865-53.277 26.184-40.5z" fill="#3f3d56"/><path d="M142.835 320.105c0 53.786-31.975 72.566-71.418 72.566S-.001 373.891-.001 320.105s71.418-122.21 71.418-122.21 71.418 68.424 71.418 122.21z" fill="#b5d653"/><path d="M68.816 384.442l.731-45.014 30.44-55.688-30.325 48.627.329-20.24 20.979-40.29-20.891 34.934.591-36.4 22.469-32.079-22.372 26.352.37-66.75-2.328 88.363.191-3.645-22.84-34.955 22.474 41.958-2.128 40.656-.063-1.079-26.331-36.791 26.251 40.6-.266 5.084-.048.077.021.417-5.4 103.146h7.214l.865-53.277 26.187-40.5z" fill="#3f3d56"/></g><g transform="translate(97.863 268.638)"><ellipse cx="244.61" cy="22.009" rx="244.61" ry="22.009" transform="translate(28.986 233.345)" fill="#3f3d56"/><path d="M492.423 232.92c0 33.663-46.922 23.251-104.373 23.251s-103.675 10.412-103.675-23.251 46.916-40.985 104.366-40.985 103.682 7.322 103.682 40.985z" opacity=".1"/><path d="M492.423 226.632c0 33.663-46.922 23.251-104.373 23.251s-103.675 10.413-103.675-23.251 46.916-40.985 104.366-40.985 103.682 7.322 103.682 40.985z" fill="#3f3d56"/><path d="M296.278 121.173l-2.126 2.469s-25.852 2.427-24.8 6.624 31.125-5.6 31.125-5.6z" fill="#ffc1c7"/><path d="M343.138 119.075s-27.628 9.792-42.666 5.6l6.995 13.989s35.671-1.054 41.971-7.349-6.3-12.24-6.3-12.24z" fill="#b5d653"/><path d="M343.138 119.075s-27.628 9.792-42.666 5.6l6.995 13.989s35.671-1.054 41.971-7.349-6.3-12.24-6.3-12.24z" opacity=".1"/><circle cx="18.535" cy="18.535" transform="translate(305.896 6.988)" fill="#ffc1c7" r="18.535"/><path d="M340.236 42.925a14.458 14.458 0 002.4 3.329 30.318 30.318 0 008.934 6.685 304.458 304.458 0 01-31.834 4.734c1.128-3.974-.357-8.224-2.353-11.84s-4.541-6.987-5.79-10.924l12.528.337c2.273.061 4.554.129 6.826.018 1.7-.083 4.529-1.1 6.114-.726 3.355.792 1.713 5.414 3.175 8.387z" fill="#ffc1c7"/><path d="M382.311 129.916l10.492 12.59s17.486 40.917-20.634 45.114-66.447-3.148-66.447-3.148-15.388-7.344-15.737-1.749-1.753 21.334-10.143 36.724l-7.344 16.787s-3.847 3.847-2.8 9.093-23.431 6.995-23.082 0c0 0 3.5-5.945 3.5-9.443s5.6-11.891 5.6-11.891l10.142-50.36s-.7-25.879 23.082-20.983 57.7-1.049 57.7-1.049l7.694-26.929z" fill="#2f2e41"/><path d="M382.311 129.916l10.492 12.59s17.486 40.917-20.634 45.114-66.447-3.148-66.447-3.148-15.388-7.344-15.737-1.749-1.753 21.334-10.143 36.724l-7.344 16.787s-3.847 3.847-2.8 9.093-23.431 6.995-23.082 0c0 0 3.5-5.945 3.5-9.443s5.6-11.891 5.6-11.891l10.142-50.36s-.7-25.879 23.082-20.983 57.7-1.049 57.7-1.049l7.694-26.929z" opacity=".1"/><path d="M342.966 128.995s32-12.019 49.835 13.511c0 0 4.546 39.519-13.639 41.267s-41.967 1.4-47.562-4.546-40.917-22.732-40.917-22.732-17.583-8.968-21.032 2.685-3.8 14.451-3.8 14.451-18.186 13.289-25.53 15.737c0 0-4.9 6.995-7.694 6.995s-19.934 3.847-18.186-9.093l28.328-25.879 28.326-27.629s8.044-11.891 28.677-5.6a426.6 426.6 0 0041.623 10.147z" fill="#2f2e41"/><path d="M268.65 244.625s6.645 16.787 1.049 18.885-17.486.7-17.486.7-13.989-1.749-17.486-1.4-17.836-2.448-15.738-8.044 12.94-4.2 12.94-4.2l9.792-4.547s1.049-3.5 3.5-2.1 9.44 6.651 23.429.706zM232.279 194.964s7.344 16.437-4.546 15.038-20.983-3.847-24.481-4.2c-3.364-.336-12.876-3.585-11.417-10.057a5.753 5.753 0 00.095-1.27c0-.869 1.18-2.574 10.623-2.311 0 0 6.995 0 9.792-4.9 0 .007 10.491 13.296 19.934 7.7z" fill="#cbceda"/><path d="M311.666 55.075s25.18-15.737 46.163 0 34.973 87.431 34.973 87.431l-48.611-10.841s-2.1-8.393-4.9-9.792-3.147-7.344-3.147-7.344-15.038-4.546-13.989-22.033-10.489-37.421-10.489-37.421z" fill="#b5d653"/><path d="M324.605 55.775h-12.939s-7.694 8.743-8.743 30.776l-4.2 17.486s-8.743 20.983-3.5 24.481 15.388 3.147 17.486-3.847 16.437-47.562 16.437-47.562z" fill="#b5d653"/><path d="M320.898 1.401a18.736 18.736 0 0119.381 3.178c6.716 5.994 8.072 15.772 9.769 24.612s5.114 18.685 13.446 22.094a35.031 35.031 0 01-11.288-.328l12.591 11.28-21.21-6.913c-6.657-2.17-13.648-4.367-20.542-3.141-11.42 2.03-19.37 12.766-30.339 16.537l1.219-5.948-7.359-.056a14.414 14.414 0 004.216-4.94 4.08 4.08 0 00-2.815-1.473c-3.068-19.134 8.295-38.048 23.1-50.549 2.912-2.459 6.135-4.82 9.9-5.436s8.153 1.067 9.461 4.647" fill="#2e2d35"/><path d="M.004 176.759c0 40.255 25.254 72.828 56.462 72.828" fill="#3f3d56"/><path d="M56.462 249.582c0-40.707 28.181-73.646 63.008-73.646M20.457 180.408c0 38.237 16.1 69.179 36 69.179" fill="#b5d653"/><path d="M56.462 249.587c0-52.014 32.573-94.1 72.828-94.1" fill="#3f3d56"/><path d="M44.587 250.1s8.007-.247 10.42-1.965 12.317-3.77 12.916-1.014 12.033 13.707 2.993 13.78-21.005-1.408-23.414-2.875-2.915-7.926-2.915-7.926z" fill="#a8a8a8"/><path d="M71.075 259.941c-9.04.073-21.005-1.408-23.414-2.875-1.834-1.117-2.565-5.126-2.81-6.976l-.267.01s.507 6.458 2.916 7.925 14.374 2.948 23.414 2.875c2.61-.021 3.511-.949 3.461-2.325-.362.831-1.358 1.35-3.3 1.366z" opacity=".2"/></g></svg>