<svg xmlns="http://www.w3.org/2000/svg" xmlns:xlink="http://www.w3.org/1999/xlink" width="516.157" height="655.109" viewBox="0 0 516.157 655.109"><defs><linearGradient id="a" x1="0.5" x2="1.084" y2="2.184" gradientUnits="objectBoundingBox"><stop offset="0" stop-color="#e8f1ce"/><stop offset="1" stop-color="#b5d653"/></linearGradient></defs><g transform="translate(17.901 -8636)"><path d="M390.528,4061.135s159.334-25.9,224.48,70.641c56.724,84.062-22.762,126.368-91.048,73s-125.583-54.942-177.386-35.321S257.881,4091.746,390.528,4061.135Z" transform="translate(-317.258 5062.674)" fill="url(#a)"/><g transform="translate(2.595 8636)"><path d="M521.509,113.409,474.076,99.068l-2.917,64.864,49.918,15.046Z" transform="translate(-59.28 -12.464)" fill="#f5f5f5"/><path d="M146.808,0V66L430.35,151.468,433.267,86.6Z" transform="translate(-18.471)" fill="#f5f5f5"/><path d="M521.509,113.409,474.076,99.068l-2.917,64.864,49.918,15.046Z" transform="translate(-59.28 -12.464)" opacity="0.1"/><path d="M521.509,255.529l-47.433-14.341-2.917,64.864L521.078,321.1Z" transform="translate(-59.28 -30.346)" fill="#3ad29f"/><path d="M146.808,142.12v66L430.35,293.588l2.917-64.864Z" transform="translate(-18.471 -17.881)" fill="#3ad29f"/><path d="M521.509,255.529l-47.433-14.341-2.917,64.864L521.078,321.1Z" transform="translate(-59.28 -30.346)" opacity="0.1"/><path d="M488.291,282.629l7.765,11.647,15.53-19.412" transform="translate(-61.436 -34.583)" fill="none" stroke="#fff" stroke-linecap="round" stroke-miterlimit="10" stroke-width="7"/><g transform="translate(427.287 112.16)" opacity="0.4"><line x2="15.53" y2="27.177" fill="none" stroke="#fff" stroke-linecap="round" stroke-miterlimit="10" stroke-width="7"/><line x1="19.412" y2="19.412" transform="translate(0 3.882)" fill="none" stroke="#fff" stroke-linecap="round" stroke-miterlimit="10" stroke-width="7"/></g><path d="M521.509,388.766l-47.433-14.34-2.917,64.864,49.918,15.046Z" transform="translate(-59.28 -47.109)" fill="#f5f5f5"/><path d="M146.808,275.358v66L430.35,426.826l2.917-64.864Z" transform="translate(-18.471 -34.645)" fill="#f5f5f5"/><path d="M521.509,388.766l-47.433-14.34-2.917,64.864,49.918,15.046Z" transform="translate(-59.28 -47.109)" opacity="0.1"/><g transform="translate(427.287 352.874)" opacity="0.4"><line x2="15.53" y2="27.177" fill="none" stroke="#fff" stroke-linecap="round" stroke-miterlimit="10" stroke-width="7"/><line x1="19.412" y2="19.412" transform="translate(0 3.882)" fill="none" stroke="#fff" stroke-linecap="round" stroke-miterlimit="10" stroke-width="7"/></g><ellipse cx="9.706" cy="19.412" rx="9.706" ry="19.412" transform="translate(314.695 193.692)" opacity="0.3"/><ellipse cx="81.532" cy="163.064" rx="81.532" ry="163.064" transform="translate(242.869 50.04)" fill="#b5d653" opacity="0.1"/><ellipse cx="44.648" cy="89.297" rx="44.648" ry="89.297" transform="translate(279.753 123.807)" fill="#fff" opacity="0.1"/><g transform="translate(0 96.414)" opacity="0.5"><rect width="1.294" height="7.334" transform="translate(3.019)" fill="#47e6b1"/><rect width="1.294" height="7.334" transform="translate(7.334 3.02) rotate(90)" fill="#47e6b1"/></g><g transform="translate(458.946 453.955)" opacity="0.5"><rect width="1.294" height="7.334" transform="translate(3.019)" fill="#47e6b1"/><rect width="1.294" height="7.334" transform="translate(7.334 3.02) rotate(90)" fill="#47e6b1"/></g><g transform="translate(427.071 298.303)" opacity="0.5"><rect width="1.294" height="7.334" transform="translate(3.02)" fill="#47e6b1"/><rect width="1.294" height="7.334" transform="translate(7.334 3.02) rotate(90)" fill="#47e6b1"/></g><g transform="translate(371.854 447.562)" opacity="0.5"><rect width="1.294" height="7.334" transform="translate(3.02)" fill="#47e6b1"/><rect width="1.294" height="7.334" transform="translate(7.334 3.02) rotate(90)" fill="#47e6b1"/></g><g transform="translate(333.029 541.172)" opacity="0.5"><rect width="1.294" height="7.334" transform="translate(3.02)" fill="#47e6b1"/><rect width="1.294" height="7.334" transform="translate(7.334 3.02) rotate(90)" fill="#47e6b1"/></g><g transform="translate(55.217 209.869)" opacity="0.5"><rect width="1.294" height="7.334" transform="translate(3.02)" fill="#47e6b1"/><rect width="1.294" height="7.334" transform="translate(7.334 3.02) rotate(90)" fill="#47e6b1"/></g><path d="M405.4,225.76a1.585,1.585,0,0,1-.883-1.916.765.765,0,0,0,.034-.176h0a.795.795,0,0,0-1.428-.527h0a.76.76,0,0,0-.088.156,1.585,1.585,0,0,1-1.916.883.761.761,0,0,0-.176-.034h0a.795.795,0,0,0-.527,1.428h0a.764.764,0,0,0,.156.088,1.585,1.585,0,0,1,.883,1.916.761.761,0,0,0-.035.176h0a.795.795,0,0,0,1.428.527h0a.764.764,0,0,0,.088-.156,1.585,1.585,0,0,1,1.916-.883.761.761,0,0,0,.176.034h0a.795.795,0,0,0,.527-1.428h0A.76.76,0,0,0,405.4,225.76Z" transform="translate(-327.018 -130.076)" fill="#4d8af0" opacity="0.5"/><path d="M738.589,151.567a1.585,1.585,0,0,1-.883-1.916.761.761,0,0,0,.035-.176h0a.795.795,0,0,0-1.428-.527h0a.765.765,0,0,0-.088.156,1.585,1.585,0,0,1-1.916.883.76.76,0,0,0-.176-.034h0a.795.795,0,0,0-.527,1.428h0a.76.76,0,0,0,.156.088,1.585,1.585,0,0,1,.883,1.916.767.767,0,0,0-.035.176h0a.795.795,0,0,0,1.428.527h0a.759.759,0,0,0,.088-.156,1.585,1.585,0,0,1,1.916-.883.763.763,0,0,0,.176.035h0a.795.795,0,0,0,.527-1.428h0A.759.759,0,0,0,738.589,151.567Z" transform="translate(-368.94 -120.741)" fill="#4d8af0" opacity="0.5"/><path d="M329.007,415.575a1.585,1.585,0,0,1-.883-1.916.76.76,0,0,0,.034-.176h0a.795.795,0,0,0-1.428-.527h0a.761.761,0,0,0-.088.156,1.585,1.585,0,0,1-1.916.883.764.764,0,0,0-.176-.034h0a.795.795,0,0,0-.527,1.428h0a.76.76,0,0,0,.156.088,1.585,1.585,0,0,1,.883,1.916.765.765,0,0,0-.034.176h0a.795.795,0,0,0,1.428.527h0a.761.761,0,0,0,.088-.156,1.585,1.585,0,0,1,1.916-.883.761.761,0,0,0,.176.034h0a.795.795,0,0,0,.527-1.428h0A.762.762,0,0,0,329.007,415.575Z" transform="translate(-317.407 -153.958)" fill="#4d8af0" opacity="0.5"/><path d="M342.33,602.107a1.585,1.585,0,0,1-.883-1.916.762.762,0,0,0,.034-.176h0a.795.795,0,0,0-1.428-.527h0a.762.762,0,0,0-.088.156,1.585,1.585,0,0,1-1.916.883.763.763,0,0,0-.176-.034h0a.795.795,0,0,0-.527,1.428h0a.762.762,0,0,0,.156.088,1.585,1.585,0,0,1,.883,1.916.762.762,0,0,0-.035.176h0a.795.795,0,0,0,1.428.527h0a.761.761,0,0,0,.088-.156,1.585,1.585,0,0,1,1.916-.883.763.763,0,0,0,.176.034h0a.795.795,0,0,0,.527-1.428h0A.758.758,0,0,0,342.33,602.107Z" transform="translate(-319.083 -177.427)" fill="#4d8af0" opacity="0.5"/><circle cx="2.588" cy="2.588" r="2.588" transform="translate(214.829 114.964)" fill="#f55f44" opacity="0.5"/><circle cx="2.588" cy="2.588" r="2.588" transform="translate(284.714 452.738)" fill="#4d8af0" opacity="0.5"/><circle cx="2.588" cy="2.588" r="2.588" transform="translate(443.895 184.849)" fill="#4d8af0" opacity="0.5"/><circle cx="2.588" cy="2.588" r="2.588" transform="translate(490.485 301.322)" fill="#47e6b1" opacity="0.5"/><circle cx="2.588" cy="2.588" r="2.588" transform="translate(317.068 7.549)" fill="#f55f44" opacity="0.5"/><rect width="19.444" height="24.999" transform="translate(207.31 146.4) rotate(-177.779)" fill="#b5d653"/><path d="M632.7,353.937s26.906-12.856,26.476-1.753-27.122,18.407-27.122,18.407Z" transform="translate(-356.202 -145.783)" fill="#ffb9b9"/><path d="M599.835,460.161s12.694,31.07,17.384,53.49,11.833,53.275,2.645,75.157S584.554,675,584.285,681.941s2.237,13.986-3.314,13.77-35.76-9.726-36.986-13.943,10.307-14.889,10.307-14.889l28.479-89.238L553.057,519.5l-21.432,86.732-4.2,108.248s-20.6-6.358-23.593-.915c0,0-9.23-12.867-10.4-18.472s4.359-112.412,4.359-112.412-18.911-121.654-3.645-121.062S569.207,425.616,599.835,460.161Z" transform="translate(-338.102 -158.068)" fill="#b5d653"/><path d="M588.381,724.025s14.082,31.124,15.416,32.565,10.51,15.7,3.571,15.427-23.324-7.854-35.383-19.441-27.96-31.662-26.518-33,11.318-5.121,11.318-5.121Z" transform="translate(-345.297 -191.932)" fill="#575a89"/><path d="M526.388,744.8s.85,13.932,3.41,19.591,2.237,13.986-4.7,13.717-24.873-3.744-24.873-3.744-1.065-8.381.377-9.715,7.585-16.385,4.971-20.656S526.388,744.8,526.388,744.8Z" transform="translate(-339.568 -195.433)" fill="#575a89"/><path d="M515.327,227.981s-14.793,23.055-20.559,28.391,10.457,17.084,10.457,17.084l29.036,3.906s-.365-26.422,1.13-29.144S515.327,227.981,515.327,227.981Z" transform="translate(-338.773 -130.725)" fill="#ffb9b9"/><path d="M539.2,261.576s-5.982,10.887-11.533,10.672S493.4,259.8,492.174,255.583s-9.511,30.209-9.511,30.209l70.259,123.645,17.138-11.844-8.3-72.6-6.82-39.181Z" transform="translate(-337.407 -134.153)" fill="#b5d653"/><path d="M486.425,371.03c2.8,5.863,4.553,11.977,4.31,18.236-.011.278-.022.555-.046.832-.665,12.845-5.4,27.7-7.094,38.5-1.232,7.75-.881,13.406,3.654,14.736,10.995,3.206-1.6,5.5,40.934,19.656s49.961,1.937,50.069-.838-6.024-23.862-4.583-25.2,20.171,17.461,25.83,14.9.646-16.654.646-16.654-12.748-29.682-12.479-36.621-19.31-39.666-19.31-39.666l-13.317-86.689s-5.121-11.318-12.006-12.975a17.056,17.056,0,0,0-12.6,2.291l11.522,25.465,12.156,44.948-2.034,16.6s-14.136-29.736-23.42-41.215-29.079-38.655-29.079-38.655-4.621-15.593-1.133-20.253S483.9,243.063,476.2,262.223c-4.077,10.154-10.7,25.3-14.843,39.4-3.7,12.491-5.44,24.168-1.78,30.842C465.175,342.659,479.249,356.061,486.425,371.03Z" transform="translate(-334.248 -132.95)" fill="#575a89"/><path d="M459.58,340.019c5.6,10.2,19.669,23.6,26.844,38.568,1.874-6.752,4.16-13.738,4.16-13.738s8.769-46.916-17.169-59.041a17.359,17.359,0,0,0-12.056,3.369C457.665,321.668,455.919,333.344,459.58,340.019Z" transform="translate(-334.248 -140.507)" opacity="0.1"/><path d="M577.348,341.572l21.99,6.412,30.532,1.184,3.141,26.53-50.176,3.614S570.3,344.078,577.348,341.572Z" transform="translate(-349.049 -145.017)" fill="#575a89"/><path d="M535.19,443.612s29.418,4.881,22.7,13.733-32.775-.454-32.775-.454Z" transform="translate(-342.748 -157.855)" fill="#ffb9b9"/><path d="M494.435,410.885c-.665,12.845-5.4,27.7-7.094,38.5,9.371,8.87,18.283,16.693,21.641,16.823,6.939.269,18.1-.688,22.2.861s6.52-24.765,6.52-24.765-2.453-8.434-13.394-13.028C516.929,426.171,502.773,417.741,494.435,410.885Z" transform="translate(-337.995 -153.737)" opacity="0.1"/><path d="M472.862,296.281s-23.485-3.691-22.216,35.276-2.476,63.839,6.97,71.155,40.127,40.473,47.066,40.742,18.1-.688,22.2.861,6.52-24.765,6.52-24.765-2.453-8.434-13.394-13.028-36.717-20.882-36.5-26.434,6.52-24.765,6.52-24.765S498.8,308.405,472.862,296.281Z" transform="translate(-333.372 -139.306)" fill="#575a89"/><circle cx="30.555" cy="30.555" r="30.555" transform="translate(166.708 70.285)" fill="#ffb9b9"/><path d="M557.705,181.095a5.9,5.9,0,0,0,2.569,1.289,1.833,1.833,0,0,0,2.124-1.472c.7,1.45,1.488,2.995,2.915,3.739s3.634.12,3.84-1.476a6.736,6.736,0,0,0,1.55,3.273,2.322,2.322,0,0,0,3.265.109c-.625,3.416-.239,6.929-.436,10.4s-1.121,7.143-3.74,9.422c-3.82,3.325-9.565,2.5-14.59,1.874a4.428,4.428,0,0,0-2.286.125c-1.881.8-1.8,3.421-1.821,5.466a15.187,15.187,0,0,1-13.3,14.422,7.613,7.613,0,0,1-5.658-1.381c-1.427-1.209-2.155-3.18-3.79-4.089-2.659-1.478-5.885.677-7.829,3.017s-3.861,5.218-6.872,5.647c-3.984.566-7.018-3.493-8.506-7.231a42.156,42.156,0,0,1,.838-32.755C514.3,173.338,542.71,170.47,557.705,181.095Z" transform="translate(-339.869 -124.049)" fill="#2f2e41"/></g></g></svg>