<svg xmlns="http://www.w3.org/2000/svg" xmlns:xlink="http://www.w3.org/1999/xlink" width="2031" height="3336"><defs><linearGradient id="a" x1=".5" y1="1" x2=".5" gradientUnits="objectBoundingBox"><stop offset="0" stop-color="gray" stop-opacity=".251"/><stop offset=".54" stop-color="gray" stop-opacity=".122"/><stop offset="1" stop-color="gray" stop-opacity=".102"/></linearGradient><linearGradient id="b" x1=".5" x2=".5" xlink:href="#a"/><linearGradient id="c" x1=".5" x2="1.084" y2="2.184" gradientUnits="objectBoundingBox"><stop offset="0" stop-color="#e8f1ce"/><stop offset="1" stop-color="#b5d653"/></linearGradient><linearGradient id="d" x1="0" y1=".5" x2="1" y2=".5" xlink:href="#a"/></defs><g transform="translate(68 -7618)"><text transform="translate(625 7695)" fill="#2e2d35" font-size="80" font-family="Montserrat-Bold, Montserrat" font-weight="700"><tspan x="0" y="0">HOW IT WORKS</tspan></text><circle cx="182" cy="182" r="182" transform="translate(-68 9529)" fill="#b5d653"/><circle cx="182" cy="182" r="182" transform="translate(-68 8052)" fill="#b5d653"/><text transform="translate(26 9729)" fill="#fff" font-size="50" font-family="Montserrat-Bold, Montserrat" font-weight="700"><tspan x="0" y="0">STEP 3</tspan></text><text transform="translate(31 8252)" fill="#fff" font-size="50" font-family="Montserrat-Bold, Montserrat" font-weight="700"><tspan x="0" y="0">STEP 1</tspan></text><ellipse cx="90.5" cy="91" rx="90.5" ry="91" transform="translate(89 9778)" fill="#31a95d"/><ellipse cx="90.5" cy="91" rx="90.5" ry="91" transform="translate(89 8301)" fill="#31a95d"/><g transform="translate(1025.857 9529.02)"><path d="M804.382 430.37c-.739.539-1.418 1.063-2.142 1.573a72.217 72.217 0 01-8.368 5.1c-15.2 8.013-33.936 11.927-52.185 14.586-40.93 5.967-82.716 7.127-124.325 8.264-112.428 3.087-225.128 6.167-337.283-.945-44.312-2.806-89.6-7.5-129.754-21.9q-8.633-3.087-16.927-6.809c-11.189-5.029-21.935-11.152-30.871-18.463-8.4-6.854-15.206-14.726-19.276-23.678-8.486-18.641-4-39.578 5.694-57.85A179.773 179.773 0 01102.527 309c7.481-10.288 15.731-20.28 23.256-30.561 26.779-36.543 44.253-82.775 19.534-120.256-7.1-10.768-17.37-20.221-23.161-31.462-7.385-14.379-6.817-30.346-4.468-45.856q.458-2.954.967-5.849c4.01-23 11.558-47.776 34.829-62.133 24.172-14.918 58.5-14.165 88.5-8.862 46.653 8.331 89.688 25.672 133.18 41.329s88.994 29.962 136.792 31.5c42.21 1.356 91.441-8.812 119.454-35.246 27.208-25.672 78.351-27.629 115.212-12.119 25.3 10.642 44.179 29.815 52.141 51.38a67.07 67.07 0 013.464 13.382 61.713 61.713 0 01.62 12.622 68.67 68.67 0 01-.62 6.182c-6.159 42.555-50.494 76.121-77.443 114.134-13.168 18.567-22.466 40.871-13.412 60.892 13.81 30.508 61.838 41.361 90.838 64.061a68.241 68.241 0 0114.254 14.623c14.07 20.205 8.878 47.494-12.082 63.609z" fill="#b5d653" opacity=".1"/><path d="M190.533 239.916s-33.973-60.206-85.168-77.546a104.713 104.713 0 01-53.057-39.689 175.772 175.772 0 01-15.657-28.153" fill="none" stroke="#535461" stroke-miterlimit="10" stroke-width="2"/><path d="M4.458 83.384c5.834 5.635 33 11.543 33 11.543S30.809 67.953 24.96 62.291a14.718 14.718 0 10-20.5 21.123zM19.827 132.194c7.969 1.58 33.973-8.264 33.973-8.264s-20.273-19.025-28.249-20.606a14.717 14.717 0 10-5.724 28.873zM75.772 185.029c7.681-2.659 25.11-24.276 25.11-24.276s-27.09-6.2-34.763-3.538a14.719 14.719 0 109.6 27.813zM127.1 215.449c8.021-1.329 28.877-19.682 28.877-19.682s-25.649-10.687-33.67-9.365a14.72 14.72 0 004.793 29.047zM76.428 102.852c0 8.124-14.7 31.705-14.7 31.705s-14.726-23.567-14.734-31.691a14.719 14.719 0 1129.431 0zM136.014 139.239c-2.43 7.755-23.515 25.849-23.515 25.849s-7-26.92-4.6-34.711a14.719 14.719 0 0128.064 8.8zM189.07 182.48c-1.078 8.057-18.8 29.453-18.8 29.453s-11.447-25.317-10.34-33.375a14.718 14.718 0 1129.174 3.922z" fill="#b5d653"/><path d="M4.458 83.384c5.834 5.635 33 11.543 33 11.543S30.809 67.953 24.96 62.291a14.718 14.718 0 10-20.5 21.123zM19.827 132.194c7.969 1.58 33.973-8.264 33.973-8.264s-20.273-19.025-28.249-20.606a14.717 14.717 0 10-5.724 28.873zM75.772 185.029c7.681-2.659 25.11-24.276 25.11-24.276s-27.09-6.2-34.763-3.538a14.719 14.719 0 109.6 27.813zM127.1 215.449c8.021-1.329 28.877-19.682 28.877-19.682s-25.649-10.687-33.67-9.365a14.72 14.72 0 004.793 29.047zM76.428 102.852c0 8.124-14.7 31.705-14.7 31.705s-14.726-23.567-14.734-31.691a14.719 14.719 0 1129.431 0zM136.014 139.239c-2.43 7.755-23.515 25.849-23.515 25.849s-7-26.92-4.6-34.711a14.719 14.719 0 0128.064 8.8zM189.07 182.48c-1.078 8.057-18.8 29.453-18.8 29.453s-11.447-25.317-10.34-33.375a14.718 14.718 0 1129.174 3.922z" opacity=".25"/><path d="M188.579 238.719s-6.647-68.817-46.439-105.419a104.681 104.681 0 01-32.422-57.783 175.882 175.882 0 01-2.9-32.089" fill="none" stroke="#535461" stroke-miterlimit="10" stroke-width="2"/><path d="M81.89 20.216c3.043 7.54 25.5 23.9 25.5 23.9s4.837-27.363 1.8-34.9a14.729 14.729 0 10-27.326 11zM76.141 71.064c6.647 4.675 34.394 6.2 34.394 6.2s-10.76-25.6-17.407-30.273A14.73 14.73 0 0076.142 71.06zM105.911 142.023c8.124.687 32.821-12.009 32.821-12.009s-22.252-16.639-30.354-17.319a14.719 14.719 0 10-2.467 29.327zM140.504 190.649c7.873 2.038 34.379-6.292 34.379-6.292s-19.121-20.162-26.986-22.2a14.718 14.718 0 10-7.386 28.495zM139.802 67.18c-3.286 7.43-26.285 23.02-26.285 23.02s-3.914-27.5-.628-34.94a14.718 14.718 0 1126.914 11.921zM179.536 124.549c-5.362 6.108-31.971 14.106-31.971 14.106s4.49-27.414 9.859-33.522a14.713 14.713 0 0122.112 19.416zM210.554 185.619c-4.254 6.927-29.128 19.305-29.128 19.305s-.207-27.784 4.047-34.711a14.73 14.73 0 1125.11 15.406z" fill="#b5d653"/><ellipse cx="82.369" cy="10.724" rx="82.369" ry="10.724" transform="translate(219.07 607.56)" fill="#b5d653" opacity=".1"/><g transform="translate(107.94 569.762)"><ellipse cx="25.022" cy="4.284" rx="25.022" ry="4.284" transform="translate(2.1 43.411)" fill="#b5d653" opacity=".1"/><path d="M32.557 0s4.055 5.31-1.876 13.294S19.862 28.06 21.819 33.06c0 0 8.944-14.882 16.248-15.088S40.574 8.951 32.557 0z" fill="#b5d653"/><path d="M32.557 0a6.522 6.522 0 01.827 1.669c7.1 8.345 10.893 16.137 4.062 16.329-6.359.185-14 11.558-15.819 14.431a6.828 6.828 0 00.214.657s8.944-14.881 16.248-15.088S40.578 8.951 32.557 0z" opacity=".1"/><path d="M40.098 6.765c0 1.869-.207 3.382-.465 3.382s-.473-1.477-.473-3.382.266-.99.524-.99.414-.882.414.99z" fill="#ffd037"/><path d="M42.69 8.995c-1.64.894-3.072 1.433-3.2 1.2s1.108-1.137 2.747-2.031.99-.244 1.115 0 .977-.062-.662.831z" fill="#ffd037"/><path d="M11.125 0S7.07 5.31 13.001 13.294 23.82 28.06 21.863 33.06c0 0-8.944-14.882-16.248-15.088S3.119 8.951 11.125 0z" fill="#b5d653"/><path d="M11.125 0a6.521 6.521 0 00-.827 1.669c-7.1 8.345-10.893 16.137-4.062 16.329 6.366.185 14 11.558 15.819 14.431a5.248 5.248 0 01-.214.657S12.897 18.204 5.593 17.998 3.119 8.951 11.125 0z" opacity=".1"/><path d="M3.584 6.765c0 1.869.207 3.382.465 3.382s.473-1.477.473-3.382-.266-.99-.524-.99-.414-.882-.414.99z" fill="#ffd037"/><path d="M.999 8.995c1.64.894 3.065 1.433 3.19 1.2S3.081 9.058 1.442 8.164s-.99-.244-1.115 0-.967-.062.672.831z" fill="#ffd037"/><path d="M4.877 32.392s11.344-.354 14.771-2.784 17.444-5.347 18.294-1.44 17.045 19.416 4.239 19.52-29.756-1.994-33.168-4.069-4.136-11.227-4.136-11.227z" fill="#a8a8a8"/><path d="M42.402 46.328c-12.806.1-29.756-1.994-33.168-4.069-2.6-1.588-3.634-7.267-3.981-9.882h-.377s.739 9.143 4.128 11.226 20.361 4.173 33.168 4.069c3.693 0 4.978-1.344 4.9-3.294-.505 1.197-1.915 1.928-4.67 1.95z" opacity=".2"/><path d="M383.702 31.961s-31.225-1.883-27.54 20a5.323 5.323 0 002.77 5.62s.059-1.617 3.205-1.071a14.3 14.3 0 003.39.162 7.015 7.015 0 004.151-1.713s8.774-3.619 12.186-17.969c0 0 2.526-3.131 2.43-3.936l-5.273 2.216s1.8 3.8.384 6.964c0 0-.17-6.824-1.182-6.647-.207 0-2.74 1.315-2.74 1.315s3.1 6.647.739 11.432c0 0 .886-8.124-1.728-10.953l-3.693 2.164s3.619 6.839 1.167 12.422c0 0 .628-8.56-1.942-11.9l-3.36 2.622s3.4 6.743 1.322 11.373c0 0-.266-9.963-2.053-10.716 0 0-2.954 2.592-3.39 3.693 0 0 2.326 4.889.886 7.474 0 0-.886-6.647-1.617-6.647 0 0-2.954 4.431-3.235 7.385a16.08 16.08 0 012.526-7.836 8.818 8.818 0 00-4.483 2.326s.458-3.109 5.17-3.383c0 0 2.422-3.338 3.072-3.538 0 0-4.727-.4-7.592.872 0 0 2.518-2.954 8.456-1.6l3.316-2.7s-6.218-.857-8.862.089c0 0 3.043-2.6 9.756-.739l3.619-2.157s-5.31-1.145-8.471-.739c0 0 3.338-1.8 9.527.148l2.585-1.159s-3.892-.739-5.029-.879-1.2-.436-1.2-.436a13.486 13.486 0 017.3.812s5.529-2.028 5.433-2.371z" fill="#b5d653"/><ellipse cx="22.097" cy="3.737" rx="22.097" ry="3.737" transform="translate(340.099 55.745)" fill="#b5d653" opacity=".1"/><path d="M328.999 33.124s-17.607-1.063-15.509 11.277a3.013 3.013 0 001.566 3.168s0-.916 1.809-.606a8.614 8.614 0 001.905.1 4.04 4.04 0 002.341-.968s4.948-2.046 6.876-10.133c0 0 1.418-1.765 1.366-2.216l-2.954 1.263a5.353 5.353 0 01.214 3.929s-.1-3.848-.665-3.759c-.118 0-1.544.739-1.544.739s1.743 3.693.428 6.447c0 0 .495-4.6-.975-6.182l-2.09 1.226s2.038 3.855.657 7c0 0 .354-4.83-1.1-6.706l-1.891 1.477s1.913 3.8.739 6.411c0 0-.155-5.62-1.159-6.041a11.552 11.552 0 00-1.913 2.061s1.315 2.762.5 4.217c0 0-.5-3.744-.908-3.759a12.406 12.406 0 00-1.824 4.18 8.973 8.973 0 011.418-4.431 4.962 4.962 0 00-2.526 1.307s.258-1.758 2.954-1.906a11.181 11.181 0 011.728-1.994 10.82 10.82 0 00-4.284.487s1.425-1.654 4.771-.9l1.869-1.529s-3.508-.48-4.993.052c0 0 1.713-1.477 5.5-.4l2.031-1.211a18.252 18.252 0 00-4.771-.414s1.883-1.012 5.369.081l1.477-.65s-2.216-.436-2.829-.5-.679-.244-.679-.244a7.621 7.621 0 014.121.458 17.406 17.406 0 002.975-1.331z" fill="#b5d653"/><ellipse cx="12.459" cy="2.105" rx="12.459" ry="2.105" transform="translate(304.413 46.543)" fill="#b5d653" opacity=".1"/><path d="M362.507 6.972s-21.248-1.285-18.744 13.611a3.634 3.634 0 001.891 3.826s0-1.1 2.179-.739a10.482 10.482 0 002.3.111 4.867 4.867 0 002.829-1.167s5.975-2.467 8.294-12.238c0 0 1.721-2.127 1.654-2.674l-3.589 1.529s1.226 2.592.266 4.741c0 0-.118-4.645-.812-4.535-.133 0-1.861.894-1.861.894s2.112 4.512.517 7.784c0 0 .606-5.554-1.174-7.459l-2.526 1.477s2.467 4.653.8 8.456c0 0 .428-5.827-1.329-8.124l-2.289 1.78s2.319 4.586.908 7.74c0 0-.185-6.78-1.4-7.3a13.9 13.9 0 00-2.3 2.489s1.588 3.331.6 5.089c0 0-.6-4.512-1.093-4.535 0 0-1.994 2.954-2.216 5.044a10.864 10.864 0 011.713-5.332 6 6 0 00-3.05 1.58s.31-2.12 3.545-2.3a13.89 13.89 0 012.09-2.408 13.15 13.15 0 00-5.17.6s1.713-2 5.761-1.093l2.26-1.839s-4.239-.583-6.034.059c0 0 2.068-1.765 6.647-.48l2.459-1.477a24.227 24.227 0 00-5.761-.495s2.267-1.226 6.484.1l1.758-.783s-2.651-.524-3.427-.606-.812-.3-.812-.3a9.181 9.181 0 014.97.554s3.735-1.343 3.662-1.58z" fill="#b5d653"/><ellipse cx="15.044" cy="2.541" rx="15.044" ry="2.541" transform="translate(332.832 23.168)" fill="#b5d653" opacity=".1"/></g><g><path d="M881.257 478.241V117H178.65v340.517c8.973 7.489 19.763 13.788 31.019 18.966q8.316 3.833 16.986 7.009h646.22z" transform="translate(-77.658 -46.445)" fill="url(#a)"/><path d="M802.24 431.944V80.895H102.528v330.938c8.936 7.282 19.682 13.4 30.871 18.463q8.286 3.693 16.927 6.809h643.547z" fill="#fff"/><path fill="#5a5773" d="M102.536 71.582h699.705v18.567H102.536z"/></g><g transform="translate(111.709 76.064)" fill="#fff"><circle cx="4.8" cy="4.8" r="4.8"/><circle cx="4.8" cy="4.8" r="4.8" transform="translate(12.924)"/><circle cx="4.8" cy="4.8" r="4.8" transform="translate(25.849)"/></g><g><path fill="#b5d653" d="M281.343 130.952h115.581v72.628H281.343z"/><path fill="#5a5773" opacity=".2" d="M121.309 130.952H236.89v72.628H121.309zM441.376 130.952h115.581v72.628H441.376zM121.309 234.783H236.89v72.628H121.309zM281.343 234.783h115.581v72.628H281.343zM441.376 234.783h115.581v72.628H441.376zM121.309 338.606H236.89v72.628H121.309zM281.343 338.606h115.581v72.628H281.343zM441.376 338.606h115.581v72.628H441.376z"/></g><g transform="translate(254.497 149.089)"><path d="M508.263 387.191S487.5 349.245 491 343.071s6.078-15.11 6.078-15.11 7.666-5.244 7.666-7.385 6.071-7.1 9.269-9.254 1.6-12.341 0-13.574-4.128-5.554-4.128-5.554 2.216-6.167 0-8.021.325-3.693 0-5.554a74.526 74.526 0 010-8.634c-2.592-3.6-5.465-5.288-8.168-5.908l-.236-.975-1.366-5.753s6.647-12.74-4.136-19.409a18.023 18.023 0 00-2.385-1.256 8.27 8.27 0 00-.059-.835 52.2 52.2 0 00-1.566-9.756c-.561-1.787-1.292-2.991-2.216-2.718a1.477 1.477 0 00-.606.347 6.737 6.737 0 00-1.147 1.353.3.3 0 01-.052.081 23.162 23.162 0 00-2.541 7.053 40.734 40.734 0 00-.739 4.431 24.369 24.369 0 00-1.233 2.74c-1.307 3.39-2.836 9.261-.052 13.6 2.363 3.693 5.546 8.766 7.858 12.459l.074.118.14.229-.244.155v.569l.214 3.109 1.787 26.868a11.413 11.413 0 00-1.64-.347 14.892 14.892 0 00-2.385-.155c-1.558-6.122-5.835-11.817-6.647-18.212a16.875 16.875 0 01-.126-1.928c.067-4.025 1.071-8.065.99-12.082 0-.739 0-1.477-.074-2.216a5.925 5.925 0 00-.059-.613 18.16 18.16 0 00-9.874-13.759c-1.854-.923-3.863-1.536-5.665-2.548-4.165-2.334-6.831-6.543-10.613-9.431-2.814-2.149-7.016-3.3-10.155-2.216a46.884 46.884 0 00-4.933 1.02 44.571 44.571 0 00-11.307 4.7c-.48.288-.96.583-1.418.923a6.248 6.248 0 00-2.282 2.666 6.987 6.987 0 00-.354 2.873c0 .7 0 1.418.044 2.12-.207 11.817-12.939 20.96-13.988 32.5 0 .273-.044.547-.059.82v2.186c.185 5.059 2.814 9.771 3.294 14.808.044.451.066.894.074 1.344a22.332 22.332 0 01-1.307 6.78 19.845 19.845 0 00-4.586 1.861c-3.87 2.489-10.857 6.787-13.4 15.007a21.98 21.98 0 00-.967 6.588 137.559 137.559 0 01-2.157 23.522 43.965 43.965 0 01-1.359 5.783 1.359 1.359 0 00-.044.569l-1.536 19.941-.273 3.508-.384 4.993s.111.3.273.812a23.477 23.477 0 01.606 2.3 12.392 12.392 0 01.2 5.17 3.56 3.56 0 01-1.078 1.9.8.8 0 00-.126.14c-.436.613-.827 2.437-1.167 5.081a141.323 141.323 0 00-.384 3.442c-.739 7.865-1.2 19.638-1.477 29.372-.266 9.6-.362 17.186-.362 17.186a19.6 19.6 0 003.966 1.964c-.1.258-.214.524-.318.805a38.8 38.8 0 00-2.408 10.147c-.62 7.26 1.411 15.325 11.536 19.475a16.288 16.288 0 001.987.679c2.216.591 3.848.428 5.052-.31 0 .436.052.857.074 1.278.1 1.8.192 3.449.236 4.83.318 8.641 2.459 23.751 2.459 23.751s.739 6.174.1 8.021 0 9.254 0 9.254 2.216 3.693 0 5.554-2.873 11.078-2.216 12.341a.415.415 0 01.037.14c.487 3.065-2.267 48.6-2.267 48.6s-2.607 6.972-4.682 14.209c-2.024 7.046-3.545 14.342-1.669 15.709.931.679 3.094 1.189 5.842 1.581 0 .3-.044.606-.074.916-.266 3.257-.687 6.765-1.292 7.651-.879 1.255-1.8 10.989-2.253 16.248l-.044.583a54.426 54.426 0 00-2.378 6.9s-7.068 17.725-4.675 22.326a3.775 3.775 0 00.879 1.086 1.992 1.992 0 00.229.207c3.4 2.725 11.935 3.294 15.029 3.419l-.118 4.387v.162h4.025v-.108c0-.554.089-3.094.221-6.492 0-.606.044-1.241.074-1.891 0-.51.052-1.027.074-1.558a27.324 27.324 0 001.75-9.859 43.264 43.264 0 011.551-11.433 31.756 31.756 0 012.046-5.576s1.256-6.647-.495-11.351a8.2 8.2 0 00-1.477-2.555V642.512a42.61 42.61 0 01.945-9.468 1.046 1.046 0 010-.148c.059-.258.126-.5.192-.739l.044-.162 1.307.044c4.01.111 6.957.111 6.957.111s3.2-16.351 2.88-23.441v-.96c-.111-7.046 1.935-16.624 1.935-16.624l2.578-25s-1.278-4.328 0-7.385c.79-1.905 2.422-5.443 3.56-7.88.532-1.13.953-2.016 1.13-2.4l.1-.207a4.78 4.78 0 01-1.137-.569c-1.041-.694-1.972-2.053 1.145-4.055 4.793-3.087 3.2-10.8 3.2-10.8a5.543 5.543 0 01.251-5.244c1.662-2.467 0-11.721 0-11.721a38.753 38.753 0 003.279-7.718c1.189-3.693 4.195-21.75 5.613-30.457.465-2.858.739-4.7.739-4.7l.044.451.044.487.4 4.114.052.547.739 7.777s1.477 20.443.554 28.456v.148a9.47 9.47 0 01-.539 2.43c-1.7 3.84-1.388 19.1-1.3 22.474v.679c0 .185-1.2 3.013-.9 5.214a3.346 3.346 0 00.583 1.551 3.929 3.929 0 01.569 2.4v.074a8.726 8.726 0 01-.089 1.063 20.28 20.28 0 01-1.122 4.18s-1.713 4.505-1.064 6.861a2.171 2.171 0 00.421.835 1.972 1.972 0 01.244.886.314.314 0 000 .081c.6 4.97-.945 26.912-1.861 38.921-.369 4.741-.635 7.932-.635 7.932l-2.533 26.218.251.177c.288.207.827.561 1.551.99v.059l-.111.79c-.362 2.526-.849 5.465-1.381 7.71-.044.17-.081.332-.126.487a7.067 7.067 0 00-2.71 1.086c-5.377 9.549-3 17.119 0 19.32.849.62 1.425 2.356 1.809 4.512l.739 9.52v1.081a2.837 2.837 0 00.14.872l.229 2.888.31 4.018h2.452v-4.867h.133c3.87.133 10.111.3 12.828.081h.074a4.789 4.789 0 00.739-.081 1.854 1.854 0 00.428-.118c1.44-.694 5.029-10.871 1.795-13.183s-3.951-8.862-3.951-8.862a67.267 67.267 0 00-.849-2.445v-.5a40.62 40.62 0 01.384-8.464 64.383 64.383 0 00.842-10.111v-.938a12.6 12.6 0 001.647-.539l.118-.052a11.6 11.6 0 002.755-1.632l9.04-40.058.953-4.66 5.428-26.506s-1.913-9.254 0-10.79c.7-.561.894-2.954.849-5.724-.074-4.845-.849-10.938-.849-10.938s2.555-4.01 3.84-6.477 0-8.944 0-8.944l2.518-14.83s2.88-17.585 9.9-32.392c5.17-10.893 1.876-40.309-1.477-55.966-.089-.406-.177-.8-.266-1.189v-.059c1.58-.783 3.515-1.728 5.583-2.718l.783-.369c2.622-1.233 5.4-2.5 7.888-3.56l.162-.066a55.1 55.1 0 015.487-2.053 9.21 9.21 0 011.684-.347c4.43-.289-8.989-23.73-8.989-23.73zm-99.931 50.184h1.329c-.155.288-.3.583-.45.879-.089.177-.177.347-.259.524a33.992 33.992 0 00-1.307 3.058 135.2 135.2 0 01.539-3.552c.051-.284.103-.614.147-.909zm-3.589 19.254a.552.552 0 000-.1l-.111-.347a12.812 12.812 0 01-.229-.739q.687-.207 1.4-.465h.1v.244c-.037.347-.081.694-.126 1.034a.744.744 0 010 .133 7.184 7.184 0 01-.1.812c-.066.532-.133 1.049-.192 1.544-.14-.465-.281-.923-.428-1.374a3.5 3.5 0 01-.31-.739z" transform="translate(-386.5 -223.338)" fill="url(#b)"/><path d="M114.104 45.481l-7.976 2.821-2.9-4.8a1279.983 1279.983 0 00-7.555-12.415c-4-6.455 1.233-16.292 1.233-16.292s.945-9.874 4.313-12.917 4.306 12.917 4.306 12.917c13.523 6.145 6.278 20.6 6.278 20.6l1.315 5.731z" fill="#efb7b9"/><path d="M114.104 45.481l-7.976 2.821-2.9-4.8v-.421a13.89 13.89 0 019.9-1.957z" opacity=".1"/><path d="M101.224 77.829l4-3.383-2-30.443s10.34-7.075 17.991 4a77.706 77.706 0 000 8.611c.31 1.846-2.149 3.693 0 5.532s0 8 0 8 2.43 4.306 3.966 5.532 3.08 11.381 0 13.53-8.855 7.075-8.855 9.224-7.385 7.385-7.385 7.385l-6.484-8.574z" fill="#ff6484"/><path d="M14.815 262.626c-14.9-6.322-11.6-21.765-8.789-29.542a40.22 40.22 0 011.972-4.608l8.36-5.074s1.706 4.35 3.53 10.184c4.234 13.575 9.1 35.059-5.073 29.04zM35.302 403.531a25.109 25.109 0 00-2.216 6.218 44.909 44.909 0 00-.96 10.583c.059 2.459.266 4.069.266 4.069L15.79 435.815s.1-1.337.259-3.3c.428-5.229 1.322-14.933 2.164-16.189.583-.871.99-4.372 1.248-7.622s.362-6.1.362-6.1 19.977-7.489 15.479.927zM74.511 411.721s0 3.176-.118 6.868a70.328 70.328 0 01-.805 10.081 41.5 41.5 0 00-.377 8.434c.111 3.693.377 7.016.377 7.016s-16.949-16.026-15.221-17.3c.465-.34.923-1.706 1.344-3.523.517-2.216.982-5.17 1.329-7.681.414-2.991.672-5.4.672-5.4z" fill="#efb7b9"/><path d="M35.297 403.531a25.109 25.109 0 00-2.216 6.218 135.707 135.707 0 01-13.589-1.041c.251-3.176.362-6.1.362-6.1s19.943-7.493 15.443.923zM74.511 411.721s0 3.176-.118 6.868c-5.288 1.352-10.724-1.352-13.353-2.954.414-2.991.672-5.4.672-5.4z" opacity=".1"/><path d="M109.214 254.634c-6.765 14.771-9.535 32.289-9.535 32.289l-2.459 14.771s1.233 6.455 0 8.914-3.693 6.462-3.693 6.462 1.846 15.066 0 16.6 0 10.76 0 10.76l-6.152 31.019-8.611 39.97c-8.3 6.772-19.35-1.839-19.35-1.839l2.436-26.135s3.693-45.789 2.157-47.665.613-7.688.613-7.688 2.157-5.539.62-7.688.3-6.765.3-6.765-.613-18.759 1.233-23.065 0-30.937 0-30.937l-.739-8.294-.428-4.594-.037-.451s-.281 1.839-.739 4.69c-1.359 8.678-4.254 26.661-5.4 30.361a39.535 39.535 0 01-3.154 7.688s1.6 9.224 0 11.684a5.72 5.72 0 00-.244 5.229s1.536 7.688-3.08 10.76 0 4.616 0 4.616-3.383 7.385-4.608 10.45 0 7.385 0 7.385l-2.459 24.9s-2.157 10.45-1.846 17.525-2.77 23.367-2.77 23.367-23.677 0-27.326-2.769 6.093-29.785 6.093-29.785 2.77-47.355 2.149-48.581 0-10.458 2.157-12.3 0-5.539 0-5.539-.613-7.385 0-9.224-.1-8-.1-8-2.061-15.066-2.363-23.677-1.846-27.976-1.846-27.976 1.61-11.979 1.854-17.681a20.081 20.081 0 012.216-7.186 64.105 64.105 0 014.579-8.035s72.857-21.536 75.914-19.394c.812.569 1.994 4.431 3.161 10.022 3.259 15.63 6.435 44.95 1.457 55.806z" fill="#444053"/><circle cx="21.218" cy="21.218" r="21.218" transform="translate(43.108 24.263)" fill="#a1616a"/><path d="M107.766 198.853c-2.445 1.255-4.084 2.12-4.084 2.12s-34.438 16.3-44.231 15.376c-7.577-.739-26.92-.318-35.346-.111a64.109 64.109 0 014.579-8.035s72.864-21.528 75.922-19.387c.813.583 1.995 4.431 3.16 10.037z" opacity=".1"/><path d="M49.564 79.365s-19.652 3.1-24.29 6.145-13.825 8.922-13.825 21.528-2.149 25.524-3.383 29.209 19.372 33.515 19.372 33.515l-7.385 45.206s29.541-.923 39.379 0 44.261-15.376 44.261-15.376 20.295-10.76 24.6-11.078-8.611-23.677-8.611-23.677-19.992-37.813-16.61-43.965 5.864-15.066 5.864-15.066l-3.693-31.358s-5.532-1.846-10.148 1.536S74.8 77.52 74.8 77.52z" fill="#ff6484"/><path d="M16.203 134.098l-7.71 2.149-2.134 28.936s2.77 7.688 0 10.147-3.383 55.047-3.383 55.047 8.922 6.455 19.372 1.536c0 0-1.536-5.842 3.08-27.06s4.608-31.979 4.608-31.979 0-26.447 2.156-30.753 0-15.066 0-15.066-4.306-5.842-4-7.991-11.989 15.034-11.989 15.034z" opacity=".1"/><path d="M19.888 233.608a19.638 19.638 0 01-13.862-.5 40.225 40.225 0 011.972-4.608l8.36-5.074s1.736 4.348 3.53 10.182z" opacity=".1"/><path d="M15.738 134.098l-7.688 2.149-2.149 28.941s2.77 7.688 0 10.147-3.383 55.043-3.383 55.043 8.929 6.447 19.372 1.507c0 0-1.536-5.842 3.072-27.06s4.616-31.979 4.616-31.979 0-26.447 2.149-30.753 0-15.066 0-15.066-4.306-5.842-4-7.991-11.989 15.062-11.989 15.062z" fill="#ff6484"/><path d="M94.459 138.706s-4 34.438-15.687 40.9c0 0 26.14-7.378 15.687-40.9zM35.73 141.786s14.446 7.068 11.078 11.986-11.078-11.986-11.078-11.986zM35.73 155.929s9.224 9.535 7.385 12.917-7.385-12.917-7.385-12.917zM110.138 76.906s3.619 6.145 3.966 10.147-3.966-10.147-3.966-10.147zM110.138 68.604s1.817-1.544 6.455 0-6.455 0-6.455 0zM92.379 248.327a42.76 42.76 0 01-22.488-2.88l-3.877 9.926-.428-4.594c.635-3.855 1.868-7.984 4.306-9.025.003 0 8.54 6.802 22.487 6.573zM29.305 261.244s18.914 3.922 24.217 3.227zM31.27 266.2s8.072-.347 12.1 1.27zM32.193 269.546a72.374 72.374 0 0011.182 1.477zM31.727 311.864c.347-.229 16.144-3.922 18.109-1.27zM31.727 316.709s13.722-1.617 14.069 0-14.069 0-14.069 0zM31.727 321.088s14.645-3.028 16.373-2.289-16.373 2.289-16.373 2.289zM32.421 424.409l-16.6 11.418s.1-1.337.258-3.3a44.757 44.757 0 018.5-13.877c3.744-.975 6.108-.074 7.577 1.691.058 2.449.265 4.068.265 4.068z" opacity=".1"/><path d="M34.039 434.668a41.2 41.2 0 00-3.464 16.986 26.343 26.343 0 01-3.515 13.67 13.475 13.475 0 01-1.167 1.669s-11.536-.1-15.576-3.442a4 4 0 01-1.086-1.329c-2.312-4.609 4.5-22.252 4.5-22.252 3.575-13.6 10.834-20.871 10.834-20.871 12.93-3.345 9.474 15.569 9.474 15.569z" fill="#444053"/><path d="M27.06 465.288a13.471 13.471 0 01-1.167 1.669s-11.536-.1-15.576-3.442c1.987-6.573 8.323-26.462 11.292-23.079 2.792 3.176 4.738 18.456 5.451 24.852z" opacity=".1"/><path d="M25.479 441.669l-.8 29.793h3.87s.628-26.137 2.356-29.793-5.426 0-5.426 0z" fill="#444053"/><path d="M73.587 444.121s-16.949-16.026-15.221-17.3c.465-.34.923-1.706 1.344-3.523 3.257-.569 8.862.79 13.5 13.8.112 3.7.377 7.023.377 7.023z" opacity=".1"/><path d="M76.121 461.994a1.719 1.719 0 01-.406.118c-1.994.347-9.342.148-13.456 0a2.91 2.91 0 01-2.814-2.9c0-1.108 0-2.459-.089-3.9-.192-4.549-.739-9.963-2.371-11.181-2.888-2.216-5.17-9.734 0-19.254 0 0 9.911-7.57 17.06 15.184 0 0 .694 6.492 3.8 8.8s-.335 12.476-1.724 13.133z" fill="#444053"/><path d="M75.7 462.112c-1.994.347-9.342.148-13.456 0a2.91 2.91 0 01-2.814-2.9c0-1.108 0-2.459-.089-3.9 1.248-5.51 3.043-11.181 5.354-12.474.015-.009 7.009-.8 11.005 19.274z" opacity=".1"/><path d="M58.241 442.164l1.861 24.793h2.363v-26.9z" fill="#444053"/><path d="M64.016 11.67a42.407 42.407 0 00-18.922 6.08 7.863 7.863 0 00-3.567 3.582 11.873 11.873 0 00-.288 4.431c.2 12.718-13.98 22.341-13.537 35.051.177 5.044 2.71 9.741 3.176 14.771.775 8.39-4.188 16.107-8.944 23.057a19.1 19.1 0 0013.478-4.468 102.206 102.206 0 011.883 51.513h6.8a5.17 5.17 0 011.987.244 4.992 4.992 0 011.573 1.174c6.359 6.329 10.62 15.687 8.19 24.327l14.475-5.428a43 43 0 009.992-4.764c3.013-2.142 5.539-5.251 6.174-8.9.391-2.216.266-4.86 2.09-6.145a11.374 11.374 0 012.851-1.056c3.973-1.4 5.731-6 6.543-10.133a58.347 58.347 0 00.923-15.413c-.643-8.641-3.2-17.415-1.093-25.849 1.189-4.734 3.833-9.143 4.047-14.032.347-8.057-5.953-15-6.891-23.013-.657-5.583 1.359-11.233.7-16.816a18.065 18.065 0 00-9.505-13.715c-1.78-.916-3.693-1.529-5.45-2.541-4.01-2.326-6.573-6.514-10.214-9.394s-9.7-3.966-12.444-.222z" opacity=".1"/><path d="M64.016 10.748a42.407 42.407 0 00-18.921 6.078 7.863 7.863 0 00-3.567 3.582 11.873 11.873 0 00-.288 4.431c.2 12.718-13.98 22.341-13.537 35.058.177 5.037 2.71 9.734 3.176 14.771.775 8.39-4.188 16.107-8.944 23.065a19.2 19.2 0 0013.478-4.468 102.169 102.169 0 011.883 51.5h6.8a5.172 5.172 0 011.987.251 4.86 4.86 0 011.573 1.167c6.359 6.337 10.62 15.687 8.19 24.327l14.475-5.428a43 43 0 009.992-4.764c3.013-2.142 5.539-5.251 6.174-8.9.391-2.216.266-4.86 2.09-6.145a11.374 11.374 0 012.851-1.056c3.973-1.4 5.731-6 6.543-10.133a58.345 58.345 0 00.945-15.428c-.643-8.641-3.2-17.415-1.093-25.849 1.189-4.734 3.833-9.143 4.047-14.032.347-8.057-5.953-15-6.891-23.013-.657-5.583 1.359-11.226.7-16.816a18.079 18.079 0 00-9.5-13.715c-1.78-.916-3.693-1.529-5.45-2.533-4.01-2.334-6.573-6.521-10.214-9.4s-9.7-3.966-12.444-.222z" fill="#925978"/><g opacity=".1"><path d="M41.22 21.766a8.213 8.213 0 00-.044.857c.026-.281.044-.567.044-.857zM94.902 51.33c.266-3.914 1.137-7.843.812-11.743-.244 3.914-1.115 7.843-.812 11.743zM30.878 70.79c-.428-4.579-2.563-8.862-3.065-13.434a16.831 16.831 0 00-.111 2.526c.177 4.985 2.651 9.645 3.154 14.608a19.939 19.939 0 00.022-3.7zM97.856 88.98a31.667 31.667 0 00-.739 9.173 27.812 27.812 0 01.739-5.325c1.189-4.734 3.833-9.143 4.047-14.032a15.214 15.214 0 00-.118-2.6c-.577 4.39-2.873 8.49-3.929 12.784zM35.412 89.379a19.2 19.2 0 01-10.9 4.431c-.842 1.315-1.713 2.6-2.578 3.87a19.2 19.2 0 0013.478-4.468 101.917 101.917 0 014.3 27.658 102.147 102.147 0 00-4.3-31.491zM97.996 130.213c-.812 4.136-2.57 8.729-6.543 10.125a11.078 11.078 0 00-2.851 1.064c-1.824 1.285-1.7 3.944-2.09 6.145-.635 3.648-3.154 6.75-6.174 8.862a44.4 44.4 0 01-9.992 4.771l-13.811 5.17a19.058 19.058 0 01-.665 4.1l14.475-5.428a43 43 0 009.992-4.764c3.013-2.142 5.539-5.251 6.174-8.9.391-2.216.266-4.86 2.09-6.145a11.373 11.373 0 012.851-1.056c3.973-1.4 5.731-6 6.543-10.133a57.917 57.917 0 001.041-13.072 57.829 57.829 0 01-1.04 9.261zM47.677 142.287a4.882 4.882 0 00-1.573-1.174 5.281 5.281 0 00-1.987-.251h-6.034c-.236 1.285-.487 2.57-.739 3.848h6.8a5.171 5.171 0 011.987.251 4.86 4.86 0 011.573 1.167c4.653 4.638 8.176 10.886 8.781 17.3.751-7.67-3.223-15.557-8.808-21.141z"/></g><path d="M13.936 167.457s5.495-2.3 6.721 0-6.721 0-6.721 0zM15.878 171.408s5.495-2.3 6.728 0-6.728 0-6.728 0z" opacity=".1"/></g><g fill="#b5d653"><path d="M610.923 22.313s-28.1-1.691-24.785 18a4.8 4.8 0 002.5 5.059s.052-1.477 2.88-.967a12.932 12.932 0 003.05.148 6.329 6.329 0 003.722-1.544s7.894-3.263 10.964-16.169c0 0 2.275-2.821 2.216-3.545l-4.741 2.031s1.617 3.419.34 6.263c0 0-.148-6.145-1.063-6-.185 0-2.459 1.182-2.459 1.182s2.784 5.96.679 10.3c0 0 .8-7.341-1.551-9.859l-3.353 1.987s3.257 6.152 1.049 11.174c0 0 .569-7.7-1.75-10.7l-3.028 2.356s3.065 6.034 1.219 10.2c0 0-.244-8.973-1.854-9.645 0 0-2.644 2.334-3.043 3.294 0 0 2.09 4.431.79 6.721 0 0-.8-5.967-1.477-6 0 0-2.637 3.959-2.91 6.647a14.409 14.409 0 012.267-7.053 7.879 7.879 0 00-4.032 2.1s.406-2.8 4.682-3.05c0 0 2.179-3 2.762-3.183 0 0-4.254-.354-6.832.79 0 0 2.267-2.644 7.614-1.477l2.954-2.437s-5.6-.739-7.976.081c0 0 2.733-2.334 8.781-.635l3.25-1.942s-4.771-1.034-7.614-.657c0 0 3-1.617 8.567.133l2.326-1.041s-3.5-.687-4.52-.8-1.078-.391-1.078-.391a12.083 12.083 0 016.566.739s4.969-1.8 4.888-2.11zM570.872 6.346s-23.633 15.3-9.3 29.187a4.806 4.806 0 005.007 2.6s-.827-1.211 1.75-2.489a12.82 12.82 0 002.548-1.691 6.358 6.358 0 002.09-3.449s4.431-7.312-.739-19.527c0 0 .162-3.619-.34-4.151l-2.614 4.431s3.331 1.795 3.988 4.837c0 0-3.759-4.852-4.431-4.195-.133.133-1.285 2.415-1.285 2.415s5.783 3.146 6.647 7.88c0 0-3.693-6.388-7.1-7.016l-1.536 3.545s6.278 3.028 7.474 8.382c0 0-4.114-6.543-7.755-7.585l-1.034 3.693s6.056 3.072 7.023 7.533c0 0-5.509-7.075-7.208-6.647 0 0-.739 3.442-.5 4.431 0 0 4.3 2.3 4.623 4.948 0 0-4.18-4.335-4.719-3.973 0 0 .222 4.749 1.6 7.1a14.424 14.424 0 01-2.348-7.023 7.9 7.9 0 00-2.009 4.077s-1.329-2.5 1.972-5.229c0 0 0-3.693.332-4.2 0 0-3.634 2.216-5.037 4.682 0 0 .266-3.471 5.281-5.672l.96-3.73s-4.963 2.7-6.374 4.793c0 0 .82-3.5 6.691-5.716l1.477-3.493a30.054 30.054 0 00-6.529 3.988s1.477-3.087 6.987-4.97l1.256-2.216s-3.227 1.521-4.114 2.038-1.1.325-1.1.325a12.1 12.1 0 015.724-3.3s2.893-4.406 2.642-4.613zM534.907 24.166s-14.128 24.372 4.948 30.228a4.762 4.762 0 005.642 0s-1.278-.694.436-3.006a12.931 12.931 0 001.474-2.658 6.381 6.381 0 00.3-4.025s.628-8.523-9.527-17.068c0 0-1.477-3.294-2.216-3.538l-.318 5.17s3.781.089 5.753 2.5c0 0-5.554-2.622-5.834-1.743-.059.177-.052 2.733-.052 2.733s6.639.2 9.594 4.025c0 0-6.2-4.01-9.5-3.035l.236 3.855s6.964-.148 10.458 4.084c0 0-6.647-3.966-10.34-3.242l.739 3.759s6.795 0 9.675 3.53c0 0-8.124-3.811-9.446-2.681 0 0 .894 3.412 1.573 4.2 0 0 4.874.1 6.366 2.312 0 0-5.694-1.972-6.012-1.4 0 0 2.356 4.128 4.653 5.591a14.424 14.424 0 01-5.281-5.17 7.91 7.91 0 00.059 4.542s-2.319-1.617-.62-5.554c0 0-1.7-3.294-1.6-3.892 0 0-2.216 3.641-2.363 6.455 0 0-1.344-3.213 2.127-7.444l-.835-3.767s-3.2 4.66-3.508 7.164c0 0-.857-3.493 3.375-8.124l-.281-3.774s-3.058 3.8-4 6.514c0 0-.1-3.412 3.966-7.6l.111-2.548s-2.216 2.814-2.74 3.693-.835.753-.835.753a12.157 12.157 0 013.6-5.546s.531-5.226.223-5.293z" opacity=".1"/></g><path d="M656.209 301.99a10.568 10.568 0 1010.568 10.568 10.568 10.568 0 00-10.568-10.568zm-30.9-82.93v10.568h10.568l19.025 38.537-7.954 12.947a10.162 10.162 0 00-1.322 5.022c0 7.075 4.838 10.569 11.4 10.569h61.793V286.54h-60.5a1.248 1.248 0 01-1.322-1.322 6.649 6.649 0 01.561-1.315l5.281-8.338h39.371a10.339 10.339 0 009.246-5.546l19.032-32.725a6.137 6.137 0 00.532-2.644 5.081 5.081 0 00-5.288-5.022h-78.223l-5.022-10.568zm82.93 82.93a10.568 10.568 0 1010.58 10.571 10.568 10.568 0 00-10.58-10.571z" fill="#b5d653"/><path d="M694.717 248.298h-8.862v-8.862h-6.647v8.862h-8.863v6.647h8.862v8.862h6.647v-8.862h8.862z" fill="#fff"/></g><text transform="translate(379 9712)" fill="#2e2d35" stroke="#2e2d35" font-size="40" font-family="Montserrat-Regular, Montserrat"><tspan x="0" y="39">Review the list of household </tspan><tspan x="0" y="114">products that you want the </tspan><tspan x="0" y="189">most.</tspan></text><text transform="translate(339 8165)" fill="#2e2d35" stroke="#2e2d35" font-size="40" font-family="Montserrat-Regular, Montserrat"><tspan x="0" y="39">Login or register on our </tspan><tspan x="0" y="114">website</tspan></text><circle cx="214" cy="214" r="214" transform="translate(1535 8736)" fill="#b5d653"/><circle cx="203.5" cy="203.5" r="203.5" transform="translate(1556 10364)" fill="#b5d653"/><text transform="translate(1647 8971)" fill="#fff" font-size="58" font-family="Montserrat-Bold, Montserrat" font-weight="700"><tspan x="0" y="0">STEP 2</tspan></text><text transform="translate(1623 10593)" fill="#fff" font-size="70" font-family="Montserrat-Bold, Montserrat" font-weight="700"><tspan x="0" y="0">STEP 4</tspan></text><ellipse cx="106.5" cy="107" rx="106.5" ry="107" transform="translate(1481 9005)" fill="#31a95d"/><ellipse cx="101" cy="101.5" rx="101" ry="101.5" transform="translate(1519 10620)" fill="#31a95d"/><text transform="translate(621 8835)" fill="#2e2d35" stroke="#2e2d35" font-size="40" font-family="Montserrat-Regular, Montserrat"><tspan x="69.28" y="39">Pick a subscription package type and </tspan><tspan x="526.16" y="114">the frequency.</tspan></text><text transform="translate(876 10525)" fill="#2e2d35" stroke="#2e2d35" font-size="40" font-family="Montserrat-Regular, Montserrat"><tspan x="26.36" y="39">Pick the city and pillar that </tspan><tspan x="54.44" y="114">you would like to support</tspan></text><path d="M390.528 4061.135s159.334-25.9 224.48 70.641c56.724 84.062-22.762 126.368-91.048 73s-125.583-54.942-177.386-35.321-88.693-77.709 43.954-108.32z" transform="translate(-317.258 5062.674)" fill="url(#c)"/><g transform="translate(2.595 8636)"><path d="M462.229 100.945l-47.433-14.341-2.917 64.864 49.918 15.046zM128.337 0v66l283.542 85.468 2.917-64.868z" fill="#f5f5f5"/><path d="M462.229 100.945l-47.433-14.341-2.917 64.864 49.918 15.046z" opacity=".1"/><path d="M462.229 225.183l-47.433-14.341-2.917 64.864 49.919 15.048z" fill="#3ad29f"/><path d="M128.337 124.239v66l283.542 85.468 2.917-64.864z" fill="#3ad29f"/><path d="M462.229 225.183l-47.433-14.341-2.917 64.864 49.919 15.048z" opacity=".1"/><path d="M426.855 248.046l7.765 11.647 15.53-19.412" fill="none" stroke="#fff" stroke-linecap="round" stroke-miterlimit="10" stroke-width="7"/><g opacity=".4" fill="none" stroke="#fff" stroke-linecap="round" stroke-miterlimit="10" stroke-width="7"><path d="M427.287 112.16l15.53 27.177M446.699 116.042l-19.412 19.412"/></g><path d="M462.229 341.657l-47.433-14.34-2.917 64.864 49.918 15.046zM128.337 240.713v66l283.542 85.468 2.917-64.864z" fill="#f5f5f5"/><path d="M462.229 341.657l-47.433-14.34-2.917 64.864 49.918 15.046z" opacity=".1"/><g opacity=".4" fill="none" stroke="#fff" stroke-linecap="round" stroke-miterlimit="10" stroke-width="7"><path d="M427.287 352.874l15.53 27.177M446.699 356.756l-19.412 19.412"/></g><ellipse cx="9.706" cy="19.412" rx="9.706" ry="19.412" transform="translate(314.695 193.692)" opacity=".3"/><ellipse cx="81.532" cy="163.064" rx="81.532" ry="163.064" transform="translate(242.869 50.04)" fill="#b5d653" opacity=".1"/><ellipse cx="44.648" cy="89.297" rx="44.648" ry="89.297" transform="translate(279.753 123.807)" fill="#fff" opacity=".1"/><g opacity=".5" fill="#47e6b1"><path d="M3.019 96.414h1.294v7.334H3.019z"/><path d="M7.334 99.434v1.294H0v-1.294z"/></g><g opacity=".5" fill="#47e6b1"><path d="M461.965 453.955h1.294v7.334h-1.294z"/><path d="M466.28 456.975v1.294h-7.334v-1.294z"/></g><g opacity=".5" fill="#47e6b1"><path d="M430.091 298.303h1.294v7.334h-1.294z"/><path d="M434.405 301.323v1.294h-7.334v-1.294z"/></g><g opacity=".5" fill="#47e6b1"><path d="M374.874 447.562h1.294v7.334h-1.294z"/><path d="M379.188 450.582v1.294h-7.334v-1.294z"/></g><g opacity=".5" fill="#47e6b1"><path d="M336.049 541.172h1.294v7.334h-1.294z"/><path d="M340.363 544.192v1.294h-7.334v-1.294z"/></g><g opacity=".5" fill="#47e6b1"><path d="M58.237 209.869h1.294v7.334h-1.294z"/><path d="M62.551 212.889v1.294h-7.334v-1.294z"/></g><path d="M78.382 95.684a1.585 1.585 0 01-.883-1.916.765.765 0 00.034-.176.795.795 0 00-1.428-.527.76.76 0 00-.088.156 1.585 1.585 0 01-1.916.883.761.761 0 00-.176-.034.795.795 0 00-.527 1.428.764.764 0 00.156.088 1.585 1.585 0 01.883 1.916.761.761 0 00-.035.176.795.795 0 001.428.527.764.764 0 00.088-.156 1.585 1.585 0 011.916-.883.761.761 0 00.176.034.795.795 0 00.527-1.428.76.76 0 00-.155-.088zM369.649 30.826a1.585 1.585 0 01-.883-1.916.761.761 0 00.035-.176.795.795 0 00-1.428-.527.765.765 0 00-.088.156 1.585 1.585 0 01-1.916.883.76.76 0 00-.176-.034.795.795 0 00-.527 1.428.76.76 0 00.156.088 1.585 1.585 0 01.883 1.916.767.767 0 00-.035.176.795.795 0 001.428.527.759.759 0 00.088-.156 1.585 1.585 0 011.916-.883.763.763 0 00.176.035.795.795 0 00.527-1.428.759.759 0 00-.156-.089zM11.6 261.617a1.585 1.585 0 01-.883-1.916.76.76 0 00.034-.176.795.795 0 00-1.428-.527.761.761 0 00-.088.156 1.585 1.585 0 01-1.916.883.764.764 0 00-.176-.034.795.795 0 00-.527 1.428.76.76 0 00.156.088 1.585 1.585 0 01.883 1.916.765.765 0 00-.034.176.795.795 0 001.428.527.761.761 0 00.088-.156 1.585 1.585 0 011.916-.883.761.761 0 00.176.034.795.795 0 00.527-1.428.762.762 0 00-.156-.088zM23.247 424.68a1.585 1.585 0 01-.883-1.916.762.762 0 00.034-.176.795.795 0 00-1.428-.527.762.762 0 00-.088.156 1.585 1.585 0 01-1.916.883.763.763 0 00-.176-.034.795.795 0 00-.527 1.428.762.762 0 00.156.088 1.585 1.585 0 01.883 1.916.762.762 0 00-.035.176.795.795 0 001.428.527.761.761 0 00.088-.156 1.585 1.585 0 011.916-.883.763.763 0 00.176.034.795.795 0 00.527-1.428.758.758 0 00-.155-.088z" fill="#4d8af0" opacity=".5"/><circle cx="2.588" cy="2.588" r="2.588" transform="translate(214.829 114.964)" fill="#f55f44" opacity=".5"/><circle cx="2.588" cy="2.588" r="2.588" transform="translate(284.714 452.738)" fill="#4d8af0" opacity=".5"/><circle cx="2.588" cy="2.588" r="2.588" transform="translate(443.895 184.849)" fill="#4d8af0" opacity=".5"/><circle cx="2.588" cy="2.588" r="2.588" transform="translate(490.485 301.322)" fill="#47e6b1" opacity=".5"/><circle cx="2.588" cy="2.588" r="2.588" transform="translate(317.068 7.549)" fill="#f55f44" opacity=".5"/><path fill="#b5d653" d="M207.31 146.4l-19.43-.754.97-24.98 19.429.754z"/><path d="M276.498 208.154s26.906-12.856 26.476-1.753-27.122 18.407-27.122 18.407z" fill="#ffb9b9"/><path d="M261.733 302.093s12.694 31.07 17.384 53.49 11.833 53.275 2.645 75.157-35.31 86.192-35.579 93.133 2.237 13.986-3.314 13.77-35.76-9.726-36.986-13.943 10.307-14.889 10.307-14.889l28.479-89.238-29.714-58.141-21.432 86.732-4.2 108.248s-20.6-6.358-23.593-.915c0 0-9.23-12.867-10.4-18.472s4.359-112.412 4.359-112.412-18.911-121.654-3.645-121.062 75.061-36.003 105.689-1.458z" fill="#b5d653"/><path d="M243.084 532.093s14.082 31.124 15.416 32.565 10.51 15.7 3.571 15.427-23.324-7.854-35.383-19.441-27.96-31.662-26.518-33 11.318-5.121 11.318-5.121zM186.82 549.367s.85 13.932 3.41 19.591 2.237 13.986-4.7 13.717-24.873-3.744-24.873-3.744-1.065-8.381.377-9.715 7.585-16.385 4.971-20.656 20.815.807 20.815.807z" fill="#575a89"/><path d="M176.554 97.256s-14.793 23.055-20.559 28.391 10.457 17.084 10.457 17.084l29.036 3.906s-.365-26.422 1.13-29.144-20.064-20.237-20.064-20.237z" fill="#ffb9b9"/><path d="M201.793 127.423s-5.982 10.887-11.533 10.672-34.267-12.448-35.493-16.665-9.511 30.209-9.511 30.209l70.259 123.645 17.138-11.844-8.3-72.6-6.82-39.181z" fill="#b5d653"/><path d="M152.177 238.08c2.8 5.863 4.553 11.977 4.31 18.236-.011.278-.022.555-.046.832-.665 12.845-5.4 27.7-7.094 38.5-1.232 7.75-.881 13.406 3.654 14.736 10.995 3.206-1.6 5.5 40.934 19.656s49.961 1.937 50.069-.838-6.024-23.862-4.583-25.2 20.171 17.461 25.83 14.9.646-16.654.646-16.654-12.748-29.682-12.479-36.621-19.31-39.666-19.31-39.666l-13.317-86.689s-5.121-11.318-12.006-12.975a17.056 17.056 0 00-12.6 2.291l11.522 25.465 12.156 44.948-2.034 16.6s-14.136-29.736-23.42-41.215-29.079-38.655-29.079-38.655-4.621-15.593-1.133-20.253-14.545-5.365-22.245 13.795c-4.077 10.154-10.7 25.3-14.843 39.4-3.7 12.491-5.44 24.168-1.78 30.842 5.598 10.194 19.672 23.596 26.848 38.565z" fill="#575a89"/><path d="M125.332 199.512c5.6 10.2 19.669 23.6 26.844 38.568 1.874-6.752 4.16-13.738 4.16-13.738s8.769-46.916-17.169-59.041a17.359 17.359 0 00-12.056 3.369c-3.694 12.491-5.44 24.167-1.779 30.842z" opacity=".1"/><path d="M228.299 196.555l21.99 6.412 30.532 1.184 3.141 26.53-50.176 3.614s-12.535-35.234-5.487-37.74z" fill="#575a89"/><path d="M192.442 285.757s29.418 4.881 22.7 13.733-32.775-.454-32.775-.454z" fill="#ffb9b9"/><path d="M156.44 257.148c-.665 12.845-5.4 27.7-7.094 38.5 9.371 8.87 18.283 16.693 21.641 16.823 6.939.269 18.1-.688 22.2.861s6.52-24.765 6.52-24.765-2.453-8.434-13.394-13.028c-7.379-3.105-21.535-11.535-29.873-18.391z" opacity=".1"/><path d="M139.49 156.975s-23.485-3.691-22.216 35.276-2.476 63.839 6.97 71.155 40.127 40.473 47.066 40.742 18.1-.688 22.2.861 6.52-24.765 6.52-24.765-2.453-8.434-13.394-13.028-36.717-20.882-36.5-26.434 6.52-24.765 6.52-24.765 8.772-46.918-17.166-59.042z" fill="#575a89"/><circle cx="30.555" cy="30.555" r="30.555" transform="translate(166.708 70.285)" fill="#ffb9b9"/><path d="M217.836 57.046a5.9 5.9 0 002.569 1.289 1.833 1.833 0 002.124-1.472c.7 1.45 1.488 2.995 2.915 3.739s3.634.12 3.84-1.476a6.736 6.736 0 001.55 3.273 2.322 2.322 0 003.265.109c-.625 3.416-.239 6.929-.436 10.4s-1.121 7.143-3.74 9.422c-3.82 3.325-9.565 2.5-14.59 1.874a4.428 4.428 0 00-2.286.125c-1.881.8-1.8 3.421-1.821 5.466a15.187 15.187 0 01-13.3 14.422 7.613 7.613 0 01-5.658-1.381c-1.427-1.209-2.155-3.18-3.79-4.089-2.659-1.478-5.885.677-7.829 3.017s-3.861 5.218-6.872 5.647c-3.984.566-7.018-3.493-8.506-7.231a42.156 42.156 0 01.838-32.755c8.322-18.136 36.732-21.004 51.727-10.379z" fill="#2f2e41"/></g><g transform="translate(885 7847.006)"><path d="M585.523 97.297c-66.353.089-130.221-18.721-191.31-39.617S272.505 13.385 207.39 3.47c-41.88-6.373-89.5-5.788-122.241 17.354-31.512 22.263-40.637 59.11-45.04 93.152-3.311 25.609-4.838 52.488 7.563 75.913 8.61 16.262 23.346 29.666 33.731 45.164 36.252 53.917 14.451 122.791-20.78 177.96-16.519 25.884-35.871 50.695-48.36 78.061s-17.611 58.4-4.873 85.411c12.623 26.772 41.134 46.2 71.732 59.474 62.137 27 134.482 32.79 204.882 35.018 155.839 4.944 311.979-5.14 467.7-15.224 57.627-3.728 115.512-7.483 171.95-18.286 31.335-5.992 63.6-14.886 85.82-34.379 28.2-24.748 33.971-65.155 13.448-94.2-34.415-48.715-125.161-57.9-149.838-110.612-13.608-29.018-1.873-62.3 15.41-90.267 37.069-60.015 100.875-113.772 101.949-180.9.737-46.1-32.444-91.066-82-111.1C856.49-4.972 785.665.425 749.271 39.54c-37.424 40.287-105.162 57.694-163.748 57.757z" fill="#b5d653" opacity=".1"/><path d="M881.036 572.864s-10.909-7.2-21.721-2.077c0 0 3.329 6.409 17.017 5.805zM882.421 573.246s3.32 12.64-5.006 21.242c0 0-5.006-5.211 0-17.975zM895.984 561.111s-.808-10.75-25.085-7.181c0 0-.115 6.933 8.406 10.217s12.428.515 16.679-3.036zM897.512 561.04s10.261 3.293 1.11 26.062c0 0-6.773-1.509-7.989-10.572s2.387-12.19 6.879-15.49zM911.217 545.79s1.394-17.691-23.417-15.88c0 0-1.775 15.978 19.04 20.132zM927.612 525.82s-3.4-20.052-28.2-14.078c0 0-.089 17.336 24.153 18.854zM939.596 505.171s-5.7-19.529-30.27-13.688c0 0 5.85 17.567 28.636 17.292zM950.975 485.003s-5.566-20.265-29.293-14.2c0 0 7.918 19.253 27.722 17.629zM958.307 465.847s-4.278-24.784-26.4-19.3c0 0 6.427 22.547 24.775 22.911zM965.187 442.705s-5.14-24.979-27.518-17.753c0 0 8.77 23.612 25.929 21.171zM969.412 421.171s-8.157-24.988-25.458-24.313c0 0 8.335 26.39 24.011 29.293zM972.146 400.15s-8.877-30.074-22.955-27.757c0 0 6.143 22.991 22.458 32.444zM973.691 375.072s-8.326-25.059-22.192-26.062c0 0 5.663 24.659 21.916 32.577zM975.369 351.676s-10.377-25.085-19.529-25.654c0 0 4.509 24.7 18.641 29.772zM976.513 329.91s-6.382-27.243-15.552-29.506c0 0 1.252 22.289 14.629 31.548zM979.976 301.398s-6.711-21.721-14.141-25.032c0 0 1.465 25.609 12.427 30.34zM982.842 282.757l1.349-38.294s-13.892 28.867-2.352 45.014zM993.566 244.667s10-27.962 12.427-29.524c0 0-19.617 18.144-17.7 41.481zM911.891 545.657s17.594-2.3 17.07 22.564c0 0-15.9 2.592-21.091-17.975zM928.447 525.143s20.328-.062 18.641 25.387c0 0-17.07 3.054-22.7-20.576zM939.79 506.811s18.455-8.655 30.261 13.688c0 0-17.043 7.208-31.894-10.075zM951.383 485.189s18.9-9.205 29.994 12.614c0 0-19.688 6.782-31.557-9.161zM958.068 466.388s18.188-17.372 32.7.2c0 0-18.579 14.3-33.536 3.675z" fill="#b5d653"/><path d="M964.16 442.11s18.295-17.753 32.693.817c0 0-20.532 14.584-33.35 2.912zM967.575 420.46s14.1-22.192 30.7-17.239c0 0-14.629 23.5-30.536 22.449zM971.729 400.011s14.2-27.944 27.642-23.079c0 0-10.244 21.482-28.006 27.793zM972.714 373.618s14.6-22 28.281-19.307c0 0-11.939 22.307-29.7 25.671zM973.851 351.187s11.318-24.686 20.514-24.855c0 0-5.432 24.508-19.75 29.044zM976.07 329.377s12.578-25 22.032-25.05c0 0-6.436 21.375-21.615 27.243zM977.96 302.96s9.409-20.683 17.2-23.026c0 0-4.7 25.21-16.164 28.512z" fill="#b5d653"/><path d="M983.96 282.006l21.029-32.036s-5.388 31.6-24.1 38.17zM998.395 247.25s24.438-16.866 25.325-19.591c0 0-12.427 23.621-35.507 27.793zM999.86 239.661s28.059-26.976 35.223-26.95c0 0-23.141 1.056-35.9 25.512z" fill="#b5d653"/><path d="M978.236 306.963l1.021.133c5.273-41.268 12.96-65.687 21.641-68.679l-.337-.976c-9.205 3.196-16.946 27.243-22.325 69.522z" fill="#444053"/><path d="M970.477 405.654l1.544.124c.328-3.852.577-7.794.746-11.726 1.474-34.157 3.755-65.528 6.755-89.042l-.888-1.11c-3.009 23.568-5.938 55.879-7.412 90.089a277.17 277.17 0 01-.745 11.665z" fill="#444053"/><path d="M852.24 592.552c.266-.115 27.456-12.259 55.674-41.214a223.89 223.89 0 0040.7-57.7c13.049-26.568 21-59.216 23.665-90.933l-1.607.755c-5.992 71.191-38.4 119.835-64.17 146.332-27.944 28.7-54.831 40.717-55.1 40.833z" fill="#444053"/><path d="M922.641 75.655H69.699a7.6 7.6 0 00-7.6 7.6v22.138h868.14v-22.14a7.6 7.6 0 00-7.598-7.598z" fill="#3f3d56"/><path d="M62.101 105.392v498.194a15.321 15.321 0 0015.321 15.321h837.5a15.321 15.321 0 0015.321-15.321V105.392z" fill="#fff"/><circle cx="3.551" cy="3.551" r="3.551" transform="translate(72.3 86.751)" fill="#fa5959" opacity=".8"/><circle cx="3.551" cy="3.551" r="3.551" transform="translate(82.065 86.751)" fill="#fed253" opacity=".8"/><circle cx="3.551" cy="3.551" r="3.551" transform="translate(91.829 86.751)" fill="#8ccf4d" opacity=".8"/><path opacity=".05" d="M142.799 188.46h697.706v306.795H142.799z"/><path fill="#3f3d56" d="M148.125 190.786h687.054v300.031H148.125z"/><path d="M335.422 268.004a68.35 68.35 0 1068.35 68.35 68.35 68.35 0 00-68.35-68.35zm12.259 69.993v32.364h-24.162v-32.364a20.017 20.017 0 1124.162 0z" fill="#b5d653"/><path d="M335.422 268.004a68.35 68.35 0 1068.35 68.35 68.35 68.35 0 00-68.35-68.35zm12.259 69.993v32.364h-24.162v-32.364a20.017 20.017 0 1124.162 0z" opacity=".05"/><path d="M335.423 248.475a87.879 87.879 0 1087.879 87.879 87.879 87.879 0 00-87.879-87.879zm15.756 89.992v41.6h-31.068v-41.6a25.742 25.742 0 1131.068 0z" fill="#b5d653"/><path fill="#fff" d="M459.696 324.823h284.053v30.181H459.696z"/><path fill="#b5d653" d="M682.5 379.859h61.249v30.181H682.5zM487.657 339.461h-5.14l4.572-4.563a.453.453 0 000-.63.444.444 0 00-.63 0l-4.572 4.572v-5.148a.444.444 0 00-.444-.444.453.453 0 00-.444.444v5.148l-4.563-4.6a.444.444 0 00-.63 0 .453.453 0 000 .63l4.571 4.563h-5.148a.453.453 0 00-.444.444.444.444 0 00.444.444h5.148l-4.571 4.571a.453.453 0 000 .63.461.461 0 00.63 0l4.563-4.572v5.14a.444.444 0 10.888 0v-5.14l4.572 4.572a.462.462 0 00.63 0 .453.453 0 000-.63l-4.572-4.571h5.14a.431.431 0 100-.861zM506.298 339.461h-5.14l4.571-4.563a.453.453 0 000-.63.444.444 0 00-.63 0l-4.571 4.572v-5.148a.444.444 0 00-.444-.444.453.453 0 00-.444.444v5.148l-4.563-4.6a.444.444 0 00-.63 0 .453.453 0 000 .63l4.572 4.563h-5.148a.453.453 0 00-.444.444.444.444 0 00.444.444h5.148l-4.572 4.571a.453.453 0 000 .63.462.462 0 00.63 0l4.563-4.572v5.14a.444.444 0 10.888 0v-5.14l4.572 4.572a.462.462 0 00.63 0 .453.453 0 000-.63l-4.571-4.571h5.14a.431.431 0 100-.861zM524.939 339.461h-5.14l4.571-4.563a.453.453 0 000-.63.444.444 0 00-.63 0l-4.572 4.572v-5.148a.444.444 0 00-.444-.444.453.453 0 00-.444.444v5.148l-4.563-4.6a.444.444 0 00-.63 0 .453.453 0 000 .63l4.571 4.563h-5.148a.453.453 0 00-.444.444.444.444 0 00.444.444h5.148l-4.571 4.571a.453.453 0 000 .63.462.462 0 00.63 0l4.563-4.572v5.14a.444.444 0 10.888 0v-5.14l4.572 4.572a.462.462 0 00.63 0 .453.453 0 000-.63l-4.571-4.572h5.14a.431.431 0 100-.861zM543.58 339.461h-5.14l4.572-4.563a.453.453 0 000-.63.444.444 0 00-.63 0l-4.571 4.572v-5.148a.444.444 0 00-.444-.444.453.453 0 00-.444.444v5.148l-4.563-4.6a.444.444 0 00-.63 0 .453.453 0 000 .63l4.572 4.563h-5.148a.453.453 0 00-.444.444.444.444 0 00.444.444h5.148l-4.572 4.571a.453.453 0 000 .63.462.462 0 00.63 0l4.563-4.572v5.14a.444.444 0 10.888 0v-5.14l4.571 4.572a.462.462 0 00.63 0 .453.453 0 000-.63l-4.572-4.571h5.14a.431.431 0 100-.861zM562.221 339.461h-5.14l4.571-4.563a.453.453 0 000-.63.444.444 0 00-.63 0l-4.571 4.572v-5.148a.444.444 0 00-.444-.444.453.453 0 00-.444.444v5.148l-4.563-4.6a.444.444 0 00-.63 0 .453.453 0 000 .63l4.571 4.563h-5.148a.453.453 0 00-.444.444.444.444 0 00.444.444h5.148l-4.571 4.571a.453.453 0 000 .63.462.462 0 00.63 0l4.563-4.572v5.14a.444.444 0 00.888 0v-5.14l4.571 4.572a.462.462 0 00.63 0 .453.453 0 000-.63l-4.571-4.571h5.14a.431.431 0 100-.861zM580.862 339.461h-5.14l4.572-4.563a.453.453 0 000-.63.444.444 0 00-.63 0l-4.572 4.572v-5.148a.444.444 0 00-.444-.444.453.453 0 00-.444.444v5.148l-4.563-4.6a.444.444 0 00-.63 0 .453.453 0 000 .63l4.571 4.563h-5.148a.453.453 0 00-.444.444.444.444 0 00.444.444h5.148l-4.572 4.571a.453.453 0 000 .63.462.462 0 00.63 0l4.563-4.572v5.14a.444.444 0 10.888 0v-5.14l4.572 4.572a.462.462 0 00.63 0 .453.453 0 000-.63l-4.572-4.571h5.14a.431.431 0 100-.861zM599.503 339.461h-5.14l4.571-4.563a.453.453 0 000-.63.444.444 0 00-.63 0l-4.571 4.572v-5.148a.444.444 0 00-.444-.444.453.453 0 00-.444.444v5.148l-4.563-4.6a.444.444 0 00-.63 0 .453.453 0 000 .63l4.571 4.563h-5.148a.453.453 0 00-.444.444.444.444 0 00.444.444h5.148l-4.571 4.571a.453.453 0 000 .63.461.461 0 00.63 0l4.563-4.572v5.14a.444.444 0 10.888 0v-5.14l4.571 4.572a.462.462 0 00.63 0 .453.453 0 000-.63l-4.571-4.572h5.14a.431.431 0 100-.861zM618.144 339.461h-5.14l4.572-4.563a.453.453 0 000-.63.444.444 0 00-.63 0l-4.572 4.572v-5.148a.444.444 0 00-.444-.444.453.453 0 00-.444.444v5.148l-4.563-4.6a.444.444 0 00-.63 0 .453.453 0 000 .63l4.571 4.563h-5.148a.453.453 0 00-.444.444.444.444 0 00.444.444h5.148l-4.571 4.571a.453.453 0 000 .63.462.462 0 00.63 0l4.563-4.571v5.14a.444.444 0 10.888 0v-5.14l4.572 4.572a.462.462 0 00.63 0 .453.453 0 000-.63l-4.572-4.571h5.14a.431.431 0 100-.861zM636.785 339.461h-5.139l4.571-4.563a.453.453 0 000-.63.444.444 0 00-.63 0l-4.571 4.572v-5.148a.444.444 0 00-.444-.444.453.453 0 00-.444.444v5.148l-4.563-4.6a.444.444 0 00-.63 0 .453.453 0 000 .63l4.571 4.563h-5.148a.453.453 0 00-.444.444.444.444 0 00.444.444h5.148l-4.572 4.571a.453.453 0 000 .63.462.462 0 00.63 0l4.563-4.572v5.14a.444.444 0 00.888 0v-5.14l4.571 4.572a.462.462 0 00.63 0 .453.453 0 000-.63l-4.572-4.571h5.139a.431.431 0 100-.861zM655.426 339.461h-5.14l4.572-4.563a.453.453 0 000-.63.444.444 0 00-.63 0l-4.571 4.572v-5.148a.444.444 0 00-.444-.444.453.453 0 00-.444.444v5.148l-4.563-4.6a.444.444 0 00-.63 0 .453.453 0 000 .63l4.571 4.563h-5.148a.453.453 0 00-.444.444.444.444 0 00.444.444h5.148l-4.571 4.571a.453.453 0 000 .63.461.461 0 00.63 0l4.563-4.572v5.14a.444.444 0 10.888 0v-5.14l4.572 4.572a.462.462 0 00.63 0 .453.453 0 000-.63l-4.572-4.571h5.14a.431.431 0 100-.861zM674.067 339.461h-5.14l4.572-4.563a.453.453 0 000-.63.444.444 0 00-.63 0l-4.571 4.572v-5.148a.444.444 0 00-.444-.444.453.453 0 00-.444.444v5.148l-4.563-4.6a.444.444 0 00-.63 0 .453.453 0 000 .63l4.572 4.563h-5.148a.453.453 0 00-.444.444.444.444 0 00.444.444h5.148l-4.572 4.571a.453.453 0 000 .63.462.462 0 00.63 0l4.563-4.572v5.14a.444.444 0 00.888 0v-5.14l4.571 4.572a.462.462 0 00.63 0 .453.453 0 000-.63l-4.572-4.571h5.14a.431.431 0 100-.861z"/><path d="M920.215 542.074a15.888 15.888 0 00-.4-3.187c-.8-3-2.6-6.631-5.566-7.536a46.722 46.722 0 01-8.823-3.728c-.533-9.516 1.651-19.253-.728-28.476-.888-3.373-2.352-6.6-2.743-10.057-.488-4.3.684-8.877-1.03-12.836a12.668 12.668 0 00-7.5-6.48 39.969 39.969 0 00-10-1.775c-4.261-.346-18.055-1.979-22.866 1.829a5.027 5.027 0 00-.888.888 3.549 3.549 0 00-.284.462l-.044.071a3.6 3.6 0 00-.24.577 4.484 4.484 0 00-.151.666v1.6c.062.8.177 1.6.177 2.388a5.142 5.142 0 01-.107 1.172 8.2 8.2 0 01-1.474 2.876l-.16.231c-.1.142-.2.275-.284.417s-.16.249-.231.373-.142.2-.2.32a4.332 4.332 0 00-.231.453c0 .089-.1.169-.133.257a4.388 4.388 0 00-.266.746 4.954 4.954 0 00-.053 2.361 8.79 8.79 0 001.216 2.8c.222.364.462.719.71 1.074l.621.843a19.144 19.144 0 00-.186 2.485 18.364 18.364 0 007.01 14.432 54.381 54.381 0 01-.113 11.266 72.483 72.483 0 01-.577 4.296 9.01 9.01 0 01-3.879-.293 18.294 18.294 0 00-1.775-.684c-2.583-.648-5.22 1.926-7.776 1.145a1.043 1.043 0 01-.115.355 3.479 3.479 0 00-1.775-.524c-1.518-.071-2.752-1.172-3.853-2.21l-3.382-3.187a3.735 3.735 0 01-.586-.657 4.6 4.6 0 01-.408-1.092 12.582 12.582 0 00-3.276-4.7 2.219 2.219 0 00-.968-.7 1.49 1.49 0 00-.444 0 3.888 3.888 0 00-.293-.355 8.353 8.353 0 00-.737-.746c-1.616-1.491-1.775-2.77-3.178-4.438a42.661 42.661 0 01-3.32-5.015 38.178 38.178 0 00-.47-2.858 36.776 36.776 0 00-1.944-6.48l-1.775-3.932-.2.2c-1.287-1.917-2.663-2.965-3.9-2.716-2.068.426-3.089 4.438-2.761 9.684l.71 5.326a1.64 1.64 0 00.1.4 9.825 9.825 0 00-.2 1.917c0 .746.692 1.3 1.056 1.962a5.547 5.547 0 01.888 3.027c-.044.382-.16.746-.177 1.118a4.3 4.3 0 00.834 2.308l4.438 7.456.888 1.562.053.071a3.79 3.79 0 001.19 1.367 16.258 16.258 0 001.465 5.388c.151.337.32.657.5.976a31.4 31.4 0 004.19 5.441l2.113 2.37c2.086 2.326 4.172 4.66 6.436 6.808a8.619 8.619 0 002.876 2.015 3.257 3.257 0 003.231-.47v3.3a1.855 1.855 0 011.4 2.92c-1.864 4.785-3.746 9.614-6.569 13.9a29.591 29.591 0 015.5 4.2 24.741 24.741 0 012.867 3.879c.08.657.142 1.3.177 1.953.657 10.581-3.435 21.082-7.1 31.166-1.056 2.858-2.21 5.85-2.122 8.823a17.321 17.321 0 00-1.988 1.429c.728 1.9.444 3.6.364 5.628a9.972 9.972 0 01-.737 3.551 24.954 24.954 0 01-1.278 2.281c-2.3 4.057-2.8 8.877-3.267 13.51-.275 2.8.808 6.214-.462 8.717-2.193 4.3-4.136 8.877-4.438 13.652a13.688 13.688 0 01-.408 3.187c-.275.888-.763 1.642-1.012 2.512a10.75 10.75 0 00-.178 3.551 33.979 33.979 0 01-1.864 12.525c-1.11 3.169-2.335 6.56-1.465 9.818a13.838 13.838 0 00-3.755 8.246 13 13 0 01-.284 2.352 11.44 11.44 0 01-1.065 2.263 19.813 19.813 0 00-2.414 10.652c-2.663 3.613-3.994 8.069-4.784 12.5s-1.136 8.939-2.148 13.315c-1.349 5.788-3.79 11.637-4.27 17.567-2.876 1.837-4.119 5.4-4.669 8.761s-.639 6.9-2.05 10c-.728 1.616-1.775 3.063-2.468 4.714a21.646 21.646 0 00-1.065 4.057 15.83 15.83 0 00-.275 6.658 10.034 10.034 0 01-2.6 1.98c.142-.55.257-1.1.355-1.66-2.29 2.077-6.445 1.349-8.273 3.844a3.746 3.746 0 00.888 5.14 7.1 7.1 0 001.837.79c4.438 1.42 9 2.849 13.564 2.095a4.048 4.048 0 001.536-.488 4.943 4.943 0 001.429-1.651c.683-1.083 1.367-2.166 2.042-3.249a42.159 42.159 0 004.98 1.163 57.17 57.17 0 01.355 4.261c.888.178 2.077.231 2.494-.595a2.157 2.157 0 00.151-.985c0-.63.089-1.465.142-2.317h.178a16.864 16.864 0 007.856-1.589c-.95-7.865 2.184-15.552 4.9-22.991 2.867-7.829 5.326-15.8 7.8-23.772 1.775-5.61 3.737-11.043 5.477-16.662q3.284-10.652 6.6-21.3c.959-3.125 1.926-6.214 3.027-9.32a145.2 145.2 0 018.229-18.313c.888-1.678 1.775-3.338 2.5-5.077.888-2.122 1.518-4.341 2.228-6.533a101.2 101.2 0 015.575-13.12c.062-.115.107-.222.169-.328.719 2.938 1.438 5.921 1.917 8.877a33.733 33.733 0 01.151 10.972c-.426 2.477-1.234 4.927-1.136 7.439.133 3.471 1.988 6.622 2.9 9.969a37.938 37.938 0 01.994 7.634c.249 3.995 2.414 8.477.888 12.179-4.749 11.726-2.45 24.97-5.157 37.282-1.394 6.32-5.663 12.259-5.326 18.721q.355 6.879 1.207 13.723a13.061 13.061 0 001.11 4.163 15.294 15.294 0 001.216 1.988c-.391.151-.719.55-1 1.394a5.477 5.477 0 001.971 6.214 8.625 8.625 0 002.565.888 13.513 13.513 0 003.71.515 8.661 8.661 0 001.163-.142 42.3 42.3 0 004.2 1.509 9.113 9.113 0 00.115 1.092 1.359 1.359 0 00.462 1 1.385 1.385 0 00.71.124h4.82v-1.207a3.968 3.968 0 003.062-.994 4.74 4.74 0 00.888-1.846q1.971-6.684 3.915-13.377a42.768 42.768 0 001.896-15.268c-1.713-16.36 2.05-32.773.826-49.177a117.8 117.8 0 011.509-29.506c.4-2.2.888-4.438 1.065-6.631.391-4.136-.089-8.317.2-12.427.1-1.438.293-2.867.47-4.3a206.31 206.31 0 001.909-26.763 84.317 84.317 0 00-.55-8.877 5.069 5.069 0 002.423-1.42c.79-1.03.586-2.477.577-3.79 0-3.142 1.323-6.107 2.388-9.072a107.778 107.778 0 003.355-12.481 43.571 43.571 0 001.491-10.43q0-.533-.053-1.065a2.75 2.75 0 00.817-.888 5.156 5.156 0 00.426-1.642c.32-2.264.648-4.536.968-6.808q.355-2.441.7-4.873l2.823-19.7c.24-1.713.488-3.418.728-5.122l.737-5.1c.08-.6.169-1.207.231-1.775 2.174-3.611.106-8.44-.125-12.559zm-23.55 73.747c-1.047-2.485-2.024-5.033-1.775-7.714h-.1a3.959 3.959 0 00-.116-2.5c-.275-.648-.754-1.2-1.047-1.846a6.764 6.764 0 01-.479-2.485 67.756 67.756 0 011.269-16.1c.115-.621.24-1.252.355-1.873a4.635 4.635 0 001.012-.79 7.2 7.2 0 001.145-1.775c1-2.015 1.917-4.066 2.761-6.152.275-.675.675-1.456 1.358-1.624-.142 5.193.391 10.492-1.722 15.179a9.6 9.6 0 00-.888 2.4c-.2 1.323.355 2.663.16 3.977-.1.684-.391 1.314-.506 1.988a1.944 1.944 0 00.515 1.882 1.55 1.55 0 00.382.2c-.053.355-.1.719-.133 1.065-.071.728-.107 1.411-.151 1.837a57.273 57.273 0 00-.24 6.533c0 2.352.089 4.7.053 7.1a4.82 4.82 0 01-.337 2.015 3.5 3.5 0 01-.675.888 23.067 23.067 0 00-.843-2.193z" transform="translate(-103.242 -94.629)" fill="url(#d)"/><ellipse cx="5.006" cy="14.176" rx="5.006" ry="14.176" transform="matrix(.98 -.201 .201 .98 712.762 391.426)" fill="#fbbebe"/><path d="M764.716 703.511a5.374 5.374 0 001.971 6.151 8.77 8.77 0 002.548.888 13.436 13.436 0 003.7.506c1.536-.071 3.009-.675 4.545-.888a.71.71 0 01.524.071.755.755 0 01.2.621 23.448 23.448 0 00.2 2.61 1.341 1.341 0 00.462 1 1.385 1.385 0 00.71.124h4.811a46.922 46.922 0 00-1.376-12.552 2.805 2.805 0 00-.355-.888 2.938 2.938 0 00-1.536-.888 8.583 8.583 0 00-3.719-.648 10.9 10.9 0 00-4.172 2.042 6.356 6.356 0 01-4.731 1.145c-1.616-.422-2.956-1.762-3.782.706z" fill="#3f3d56"/><path d="M694.076 699.614a13.313 13.313 0 01-4.855 3.3l-.817.391a.567.567 0 00-.275.222.479.479 0 00.089.4 5.743 5.743 0 006.516 2.37 3.452 3.452 0 001.429-.746 4.686 4.686 0 001.1-2.858 5.851 5.851 0 00-.133-3.276c-1.234-2.776-1.687-1.516-3.054.197z" fill="#fbbebe"/><path d="M712.522 710.55a2.157 2.157 0 01-.151.985c-.417.817-1.58.772-2.485.595a59.739 59.739 0 00-1.092-8.965c-1.722-.08-2.965 1.553-3.888 3.018l-2.379 3.773a4.919 4.919 0 01-1.42 1.651 4.207 4.207 0 01-1.536.488c-4.545.754-9.134-.675-13.519-2.095a7.163 7.163 0 01-1.837-.781 3.755 3.755 0 01-.888-5.131c1.837-2.485 5.965-1.775 8.255-3.835a20.667 20.667 0 01-1.172 4.234c3.062-.462 5.122-3.267 7.589-5.14a4.67 4.67 0 012.166-1.03 4.768 4.768 0 011.775.186 20.829 20.829 0 017.812 3.844c.932.737 2.388 1.775 2.8 2.911.431 1.36-.03 3.845-.03 5.292z" fill="#3f3d56"/><circle cx="18.339" cy="18.339" r="18.339" transform="translate(755.245 380.995)" fill="#fbbebe"/><path d="M809.712 507.612a43.488 43.488 0 01-1.483 10.377 107.074 107.074 0 01-3.355 12.427c-1.056 2.956-2.379 5.921-2.37 9.054 0 1.3.213 2.752-.586 3.781a5.523 5.523 0 01-2.59 1.482 3.24 3.24 0 00-2.184 1.944 13.713 13.713 0 01-1.846-4.066q-2.388-7.314-4.438-14.709a1.908 1.908 0 01.124-1.775 2.2 2.2 0 01.772-.435 7.987 7.987 0 002.459-1.58 3.6 3.6 0 00.817-1.056 4.785 4.785 0 00.346-2.006c0-2.352 0-4.7-.062-7.048a58.889 58.889 0 01.249-6.507c0-.426.08-1.11.151-1.837.133-1.394.4-3.009 1.154-3.551 1.127-.755 4.5.257 5.779.435 2.2.3 4.438.657 6.586 1.074a17.591 17.591 0 01.477 3.996zM735.663 419.866c-.71 1.42-2.414 2.1-3.728 3l-4.5 3.089a3 3 0 01-2.228.763 2.929 2.929 0 01-1.66-1.553.311.311 0 000-.071l-.932-1.562-4.438-7.439a4.233 4.233 0 01-.826-2.29c0-.382.133-.737.169-1.118a5.371 5.371 0 00-.888-3.018c-.355-.666-1.065-1.216-1.047-1.962a7.1 7.1 0 01.5-2.867 5.806 5.806 0 011.944-2.077c.417-.3.843-.586 1.287-.888a2.538 2.538 0 01.772-.355c.737-.151 1.465.462 2.21.488 3.2 2.148 4.438 6.214 6.959 9.143 1.42 1.669 1.562 2.947 3.169 4.438.257.231.506.479.746.737a5.156 5.156 0 01.8 1.154c.288.764 2.054 1.66 1.691 2.388z" fill="#3f3d56"/><path d="M767.14 417.682c1.323 2.8 2.352 5.867 1.971 8.939a5.584 5.584 0 01-.772 2.352c-1.278 1.962-3.959 2.317-6.294 2.432a3.711 3.711 0 00-2.734.888 2.485 2.485 0 00.169 3.036 6.851 6.851 0 002.716 1.775c3.693 1.625 7.678 2.965 11.691 2.592 1.864-.178 3.675-.719 5.53-.994a58.025 58.025 0 016.089-.337c2.414-.089 4.82-.328 7.226-.568l6.374-.63a1.42 1.42 0 00.95-.346c.471-.55-.133-1.358-.719-1.775-3.382-2.5-7.687-4.225-9.614-7.989-.888-1.775-1.163-3.888-1.82-5.805s-1.7-3.648-2.113-5.6a37.1 37.1 0 01-.293-5.166 6.933 6.933 0 00-1.775-4.722 7.4 7.4 0 00-4.829-1.553c-4.243-.186-8.761.826-11.771 3.817-.808.808-1.5 1.775-2.334 2.5s-1.971.941-1.42 1.9 1.633 1.553 2.219 2.4a20.412 20.412 0 011.553 2.854z" fill="#fbbebe"/><path d="M803.295 443.502a100.857 100.857 0 01-5.433 20 75.324 75.324 0 00-3.2 8.965c-.683 2.752-.55 5.7-1.18 8.459-.781 3.435-1.562 6.879-2.193 10.341a67.808 67.808 0 00-1.261 16.067 6.719 6.719 0 00.479 2.477c.293.639.763 1.19 1.039 1.846a4.437 4.437 0 01-.249 3.551 10.28 10.28 0 01-1.829 2.77c-8.273 2.468-17.123 1.66-25.742 2.184-7.945.479-15.978 2.113-23.807.755-.888-3.551.595-7.27 1.864-10.732 3.684-10.057 7.758-20.532 7.1-31.068a32.176 32.176 0 00-.417-3.666c-1.287-7.465.115-15.2 2.361-22.431 1.394-4.509 1.332-9.312 1.012-14.007a25.574 25.574 0 01-.062-4.589 8.069 8.069 0 011.669-4.287c0-.062.08-.124.124-.186a1.218 1.218 0 01.666 0 .569.569 0 00.444 0l.1-.062a.222.222 0 01.257 0c.2.124.32.55.763.63a17.675 17.675 0 001.979.186 10.654 10.654 0 012.361.337h.107a6.932 6.932 0 003.444-.293 9.154 9.154 0 002.113-.817c.2-.213 1.42-.408 1.669-.559.808-.488.63-2.778.8-3.719a10.225 10.225 0 01.666-2.752 4.687 4.687 0 013.8-2.21 20.232 20.232 0 014.554.408c3.311.47 6.7.391 9.951 1.154 1.633.382 3.417.959 4.918.213.408.1.47.453.47.888a5.684 5.684 0 01-.248 1.216c-.568 2.45 1.358 4.7 3.133 6.48a10.05 10.05 0 002.619 2.086c.888.408 1.775.577 2.663 1.021a4.847 4.847 0 011.775 1.625 6.782 6.782 0 011.012 2.583 15.45 15.45 0 01-.293 5.14z" fill="#3f3d56"/><path d="M803.295 443.504a100.85 100.85 0 01-5.433 20 75.322 75.322 0 00-3.2 8.965c-.683 2.752-.55 5.7-1.181 8.459-.781 3.435-1.562 6.88-2.193 10.341-.186.106-.382.2-.577.293a13.622 13.622 0 01-3.48 1.119 21.3 21.3 0 01-6.5-.213l-12.667-1.7c-5.06-.683-10.448-1.509-14.2-4.935-2.086-1.882-3.453-4.367-4.953-6.764a32.2 32.2 0 00-.417-3.666c-1.287-7.465.115-15.2 2.361-22.431 1.394-4.509 1.331-9.312 1.012-14.007a25.58 25.58 0 01-.062-4.589 8.068 8.068 0 011.669-4.287 6.337 6.337 0 01.79-.177 3.943 3.943 0 01.542-.071h.257a3.869 3.869 0 01.888.107 16.051 16.051 0 011.775.683h.107a6.794 6.794 0 002.361.337c1.172 0 2.379-.186 3.551-.266a6.552 6.552 0 014.208.755 25.214 25.214 0 012.343 2.139 10.065 10.065 0 002.956 1.607 31.415 31.415 0 0023.63-.5 4.623 4.623 0 012.37-.6 4.438 4.438 0 011.7.728c.533.311 1.056.612 1.6.888a6.782 6.782 0 011.012 2.583 15.446 15.446 0 01-.269 5.202z" opacity=".1"/><path d="M811.026 437.628a47.378 47.378 0 01-10.119-4.438 4.535 4.535 0 00-1.7-.728 4.765 4.765 0 00-2.379.6 31.4 31.4 0 01-23.621.5 10.271 10.271 0 01-2.956-1.607 26.525 26.525 0 00-2.343-2.139c-2.92-1.891-6.959.328-10.226-.888a18.1 18.1 0 00-1.775-.684c-2.583-.648-5.211 1.926-7.749 1.145a43.188 43.188 0 00-2.086 7.918 86.316 86.316 0 00-.577 9.338c0 1.873-.089 3.746 0 5.619a1.843 1.843 0 011.4 2.912c-1.855 4.767-3.737 9.587-6.551 13.857a30.107 30.107 0 015.486 4.19c3.107 3.284 4.634 7.891 7.989 10.927 3.781 3.417 9.17 4.252 14.2 4.927l12.667 1.7a21.651 21.651 0 006.507.222 13.7 13.7 0 003.471-1.127 6.212 6.212 0 001.935-1.278 7.1 7.1 0 001.145-1.775c1-2.006 1.917-4.057 2.761-6.134.293-.737.737-1.6 1.536-1.66 4.7-4.243 9.143-8.593 13.848-12.836a30.687 30.687 0 005.051-5.326c2.335-3.453.213-8.344 0-12.516a15.8 15.8 0 00-.4-3.169c-.765-3.032-2.558-6.653-5.514-7.55z" fill="#b5d653"/><path d="M735.663 419.866c-.71 1.42-2.414 2.1-3.728 3l-4.5 3.089a3 3 0 01-2.228.763 2.929 2.929 0 01-1.66-1.553v-.639a5.956 5.956 0 01.284-2.122 6.612 6.612 0 011.988-2.557 16.277 16.277 0 015.832-3.551 2 2 0 011.065-.106 1.4 1.4 0 01.391.168 5.151 5.151 0 01.8 1.154c.353.73 2.12 1.626 1.756 2.354z" opacity=".1"/><path d="M746.262 429.222c-1.509-.071-2.743-1.163-3.844-2.2l-3.364-3.125a3.146 3.146 0 01-.586-.657 4.614 4.614 0 01-.408-1.092 12.525 12.525 0 00-3.267-4.687 2.13 2.13 0 00-.968-.692 1.945 1.945 0 00-1.074.106 16.235 16.235 0 00-5.832 3.551 6.631 6.631 0 00-1.988 2.557 5.9 5.9 0 00-.284 2.122 16.3 16.3 0 001.545 6.782c.151.328.32.657.5.976a30.742 30.742 0 004.172 5.424l2.113 2.361c2.077 2.326 4.154 4.651 6.409 6.791a8.466 8.466 0 002.876 2.006 3.213 3.213 0 003.3-.533 4.775 4.775 0 00.941-1.687c1.367-3.551 2.663-7.243 2.743-11.069a41.834 41.834 0 00-.2-4.589c-.13-1.617-1.275-2.247-2.784-2.345z" fill="#b5d653"/><path d="M800.055 553.496a205.128 205.128 0 01-1.9 26.692c-.177 1.429-.373 2.858-.47 4.287-.293 4.145.186 8.309-.2 12.427-.2 2.228-.666 4.438-1.056 6.613a117.593 117.593 0 00-1.509 29.426c1.225 16.36-2.53 32.728-.825 49.044a39.645 39.645 0 01-.524 9.489 40.2 40.2 0 01-1.376 5.734q-1.944 6.667-3.906 13.315a4.616 4.616 0 01-.888 1.846 4.207 4.207 0 01-3.329.985c-5.122-.16-9.942-2.37-14.593-4.527a5.083 5.083 0 01-1.465-.888c-.968-1-.888-2.583-1.314-3.906s-1.58-2.565-2.237-3.924a12.807 12.807 0 01-.968-4.039q-.888-6.817-1.207-13.688c-.337-6.445 3.923-12.374 5.326-18.641 2.663-12.321.408-25.529 5.14-37.22 1.491-3.693-.675-8.167-.888-12.143a38.5 38.5 0 00-.994-7.616c-.888-3.338-2.761-6.48-2.894-9.942-.1-2.5.71-4.944 1.127-7.412a33.313 33.313 0 00-.151-10.945c-.471-2.983-1.19-5.965-1.909-8.877l-.16.328a100.3 100.3 0 00-5.566 13.093c-.71 2.175-1.331 4.394-2.219 6.507-.728 1.775-1.624 3.4-2.5 5.069a145.579 145.579 0 00-8.211 18.241c-1.1 3.071-2.068 6.214-3.027 9.294l-6.578 21.3c-1.775 5.6-3.719 11.016-5.459 16.608-2.459 7.989-4.918 15.907-7.776 23.718-2.663 7.412-5.832 15.09-4.882 22.92a16.865 16.865 0 01-7.838 1.589 45.893 45.893 0 01-13.315-3.231 10.351 10.351 0 01-4.6-2.734c-1.971-2.406-1.482-5.93-.888-8.992a21.724 21.724 0 011.065-4.048c.675-1.633 1.775-3.08 2.468-4.7 1.394-3.1 1.482-6.6 2.033-9.968s1.775-6.915 4.651-8.743c.488-5.912 2.92-11.744 4.261-17.523 1.012-4.376 1.349-8.877 2.148-13.315s2.086-8.877 4.767-12.472a19.768 19.768 0 012.414-10.652 11.648 11.648 0 001.056-2.264 13.009 13.009 0 00.284-2.343 13.856 13.856 0 013.746-8.229c-.888-3.24.346-6.622 1.456-9.764a33.926 33.926 0 001.864-12.49 10.946 10.946 0 01.169-3.551c.248-.888.737-1.642 1.021-2.494a14.207 14.207 0 00.4-3.187c.346-4.8 2.29-9.329 4.438-13.617 1.278-2.5.2-5.9.462-8.69.462-4.634.968-9.427 3.267-13.466.426-.763.888-1.491 1.269-2.281a9.879 9.879 0 00.737-3.551c.08-2.033.364-3.719-.364-5.61 4.749-3.95 11.229-5.06 17.407-5.326s12.427.293 18.472-1.021c1.775-.4 3.551-.95 5.424-1.216 4.252-.621 8.566.346 12.765 1.3-.293 2.663.684 5.219 1.775 7.7a82.618 82.618 0 016.578 31.708z" fill="#33313f"/><path d="M779.15 555.528l-10.2 22.937c-.47-2.982-1.19-5.965-1.909-8.877l-.16.328v-.478l5.557-12.223zM809.712 507.612a3.835 3.835 0 01-2.024.754 9.846 9.846 0 01-3.32-.453l-7.989-2a3.927 3.927 0 01-.728-.257c.133-1.394.4-3.009 1.154-3.551 1.127-.755 4.5.257 5.779.435 2.2.3 4.438.657 6.586 1.074a17.587 17.587 0 01.542 3.995z" opacity=".1"/><path d="M816.467 454.795c.169.737.408 1.465.55 2.21a16.865 16.865 0 01-.186 5.495l-.728 5.077-.728 5.1-2.814 19.644-.692 4.864-.976 6.791a4.882 4.882 0 01-.426 1.633 3.4 3.4 0 01-2.778 1.642 10.067 10.067 0 01-3.32-.453l-7.989-2.006a2.5 2.5 0 01-.977-.4 1.926 1.926 0 01-.515-1.873c.115-.675.408-1.3.506-1.98.2-1.314-.355-2.663-.16-3.968a9.87 9.87 0 01.888-2.388c2.663-5.885 1.119-12.756 2.024-19.147a29.025 29.025 0 016.16-13.706 39.338 39.338 0 016.8-6.675c.994-.772 2.574-2.361 3.826-2.663 1.606-.33 1.269 1.685 1.535 2.803z" fill="#b5d653"/><path d="M756.008 378.332c-.586 1.864.328 3.915-.089 5.814-.453 2.095-2.423 3.551-2.982 5.654-.888 3.2 1.829 6.125 3.817 8.788 7.368 9.889 6.4 23.576 3.879 35.64a184.021 184.021 0 01-8.388 28.405c-1.11 2.867-2.335 5.779-4.518 7.927 4.083-1.172 8.424-2.352 12.516-1.216 5.184 1.438 9.658 6.471 14.913 5.326 3.16-.7 5.379-3.506 8.22-5.06 5.326-2.867 11.744-1.065 17.682-.142a6.941 6.941 0 003.861-.2 6.417 6.417 0 002.343-2.157 21.889 21.889 0 004.563-11.806 15.143 15.143 0 00-4.359-11.65c-1.26-1.19-2.77-2.148-3.737-3.551a11.025 11.025 0 01-1.465-5.379c-.7-9.764 1.678-19.733-.772-29.178-.888-3.364-2.335-6.587-2.725-10.031-.488-4.287.675-8.877-1.03-12.8a12.553 12.553 0 00-7.483-6.462 41 41 0 00-9.977-1.775c-4.865-.408-22.236-2.494-24.269 3.853z" fill="#33313f"/><g opacity=".1"><path d="M760.632 434.228a183.654 183.654 0 01-8.344 28.29c.613-1.216 1.127-2.494 1.616-3.764a183.065 183.065 0 008.388-28.405c2.53-12.072 3.5-25.742-3.87-35.64-1.775-2.361-4.057-4.918-3.977-7.687a9.46 9.46 0 00-1.509 2.787c-.888 3.2 1.829 6.125 3.817 8.788 7.368 9.88 6.4 23.565 3.879 35.631zM756.026 383.249a8.638 8.638 0 001.562-2.991 15.209 15.209 0 00-.107-3.959 4.269 4.269 0 00-1.474 2.033c-.523 1.571.081 3.275.019 4.917zM808.931 463.215a6.39 6.39 0 01-2.344 2.148 6.781 6.781 0 01-3.861.2c-5.939-.888-12.427-2.716-17.682.151-2.849 1.544-5.06 4.35-8.229 5.06-5.246 1.172-9.72-3.861-14.9-5.326-3.675-1.021-7.545-.177-11.247.888a15.51 15.51 0 01-2.938 4.243c4.083-1.172 8.424-2.352 12.516-1.216 5.184 1.438 9.658 6.471 14.913 5.326 3.16-.7 5.379-3.506 8.22-5.06 5.326-2.867 11.744-1.065 17.682-.142a6.942 6.942 0 003.861-.2 6.417 6.417 0 002.344-2.157 23.857 23.857 0 003.675-7.03 25.805 25.805 0 01-2.006 3.116z"/></g></g><g transform="translate(27.858 10309)" opacity=".8"><path d="M502.081 63.404c-106.251-81.9-254.071-85.245-361.912-5.448-57.005 42.185-101.205 106.722-93.163 204.987 2.842 34.758 10.752 63.272 22.291 86.615 46.74 94.628 238.715 90.984 249.376 90.97q10.361-.01 20.722.463a454.465 454.465 0 0171.97 9.1c33.8 7.046 76.838 10.586 115.288-2.759a133.649 133.649 0 0018.987-8.256c21.13-11.229 44.784-21.96 58.612-48.593 10.392-19.989 17.963-45.053 21.612-76.268 13.255-113.693-53.012-196.257-123.783-250.811z" fill="#3f3d56"/><ellipse cx="303.827" cy="28.52" rx="303.827" ry="28.52" transform="translate(36.033 413.833)" fill="#3f3d56"/><ellipse cx="289.185" cy="13.701" rx="289.185" ry="13.701" transform="translate(29.231 428.966)" opacity=".1"/><path d="M481.346 60.39v32H439.69v348.944h86.935V60.39zM251.934 275.312v-54.937h-53.127v54.937h-19.922v166.624h92.368V275.312z" fill="#575a89"/><path fill="#f2f2f2" d="M189.148 364.662h71.842v77.879h-71.842z"/><path opacity=".1" d="M189.148 364.662h11.471v77.879h-11.471z"/><path d="M408.9 42.882v18.715H302.646V42.882h-31.393v399.659H439.69V42.882z" fill="#f2f2f2"/><path opacity=".1" d="M408.9 42.882h23.545v18.715H408.9zM271.253 42.882h23.545v399.659h-23.545z"/><path d="M151.115 156.984v-15.093h-15.7v15.093h-28.372v285.557h71.842V156.984z" fill="#f2f2f2"/><path opacity=".1" d="M135.418 141.891h8.452v15.093h-8.452zM107.043 156.984h8.452v285.557h-8.452zM408.9 196.83h23.545v245.712H408.9zM157.152 156.984h21.734v52.523h-21.734z"/><path fill="#ff6584" d="M297.213 93.595h33.808v14.489h-33.808zM369.055 242.712h33.808v14.489h-33.808zM297.213 347.154h33.808v14.489h-33.808zM126.362 222.186h33.808v14.489h-33.808zM208.467 373.114h33.808v14.489h-33.808z"/><path opacity=".1" d="M196.392 287.99h57.957v24.149h-57.957zM449.953 120.158h57.957v24.149h-57.957zM449.953 171.474h57.957v24.149h-57.957zM449.953 222.789h57.957v24.149h-57.957zM449.953 274.105h57.957v24.149h-57.957zM449.953 325.42h57.957v24.149h-57.957zM449.953 376.737h57.957v24.149h-57.957z"/><path d="M546.547 229.43v-65.8h-42.26v65.8h-15.093v213.111h71.843V229.43z" fill="#f2f2f2"/><path opacity=".1" d="M504.287 163.625h13.282v65.805h-13.282zM489.194 229.43h13.282v213.112h-13.282zM525.417 336.288h35.619v21.13h-35.619z"/><path fill="#ff6584" d="M526.625 304.895h33.808v14.489h-33.808z"/><path d="M666.25 319.522c0 53.786-31.975 72.566-71.418 72.566s-71.418-18.78-71.418-72.566 71.418-122.209 71.418-122.209 71.418 68.423 71.418 122.209z" fill="#b5d653"/><path d="M592.234 383.86l.724-45.014 30.441-55.688-30.325 48.624.329-20.24 20.98-40.29-20.89 34.935.593-36.4 22.462-32.077-22.367 26.352.37-66.75-2.322 88.364.189-3.645-22.841-34.961 22.479 41.959-2.136 40.653-.066-1.079-26.328-36.791 26.253 40.6-.272 5.085-.05.076.025.417-5.391 103.152h7.213l.865-53.277 26.184-40.5z" fill="#3f3d56"/><path d="M142.835 320.105c0 53.786-31.975 72.566-71.418 72.566S-.001 373.891-.001 320.105s71.418-122.21 71.418-122.21 71.418 68.424 71.418 122.21z" fill="#b5d653"/><path d="M68.816 384.442l.731-45.014 30.44-55.688-30.325 48.627.329-20.24 20.979-40.29-20.891 34.934.591-36.4 22.469-32.079-22.372 26.352.37-66.75-2.328 88.363.191-3.645-22.84-34.955 22.474 41.958-2.128 40.656-.063-1.079-26.331-36.791 26.251 40.6-.266 5.084-.048.077.021.417-5.4 103.146h7.214l.865-53.277 26.187-40.5z" fill="#3f3d56"/></g><g transform="translate(125.721 10577.638)"><ellipse cx="244.61" cy="22.009" rx="244.61" ry="22.009" transform="translate(28.986 233.345)" fill="#3f3d56"/><path d="M492.423 232.92c0 33.663-46.922 23.251-104.373 23.251s-103.675 10.412-103.675-23.251 46.916-40.985 104.366-40.985 103.682 7.322 103.682 40.985z" opacity=".1"/><path d="M492.423 226.632c0 33.663-46.922 23.251-104.373 23.251s-103.675 10.413-103.675-23.251 46.916-40.985 104.366-40.985 103.682 7.322 103.682 40.985z" fill="#3f3d56"/><path d="M296.278 121.173l-2.126 2.469s-25.852 2.427-24.8 6.624 31.125-5.6 31.125-5.6z" fill="#ffc1c7"/><path d="M343.138 119.075s-27.628 9.792-42.666 5.6l6.995 13.989s35.671-1.054 41.971-7.349-6.3-12.24-6.3-12.24z" fill="#b5d653"/><path d="M343.138 119.075s-27.628 9.792-42.666 5.6l6.995 13.989s35.671-1.054 41.971-7.349-6.3-12.24-6.3-12.24z" opacity=".1"/><circle cx="18.535" cy="18.535" transform="translate(305.896 6.988)" fill="#ffc1c7" r="18.535"/><path d="M340.236 42.925a14.458 14.458 0 002.4 3.329 30.318 30.318 0 008.934 6.685 304.458 304.458 0 01-31.834 4.734c1.128-3.974-.357-8.224-2.353-11.84s-4.541-6.987-5.79-10.924l12.528.337c2.273.061 4.554.129 6.826.018 1.7-.083 4.529-1.1 6.114-.726 3.355.792 1.713 5.414 3.175 8.387z" fill="#ffc1c7"/><path d="M382.311 129.916l10.492 12.59s17.486 40.917-20.634 45.114-66.447-3.148-66.447-3.148-15.388-7.344-15.737-1.749-1.753 21.334-10.143 36.724l-7.344 16.787s-3.847 3.847-2.8 9.093-23.431 6.995-23.082 0c0 0 3.5-5.945 3.5-9.443s5.6-11.891 5.6-11.891l10.142-50.36s-.7-25.879 23.082-20.983 57.7-1.049 57.7-1.049l7.694-26.929z" fill="#2f2e41"/><path d="M382.311 129.916l10.492 12.59s17.486 40.917-20.634 45.114-66.447-3.148-66.447-3.148-15.388-7.344-15.737-1.749-1.753 21.334-10.143 36.724l-7.344 16.787s-3.847 3.847-2.8 9.093-23.431 6.995-23.082 0c0 0 3.5-5.945 3.5-9.443s5.6-11.891 5.6-11.891l10.142-50.36s-.7-25.879 23.082-20.983 57.7-1.049 57.7-1.049l7.694-26.929z" opacity=".1"/><path d="M342.966 128.995s32-12.019 49.835 13.511c0 0 4.546 39.519-13.639 41.267s-41.967 1.4-47.562-4.546-40.917-22.732-40.917-22.732-17.583-8.968-21.032 2.685-3.8 14.451-3.8 14.451-18.186 13.289-25.53 15.737c0 0-4.9 6.995-7.694 6.995s-19.934 3.847-18.186-9.093l28.328-25.879 28.326-27.629s8.044-11.891 28.677-5.6a426.6 426.6 0 0041.623 10.147z" fill="#2f2e41"/><path d="M268.65 244.625s6.645 16.787 1.049 18.885-17.486.7-17.486.7-13.989-1.749-17.486-1.4-17.836-2.448-15.738-8.044 12.94-4.2 12.94-4.2l9.792-4.547s1.049-3.5 3.5-2.1 9.44 6.651 23.429.706zM232.279 194.964s7.344 16.437-4.546 15.038-20.983-3.847-24.481-4.2c-3.364-.336-12.876-3.585-11.417-10.057a5.753 5.753 0 00.095-1.27c0-.869 1.18-2.574 10.623-2.311 0 0 6.995 0 9.792-4.9 0 .007 10.491 13.296 19.934 7.7z" fill="#cbceda"/><path d="M311.666 55.075s25.18-15.737 46.163 0 34.973 87.431 34.973 87.431l-48.611-10.841s-2.1-8.393-4.9-9.792-3.147-7.344-3.147-7.344-15.038-4.546-13.989-22.033-10.489-37.421-10.489-37.421z" fill="#b5d653"/><path d="M324.605 55.775h-12.939s-7.694 8.743-8.743 30.776l-4.2 17.486s-8.743 20.983-3.5 24.481 15.388 3.147 17.486-3.847 16.437-47.562 16.437-47.562z" fill="#b5d653"/><path d="M320.898 1.401a18.736 18.736 0 0119.381 3.178c6.716 5.994 8.072 15.772 9.769 24.612s5.114 18.685 13.446 22.094a35.031 35.031 0 01-11.288-.328l12.591 11.28-21.21-6.913c-6.657-2.17-13.648-4.367-20.542-3.141-11.42 2.03-19.37 12.766-30.339 16.537l1.219-5.948-7.359-.056a14.414 14.414 0 004.216-4.94 4.08 4.08 0 00-2.815-1.473c-3.068-19.134 8.295-38.048 23.1-50.549 2.912-2.459 6.135-4.82 9.9-5.436s8.153 1.067 9.461 4.647" fill="#2e2d35"/><path d="M.004 176.759c0 40.255 25.254 72.828 56.462 72.828" fill="#3f3d56"/><path d="M56.462 249.582c0-40.707 28.181-73.646 63.008-73.646M20.457 180.408c0 38.237 16.1 69.179 36 69.179" fill="#b5d653"/><path d="M56.462 249.587c0-52.014 32.573-94.1 72.828-94.1" fill="#3f3d56"/><path d="M44.587 250.1s8.007-.247 10.42-1.965 12.317-3.77 12.916-1.014 12.033 13.707 2.993 13.78-21.005-1.408-23.414-2.875-2.915-7.926-2.915-7.926z" fill="#a8a8a8"/><path d="M71.075 259.941c-9.04.073-21.005-1.408-23.414-2.875-1.834-1.117-2.565-5.126-2.81-6.976l-.267.01s.507 6.458 2.916 7.925 14.374 2.948 23.414 2.875c2.61-.021 3.511-.949 3.461-2.325-.362.831-1.358 1.35-3.3 1.366z" opacity=".2"/></g></g></svg>