<svg xmlns="http://www.w3.org/2000/svg" xmlns:xlink="http://www.w3.org/1999/xlink" width="824.362" height="632.999" viewBox="0 0 824.362 632.999"><defs><linearGradient id="a" x1="0.5" y1="1" x2="0.5" gradientUnits="objectBoundingBox"><stop offset="0" stop-color="gray" stop-opacity="0.251"/><stop offset="0.54" stop-color="gray" stop-opacity="0.122"/><stop offset="1" stop-color="gray" stop-opacity="0.102"/></linearGradient><linearGradient id="b" x1="0.5" x2="0.5" xlink:href="#a"/></defs><g transform="translate(0.01 0.019)"><path d="M874.172,452.032c-.739.539-1.418,1.063-2.142,1.573a72.217,72.217,0,0,1-8.368,5.1c-15.2,8.013-33.936,11.927-52.185,14.586-40.93,5.967-82.716,7.127-124.325,8.264-112.428,3.087-225.128,6.167-337.283-.945-44.312-2.806-89.6-7.5-129.754-21.9q-8.633-3.087-16.927-6.809c-11.189-5.029-21.935-11.152-30.871-18.463-8.4-6.854-15.206-14.726-19.276-23.678-8.486-18.641-4-39.578,5.694-57.85a179.773,179.773,0,0,1,13.582-21.248c7.481-10.288,15.731-20.28,23.256-30.561,26.779-36.543,44.253-82.775,19.534-120.256-7.1-10.768-17.37-20.221-23.161-31.462-7.385-14.379-6.817-30.346-4.468-45.856q.458-2.954.967-5.849c4.01-23,11.558-47.776,34.829-62.133,24.172-14.918,58.5-14.165,88.5-8.862,46.653,8.331,89.688,25.672,133.18,41.329s88.994,29.962,136.792,31.5C623.956,99.868,673.187,89.7,701.2,63.266c27.208-25.672,78.351-27.629,115.212-12.119,25.3,10.642,44.179,29.815,52.141,51.38a67.07,67.07,0,0,1,3.464,13.382,61.713,61.713,0,0,1,.62,12.622c-.111,2.083-.325,4.143-.62,6.182-6.159,42.555-50.494,76.121-77.443,114.134-13.168,18.567-22.466,40.871-13.412,60.892C794.972,340.247,843,351.1,872,373.8a68.241,68.241,0,0,1,14.254,14.623C900.324,408.628,895.132,435.917,874.172,452.032Z" transform="translate(-69.79 -21.662)" fill="#b5d653" opacity="0.1"/><g transform="translate(-0.01 -0.019)"><path d="M245.412,294.848s-33.973-60.206-85.168-77.546a104.713,104.713,0,0,1-53.057-39.689A175.772,175.772,0,0,1,91.53,149.46" transform="translate(-54.869 -54.913)" fill="none" stroke="#535461" stroke-miterlimit="10" stroke-width="2"/><path d="M46.358,125.431c5.834,5.635,33,11.543,33,11.543S72.709,110,66.86,104.338a14.718,14.718,0,1,0-20.5,21.123Z" transform="translate(-41.89 -42.028)" fill="#b5d653"/><path d="M64.551,190.139c7.969,1.58,33.973-8.264,33.973-8.264S78.251,162.85,70.275,161.269a14.717,14.717,0,1,0-5.724,28.873Z" transform="translate(-44.714 -57.926)" fill="#b5d653"/><path d="M137.418,261.919c7.681-2.659,25.11-24.276,25.11-24.276s-27.09-6.2-34.763-3.538a14.719,14.719,0,1,0,9.6,27.813Z" transform="translate(-61.636 -76.871)" fill="#b5d653"/><path d="M207.94,302.867c8.021-1.329,28.877-19.682,28.877-19.682s-25.649-10.687-33.67-9.365a14.72,14.72,0,0,0,4.793,29.047Z" transform="translate(-80.83 -87.399)" fill="#b5d653"/><path d="M134.969,155.408c0,8.124-14.7,31.705-14.7,31.705s-14.726-23.567-14.734-31.691a14.719,14.719,0,1,1,29.431,0Z" transform="translate(-58.531 -52.537)" fill="#b5d653"/><path d="M215.939,203.422c-2.43,7.755-23.515,25.849-23.515,25.849s-7-26.92-4.6-34.711a14.719,14.719,0,0,1,28.064,8.8Z" transform="translate(-79.915 -64.164)" fill="#b5d653"/><path d="M287.566,262.644c-1.078,8.057-18.8,29.453-18.8,29.453s-11.447-25.317-10.34-33.375a14.718,14.718,0,1,1,29.174,3.922Z" transform="translate(-98.486 -80.145)" fill="#b5d653"/><path d="M46.358,125.431c5.834,5.635,33,11.543,33,11.543S72.709,110,66.86,104.338a14.718,14.718,0,1,0-20.5,21.123Z" transform="translate(-41.89 -42.028)" opacity="0.25"/><path d="M64.551,190.139c7.969,1.58,33.973-8.264,33.973-8.264S78.251,162.85,70.275,161.269a14.717,14.717,0,1,0-5.724,28.873Z" transform="translate(-44.714 -57.926)" opacity="0.25"/><path d="M137.418,261.919c7.681-2.659,25.11-24.276,25.11-24.276s-27.09-6.2-34.763-3.538a14.719,14.719,0,1,0,9.6,27.813Z" transform="translate(-61.636 -76.871)" opacity="0.25"/><path d="M207.94,302.867c8.021-1.329,28.877-19.682,28.877-19.682s-25.649-10.687-33.67-9.365a14.72,14.72,0,0,0,4.793,29.047Z" transform="translate(-80.83 -87.399)" opacity="0.25"/><path d="M134.969,155.408c0,8.124-14.7,31.705-14.7,31.705s-14.726-23.567-14.734-31.691a14.719,14.719,0,1,1,29.431,0Z" transform="translate(-58.531 -52.537)" opacity="0.25"/><path d="M215.939,203.422c-2.43,7.755-23.515,25.849-23.515,25.849s-7-26.92-4.6-34.711a14.719,14.719,0,0,1,28.064,8.8Z" transform="translate(-79.915 -64.164)" opacity="0.25"/><path d="M287.566,262.644c-1.078,8.057-18.8,29.453-18.8,29.453s-11.447-25.317-10.34-33.375a14.718,14.718,0,1,1,29.174,3.922Z" transform="translate(-98.486 -80.145)" opacity="0.25"/><path d="M268.3,275.561s-6.647-68.817-46.439-105.419a104.681,104.681,0,0,1-32.422-57.783,175.882,175.882,0,0,1-2.9-32.089" transform="translate(-79.711 -36.823)" fill="none" stroke="#535461" stroke-miterlimit="10" stroke-width="2"/><path d="M152.4,41.676c3.043,7.54,25.5,23.9,25.5,23.9s4.837-27.363,1.8-34.9a14.729,14.729,0,1,0-27.326,11Z" transform="translate(-70.5 -21.441)" fill="#b5d653"/><path d="M142.792,108.214c6.647,4.675,34.394,6.2,34.394,6.2s-10.76-25.6-17.407-30.273a14.73,14.73,0,0,0-16.986,24.069Z" transform="translate(-66.641 -37.131)" fill="#b5d653"/><path d="M180.421,203.358c8.124.687,32.821-12.009,32.821-12.009s-22.252-16.639-30.354-17.319a14.719,14.719,0,1,0-2.467,29.327Z" transform="translate(-74.5 -61.316)" fill="#b5d653"/><path d="M228.248,269.355c7.873,2.038,34.379-6.292,34.379-6.292s-19.121-20.162-26.986-22.2a14.718,14.718,0,1,0-7.386,28.495Z" transform="translate(-87.734 -78.687)" fill="#b5d653"/><path d="M221.207,105.108c-3.286,7.43-26.285,23.02-26.285,23.02s-3.914-27.5-.628-34.94a14.718,14.718,0,1,1,26.914,11.921Z" transform="translate(-81.395 -37.909)" fill="#b5d653"/><path d="M273.681,181.464c-5.362,6.108-31.971,14.106-31.971,14.106s4.49-27.414,9.859-33.522a14.713,14.713,0,0,1,22.112,19.416Z" transform="translate(-94.135 -56.896)" fill="#b5d653"/><path d="M316.687,264.857c-4.254,6.927-29.128,19.305-29.128,19.305s-.207-27.784,4.047-34.711a14.73,14.73,0,1,1,25.11,15.406Z" transform="translate(-106.123 -79.219)" fill="#b5d653"/></g><ellipse cx="82.369" cy="10.724" rx="82.369" ry="10.724" transform="translate(219.07 607.56)" fill="#b5d653" opacity="0.1"/><g transform="translate(107.94 569.762)"><ellipse cx="25.022" cy="4.284" rx="25.022" ry="4.284" transform="translate(2.1 43.411)" fill="#b5d653" opacity="0.1"/><path d="M228.183,792.94s4.055,5.31-1.876,13.294S215.488,821,217.445,826c0,0,8.944-14.882,16.248-15.088S236.2,801.891,228.183,792.94Z" transform="translate(-195.626 -792.94)" fill="#b5d653"/><path d="M228.27,792.94a6.522,6.522,0,0,1,.827,1.669c7.1,8.345,10.893,16.137,4.062,16.329-6.359.185-14,11.558-15.819,14.431a6.828,6.828,0,0,0,.214.657s8.944-14.881,16.248-15.088S236.291,801.891,228.27,792.94Z" transform="translate(-195.713 -792.94)" opacity="0.1"/><path d="M242.018,801.672c0,1.869-.207,3.382-.465,3.382s-.473-1.477-.473-3.382.266-.99.524-.99S242.018,799.8,242.018,801.672Z" transform="translate(-201.92 -794.907)" fill="#ffd037"/><path d="M244.725,804.665c-1.64.894-3.072,1.433-3.2,1.2s1.108-1.137,2.747-2.031.99-.244,1.115,0S246.364,803.772,244.725,804.665Z" transform="translate(-202.035 -795.67)" fill="#ffd037"/><path d="M199.895,792.94s-4.055,5.31,1.876,13.294S212.59,821,210.633,826c0,0-8.944-14.882-16.248-15.088S191.889,801.891,199.895,792.94Z" transform="translate(-188.77 -792.94)" fill="#b5d653"/><path d="M199.889,792.94a6.521,6.521,0,0,0-.827,1.669c-7.1,8.345-10.893,16.137-4.062,16.329,6.366.185,14,11.558,15.819,14.431a5.248,5.248,0,0,1-.214.657s-8.944-14.882-16.248-15.088S191.883,801.891,199.889,792.94Z" transform="translate(-188.764 -792.94)" opacity="0.1"/><path d="M192.91,801.672c0,1.869.207,3.382.465,3.382s.473-1.477.473-3.382-.266-.99-.524-.99S192.91,799.8,192.91,801.672Z" transform="translate(-189.326 -794.907)" fill="#ffd037"/><path d="M189.056,804.665c1.64.894,3.065,1.433,3.19,1.2s-1.108-1.137-2.747-2.031-.99-.244-1.115,0S187.417,803.772,189.056,804.665Z" transform="translate(-188.057 -795.67)" fill="#ffd037"/><path d="M194.66,834.629s11.344-.354,14.771-2.784,17.444-5.347,18.294-1.44,17.045,19.416,4.239,19.52-29.756-1.994-33.168-4.069S194.66,834.629,194.66,834.629Z" transform="translate(-189.783 -802.237)" fill="#a8a8a8"/><path d="M232.185,850.731c-12.806.1-29.756-1.994-33.168-4.069-2.6-1.588-3.634-7.267-3.981-9.882h-.377s.739,9.143,4.128,11.226,20.361,4.173,33.168,4.069c3.693,0,4.978-1.344,4.9-3.294C236.35,849.978,234.94,850.709,232.185,850.731Z" transform="translate(-189.783 -804.403)" opacity="0.2"/><path d="M697.743,836.2s-31.225-1.883-27.54,20a5.323,5.323,0,0,0,2.77,5.62s.059-1.617,3.205-1.071a14.3,14.3,0,0,0,3.39.162,7.015,7.015,0,0,0,4.151-1.713h0s8.774-3.619,12.186-17.969c0,0,2.526-3.131,2.43-3.936l-5.273,2.216s1.8,3.8.384,6.964c0,0-.17-6.824-1.182-6.647-.207,0-2.74,1.315-2.74,1.315s3.1,6.647.739,11.432c0,0,.886-8.124-1.728-10.953l-3.693,2.164s3.619,6.839,1.167,12.422c0,0,.628-8.56-1.942-11.9l-3.36,2.622s3.4,6.743,1.322,11.373c0,0-.266-9.963-2.053-10.716,0,0-2.954,2.592-3.39,3.693,0,0,2.326,4.889.886,7.474,0,0-.886-6.647-1.617-6.647,0,0-2.954,4.431-3.235,7.385a16.08,16.08,0,0,1,2.526-7.836,8.818,8.818,0,0,0-4.483,2.326s.458-3.109,5.17-3.383c0,0,2.422-3.338,3.072-3.538,0,0-4.727-.4-7.592.872,0,0,2.518-2.954,8.456-1.6l3.316-2.7s-6.218-.857-8.862.089c0,0,3.043-2.6,9.756-.739l3.619-2.157s-5.31-1.145-8.471-.739c0,0,3.338-1.8,9.527.148l2.585-1.159s-3.892-.739-5.029-.879-1.2-.436-1.2-.436a13.486,13.486,0,0,1,7.3.812S697.839,836.543,697.743,836.2Z" transform="translate(-314.041 -804.239)" fill="#b5d653"/><ellipse cx="22.097" cy="3.737" rx="22.097" ry="3.737" transform="translate(340.099 55.745)" fill="#b5d653" opacity="0.1"/><path d="M627.978,837.782s-17.607-1.063-15.509,11.277a3.013,3.013,0,0,0,1.566,3.168s0-.916,1.809-.606a8.614,8.614,0,0,0,1.905.1,4.04,4.04,0,0,0,2.341-.968h0s4.948-2.046,6.876-10.133c0,0,1.418-1.765,1.366-2.216l-2.954,1.263a5.353,5.353,0,0,1,.214,3.929s-.1-3.848-.665-3.759c-.118,0-1.544.739-1.544.739s1.743,3.693.428,6.447c0,0,.495-4.6-.975-6.182l-2.09,1.226s2.038,3.855.657,7c0,0,.354-4.83-1.1-6.706l-1.891,1.477s1.913,3.8.739,6.411c0,0-.155-5.62-1.159-6.041a11.552,11.552,0,0,0-1.913,2.061s1.315,2.762.5,4.217c0,0-.5-3.744-.908-3.759a12.406,12.406,0,0,0-1.824,4.18,8.973,8.973,0,0,1,1.418-4.431,4.962,4.962,0,0,0-2.526,1.307s.258-1.758,2.954-1.906a11.181,11.181,0,0,1,1.728-1.994,10.82,10.82,0,0,0-4.284.487s1.425-1.654,4.771-.9l1.869-1.529s-3.508-.48-4.993.052c0,0,1.713-1.477,5.5-.4l2.031-1.211a18.252,18.252,0,0,0-4.771-.414s1.883-1.012,5.369.081l1.477-.65s-2.216-.436-2.829-.5-.679-.244-.679-.244a7.621,7.621,0,0,1,4.121.458A17.406,17.406,0,0,0,627.978,837.782Z" transform="translate(-298.979 -804.658)" fill="#b5d653"/><ellipse cx="12.459" cy="2.105" rx="12.459" ry="2.105" transform="translate(304.413 46.543)" fill="#b5d653" opacity="0.1"/><path d="M672.192,802.37s-21.248-1.285-18.744,13.611a3.634,3.634,0,0,0,1.891,3.826s0-1.1,2.179-.739a10.482,10.482,0,0,0,2.3.111,4.867,4.867,0,0,0,2.829-1.167h0s5.975-2.467,8.294-12.238c0,0,1.721-2.127,1.654-2.674l-3.589,1.529s1.226,2.592.266,4.741c0,0-.118-4.645-.812-4.535-.133,0-1.861.894-1.861.894s2.112,4.512.517,7.784c0,0,.606-5.554-1.174-7.459l-2.526,1.477s2.467,4.653.8,8.456c0,0,.428-5.827-1.329-8.124l-2.289,1.78s2.319,4.586.908,7.74c0,0-.185-6.78-1.4-7.3a13.9,13.9,0,0,0-2.3,2.489s1.588,3.331.6,5.089c0,0-.6-4.512-1.093-4.535,0,0-1.994,2.954-2.216,5.044a10.864,10.864,0,0,1,1.713-5.332,6,6,0,0,0-3.05,1.58s.31-2.12,3.545-2.3a13.89,13.89,0,0,1,2.09-2.408,13.15,13.15,0,0,0-5.17.6s1.713-2,5.761-1.093l2.26-1.839s-4.239-.583-6.034.059c0,0,2.068-1.765,6.647-.48l2.459-1.477a24.227,24.227,0,0,0-5.761-.495s2.267-1.226,6.484.1l1.758-.783s-2.651-.524-3.427-.606-.812-.3-.812-.3a9.181,9.181,0,0,1,4.97.554S672.265,802.607,672.192,802.37Z" transform="translate(-309.685 -795.398)" fill="#b5d653"/><ellipse cx="15.044" cy="2.541" rx="15.044" ry="2.541" transform="translate(332.832 23.168)" fill="#b5d653" opacity="0.1"/></g><g transform="translate(100.992 70.555)"><path d="M881.257,478.241V117H178.65V457.517c8.973,7.489,19.763,13.788,31.019,18.966q8.316,3.833,16.986,7.009h646.22Z" transform="translate(-178.65 -117)" fill="url(#a)"/><path d="M880.442,482.049V131H180.73V461.938c8.936,7.282,19.682,13.4,30.871,18.463q8.286,3.693,16.927,6.809H872.075Z" transform="translate(-179.194 -120.66)" fill="#fff"/><rect width="699.705" height="18.567" transform="translate(1.544 1.027)" fill="#5a5773"/></g><g transform="translate(111.709 76.064)"><circle cx="4.8" cy="4.8" r="4.8" fill="#fff"/><circle cx="4.8" cy="4.8" r="4.8" transform="translate(12.924)" fill="#fff"/><circle cx="4.8" cy="4.8" r="4.8" transform="translate(25.849)" fill="#fff"/></g><g transform="translate(121.309 130.952)"><rect width="115.581" height="72.628" transform="translate(160.034)" fill="#b5d653"/><rect width="115.581" height="72.628" fill="#5a5773" opacity="0.2"/><rect width="115.581" height="72.628" transform="translate(320.067)" fill="#5a5773" opacity="0.2"/><rect width="115.581" height="72.628" transform="translate(0 103.831)" fill="#5a5773" opacity="0.2"/><rect width="115.581" height="72.628" transform="translate(160.034 103.831)" fill="#5a5773" opacity="0.2"/><rect width="115.581" height="72.628" transform="translate(320.067 103.831)" fill="#5a5773" opacity="0.2"/><rect width="115.581" height="72.628" transform="translate(0 207.654)" fill="#5a5773" opacity="0.2"/><rect width="115.581" height="72.628" transform="translate(160.034 207.654)" fill="#5a5773" opacity="0.2"/><rect width="115.581" height="72.628" transform="translate(320.067 207.654)" fill="#5a5773" opacity="0.2"/></g><g transform="translate(254.497 149.089)"><path d="M508.263,387.191S487.5,349.245,491,343.071s6.078-15.11,6.078-15.11,7.666-5.244,7.666-7.385,6.071-7.1,9.269-9.254,1.6-12.341,0-13.574-4.128-5.554-4.128-5.554,2.216-6.167,0-8.021.325-3.693,0-5.554a74.526,74.526,0,0,1,0-8.634c-2.592-3.6-5.465-5.288-8.168-5.908l-.236-.975-1.366-5.753s6.647-12.74-4.136-19.409a18.023,18.023,0,0,0-2.385-1.256,8.27,8.27,0,0,0-.059-.835,52.2,52.2,0,0,0-1.566-9.756c-.561-1.787-1.292-2.991-2.216-2.718a1.477,1.477,0,0,0-.606.347A6.737,6.737,0,0,0,488,225.075h0a.3.3,0,0,1-.052.081,23.162,23.162,0,0,0-2.541,7.053,40.734,40.734,0,0,0-.739,4.431h0a24.369,24.369,0,0,0-1.233,2.74c-1.307,3.39-2.836,9.261-.052,13.6,2.363,3.693,5.546,8.766,7.858,12.459l.074.118.14.229-.244.155v.569l.214,3.109,1.787,26.868a11.413,11.413,0,0,0-1.64-.347,14.892,14.892,0,0,0-2.385-.155c-1.558-6.122-5.835-11.817-6.647-18.212a16.875,16.875,0,0,1-.126-1.928c.067-4.025,1.071-8.065.99-12.082,0-.739,0-1.477-.074-2.216h0a5.925,5.925,0,0,0-.059-.613,18.16,18.16,0,0,0-9.874-13.759c-1.854-.923-3.863-1.536-5.665-2.548-4.165-2.334-6.831-6.543-10.613-9.431-2.814-2.149-7.016-3.3-10.155-2.216A46.884,46.884,0,0,0,442.031,234h0a44.571,44.571,0,0,0-11.307,4.7c-.48.288-.96.583-1.418.923a6.248,6.248,0,0,0-2.282,2.666,6.987,6.987,0,0,0-.354,2.873c0,.7,0,1.418.044,2.12-.207,11.817-12.939,20.96-13.988,32.5,0,.273-.044.547-.059.82v1.263h0v.923c.185,5.059,2.814,9.771,3.294,14.808.044.451.066.894.074,1.344a22.332,22.332,0,0,1-1.307,6.78,19.845,19.845,0,0,0-4.586,1.861c-3.87,2.489-10.857,6.787-13.4,15.007a21.98,21.98,0,0,0-.967,6.588,137.559,137.559,0,0,1-2.157,23.522,43.965,43.965,0,0,1-1.359,5.783,1.359,1.359,0,0,0-.044.569l-1.536,19.941-.273,3.508-.384,4.993s.111.3.273.812a23.477,23.477,0,0,1,.606,2.3,12.392,12.392,0,0,1,.2,5.17,3.56,3.56,0,0,1-1.078,1.9.8.8,0,0,0-.126.14c-.436.613-.827,2.437-1.167,5.081-.133,1.034-.258,2.216-.384,3.442-.739,7.865-1.2,19.638-1.477,29.372-.266,9.6-.362,17.186-.362,17.186a19.6,19.6,0,0,0,3.966,1.964c-.1.258-.214.524-.318.805a38.8,38.8,0,0,0-2.408,10.147c-.62,7.26,1.411,15.325,11.536,19.475a16.288,16.288,0,0,0,1.987.679c2.216.591,3.848.428,5.052-.31,0,.436.052.857.074,1.278.1,1.8.192,3.449.236,4.83.318,8.641,2.459,23.751,2.459,23.751s.739,6.174.1,8.021,0,9.254,0,9.254,2.216,3.693,0,5.554-2.873,11.078-2.216,12.341a.415.415,0,0,1,.037.14c.487,3.065-2.267,48.6-2.267,48.6s-2.607,6.972-4.682,14.209c-2.024,7.046-3.545,14.342-1.669,15.709.931.679,3.094,1.189,5.842,1.581,0,.3-.044.606-.074.916-.266,3.257-.687,6.765-1.292,7.651-.879,1.255-1.8,10.989-2.253,16.248l-.044.583a54.426,54.426,0,0,0-2.378,6.9s-7.068,17.725-4.675,22.326a3.775,3.775,0,0,0,.879,1.086h0a1.992,1.992,0,0,0,.229.207c3.4,2.725,11.935,3.294,15.029,3.419l-.118,4.387v.162h4.025V694.7c0-.554.089-3.094.221-6.492,0-.606.044-1.241.074-1.891,0-.51.052-1.027.074-1.558a27.324,27.324,0,0,0,1.75-9.859,43.264,43.264,0,0,1,1.551-11.433,31.756,31.756,0,0,1,2.046-5.576s1.256-6.647-.495-11.351a8.2,8.2,0,0,0-1.477-2.555c0-.155,0-.31,0-.473v-1a42.61,42.61,0,0,1,.945-9.468,1.046,1.046,0,0,1,0-.148c.059-.258.126-.5.192-.739l.044-.162,1.307.044c4.01.111,6.957.111,6.957.111s3.2-16.351,2.88-23.441v-.96c-.111-7.046,1.935-16.624,1.935-16.624l2.578-25s-1.278-4.328,0-7.385c.79-1.905,2.422-5.443,3.56-7.88.532-1.13.953-2.016,1.13-2.4l.1-.207a4.78,4.78,0,0,1-1.137-.569h0c-1.041-.694-1.972-2.053,1.145-4.055,4.793-3.087,3.2-10.8,3.2-10.8a5.543,5.543,0,0,1,.251-5.244c1.662-2.467,0-11.721,0-11.721a38.753,38.753,0,0,0,3.279-7.718c1.189-3.693,4.195-21.75,5.613-30.457.465-2.858.739-4.7.739-4.7l.044.451.044.487h0l.4,4.114.052.547.739,7.777s1.477,20.443.554,28.456v.148a9.47,9.47,0,0,1-.539,2.43c-1.7,3.84-1.388,19.1-1.3,22.474v.679c0,.185-1.2,3.013-.9,5.214h0a3.346,3.346,0,0,0,.583,1.551,3.929,3.929,0,0,1,.569,2.4v.074a8.726,8.726,0,0,1-.089,1.063,20.28,20.28,0,0,1-1.122,4.18s-1.713,4.505-1.064,6.861h0a2.171,2.171,0,0,0,.421.835,1.972,1.972,0,0,1,.244.886.314.314,0,0,0,0,.081c.6,4.97-.945,26.912-1.861,38.921-.369,4.741-.635,7.932-.635,7.932l-2.533,26.218.251.177c.288.207.827.561,1.551.99v.059l-.111.79c-.362,2.526-.849,5.465-1.381,7.71-.044.17-.081.332-.126.487a7.067,7.067,0,0,0-2.71,1.086c-5.377,9.549-3,17.119,0,19.32.849.62,1.425,2.356,1.809,4.512l.739,9.52V682.5a2.837,2.837,0,0,0,.14.872l.229,2.888.31,4.018h2.452v-4.867h.133c3.87.133,10.111.3,12.828.081h.074a4.789,4.789,0,0,0,.739-.081,1.854,1.854,0,0,0,.428-.118c1.44-.694,5.029-10.871,1.795-13.183s-3.951-8.862-3.951-8.862c-.281-.857-.561-1.669-.849-2.445v-.5a40.62,40.62,0,0,1,.384-8.464,64.383,64.383,0,0,0,.842-10.111v-.938a12.6,12.6,0,0,0,1.647-.539l.118-.052a11.6,11.6,0,0,0,2.755-1.632l9.04-40.058.953-4.66,5.428-26.506s-1.913-9.254,0-10.79c.7-.561.894-2.954.849-5.724-.074-4.845-.849-10.938-.849-10.938s2.555-4.01,3.84-6.477,0-8.944,0-8.944l2.518-14.83s2.88-17.585,9.9-32.392c5.17-10.893,1.876-40.309-1.477-55.966-.089-.406-.177-.8-.266-1.189v-.059c1.58-.783,3.515-1.728,5.583-2.718l.783-.369c2.622-1.233,5.4-2.5,7.888-3.56l.162-.066a55.1,55.1,0,0,1,5.487-2.053,9.21,9.21,0,0,1,1.684-.347C521.682,410.632,508.263,387.191,508.263,387.191Zm-99.931,50.184h1.329c-.155.288-.3.583-.45.879-.089.177-.177.347-.259.524-.487,1.012-.938,2.046-1.307,3.058.148-1.093.332-2.282.539-3.552C408.235,438,408.287,437.67,408.331,437.375Zm-3.589,19.254a.552.552,0,0,0,0-.1l-.111-.347c-.081-.236-.155-.473-.229-.739q.687-.207,1.4-.465h.1v.244c-.037.347-.081.694-.126,1.034h0a.744.744,0,0,1,0,.133,7.184,7.184,0,0,1-.1.812c-.066.532-.133,1.049-.192,1.544-.14-.465-.281-.923-.428-1.374a3.5,3.5,0,0,1-.31-.739Z" transform="translate(-386.5 -223.338)" fill="url(#b)"/><path d="M533.943,269.347l-7.976,2.821-2.9-4.8c-2.216-3.693-5.288-8.744-7.555-12.415-4-6.455,1.233-16.292,1.233-16.292s.945-9.874,4.313-12.917,4.306,12.917,4.306,12.917c13.523,6.145,6.278,20.6,6.278,20.6l1.315,5.731Z" transform="translate(-419.839 -223.866)" fill="#efb7b9"/><path d="M537.151,283.283l-7.976,2.821-2.9-4.8v-.421a13.89,13.89,0,0,1,9.9-1.957Z" transform="translate(-423.047 -237.802)" opacity="0.1"/><path d="M523.56,315.957l4-3.383-2-30.443s10.34-7.075,17.991,4a77.706,77.706,0,0,0,0,8.611c.31,1.846-2.149,3.693,0,5.532s0,8,0,8,2.43,4.306,3.966,5.532,3.08,11.381,0,13.53-8.855,7.075-8.855,9.224-7.385,7.385-7.385,7.385l-6.484-8.574Z" transform="translate(-422.336 -238.128)" fill="#ff6484"/><path d="M402.593,565.054c-14.9-6.322-11.6-21.765-8.789-29.542a40.22,40.22,0,0,1,1.972-4.608l8.36-5.074s1.706,4.35,3.53,10.184C411.9,549.589,416.766,571.073,402.593,565.054Z" transform="translate(-387.778 -302.428)" fill="#efb7b9"/><path d="M427.392,768.316a25.109,25.109,0,0,0-2.216,6.218,44.909,44.909,0,0,0-.96,10.583c.059,2.459.266,4.069.266,4.069L407.88,800.6s.1-1.337.259-3.3c.428-5.229,1.322-14.933,2.164-16.189.583-.871.99-4.372,1.248-7.622s.362-6.1.362-6.1S431.89,759.9,427.392,768.316Z" transform="translate(-392.09 -364.785)" fill="#efb7b9"/><path d="M481.631,780.289s0,3.176-.118,6.868a70.328,70.328,0,0,1-.805,10.081,41.5,41.5,0,0,0-.377,8.434c.111,3.693.377,7.016.377,7.016s-16.949-16.026-15.221-17.3c.465-.34.923-1.706,1.344-3.523.517-2.216.982-5.17,1.329-7.681.414-2.991.672-5.4.672-5.4Z" transform="translate(-407.12 -368.568)" fill="#efb7b9"/><path d="M428.7,768.316a25.109,25.109,0,0,0-2.216,6.218,135.707,135.707,0,0,1-13.589-1.041c.251-3.176.362-6.1.362-6.1S433.2,759.9,428.7,768.316Z" transform="translate(-393.403 -364.785)" opacity="0.1"/><path d="M482.621,780.294s0,3.176-.118,6.868c-5.288,1.352-10.724-1.352-13.353-2.954.414-2.991.672-5.4.672-5.4Z" transform="translate(-408.11 -368.573)" opacity="0.1"/><path d="M500.364,544.765c-6.765,14.771-9.535,32.289-9.535,32.289l-2.459,14.771s1.233,6.455,0,8.914-3.693,6.462-3.693,6.462,1.846,15.066,0,16.6,0,10.76,0,10.76l-6.152,31.019-8.611,39.97c-8.3,6.772-19.35-1.839-19.35-1.839L453,677.576s3.693-45.789,2.157-47.665.613-7.688.613-7.688,2.157-5.539.62-7.688.3-6.765.3-6.765-.613-18.759,1.233-23.065,0-30.937,0-30.937l-.739-8.294-.428-4.594-.037-.451s-.281,1.839-.739,4.69c-1.359,8.678-4.254,26.661-5.4,30.361a39.535,39.535,0,0,1-3.154,7.688s1.6,9.224,0,11.684a5.72,5.72,0,0,0-.244,5.229s1.536,7.688-3.08,10.76,0,4.616,0,4.616-3.383,7.385-4.608,10.45,0,7.385,0,7.385l-2.459,24.9s-2.157,10.45-1.846,17.525-2.77,23.367-2.77,23.367-23.677,0-27.326-2.769,6.093-29.785,6.093-29.785,2.77-47.355,2.149-48.581,0-10.458,2.157-12.3,0-5.539,0-5.539-.613-7.385,0-9.224-.1-8-.1-8-2.061-15.066-2.363-23.677-1.846-27.976-1.846-27.976,1.61-11.979,1.854-17.681a20.081,20.081,0,0,1,2.216-7.186,64.105,64.105,0,0,1,4.579-8.035s72.857-21.536,75.914-19.394c.812.569,1.994,4.431,3.161,10.022C502.166,504.589,505.342,533.909,500.364,544.765Z" transform="translate(-391.15 -290.131)" fill="#444053"/><circle cx="21.218" cy="21.218" r="21.218" transform="translate(43.108 24.263)" fill="#a1616a"/><path d="M502.8,488.984c-2.445,1.255-4.084,2.12-4.084,2.12s-34.438,16.3-44.231,15.376c-7.577-.739-26.92-.318-35.346-.111a64.109,64.109,0,0,1,4.579-8.035s72.864-21.528,75.922-19.387C500.453,479.53,501.635,483.378,502.8,488.984Z" transform="translate(-395.034 -290.131)" opacity="0.1"/><path d="M438.9,328.881s-19.652,3.1-24.29,6.145-13.825,8.922-13.825,21.528-2.149,25.524-3.383,29.209,19.372,33.515,19.372,33.515l-7.385,45.206s29.541-.923,39.379,0,44.261-15.376,44.261-15.376,20.295-10.76,24.6-11.078-8.611-23.677-8.611-23.677-19.992-37.813-16.61-43.965,5.864-15.066,5.864-15.066l-3.693-31.358s-5.532-1.846-10.148,1.536-20.295,1.536-20.295,1.536Z" transform="translate(-389.336 -249.516)" fill="#ff6484"/><path d="M403.757,399.521l-7.71,2.149-2.134,28.936s2.77,7.688,0,10.147S390.53,495.8,390.53,495.8s8.922,6.455,19.372,1.536c0,0-1.536-5.842,3.08-27.06s4.608-31.979,4.608-31.979,0-26.447,2.156-30.753,0-15.066,0-15.066-4.306-5.842-4-7.991S403.757,399.521,403.757,399.521Z" transform="translate(-387.554 -265.423)" opacity="0.1"/><path d="M408.522,536.044a19.638,19.638,0,0,1-13.862-.5,40.225,40.225,0,0,1,1.972-4.608l8.36-5.074S406.728,530.21,408.522,536.044Z" transform="translate(-388.634 -302.436)" opacity="0.1"/><path d="M403.13,399.51l-7.688,2.149L393.293,430.6s2.77,7.688,0,10.147-3.383,55.043-3.383,55.043,8.929,6.447,19.372,1.507c0,0-1.536-5.842,3.072-27.06s4.616-31.979,4.616-31.979,0-26.447,2.149-30.753,0-15.066,0-15.066-4.306-5.842-4-7.991S403.13,399.51,403.13,399.51Z" transform="translate(-387.392 -265.412)" fill="#ff6484"/><path d="M508.847,411.15s-4,34.438-15.687,40.9C493.16,452.05,519.3,444.672,508.847,411.15Z" transform="translate(-414.388 -272.444)" opacity="0.1"/><path d="M434.88,415.32s14.446,7.068,11.078,11.986S434.88,415.32,434.88,415.32Z" transform="translate(-399.15 -273.534)" opacity="0.1"/><path d="M434.88,434.47s9.224,9.535,7.385,12.917S434.88,434.47,434.88,434.47Z" transform="translate(-399.15 -278.541)" opacity="0.1"/><path d="M535.63,327.47s3.619,6.145,3.966,10.147S535.63,327.47,535.63,327.47Z" transform="translate(-425.492 -250.564)" opacity="0.1"/><path d="M535.63,315.987s1.817-1.544,6.455,0S535.63,315.987,535.63,315.987Z" transform="translate(-425.492 -247.383)" opacity="0.1"/><path d="M502.1,557.253a42.76,42.76,0,0,1-22.488-2.88l-3.877,9.926-.428-4.594c.635-3.855,1.868-7.984,4.306-9.025C479.616,550.68,488.153,557.482,502.1,557.253Z" transform="translate(-409.721 -308.926)" opacity="0.1"/><path d="M426.18,577.07s18.914,3.922,24.217,3.227Z" transform="translate(-396.875 -315.826)" opacity="0.1"/><path d="M428.84,583.769s8.072-.347,12.1,1.27Z" transform="translate(-397.57 -317.569)" opacity="0.1"/><path d="M430.09,588.31a72.374,72.374,0,0,0,11.182,1.477Z" transform="translate(-397.897 -318.764)" opacity="0.1"/><path d="M429.46,644.823c.347-.229,16.144-3.922,18.109-1.27Z" transform="translate(-397.733 -332.959)" opacity="0.1"/><path d="M429.46,651.916s13.722-1.617,14.069,0S429.46,651.916,429.46,651.916Z" transform="translate(-397.733 -335.207)" opacity="0.1"/><path d="M429.46,657.248s14.645-3.028,16.373-2.289S429.46,657.248,429.46,657.248Z" transform="translate(-397.733 -336.16)" opacity="0.1"/><path d="M424.522,795.819l-16.6,11.418s.1-1.337.258-3.3a44.757,44.757,0,0,1,8.5-13.877c3.744-.975,6.108-.074,7.577,1.691C424.315,794.2,424.522,795.819,424.522,795.819Z" transform="translate(-392.101 -371.41)" opacity="0.1"/><path d="M423.638,806.238a41.2,41.2,0,0,0-3.464,16.986,26.343,26.343,0,0,1-3.515,13.67,13.475,13.475,0,0,1-1.167,1.669s-11.536-.1-15.576-3.442a4,4,0,0,1-1.086-1.329c-2.312-4.609,4.5-22.252,4.5-22.252,3.575-13.6,10.834-20.871,10.834-20.871C427.094,787.324,423.638,806.238,423.638,806.238Z" transform="translate(-389.599 -371.57)" fill="#444053"/><path d="M417.213,844.416a13.471,13.471,0,0,1-1.167,1.669s-11.536-.1-15.576-3.442c1.987-6.573,8.323-26.462,11.292-23.079C414.554,822.74,416.5,838.02,417.213,844.416Z" transform="translate(-390.153 -379.128)" opacity="0.1"/><path d="M420.715,820.795l-.8,29.793h3.87s.628-26.137,2.356-29.793S420.715,820.795,420.715,820.795Z" transform="translate(-395.236 -379.126)" fill="#444053"/><path d="M480.707,817.282s-16.949-16.026-15.221-17.3c.465-.34.923-1.706,1.344-3.523,3.257-.569,8.862.79,13.5,13.8C480.442,813.959,480.707,817.282,480.707,817.282Z" transform="translate(-407.12 -373.161)" opacity="0.1"/><path d="M481.705,835.321a1.719,1.719,0,0,1-.406.118c-1.994.347-9.342.148-13.456,0a2.91,2.91,0,0,1-2.814-2.9c0-1.108,0-2.459-.089-3.9-.192-4.549-.739-9.963-2.371-11.181-2.888-2.216-5.17-9.734,0-19.254,0,0,9.911-7.57,17.06,15.184,0,0,.694,6.492,3.8,8.8S483.094,834.664,481.705,835.321Z" transform="translate(-405.584 -373.327)" fill="#444053"/><path d="M483.209,842.224c-1.994.347-9.342.148-13.456,0a2.91,2.91,0,0,1-2.814-2.9c0-1.108,0-2.459-.089-3.9,1.248-5.51,3.043-11.181,5.354-12.474C472.219,822.941,479.213,822.15,483.209,842.224Z" transform="translate(-407.509 -380.112)" opacity="0.1"/><path d="M423.46,799.832l1.861,24.793h2.363v-26.9Z" transform="translate(-365.219 -357.668)" fill="#444053"/><path d="M458.282,239.12A42.407,42.407,0,0,0,439.36,245.2a7.863,7.863,0,0,0-3.567,3.582,11.873,11.873,0,0,0-.288,4.431c.2,12.718-13.98,22.341-13.537,35.051.177,5.044,2.71,9.741,3.176,14.771.775,8.39-4.188,16.107-8.944,23.057a19.1,19.1,0,0,0,13.478-4.468,102.206,102.206,0,0,1,1.883,51.513h6.8a5.17,5.17,0,0,1,1.987.244,4.992,4.992,0,0,1,1.573,1.174c6.359,6.329,10.62,15.687,8.19,24.327l14.475-5.428a43,43,0,0,0,9.992-4.764c3.013-2.142,5.539-5.251,6.174-8.9.391-2.216.266-4.86,2.09-6.145a11.374,11.374,0,0,1,2.851-1.056c3.973-1.4,5.731-6,6.543-10.133a58.347,58.347,0,0,0,.923-15.413c-.643-8.641-3.2-17.415-1.093-25.849,1.189-4.734,3.833-9.143,4.047-14.032.347-8.057-5.953-15-6.891-23.013-.657-5.583,1.359-11.233.7-16.816a18.065,18.065,0,0,0-9.505-13.715c-1.78-.916-3.693-1.529-5.45-2.541-4.01-2.326-6.573-6.514-10.214-9.394s-9.7-3.966-12.444-.222Z" transform="translate(-394.266 -227.45)" opacity="0.1"/><path d="M458.282,237.865a42.407,42.407,0,0,0-18.921,6.078,7.863,7.863,0,0,0-3.567,3.582,11.873,11.873,0,0,0-.288,4.431c.2,12.718-13.98,22.341-13.537,35.058.177,5.037,2.71,9.734,3.176,14.771.775,8.39-4.188,16.107-8.944,23.065a19.2,19.2,0,0,0,13.478-4.468,102.169,102.169,0,0,1,1.883,51.5h6.8a5.172,5.172,0,0,1,1.987.251,4.86,4.86,0,0,1,1.573,1.167c6.359,6.337,10.62,15.687,8.19,24.327l14.475-5.428a43,43,0,0,0,9.992-4.764c3.013-2.142,5.539-5.251,6.174-8.9.391-2.216.266-4.86,2.09-6.145a11.374,11.374,0,0,1,2.851-1.056c3.973-1.4,5.731-6,6.543-10.133a58.345,58.345,0,0,0,.945-15.428c-.643-8.641-3.2-17.415-1.093-25.849,1.189-4.734,3.833-9.143,4.047-14.032.347-8.057-5.953-15-6.891-23.013-.657-5.583,1.359-11.226.7-16.816a18.079,18.079,0,0,0-9.5-13.715c-1.78-.916-3.693-1.529-5.45-2.533-4.01-2.334-6.573-6.521-10.214-9.4s-9.7-3.966-12.444-.222Z" transform="translate(-394.266 -227.117)" fill="#925978"/><g transform="translate(21.934 21.766)" opacity="0.1"><path d="M442.3,252.81a8.213,8.213,0,0,0-.044.857C442.282,253.386,442.3,253.1,442.3,252.81Z" transform="translate(-423.014 -252.81)"/><path d="M514.978,288.683c.266-3.914,1.137-7.843.812-11.743C515.546,280.854,514.675,284.783,514.978,288.683Z" transform="translate(-442.01 -259.119)"/><path d="M427.183,314.434c-.428-4.579-2.563-8.862-3.065-13.434a16.831,16.831,0,0,0-.111,2.526c.177,4.985,2.651,9.645,3.154,14.608A19.939,19.939,0,0,0,427.183,314.434Z" transform="translate(-418.239 -265.41)"/><path d="M518.715,339.294a31.667,31.667,0,0,0-.739,9.173,27.812,27.812,0,0,1,.739-5.325c1.189-4.734,3.833-9.143,4.047-14.032a15.214,15.214,0,0,0-.118-2.6C522.067,330.9,519.771,335,518.715,339.294Z" transform="translate(-442.793 -272.08)"/><path d="M429.678,344.36a19.2,19.2,0,0,1-10.9,4.431c-.842,1.315-1.713,2.6-2.578,3.87a19.2,19.2,0,0,0,13.478-4.468,101.917,101.917,0,0,1,4.3,27.658A102.147,102.147,0,0,0,429.678,344.36Z" transform="translate(-416.2 -276.747)"/><path d="M504.276,396.371c-.812,4.136-2.57,8.729-6.543,10.125a11.078,11.078,0,0,0-2.851,1.064c-1.824,1.285-1.7,3.944-2.09,6.145-.635,3.648-3.154,6.75-6.174,8.862a44.4,44.4,0,0,1-9.992,4.771l-13.811,5.17a19.058,19.058,0,0,1-.665,4.1l14.475-5.428a43,43,0,0,0,9.992-4.764c3.013-2.142,5.539-5.251,6.174-8.9.391-2.216.266-4.86,2.09-6.145a11.373,11.373,0,0,1,2.851-1.056c3.973-1.4,5.731-6,6.543-10.133a57.917,57.917,0,0,0,1.041-13.072A57.829,57.829,0,0,1,504.276,396.371Z" transform="translate(-428.214 -287.924)"/><path d="M447.4,415.491a4.882,4.882,0,0,0-1.573-1.174,5.281,5.281,0,0,0-1.987-.251h-6.034c-.236,1.285-.487,2.57-.739,3.848h6.8a5.171,5.171,0,0,1,1.987.251,4.86,4.86,0,0,1,1.573,1.167c4.653,4.638,8.176,10.886,8.781,17.3C456.959,428.962,452.985,421.075,447.4,415.491Z" transform="translate(-421.657 -294.97)"/></g><path d="M405.37,449.717s5.495-2.3,6.721,0S405.37,449.717,405.37,449.717Z" transform="translate(-391.434 -282.26)" opacity="0.1"/><path d="M408,455.067s5.495-2.3,6.728,0S408,455.067,408,455.067Z" transform="translate(-392.122 -283.659)" opacity="0.1"/></g><g transform="translate(529.87 6.346)"><path d="M860.239,51.667s-28.1-1.691-24.785,18a4.8,4.8,0,0,0,2.5,5.059s.052-1.477,2.88-.967a12.932,12.932,0,0,0,3.05.148,6.329,6.329,0,0,0,3.722-1.544h0S855.5,69.1,858.57,56.194c0,0,2.275-2.821,2.216-3.545l-4.741,2.031s1.617,3.419.34,6.263c0,0-.148-6.145-1.063-6-.185,0-2.459,1.182-2.459,1.182s2.784,5.96.679,10.3c0,0,.8-7.341-1.551-9.859l-3.353,1.987s3.257,6.152,1.049,11.174c0,0,.569-7.7-1.75-10.7l-3.028,2.356s3.065,6.034,1.219,10.2c0,0-.244-8.973-1.854-9.645,0,0-2.644,2.334-3.043,3.294,0,0,2.09,4.431.79,6.721,0,0-.8-5.967-1.477-6,0,0-2.637,3.959-2.91,6.647a14.409,14.409,0,0,1,2.267-7.053,7.879,7.879,0,0,0-4.032,2.1s.406-2.8,4.682-3.05c0,0,2.179-3,2.762-3.183,0,0-4.254-.354-6.832.79,0,0,2.267-2.644,7.614-1.477l2.954-2.437s-5.6-.739-7.976.081c0,0,2.733-2.334,8.781-.635l3.25-1.942s-4.771-1.034-7.614-.657c0,0,3-1.617,8.567.133l2.326-1.041s-3.5-.687-4.52-.8-1.078-.391-1.078-.391a12.083,12.083,0,0,1,6.566.739S860.32,51.977,860.239,51.667Z" transform="translate(-779.186 -35.7)" fill="#b5d653" opacity="0.1"/><path d="M809.954,30.06s-23.633,15.3-9.3,29.187a4.806,4.806,0,0,0,5.007,2.6s-.827-1.211,1.75-2.489a12.82,12.82,0,0,0,2.548-1.691,6.358,6.358,0,0,0,2.09-3.449h0s4.431-7.312-.739-19.527c0,0,.162-3.619-.34-4.151l-2.614,4.431s3.331,1.795,3.988,4.837c0,0-3.759-4.852-4.431-4.195-.133.133-1.285,2.415-1.285,2.415s5.783,3.146,6.647,7.88c0,0-3.693-6.388-7.1-7.016l-1.536,3.545s6.278,3.028,7.474,8.382c0,0-4.114-6.543-7.755-7.585l-1.034,3.693s6.056,3.072,7.023,7.533c0,0-5.509-7.075-7.208-6.647,0,0-.739,3.442-.5,4.431,0,0,4.3,2.3,4.623,4.948,0,0-4.18-4.335-4.719-3.973,0,0,.222,4.749,1.6,7.1a14.424,14.424,0,0,1-2.348-7.023,7.9,7.9,0,0,0-2.009,4.077s-1.329-2.5,1.972-5.229c0,0,0-3.693.332-4.2,0,0-3.634,2.216-5.037,4.682,0,0,.266-3.471,5.281-5.672l.96-3.73s-4.963,2.7-6.374,4.793c0,0,.82-3.5,6.691-5.716l1.477-3.493a30.054,30.054,0,0,0-6.529,3.988s1.477-3.087,6.987-4.97l1.256-2.216s-3.227,1.521-4.114,2.038-1.1.325-1.1.325a12.1,12.1,0,0,1,5.724-3.3S810.205,30.267,809.954,30.06Z" transform="translate(-768.952 -30.06)" fill="#b5d653" opacity="0.1"/><path d="M764.4,54.166s-14.128,24.372,4.948,30.228a4.762,4.762,0,0,0,5.642,0s-1.278-.694.436-3.006A12.931,12.931,0,0,0,776.9,78.73a6.381,6.381,0,0,0,.3-4.025h0s.628-8.523-9.527-17.068c0,0-1.477-3.294-2.216-3.538l-.318,5.17s3.781.089,5.753,2.5c0,0-5.554-2.622-5.834-1.743-.059.177-.052,2.733-.052,2.733s6.639.2,9.594,4.025c0,0-6.2-4.01-9.5-3.035l.236,3.855s6.964-.148,10.458,4.084c0,0-6.647-3.966-10.34-3.242l.739,3.759s6.795,0,9.675,3.53c0,0-8.124-3.811-9.446-2.681,0,0,.894,3.412,1.573,4.2,0,0,4.874.1,6.366,2.312,0,0-5.694-1.972-6.012-1.4,0,0,2.356,4.128,4.653,5.591a14.424,14.424,0,0,1-5.281-5.17,7.91,7.91,0,0,0,.059,4.542s-2.319-1.617-.62-5.554c0,0-1.7-3.294-1.6-3.892,0,0-2.216,3.641-2.363,6.455,0,0-1.344-3.213,2.127-7.444l-.835-3.767s-3.2,4.66-3.508,7.164c0,0-.857-3.493,3.375-8.124l-.281-3.774s-3.058,3.8-4,6.514c0,0-.1-3.412,3.966-7.6l.111-2.548s-2.216,2.814-2.74,3.693-.835.753-.835.753a12.157,12.157,0,0,1,3.6-5.546S764.708,54.233,764.4,54.166Z" transform="translate(-759.363 -36.346)" fill="#b5d653" opacity="0.1"/></g><path d="M919.49,401.01a10.568,10.568,0,1,0,10.568,10.568A10.568,10.568,0,0,0,919.49,401.01Zm-30.9-82.93v10.568h10.568l19.025,38.537-7.954,12.947a10.162,10.162,0,0,0-1.322,5.022c0,7.075,4.838,10.569,11.4,10.569H982.1V385.56H921.6a1.248,1.248,0,0,1-1.322-1.322,6.649,6.649,0,0,1,.561-1.315l5.281-8.338h39.371a10.339,10.339,0,0,0,9.246-5.546l19.032-32.725a6.137,6.137,0,0,0,.532-2.644,5.081,5.081,0,0,0-5.288-5.022H910.79l-5.022-10.568Zm82.93,82.93A10.568,10.568,0,1,0,982.1,411.581,10.568,10.568,0,0,0,971.52,401.01Z" transform="translate(-263.281 -99.02)" fill="#b5d653"/><path d="M932.042,333.072h-8.862V324.21h-6.647v8.862H907.67v6.647h8.862v8.862h6.647v-8.862h8.862Z" transform="translate(-237.325 -84.774)" fill="#fff"/></g></svg>