<?xml version="1.0" encoding="UTF-8" standalone="no"?>
<svg
   xmlns:dc="http://purl.org/dc/elements/1.1/"
   xmlns:cc="http://creativecommons.org/ns#"
   xmlns:rdf="http://www.w3.org/1999/02/22-rdf-syntax-ns#"
   xmlns:svg="http://www.w3.org/2000/svg"
   xmlns="http://www.w3.org/2000/svg"
   xmlns:sodipodi="http://sodipodi.sourceforge.net/DTD/sodipodi-0.dtd"
   xmlns:inkscape="http://www.inkscape.org/namespaces/inkscape"
   width="516.157"
   height="655.109"
   version="1.1"
   id="svg119"
   sodipodi:docname="step2-img.svg"
   inkscape:version="0.92.3 (2405546, 2018-03-11)">
  <metadata
     id="metadata123">
    <rdf:RDF>
      <cc:Work
         rdf:about="">
        <dc:format>image/svg+xml</dc:format>
        <dc:type
           rdf:resource="http://purl.org/dc/dcmitype/StillImage" />
      </cc:Work>
    </rdf:RDF>
  </metadata>
  <sodipodi:namedview
     pagecolor="#ffffff"
     bordercolor="#666666"
     borderopacity="1"
     objecttolerance="10"
     gridtolerance="10"
     guidetolerance="10"
     inkscape:pageopacity="0"
     inkscape:pageshadow="2"
     inkscape:window-width="1600"
     inkscape:window-height="847"
     id="namedview121"
     showgrid="false"
     inkscape:zoom="0.72049078"
     inkscape:cx="40.564102"
     inkscape:cy="382.10943"
     inkscape:window-x="1280"
     inkscape:window-y="24"
     inkscape:window-maximized="1"
     inkscape:current-layer="g117" />
  <defs
     id="defs7">
    <linearGradient
       id="a"
       x1=".5"
       x2="1.084"
       y2="2.184"
       gradientUnits="objectBoundingBox">
      <stop
         offset="0"
         stop-color="#e8f1ce"
         id="stop2" />
      <stop
         offset="1"
         stop-color="#b5d653"
         id="stop4" />
    </linearGradient>
  </defs>
  <path
     d="M390.528 4061.135s159.334-25.9 224.48 70.641c56.724 84.062-22.762 126.368-91.048 73s-125.583-54.942-177.386-35.321-88.693-77.709 43.954-108.32z"
     transform="translate(-299.357 -3573.326)"
     fill="url(#a)"
     id="path9" />
  <g
     transform="translate(20.496)"
     id="g117">
    <path
       d="M462.229 100.945l-47.433-14.341-2.917 64.864 49.918 15.046zM128.337 0v66l283.542 85.468 2.917-64.868z"
       fill="#f5f5f5"
       id="path11" />
    <path
       d="M462.229 100.945l-47.433-14.341-2.917 64.864 49.918 15.046z"
       opacity=".1"
       id="path13" />
    <path
       d="M462.229 225.183l-47.433-14.341-2.917 64.864 49.919 15.048z"
       fill="#3ad29f"
       id="path15" />
    <path
       d="M128.337 124.239v66l283.542 85.468 2.917-64.864z"
       fill="#3ad29f"
       id="path17" />
    <path
       d="M462.229 225.183l-47.433-14.341-2.917 64.864 49.919 15.048z"
       opacity=".1"
       id="path19" />
    <path
       d="M426.855 248.046l7.765 11.647 15.53-19.412"
       fill="none"
       stroke="#fff"
       stroke-linecap="round"
       stroke-miterlimit="10"
       stroke-width="7"
       id="path21" />
    <g
       opacity=".4"
       fill="none"
       stroke="#fff"
       stroke-linecap="round"
       stroke-miterlimit="10"
       stroke-width="7"
       id="g25">
      <path
         d="M427.287 112.16l15.53 27.177M446.699 116.042l-19.412 19.412"
         id="path23" />
    </g>
    <path
       d="M462.229 341.657l-47.433-14.34-2.917 64.864 49.918 15.046zM128.337 240.713v66l283.542 85.468 2.917-64.864z"
       fill="#f5f5f5"
       id="path27" />
    <path
       d="M462.229 341.657l-47.433-14.34-2.917 64.864 49.918 15.046z"
       opacity=".1"
       id="path29" />
    <g
       opacity=".4"
       fill="none"
       stroke="#fff"
       stroke-linecap="round"
       stroke-miterlimit="10"
       stroke-width="7"
       id="g33">
      <path
         d="M427.287 352.874l15.53 27.177M446.699 356.756l-19.412 19.412"
         id="path31" />
    </g>
    <ellipse
       cx="9.706"
       cy="19.412"
       rx="9.706"
       ry="19.412"
       transform="translate(314.695 193.692)"
       opacity=".3"
       id="ellipse35" />
    <ellipse
       cx="81.532"
       cy="163.064"
       rx="81.532"
       ry="163.064"
       transform="translate(242.869 50.04)"
       fill="#b5d653"
       opacity=".1"
       id="ellipse37" />
    <ellipse
       cx="44.648"
       cy="89.297"
       rx="44.648"
       ry="89.297"
       transform="translate(279.753 123.807)"
       fill="#fff"
       opacity=".1"
       id="ellipse39" />
    <g
       opacity=".5"
       fill="#47e6b1"
       id="g45">
      <path
         d="M3.019 96.414h1.294v7.334H3.019z"
         id="path41" />
      <path
         d="M7.334 99.434v1.294H0v-1.294z"
         id="path43" />
    </g>
    <g
       opacity=".5"
       fill="#47e6b1"
       id="g51">
      <path
         d="M461.965 453.955h1.294v7.334h-1.294z"
         id="path47" />
      <path
         d="M466.28 456.975v1.294h-7.334v-1.294z"
         id="path49" />
    </g>
    <g
       opacity=".5"
       fill="#47e6b1"
       id="g57">
      <path
         d="M430.091 298.303h1.294v7.334h-1.294z"
         id="path53" />
      <path
         d="M434.405 301.323v1.294h-7.334v-1.294z"
         id="path55" />
    </g>
    <g
       opacity=".5"
       fill="#47e6b1"
       id="g63">
      <path
         d="M374.874 447.562h1.294v7.334h-1.294z"
         id="path59" />
      <path
         d="M379.188 450.582v1.294h-7.334v-1.294z"
         id="path61" />
    </g>
    <g
       opacity=".5"
       fill="#47e6b1"
       id="g69">
      <path
         d="M336.049 541.172h1.294v7.334h-1.294z"
         id="path65" />
      <path
         d="M340.363 544.192v1.294h-7.334v-1.294z"
         id="path67" />
    </g>
    <g
       opacity=".5"
       fill="#47e6b1"
       id="g75">
      <path
         d="M58.237 209.869h1.294v7.334h-1.294z"
         id="path71" />
      <path
         d="M62.551 212.889v1.294h-7.334v-1.294z"
         id="path73" />
    </g>
    <path
       d="M78.382 95.684a1.585 1.585 0 01-.883-1.916.765.765 0 00.034-.176.795.795 0 00-1.428-.527.76.76 0 00-.088.156 1.585 1.585 0 01-1.916.883.761.761 0 00-.176-.034.795.795 0 00-.527 1.428.764.764 0 00.156.088 1.585 1.585 0 01.883 1.916.761.761 0 00-.035.176.795.795 0 001.428.527.764.764 0 00.088-.156 1.585 1.585 0 011.916-.883.761.761 0 00.176.034.795.795 0 00.527-1.428.76.76 0 00-.155-.088zM369.649 30.826a1.585 1.585 0 01-.883-1.916.761.761 0 00.035-.176.795.795 0 00-1.428-.527.765.765 0 00-.088.156 1.585 1.585 0 01-1.916.883.76.76 0 00-.176-.034.795.795 0 00-.527 1.428.76.76 0 00.156.088 1.585 1.585 0 01.883 1.916.767.767 0 00-.035.176.795.795 0 001.428.527.759.759 0 00.088-.156 1.585 1.585 0 011.916-.883.763.763 0 00.176.035.795.795 0 00.527-1.428.759.759 0 00-.156-.089zM11.6 261.617a1.585 1.585 0 01-.883-1.916.76.76 0 00.034-.176.795.795 0 00-1.428-.527.761.761 0 00-.088.156 1.585 1.585 0 01-1.916.883.764.764 0 00-.176-.034.795.795 0 00-.527 1.428.76.76 0 00.156.088 1.585 1.585 0 01.883 1.916.765.765 0 00-.034.176.795.795 0 001.428.527.761.761 0 00.088-.156 1.585 1.585 0 011.916-.883.761.761 0 00.176.034.795.795 0 00.527-1.428.762.762 0 00-.156-.088zM23.247 424.68a1.585 1.585 0 01-.883-1.916.762.762 0 00.034-.176.795.795 0 00-1.428-.527.762.762 0 00-.088.156 1.585 1.585 0 01-1.916.883.763.763 0 00-.176-.034.795.795 0 00-.527 1.428.762.762 0 00.156.088 1.585 1.585 0 01.883 1.916.762.762 0 00-.035.176.795.795 0 001.428.527.761.761 0 00.088-.156 1.585 1.585 0 011.916-.883.763.763 0 00.176.034.795.795 0 00.527-1.428.758.758 0 00-.155-.088z"
       fill="#4d8af0"
       opacity=".5"
       id="path77" />
    <circle
       cx="2.588"
       cy="2.588"
       r="2.588"
       transform="translate(214.829 114.964)"
       fill="#f55f44"
       opacity=".5"
       id="circle79" />
    <circle
       cx="2.588"
       cy="2.588"
       r="2.588"
       transform="translate(284.714 452.738)"
       fill="#4d8af0"
       opacity=".5"
       id="circle81" />
    <circle
       cx="2.588"
       cy="2.588"
       r="2.588"
       transform="translate(443.895 184.849)"
       fill="#4d8af0"
       opacity=".5"
       id="circle83" />
    <circle
       cx="2.588"
       cy="2.588"
       r="2.588"
       transform="translate(490.485 301.322)"
       fill="#47e6b1"
       opacity=".5"
       id="circle85" />
    <circle
       cx="2.588"
       cy="2.588"
       r="2.588"
       transform="translate(317.068 7.549)"
       fill="#f55f44"
       opacity=".5"
       id="circle87" />
    <path
       fill="#b5d653"
       d="M207.31 146.4l-19.43-.754.97-24.98 19.429.754z"
       id="path89" />
    <path
       d="M276.498 208.154s26.906-12.856 26.476-1.753-27.122 18.407-27.122 18.407z"
       fill="#ffb9b9"
       id="path91"
       style="fill:#784421" />
    <path
       d="M261.733 302.093s12.694 31.07 17.384 53.49 11.833 53.275 2.645 75.157-35.31 86.192-35.579 93.133 2.237 13.986-3.314 13.77-35.76-9.726-36.986-13.943 10.307-14.889 10.307-14.889l28.479-89.238-29.714-58.141-21.432 86.732-4.2 108.248s-20.6-6.358-23.593-.915c0 0-9.23-12.867-10.4-18.472s4.359-112.412 4.359-112.412-18.911-121.654-3.645-121.062 75.061-36.003 105.689-1.458z"
       fill="#b5d653"
       id="path93" />
    <path
       d="M243.084 532.093s14.082 31.124 15.416 32.565 10.51 15.7 3.571 15.427-23.324-7.854-35.383-19.441-27.96-31.662-26.518-33 11.318-5.121 11.318-5.121zM186.82 549.367s.85 13.932 3.41 19.591 2.237 13.986-4.7 13.717-24.873-3.744-24.873-3.744-1.065-8.381.377-9.715 7.585-16.385 4.971-20.656 20.815.807 20.815.807z"
       fill="#575a89"
       id="path95"
       style="fill:#2e3049;fill-opacity:1" />
    <path
       d="M176.554 97.256s-14.793 23.055-20.559 28.391 10.457 17.084 10.457 17.084l29.036 3.906s-.365-26.422 1.13-29.144-20.064-20.237-20.064-20.237z"
       fill="#ffb9b9"
       id="path97"
       style="fill:#6e3e1e;fill-opacity:1" />
    <path
       d="M201.793 127.423s-5.982 10.887-11.533 10.672-34.267-12.448-35.493-16.665-9.511 30.209-9.511 30.209l70.259 123.645 17.138-11.844-8.3-72.6-6.82-39.181z"
       fill="#b5d653"
       id="path99" />
    <path
       d="M152.177 238.08c2.8 5.863 4.553 11.977 4.31 18.236-.011.278-.022.555-.046.832-.665 12.845-5.4 27.7-7.094 38.5-1.232 7.75-.881 13.406 3.654 14.736 10.995 3.206-1.6 5.5 40.934 19.656s49.961 1.937 50.069-.838-6.024-23.862-4.583-25.2 20.171 17.461 25.83 14.9.646-16.654.646-16.654-12.748-29.682-12.479-36.621-19.31-39.666-19.31-39.666l-13.317-86.689s-5.121-11.318-12.006-12.975a17.056 17.056 0 00-12.6 2.291l11.522 25.465 12.156 44.948-2.034 16.6s-14.136-29.736-23.42-41.215-29.079-38.655-29.079-38.655-4.621-15.593-1.133-20.253-14.545-5.365-22.245 13.795c-4.077 10.154-10.7 25.3-14.843 39.4-3.7 12.491-5.44 24.168-1.78 30.842 5.598 10.194 19.672 23.596 26.848 38.565z"
       fill="#575a89"
       id="path101"
       style="fill:#2e3049;fill-opacity:1" />
    <path
       d="M125.332 199.512c5.6 10.2 19.669 23.6 26.844 38.568 1.874-6.752 4.16-13.738 4.16-13.738s8.769-46.916-17.169-59.041a17.359 17.359 0 00-12.056 3.369c-3.694 12.491-5.44 24.167-1.779 30.842z"
       opacity=".1"
       id="path103" />
    <path
       d="M228.299 196.555l21.99 6.412 30.532 1.184 3.141 26.53-50.176 3.614s-12.535-35.234-5.487-37.74z"
       fill="#575a89"
       id="path105"
       style="fill:#2e3049;fill-opacity:1" />
    <path
       d="M192.442 285.757s29.418 4.881 22.7 13.733-32.775-.454-32.775-.454z"
       fill="#ffb9b9"
       id="path107"
       style="fill:#784421" />
    <path
       d="M156.44 257.148c-.665 12.845-5.4 27.7-7.094 38.5 9.371 8.87 18.283 16.693 21.641 16.823 6.939.269 18.1-.688 22.2.861s6.52-24.765 6.52-24.765-2.453-8.434-13.394-13.028c-7.379-3.105-21.535-11.535-29.873-18.391z"
       opacity=".1"
       id="path109" />
    <path
       d="M139.49 156.975s-23.485-3.691-22.216 35.276-2.476 63.839 6.97 71.155 40.127 40.473 47.066 40.742 18.1-.688 22.2.861 6.52-24.765 6.52-24.765-2.453-8.434-13.394-13.028-36.717-20.882-36.5-26.434 6.52-24.765 6.52-24.765 8.772-46.918-17.166-59.042z"
       fill="#575a89"
       id="path111"
       style="fill:#2e3049;fill-opacity:1" />
    <circle
       cx="30.555"
       cy="30.555"
       r="30.555"
       transform="translate(166.708 70.285)"
       fill="#ffb9b9"
       id="circle113"
       style="fill:#784421" />
    <path
       d="M217.836 57.046a5.9 5.9 0 002.569 1.289 1.833 1.833 0 002.124-1.472c.7 1.45 1.488 2.995 2.915 3.739s3.634.12 3.84-1.476a6.736 6.736 0 001.55 3.273 2.322 2.322 0 003.265.109c-.625 3.416-.239 6.929-.436 10.4s-1.121 7.143-3.74 9.422c-3.82 3.325-9.565 2.5-14.59 1.874a4.428 4.428 0 00-2.286.125c-1.881.8-1.8 3.421-1.821 5.466a15.187 15.187 0 01-13.3 14.422 7.613 7.613 0 01-5.658-1.381c-1.427-1.209-2.155-3.18-3.79-4.089-2.659-1.478-5.885.677-7.829 3.017s-3.861 5.218-6.872 5.647c-3.984.566-7.018-3.493-8.506-7.231a42.156 42.156 0 01.838-32.755c8.322-18.136 36.732-21.004 51.727-10.379z"
       fill="#2f2e41"
       id="path115"
       style="fill:#110f18;fill-opacity:1" />
  </g>
</svg>
